<?xml version="1.0" encoding="utf-8"?>
<!-- Generator: Adobe Illustrator 16.0.0, SVG Export Plug-In . SVG Version: 6.00 Build 0)  -->
<!DOCTYPE svg PUBLIC "-//W3C//DTD SVG 1.1//EN" "http://www.w3.org/Graphics/SVG/1.1/DTD/svg11.dtd">
<svg version="1.1" id="Layer_1" xmlns="http://www.w3.org/2000/svg" xmlns:xlink="http://www.w3.org/1999/xlink" x="0px" y="0px"
	 width="461px" height="526px" viewBox="0 0 461 526" enable-background="new 0 0 461 526" xml:space="preserve">
<g>
	<defs>
		<rect id="SVGID_1_" width="461" height="526"/>
	</defs>
	<clipPath id="SVGID_2_">
		<use xlink:href="#SVGID_1_"  overflow="visible"/>
	</clipPath>
	<g clip-path="url(#SVGID_2_)">
		
			<path fill="none" stroke="#111111" stroke-width="0.75" stroke-linecap="round" stroke-linejoin="round" stroke-miterlimit="10" d="
			M266.264,52.948c6.686,0,12.104-5.146,12.104-11.495c0-6.349-5.419-11.496-12.104-11.496c-6.685,0-12.104,5.146-12.104,11.496
			C254.16,47.802,259.579,52.948,266.264,52.948z"/>
		
			<path fill="#111111" stroke="#000000" stroke-width="0.75" stroke-linecap="round" stroke-linejoin="round" stroke-miterlimit="10" d="
			M266.264,49.639c4.762,0,8.621-3.665,8.621-8.186s-3.859-8.186-8.621-8.186c-4.761,0-8.621,3.665-8.621,8.186
			S261.503,49.639,266.264,49.639z"/>
		
			<path fill="none" stroke="#111111" stroke-width="0.75" stroke-linecap="round" stroke-linejoin="round" stroke-miterlimit="10" d="
			M287.6,73.414c0.348-1.394,0.609-3.222,0.609-5.399c0-2.525-0.436-4.616-0.958-6.183"/>
		
			<path fill="none" stroke="#111111" stroke-width="0.75" stroke-linecap="round" stroke-linejoin="round" stroke-miterlimit="10" d="
			M223.159,70.018c1.219-1.394,3.135-3.832,4.093-7.142c2.438-8.099-2.7-12.279-0.088-20.03c0.523-1.567,2.613-6.706,7.577-8.708
			c2.524-1.045,5.137-0.697,7.227-0.436c0.523,0.087,5.835,0.61,6.009,2.003c0.088,0.697-1.219,1.393-2.09,1.654
			c-2.611,0.958-4.354-0.348-6.791-0.174c-1.568,0.087-3.658,0.784-6.097,3.396"/>
		
			<path fill="none" stroke="#111111" stroke-width="0.75" stroke-linecap="round" stroke-linejoin="round" stroke-miterlimit="10" d="
			M245.016,37.447c1.045,0.436,1.83,1.045,1.83,1.742c0,0.958-1.482,1.655-2.525,1.829c-0.176,0-0.437,0-0.871,0
			c-1.307,0-2.352-0.087-2.526-0.174c-0.087,0-2.612-0.261-4.614,0.871c-1.83,1.132-2.438,3.135-2.613,3.919"/>
		
			<path fill="none" stroke="#111111" stroke-width="0.75" stroke-linecap="round" stroke-linejoin="round" stroke-miterlimit="10" d="
			M243.449,41.018c0.695,0,1.306,0.348,1.566,0.871c0.437,0.871-0.174,1.742-0.174,1.742c-0.435,0.609-1.132,0.784-2.264,0.958
			c-2.438,0.349-3.396-0.261-4.528,0.349c-0.437,0.261-0.958,0.697-1.307,1.567c-0.175,1.916-0.349,3.745-0.609,5.661"/>
		
			<path fill="none" stroke="#111111" stroke-width="0.75" stroke-linecap="round" stroke-linejoin="round" stroke-miterlimit="10" d="
			M245.104,58.261c-0.871,0.609-2.265,1.655-3.832,2.961c-2.525,2.177-2.265,2.352-4.267,4.093
			c-2.787,2.438-4.006,2.613-7.664,5.748c-0.696,0.609-1.219,1.045-1.567,1.394"/>
		
			<path fill="none" stroke="#111111" stroke-width="0.75" stroke-linecap="round" stroke-linejoin="round" stroke-miterlimit="10" d="
			M228.993,39.102c0.697-2.787,1.306-5.138,1.742-6.792c1.48-5.399,1.306-4.18,2.787-9.231c1.131-4.181,1.567-6.096,2.438-6.184
			c0.783-0.087,1.567,1.22,1.828,2.003c1.045,2.526-0.349,4.529-1.394,8.709c-0.348,1.306-0.783,3.309-0.957,5.834"/>
		<path fill="#FFFFFF" d="M247.193,24.21c0.609-1.132,0.348-1.742,0.261-2.003c-0.783-1.654-4.789-1.916-5.834-0.348
			c-0.435,0.609-0.261,1.48-0.087,1.916"/>
		
			<path fill="none" stroke="#111111" stroke-width="0.75" stroke-linecap="round" stroke-linejoin="round" stroke-miterlimit="10" d="
			M247.193,24.21c0.609-1.132,0.348-1.742,0.261-2.003c-0.783-1.654-4.789-1.916-5.834-0.348c-0.435,0.609-0.261,1.48-0.087,1.916"
			/>
		
			<path fill="none" stroke="#111111" stroke-width="0.75" stroke-linecap="round" stroke-linejoin="round" stroke-miterlimit="10" d="
			M273.927,463.385c-4.006-0.871-8.011-1.829-11.93-2.699"/>
		
			<path fill="none" stroke="#111111" stroke-width="0.75" stroke-linecap="round" stroke-linejoin="round" stroke-miterlimit="10" d="
			M274.363,455.025c-3.483-0.176-7.055-0.437-10.537-0.61"/>
		
			<path fill="none" stroke="#111111" stroke-width="0.75" stroke-linecap="round" stroke-linejoin="round" stroke-miterlimit="10" d="
			M211.751,463.82c-1.916-0.087-3.744-0.174-5.66-0.262"/>
		
			<path fill="none" stroke="#111111" stroke-width="0.75" stroke-linecap="round" stroke-linejoin="round" stroke-miterlimit="10" d="
			M214.102,455.112c-3.57,0.608-7.141,1.219-10.711,1.829"/>
		
			<path fill="none" stroke="#111111" stroke-width="0.75" stroke-linecap="round" stroke-linejoin="round" stroke-miterlimit="10" d="
			M199.385,271.273c2.09-0.871,5.138-2.612,8.012-5.748c5.573-6.271,5.921-13.672,5.921-15.937"/>
		
			<path fill="none" stroke="#111111" stroke-width="0.75" stroke-linecap="round" stroke-linejoin="round" stroke-miterlimit="10" d="
			M247.454,108.771c-1.915-1.22-6.356-4.529-8.97-10.538c-3.047-6.967-1.654-13.237-1.131-15.24"/>
		
			<path fill="none" stroke="#111111" stroke-width="0.75" stroke-linecap="round" stroke-linejoin="round" stroke-miterlimit="10" d="
			M222.897,76.984c0.697,0.784,6.445,6.88,13.934,6.096c4.092-0.436,6.879-2.787,8.708-4.18c1.393-1.132,2.699-2.438,7.314-10.015
			c2.438-4.006,4.18-7.054,5.399-9.492"/>
		
			<path fill="none" stroke="#111111" stroke-width="0.75" stroke-linecap="round" stroke-linejoin="round" stroke-miterlimit="10" d="
			M212.622,48.942c-2.874-0.871-5.399-0.087-6.183,1.829c-1.045,2.7,1.916,6.619,3.745,8.36c1.567,1.48,3.134,2.003,4.092,2.264
			c0.784,2.613,2.003,6.096,4.093,9.754c1.655,2.961,3.483,5.312,4.964,6.967"/>
		
			<path fill="none" stroke="#111111" stroke-width="0.75" stroke-linecap="round" stroke-linejoin="round" stroke-miterlimit="10" d="
			M213.928,57.563c-0.697-0.958-1.393-2.09-1.132-2.961c0.348-1.219,2.177-1.132,2.09-1.654c0-0.871-5.312-2.787-6.009-1.219
			c-0.522,1.219,1.742,3.832,2.352,4.441"/>
		
			<path fill="none" stroke="#111111" stroke-width="0.75" stroke-linecap="round" stroke-linejoin="round" stroke-miterlimit="10" d="
			M245.277,71.846c-0.957,0.348-3.57,1.219-6.879,0.522c-3.135-0.697-5.139-2.438-5.836-3.135"/>
		
			<path fill="none" stroke="#111111" stroke-width="0.75" stroke-linecap="round" stroke-linejoin="round" stroke-miterlimit="10" d="
			M240.923,62.354c2.526,0.174,4.267-0.522,4.442-1.394c0-0.087,0.087-0.696-0.958-1.567"/>
		
			<path fill="none" stroke="#111111" stroke-width="0.75" stroke-linecap="round" stroke-linejoin="round" stroke-miterlimit="10" d="
			M254.77,27.781c0.957,1.045,0.262,3.222-1.133,3.57c-0.783,0.174-1.654-0.174-2.177-0.784c-0.784-0.958-0.608-2.525,0.61-3.222
			C252.854,26.823,254.16,27.084,254.77,27.781z"/>
		
			<path fill="none" stroke="#111111" stroke-width="0.75" stroke-linecap="round" stroke-linejoin="round" stroke-miterlimit="10" d="
			M276.714,53.296c-1.481,1.045-4.614,2.874-8.97,3.222c-8.359,0.61-14.107-4.964-14.891-5.748"/>
		
			<path fill="none" stroke="#111111" stroke-width="0.75" stroke-linecap="round" stroke-linejoin="round" stroke-miterlimit="10" d="
			M289.08,28.129c0.261-1.48,0.521-2.874,0.783-4.354"/>
		
			<path fill="none" stroke="#111111" stroke-width="0.75" stroke-linecap="round" stroke-linejoin="round" stroke-miterlimit="10" d="
			M286.555,27.693c0.174-1.568,0.436-3.048,0.609-4.616"/>
		
			<path fill="none" stroke="#111111" stroke-width="0.75" stroke-linecap="round" stroke-linejoin="round" stroke-miterlimit="10" d="
			M279.936,491.166c-0.696,0.435-5.485,3.57-5.922,9.231c-0.174,2.438,0.523,4.44,1.045,5.572"/>
		<path fill="#FFF10E" d="M277.846,469.568c-0.174,0.696-0.261,1.48-0.348,2.352c-0.174,2.177,0.087,4.006,0.348,5.399
			c-0.348,0-0.697,0.087-1.045,0.087s-0.435,0-0.521,0.087c-0.35,0.087-0.959,0.174-1.307,0.522
			c-0.262,0.349-0.175,0.696-0.262,1.045c-0.348,1.046-2.264,0.696-3.57,1.654c-1.654,1.132-0.522,3.135-2.09,5.051
			c-1.132,1.481-3.222,2.178-5.138,1.742c-2.265-0.609-4.006-2.961-4.267-5.922c0.086-0.871,0.174-1.829,0.174-2.787
			c0.174-3.048,0.087-5.921-0.088-8.534c2.438,0.61,5.748,1.133,9.754,0.958C272.882,470.875,275.756,470.265,277.846,469.568z"/>
		<path fill="#FFF10E" d="M218.718,472.529c0.435,3.135,0.783,6.27,1.219,9.493c-0.261,0-1.829-0.263-3.222,0.958
			c-1.306,1.132-1.306,2.785-1.306,2.96c0,0.696-0.088,2.525-1.307,4.006c-1.306,1.567-3.048,1.916-4.876,2.265
			c-1.916,0.348-4.79,0.958-6.967-0.784c-1.045-0.784-1.48-1.829-1.741-2.525c0.087-1.045,0.261-2.438,0.348-4.007
			c0,0,0.087-1.393,0.174-2.785c0.261-4.007,0.174-8.971,0.174-10.016c1.481,0.871,4.877,2.525,9.492,2.352
			C214.364,474.532,217.237,473.313,218.718,472.529z"/>
		<path fill="#111111" d="M296.482,87.086c2.264,27.084,4.092,49.03-8.1,58.174c-2.961,2.264-8.795,5.225-20.029,4.267
			c0.174,1.219,0.523,3.832,1.133,7.228c7.925,47.81,23.599,71.846,11.582,84.996c-0.61,0.697-2.004,2.09-4.268,3.396
			c0.088,1.742,0.174,3.397,0.262,5.138c-3.918,0.958-9.666,2.09-16.72,2.7c-10.188,0.871-17.155-0.087-31.785-1.567
			c-6.88-0.697-17.329-1.742-30.305-2.874c-0.435-1.307-0.958-2.7-1.393-4.006c-0.958-0.784-2.351-2.003-3.57-3.745
			c-7.663-10.712-0.436-26.387,3.135-36.576c3.918-11.234,7.576-27.955,5.573-51.12c-0.61,0.784-3.832,4.964-8.882,5.225
			c-6.967,0.436-11.234-6.705-11.756-7.576c-3.048-5.312-2.09-11.408,1.132-20.901c9.317-27.519,24.644-45.545,27.866-49.203
			c5.225-6.009,9.927-10.625,12.975-13.411c0.261-0.087,2.003-0.784,3.744,0.087c1.568,0.697,2.526,2.264,2.439,4.006
			c-1.742,3.571-3.396,7.315-5.051,11.147c-2.351,5.399-4.441,10.711-6.27,15.85c4.093,1.48,9.927,2.961,16.72,1.829
			c1.394-0.261,1.306-0.348,2.351-0.522c10.885-1.829,22.293,6.879,29.435,12.454c5.312,4.18,5.573,5.747,7.227,5.66
			c3.745-0.261,8.709-7.837,12.802-43.63c0.436-0.261,1.916-1.307,4.18-1.219c2.525,0.174,4.006,1.654,4.354,1.916
			C295.523,77.594,296.046,81.948,296.482,87.086z"/>
		
			<path fill="none" stroke="#111111" stroke-width="0.75" stroke-linecap="round" stroke-linejoin="round" stroke-miterlimit="10" d="
			M273.927,240.967c2.787,21.423,4.354,39.363,5.399,52.252c1.22,15.588,4.877,66.969,2.003,136.028
			c-0.435,10.276-0.871,18.724-1.22,24.471c1.742,2.003,3.57,3.919,5.313,5.922c-1.742,0.262-3.57,0.523-5.313,0.784
			c0.959,1.916,1.83,3.832,2.787,5.661c-0.783,0.958-1.567,1.916-2.438,2.873c-2.699,0.958-6.531,1.916-11.233,2.091
			c-5.398,0.174-9.84-0.784-12.714-1.655c-1.306-1.567-2.612-3.135-4.006-4.702c1.655-1.133,3.31-2.265,4.964-3.396
			c-1.828-1.306-3.658-2.526-5.572-3.832c1.131-1.479,2.264-2.961,3.396-4.44c-3.919-110.514-8.97-165.813-15.065-165.899
			c-6.183-0.087-13.411,56.344-21.684,169.295c2.177,1.655,4.442,3.309,6.619,4.964c-2.09,1.48-4.267,3.048-6.357,4.528
			c1.132,1.567,2.264,3.136,3.396,4.703c-1.394,1.045-4.964,3.483-10.102,3.745c-6.182,0.348-10.537-2.439-11.843-3.31
			c0.174-2.265,0.349-4.616,0.523-6.88c-1.742-0.958-3.484-1.916-5.138-2.787c0.958-2.525,1.829-5.051,2.786-7.577
			c-1.48-1.132-2.96-2.264-4.441-3.396c0.958-1.219,1.916-2.352,2.874-3.57c0.784-69.495,1.567-138.989,2.264-208.485
			C224.03,239.225,248.936,240.096,273.927,240.967z"/>
		
			<path fill="none" stroke="#111111" stroke-width="0.75" stroke-linecap="round" stroke-linejoin="round" stroke-miterlimit="10" d="
			M238.225,33.354c0.348-3.222,0.696-6.357,1.045-9.58c19.244,1.219,38.489,2.438,57.734,3.658
			c-0.261,2.003-0.521,4.006-0.783,5.922"/>
		
			<path fill="none" stroke="#111111" stroke-width="0.75" stroke-linecap="round" stroke-linejoin="round" stroke-miterlimit="10" d="
			M294.479,45.023c-0.696,5.748-1.394,11.495-2.09,17.243c-18.896-1.568-37.881-3.222-56.777-4.79
			c0.349-3.657,0.783-7.228,1.132-10.886"/>
		
			<path fill="none" stroke="#111111" stroke-width="0.75" stroke-linecap="round" stroke-linejoin="round" stroke-miterlimit="10" d="
			M290.299,76.81c3.396-3.483,5.747-6.792,7.314-9.231c4.006-6.444,5.4-11.669,6.443-16.024c1.045-4.441,1.045-6.444,0.784-8.012
			c-0.348-2.352-0.87-5.661-4.267-8.099c-3.57-2.525-9.057-3.396-10.014-2.525c-0.523,0.522,0.086,1.742,1.045,2.351
			c0.871,0.522,1.653,0.61,2.611,0.784c3.309,0.61,5.313,3.571,5.399,3.745c1.132,1.741,1.219,3.57,1.132,4.79"/>
		
			<path fill="none" stroke="#111111" stroke-width="0.75" stroke-linecap="round" stroke-linejoin="round" stroke-miterlimit="10" d="
			M292.127,35.531c-1.393-0.087-2.525,0.348-2.699,0.958c-0.261,0.871,1.307,1.916,1.567,2.003c1.045,0.696,2.09,0.784,2.526,0.871
			c1.306,0.261,2.961,1.655,4.44,6.88"/>
		
			<path fill="none" stroke="#111111" stroke-width="0.75" stroke-linecap="round" stroke-linejoin="round" stroke-miterlimit="10" d="
			M292.563,39.276c-1.654-0.697-3.222-0.436-3.658,0.348c-0.434,0.784,0.523,2.264,1.568,2.874c0.609,0.348,0.959,0.261,1.741,0.609
			c1.132,0.436,1.829,1.306,2.265,1.916"/>
		
			<path fill="none" stroke="#111111" stroke-width="0.75" stroke-linecap="round" stroke-linejoin="round" stroke-miterlimit="10" d="
			M296.917,28.129c0.174-0.261,1.479-1.742,2.265-1.48c0.522,0.174,0.609,1.219,0.609,2.961c0.087,1.916-0.174,2.09-0.087,2.874
			c0.261,2.264,2.612,2.787,4.005,4.876c0.871,1.219,1.568,3.135,0.958,6.532"/>
		<path fill="#111111" d="M217.76,70.104c-0.436,0.174-1.829,0.697-3.396,0.174c-1.307-0.436-2.787-1.568-2.7-2.7
			c0.087-1.132,1.567-1.307,1.567-2.09c0-1.219-3.657-1.219-6.356-3.483c-2.526-2.09-2.874-5.312-3.31-8.97
			c-0.522-4.18,0.523-4.267-0.261-7.664c-0.871-4.006-2.612-4.703-2.264-7.402c0.261-2.787,2.09-2.787,2.351-5.574
			c0.349-3.396-2.351-4.615-1.567-7.141c0.609-2.09,2.612-1.654,4.528-4.18c2.612-3.484,0.174-6.184,2.787-9.318
			c1.132-1.394,2.786-2.09,6.095-3.658c2.874-1.306,3.745-1.306,5.312-2.613c2.177-1.742,2.003-2.961,3.571-3.396
			c2.09-0.61,3.048,1.48,5.747,1.654c4.006,0.261,5.4-4.18,8.882-3.832c2.787,0.261,2.525,2.961,6.009,4.267
			c4.528,1.655,7.837-1.742,10.624,0.261c1.916,1.307,0.784,3.135,2.961,5.051c1.916,1.654,3.223,0.784,6.618,2.351
			c0.261,0.174,5.66,2.7,5.399,5.138c-0.174,1.567-2.875,2.264-2.612,3.309c0.261,0.958,2.698,0.784,3.047,1.829
			c0.263,0.784-0.783,1.916-2.612,3.222c-9.318-0.61-18.635-1.219-27.953-1.742c-0.349,3.135-0.697,6.183-0.957,9.318
			c-1.22,0.087-2.525,0.261-3.746,0.348c0.088-2.438,0.523-4.267,0.871-5.574c0.523-1.654,1.307-3.222,1.655-5.748
			c0-0.087,0.261-1.567-0.261-3.135c-0.176-0.522-0.436-1.045-0.871-1.48c-0.262-0.261-0.697-0.522-0.958-0.522
			c-0.696,0-1.655,1.829-3.222,9.231c-0.784,2.438-1.568,4.964-2.351,7.402c-0.349,0-0.871,0.087-1.394,0.435
			c-1.132,0.697-0.871,1.829-1.741,2.526c-1.307,1.045-2.613,0.087-3.484,0.958c-0.696,0.783,0.175,1.829,0,4.702
			c-0.087,1.394-0.174,2.177-0.783,2.787c-0.958,1.045-2.439,0-3.484,0.871c-1.132,0.958,0,2.613-0.696,5.922
			c-0.349,1.655-1.132,3.309-1.655,3.309c-0.609-0.087-0.087-2.177-1.654-3.918c-0.958-1.132-2.265-1.48-2.874-1.742
			c-0.348-0.087-3.745-1.132-5.312,0.436c-0.958,1.045-0.871,2.874-0.348,4.18c1.654,3.919,8.098,5.835,7.75,7.315
			c0,0.087-0.087,0.348-0.087,0.784c0,0.697,0.348,1.219,0.435,1.48c0.174,0.522,0.436,1.306,0.871,2.525
			C216.628,67.753,217.237,69.146,217.76,70.104z"/>
		
			<path fill="none" stroke="#111111" stroke-width="0.75" stroke-linecap="round" stroke-linejoin="round" stroke-miterlimit="10" d="
			M215.844,486.463c-0.174-0.697-0.349-1.916,0.348-2.874c0.697-1.045,2.177-1.306,4.964-1.654c2.525-0.349,3.831-0.522,4.615,0.175
			c0.958,0.783,0.697,1.916,1.132,3.569c0.261,0.958,0.784,1.916,6.009,6.445c3.482,3.048,4.615,3.832,6.184,5.399
			c0.174,0.174,1.393,1.48,2.785,2.874c0.784,0.87,0.958,0.958,0.958,0.958c3.396,3.135,7.576,4.44,12.888,5.922
			c4.181,1.219,6.793,1.566,7.926,3.744c0.521,1.045,0.521,2.091,0.435,2.786c-0.435-0.695-0.871-1.306-1.219-2.003
			c-2.438,0.087-4.877,0.174-7.228,0.262c-0.262,1.654-0.522,3.223-0.785,4.877c-4.875,1.567-8.969,2.525-12.017,3.135
			c-8.011,1.655-12.714,2.613-18.897,1.742c-4.702-0.609-8.795-2.178-9.84-2.525c-4.702-1.742-4.528-2.438-8.185-3.571
			c-6.445-2.003-10.015-0.521-11.408-2.961c-0.61-1.045-0.349-2.264,0.261-4.79c1.045-4.614,2.7-5.485,3.919-9.144
			c1.828-5.313,0.696-9.753,1.654-9.927c0.61-0.087,0.784,2.09,2.613,3.222c1.916,1.219,4.354,0.522,6.618-0.174
			c1.916-0.523,3.832-1.133,4.877-2.787c0.783-1.395,0.174-2.177,0.783-2.787c1.916-1.829,9.579,3.309,11.669,4.703
			c2.7,1.829,6.27,4.44,10.015,8.099"/>
		
			<path fill="none" stroke="#111111" stroke-width="0.75" stroke-linecap="round" stroke-linejoin="round" stroke-miterlimit="10" d="
			M244.755,509.105c-8.187-1.046-14.456-0.262-18.461,0.522c-3.745,0.784-6.009,1.654-7.402,3.744
			c-1.829,2.787-1.045,6.096-0.697,7.315"/>
		
			<path fill="none" stroke="#111111" stroke-width="0.75" stroke-linecap="round" stroke-linejoin="round" stroke-miterlimit="10" d="
			M262.868,511.718c0.348,0.436,0.871,1.045,1.219,2.003c0,0,0.174,0.436,0.349,1.22c0,0,0.262,1.306,0,2.699
			c-0.522,3.31-9.144,5.399-9.144,5.399c-12.192,2.874-20.726,2.7-20.726,2.7c-13.759-0.35-11.583-2.7-21.422-2.266
			c0,0-5.573,0.263-18.722-2.264c-0.61-0.087-2.003-0.435-2.526-1.479c-0.261-0.61-0.087-1.308,0.61-3.049
			c0.435-1.045,1.045-2.525,1.916-4.18"/>
		
			<path fill="none" stroke="#111111" stroke-width="0.75" stroke-linecap="round" stroke-linejoin="round" stroke-miterlimit="10" d="
			M227.687,502.922c-1.393,0.61-4.441,2.09-6.792,5.487c-2.787,3.919-2.961,8.012-2.961,9.492"/>
		
			<path fill="none" stroke="#111111" stroke-width="0.75" stroke-linecap="round" stroke-linejoin="round" stroke-miterlimit="10" d="
			M220.024,498.742c-0.61,1.132-1.307,2.961-2.003,5.835c-1.045,4.528-1.306,9.23-1.394,11.757"/>
		
			<path fill="none" stroke="#111111" stroke-width="0.75" stroke-linecap="round" stroke-linejoin="round" stroke-miterlimit="10" d="
			M213.144,497.087c-0.522,2.526-0.957,6.009-0.609,9.928c0.348,3.484,1.219,6.184,2.09,8.1"/>
		
			<path fill="none" stroke="#111111" stroke-width="0.75" stroke-linecap="round" stroke-linejoin="round" stroke-miterlimit="10" d="
			M264.436,515.201c1.48,0.087,3.222,0.087,5.138,0.174c4.702,0.175,7.054,0.349,9.231,0.523c4.788,0.521,6.53,1.219,10.623,2.003
			c5.747,1.132,14.281,2.611,23.773,0.783c3.222-0.609,5.835-1.48,7.489-2.09c0.261-0.696,0.609-1.741,0.696-3.048
			c0.174-1.568-0.087-2.787-0.261-3.658c-0.784-0.435-2.178-1.045-4.093-1.132c-1.308-0.087-2.353,0.174-3.135,0.436
			c-0.35,0.958-1.046,2.352-2.439,3.048c-1.045,0.609-2.177,0.522-2.699,0.522c-2.351,0,0.697,0.349-10.885,1.394
			c-3.658,0.349-5.661,0.522-7.141,0.522c-7.75,0.262-12.801-2.612-18.811-4.703c-3.918-1.306-9.404-2.699-16.632-2.961"/>
		
			<path fill="none" stroke="#111111" stroke-width="0.75" stroke-linecap="round" stroke-linejoin="round" stroke-miterlimit="10" d="
			M321.213,509.889c-0.174-0.435-0.522-1.045-1.045-1.654c-1.307-1.394-2.961-1.829-3.658-2.003
			c-1.566-0.436-6.095-1.567-9.579-3.223c-3.657-1.742-5.398-3.832-5.833-4.354c-0.959-1.132-1.046-1.655-1.916-2.874
			c-1.83-2.7-3.31-2.961-6.531-5.748c-4.791-3.919-7.229-6.009-8.012-9.231c-0.262-1.132-0.349-2.438-1.394-3.135
			c-0.261-0.174-0.958-0.609-4.354-0.348c-2.438,0.174-3.656,0.261-3.832,0.696c-0.174,0.349-0.261,1.307,6.444,6.444
			c7.054,5.399,7.577,4.528,9.667,7.141c1.654,2.091,2.525,3.919,4.963,5.052c1.568,0.696,3.049,0.783,4.006,0.783"/>
		
			<path fill="none" stroke="#111111" stroke-width="0.75" stroke-linecap="round" stroke-linejoin="round" stroke-miterlimit="10" d="
			M275.32,478.887c-2.612,0.436-3.744,1.48-4.266,2.265c-0.871,1.306-0.437,2.264-1.481,3.919c-0.349,0.521-1.22,2.003-2.874,2.524
			c-2.178,0.697-4.702-0.608-6.096-2.264c-1.219-1.567-1.306-3.396-2.09-3.396c-0.522,0-0.871,0.522-1.219,1.046
			c-1.48,2.524-0.871,5.138-1.045,7.488c-0.35,4.703-3.396,5.139-4.354,10.887c-0.35,1.916-0.263,3.569-0.176,4.614"/>
		
			<path fill="none" stroke="#111111" stroke-width="0.75" stroke-linecap="round" stroke-linejoin="round" stroke-miterlimit="10" d="
			M294.043,500.048c-3.135,0.35-5.486,1.308-6.966,2.003c-2.7,1.308-5.574,2.7-6.531,5.748c-0.696,2.177-0.175,4.18,0.175,5.313"/>
		
			<path fill="none" stroke="#111111" stroke-width="0.75" stroke-linecap="round" stroke-linejoin="round" stroke-miterlimit="10" d="
			M271.141,490.295c-0.609,2.003-1.306,5.313-0.783,9.318c0.261,2.438,0.957,4.528,1.567,6.009"/>
		
			<path fill="none" stroke="#111111" stroke-width="0.75" stroke-linecap="round" stroke-linejoin="round" stroke-miterlimit="10" d="
			M265.916,490.469c-0.523,1.045-1.395,3.396-1.045,6.357c0.436,4.18,2.873,6.88,3.656,7.664"/>
		<path fill="#FFFFFF" d="M246.846,23.948c0.609-1.132,0.348-1.741,0.26-2.003c-0.782-1.654-4.789-1.916-5.834-0.348
			c-0.436,0.61-0.26,1.48-0.086,1.916"/>
		
			<path fill="none" stroke="#111111" stroke-width="0.75" stroke-linecap="round" stroke-linejoin="round" stroke-miterlimit="10" d="
			M246.846,23.948c0.609-1.132,0.348-1.741,0.26-2.003c-0.782-1.654-4.789-1.916-5.834-0.348c-0.436,0.61-0.26,1.48-0.086,1.916"/>
		
			<path fill="none" stroke="#FFFFFF" stroke-width="0.75" stroke-linecap="round" stroke-linejoin="round" stroke-miterlimit="10" d="
			M232.389,96.23c1.742,1.567,4.094,4.093,5.661,7.576c3.657,8.012,1.046,15.763,0,20.292c-3.571,15.588,5.921,17.591,8.882,46.242
			c2.09,20.117-2.699,18.114,0.348,33.615c2.439,12.541,7.664,24.123,1.568,30.655c-1.568,1.654-3.396,2.525-4.527,2.961
			c0.435,2.09,0.783,5.312,0.174,9.057c-0.61,3.57-1.742,6.357-2.787,8.186"/>
		
			<path fill="none" stroke="#FFFFFF" stroke-width="0.75" stroke-linecap="round" stroke-linejoin="round" stroke-miterlimit="10" d="
			M237.701,198.73c-2.96,4.094-5.834,8.361-8.795,12.628c-2.612,3.832-5.225,7.751-7.75,11.495"/>
		
			<path fill="none" stroke="#FFFFFF" stroke-width="0.75" stroke-linecap="round" stroke-linejoin="round" stroke-miterlimit="10" d="
			M259.559,198.295c2.438,2.525,5.486,6.27,8.099,11.321c2.961,5.748,4.093,10.973,4.616,14.631"/>
		
			<path fill="none" stroke="#111111" stroke-width="0.75" stroke-linecap="round" stroke-linejoin="round" stroke-miterlimit="10" d="
			M282.411,381.684c2.331-5.217,4.662-10.433,6.925-15.65c2.016,0.605,4.032,1.142,6.047,1.746c0.215-0.332,0.428-0.664,0.711-1.063
			c1.346-1.857,2.859-2.555,3.615-2.871c10.899,4.881,21.868,9.695,32.767,14.575l-8.453,19.061"/>
		
			<path fill="none" stroke="#111111" stroke-width="0.75" stroke-linecap="round" stroke-linejoin="round" stroke-miterlimit="10" d="
			M289.336,366.033c3.48-0.706,6.891-1.414,10.373-2.188"/>
		
			<path fill="none" stroke="#111111" stroke-width="0.75" stroke-linecap="round" stroke-linejoin="round" stroke-miterlimit="10" d="
			M332.766,395.311l13.586,53.847l-43.115,10.868c-4.049-15.924-8.027-31.911-12.076-47.833c1.924-0.822,3.913-1.574,5.837-2.396
			c-0.056-0.408-0.111-0.817-0.099-1.223c-0.063-2.308,0.66-3.776,1.09-4.509C309.535,401.168,321.152,398.206,332.766,395.311z"/>
		
			<path fill="none" stroke="#111111" stroke-width="0.75" stroke-linecap="round" stroke-linejoin="round" stroke-miterlimit="10" d="
			M291.16,412.192c2.253-2.71,4.507-5.42,6.828-8.128"/>
		
			<path fill="none" stroke="#111111" stroke-width="0.75" stroke-linecap="round" stroke-linejoin="round" stroke-miterlimit="10" d="
			M293.57,421.894l-11.301-5.027"/>
		
			<path fill="none" stroke="#111111" stroke-width="0.75" stroke-linecap="round" stroke-linejoin="round" stroke-miterlimit="10" d="
			M349.266,339.104l-2.012-0.896l12.493-27.362c10.132,4.605,20.229,9.219,30.369,13.857c-0.406,1.377-0.821,2.72-1.193,4.088
			c0.214,0.126,0.471,0.277,0.703,0.471c1.219,0.92,1.706,1.956,1.915,2.483c-1.574,3.46-3.157,6.886-4.697,10.337"/>
		
			<path fill="none" stroke="#111111" stroke-width="0.75" stroke-linecap="round" stroke-linejoin="round" stroke-miterlimit="10" d="
			M390.116,324.703c0.463,2.352,0.918,4.667,1.416,7.008"/>
		
			<path fill="none" stroke="#111111" stroke-width="0.75" stroke-linecap="round" stroke-linejoin="round" stroke-miterlimit="10" d="
			M371.121,369.88l-24.522-28.45l22.779-19.637c7.273,8.434,14.536,16.833,21.774,25.275c-0.921,1.074-1.885,2.123-2.806,3.197
			c0.164,0.213,0.304,0.467,0.441,0.723c0.754,1.367,0.721,2.501,0.683,3.056C383.357,359.334,377.235,364.59,371.121,369.88z"/>
		
			<path fill="none" stroke="#111111" stroke-width="0.75" stroke-linecap="round" stroke-linejoin="round" stroke-miterlimit="10" d="
			M391.152,347.068c-0.561,2.326-1.121,4.65-1.647,6.967"/>
		
			<path fill="none" stroke="#111111" stroke-width="0.75" stroke-linecap="round" stroke-linejoin="round" stroke-miterlimit="10" d="
			M378.408,319.344l11.493-8.791l15.614,20.441c-5.669,4.339-11.373,8.688-17.043,13.027"/>
		
			<path fill="none" stroke="#111111" stroke-width="0.75" stroke-linecap="round" stroke-linejoin="round" stroke-miterlimit="10" d="
			M77.034,146.889l-22.909-12.467L40.27,159.885l22.909,12.467L77.034,146.889z"/>
		
			<path fill="#111111" stroke="#111111" stroke-width="0.75" stroke-linecap="round" stroke-linejoin="round" stroke-miterlimit="10" d="
			M63.087,145.304c-0.759-0.669-5.984,2.972-5.62,5.122c0.07,0.646,0.744,1.129,1.339,1.194
			C61.009,151.74,63.778,145.948,63.087,145.304z"/>
		
			<path fill="none" stroke="#111111" stroke-width="0.75" stroke-linecap="round" stroke-linejoin="round" stroke-miterlimit="10" d="
			M62.742,139.132c-1.715,3.161-3.604,5.328-4.866,6.642c-1.856,1.868-2.855,2.892-4.478,3.298
			c-2.387,0.586-3.974-0.777-4.905,0.271c-0.906,0.981-0.33,2.977-0.252,3.395c0.285,1.113,0.925,1.893,1.258,2.249
			c-0.737,0.734-1.788,1.894-2.734,3.402c-0.947,1.509-1.41,2.964-1.721,4.011"/>
		
			<path fill="none" stroke="#111111" stroke-width="0.75" stroke-linecap="round" stroke-linejoin="round" stroke-miterlimit="10" d="
			M63.093,142.362c0.255-0.06,2.634-0.417,4.23,1.337c1.289,1.331,1.585,3.456,0.92,5.456"/>
		
			<path fill="none" stroke="#111111" stroke-width="0.75" stroke-linecap="round" stroke-linejoin="round" stroke-miterlimit="10" d="
			M47.742,160.767c0.648,0.55,1.995,1.515,4.062,1.584c0.986,0.056,1.819-0.1,2.422-0.264"/>
		
			<path fill="none" stroke="#111111" stroke-width="0.75" stroke-linecap="round" stroke-linejoin="round" stroke-miterlimit="10" d="
			M73.714,145.063c0.914,3.594,0.224,5.663-0.478,6.719c-0.829,1.398-2.288,2.406-6.756,6.096c0,0-0.237,0.221-0.593,0.554
			c-1.28,1.153-2.229,2.041-2.133,2.618c0.078,0.417,0.92,0.652,1.66,0.539c1.691-0.38,2.278-2.797,3.264-2.741
			c0.298,0.033,0.681,0.252,1.102,1.416"/>
		
			<path fill="none" stroke="#111111" stroke-width="0.75" stroke-linecap="round" stroke-linejoin="round" stroke-miterlimit="10" d="
			M60.233,170.748c1.113-0.284,2.294-0.544,3.381-0.76"/>
		
			<path fill="none" stroke="#111111" stroke-width="0.75" stroke-linecap="round" stroke-linejoin="round" stroke-miterlimit="10" d="
			M64.899,165.273c0.697-0.207,1.58-0.499,1.664-0.933c0.083-0.434-0.827-0.694-0.769-1.06c0.033-0.298,0.525-0.58,2.693-0.784"/>
		
			<path fill="none" stroke="#111111" stroke-width="0.75" stroke-linecap="round" stroke-linejoin="round" stroke-miterlimit="10" d="
			M119.685,148.558l-42.548,78.133l-62.599-34.073c12.657-23.046,25.271-46.185,37.817-69.35c3.133,1.162,6.266,2.325,9.467,3.513
			c0.338-0.495,0.77-1.032,1.228-1.637c2.414-2.747,4.953-3.742,6.159-4.07C86.026,130.258,102.843,139.442,119.685,148.558z"/>
		
			<path fill="none" stroke="#111111" stroke-width="0.75" stroke-linecap="round" stroke-linejoin="round" stroke-miterlimit="10" d="
			M52.355,123.268c5.61-0.708,11.219-1.417,16.829-2.126"/>
		
			<path fill="none" stroke="#111111" stroke-width="0.75" stroke-linecap="round" stroke-linejoin="round" stroke-miterlimit="10" d="
			M104.51,161.768l-23.165-12.605l-1.077,1.978l23.165,12.605L104.51,161.768z"/>
		
			<path fill="none" stroke="#111111" stroke-width="0.75" stroke-linecap="round" stroke-linejoin="round" stroke-miterlimit="10" d="
			M102.125,166.063l-23.164-12.605l-0.556,1.021l23.165,12.605L102.125,166.063z"/>
		
			<path fill="none" stroke="#111111" stroke-width="0.75" stroke-linecap="round" stroke-linejoin="round" stroke-miterlimit="10" d="
			M100.657,168.773l-23.165-12.605l-0.555,1.021l23.164,12.605L100.657,168.773z"/>
		
			<path fill="none" stroke="#111111" stroke-width="0.75" stroke-linecap="round" stroke-linejoin="round" stroke-miterlimit="10" d="
			M99.188,171.485l-23.164-12.606l-0.556,1.021l23.165,12.606L99.188,171.485z"/>
		
			<path fill="none" stroke="#111111" stroke-width="0.75" stroke-linecap="round" stroke-linejoin="round" stroke-miterlimit="10" d="
			M95.924,173.218l-21.378-11.633l-0.555,1.021l21.377,11.633L95.924,173.218z"/>
		
			<path fill="none" stroke="#111111" stroke-width="0.75" stroke-linecap="round" stroke-linejoin="round" stroke-miterlimit="10" d="
			M88.034,172.452l-14.932-8.126l-0.556,1.021l14.933,8.126L88.034,172.452z"/>
		
			<path fill="none" stroke="#111111" stroke-width="0.75" stroke-linecap="round" stroke-linejoin="round" stroke-miterlimit="10" d="
			M94.749,179.681l-23.165-12.605l-0.555,1.021l23.164,12.605L94.749,179.681z"/>
		
			<path fill="none" stroke="#111111" stroke-width="0.75" stroke-linecap="round" stroke-linejoin="round" stroke-miterlimit="10" d="
			M93.28,182.392l-23.164-12.605l-0.556,1.021l23.165,12.605L93.28,182.392z"/>
		
			<path fill="none" stroke="#111111" stroke-width="0.75" stroke-linecap="round" stroke-linejoin="round" stroke-miterlimit="10" d="
			M89.549,183.915l-20.931-11.39l-0.555,1.021l20.931,11.39L89.549,183.915z"/>
		
			<path fill="none" stroke="#111111" stroke-width="0.75" stroke-linecap="round" stroke-linejoin="round" stroke-miterlimit="10" d="
			M37.586,164.748l50.339,27.433"/>
		
			<path fill="none" stroke="#111111" stroke-width="0.75" stroke-linecap="round" stroke-linejoin="round" stroke-miterlimit="10" d="
			M36.285,167.21l50.365,27.365"/>
		
			<path fill="none" stroke="#111111" stroke-width="0.75" stroke-linecap="round" stroke-linejoin="round" stroke-miterlimit="10" d="
			M34.984,169.672l50.365,27.365"/>
		
			<path fill="none" stroke="#111111" stroke-width="0.75" stroke-linecap="round" stroke-linejoin="round" stroke-miterlimit="10" d="
			M33.641,172.041l50.34,27.432"/>
		
			<path fill="none" stroke="#111111" stroke-width="0.75" stroke-linecap="round" stroke-linejoin="round" stroke-miterlimit="10" d="
			M32.34,174.503l50.339,27.433"/>
		
			<path fill="none" stroke="#111111" stroke-width="0.75" stroke-linecap="round" stroke-linejoin="round" stroke-miterlimit="10" d="
			M30.971,176.939l50.365,27.365"/>
		
			<path fill="none" stroke="#111111" stroke-width="0.75" stroke-linecap="round" stroke-linejoin="round" stroke-miterlimit="10" d="
			M29.67,179.401l23.342,12.69"/>
		
			<path fill="none" stroke="#111111" stroke-width="0.75" stroke-linecap="round" stroke-linejoin="round" stroke-miterlimit="10" d="
			M28.326,181.77l23.411,12.715"/>
		
			<path fill="none" stroke="#111111" stroke-width="0.75" stroke-linecap="round" stroke-linejoin="round" stroke-miterlimit="10" d="
			M93.035,133.551c7.703-5.648,15.367-11.234,23.07-16.882c1.729,1.759,3.397,3.48,5.126,5.239c0.415-0.255,0.792-0.448,1.269-0.665
			c2.447-1.046,4.426-0.927,5.358-0.775c8.221,11.269,16.479,22.477,24.7,33.747l-52.268,38.254l-2.533-3.37"/>
		
			<path fill="none" stroke="#111111" stroke-width="0.75" stroke-linecap="round" stroke-linejoin="round" stroke-miterlimit="10" d="
			M116.105,116.669c3.931,1.246,7.823,2.553,11.753,3.799"/>
		
			<path fill="none" stroke="#111111" stroke-width="0.75" stroke-linecap="round" stroke-linejoin="round" stroke-miterlimit="10" d="
			M418.521,195.717l28.559,22.243l-28.178,36.192c-6.43-4.971-12.816-9.994-19.299-15.007"/>
		
			<path fill="none" stroke="#111111" stroke-width="0.75" stroke-linecap="round" stroke-linejoin="round" stroke-miterlimit="10" d="
			M391.391,196.2c0.756-0.944,1.469-1.836,2.172-2.821"/>
		
			<path fill="none" stroke="#111111" stroke-width="0.75" stroke-linecap="round" stroke-linejoin="round" stroke-miterlimit="10" d="
			M350.344,194.036l-20.585,11.617l12.906,22.866l20.584-11.618L350.344,194.036z"/>
		
			<path fill="none" stroke="#111111" stroke-width="0.75" stroke-linecap="round" stroke-linejoin="round" stroke-miterlimit="10" d="
			M372.165,162.074l39.626,70.223l-56.243,31.714c-11.726-20.818-23.494-41.582-35.22-62.4c2.423-1.846,4.845-3.691,7.268-5.537
			c-0.252-0.545-0.408-1.101-0.619-1.699c-0.976-3.188-0.524-5.579-0.168-6.67C341.91,179.147,357.012,170.59,372.165,162.074z"/>
		
			<path fill="none" stroke="#111111" stroke-width="0.75" stroke-linecap="round" stroke-linejoin="round" stroke-miterlimit="10" d="
			M320.381,201.653c2.16-4.635,4.269-9.313,6.428-13.948"/>
		
			<path fill="none" stroke="#111111" stroke-width="0.75" stroke-linecap="round" stroke-linejoin="round" stroke-miterlimit="10" d="
			M369.416,131.325c9.931-9.082,19.81-18.206,29.741-27.288l54.475,59.4l-47.558,43.648c-7.447-8.107-14.841-16.171-22.287-24.278"
			/>
		
			<path fill="none" stroke="#111111" stroke-width="0.75" stroke-linecap="round" stroke-linejoin="round" stroke-miterlimit="10" d="
			M367.31,164.811c-3.209-3.513-6.419-7.026-9.67-10.487c1.94-2.318,3.87-4.73,5.811-7.048c-0.336-0.44-0.683-0.975-1.028-1.51
			c-1.657-2.873-1.741-5.348-1.679-6.502c2.905-2.664,5.768-5.275,8.673-7.939"/>
		
			<path fill="none" stroke="#111111" stroke-width="0.75" stroke-linecap="round" stroke-linejoin="round" stroke-miterlimit="10" d="
			M357.682,154.271c1.018-5.034,2.086-10.025,3.104-15.059"/>
		
			<path fill="none" stroke="#111111" stroke-width="0.75" stroke-linecap="round" stroke-linejoin="round" stroke-miterlimit="10" d="
			M374.997,180.085l-20.818,11.749l1.023,1.813l20.817-11.749L374.997,180.085z"/>
		
			<path fill="none" stroke="#111111" stroke-width="0.75" stroke-linecap="round" stroke-linejoin="round" stroke-miterlimit="10" d="
			M377.158,183.968l-20.818,11.749l0.495,0.877l20.818-11.749L377.158,183.968z"/>
		
			<path fill="none" stroke="#111111" stroke-width="0.75" stroke-linecap="round" stroke-linejoin="round" stroke-miterlimit="10" d="
			M378.548,186.347l-20.819,11.749l0.496,0.877l20.818-11.749L378.548,186.347z"/>
		
			<path fill="none" stroke="#111111" stroke-width="0.75" stroke-linecap="round" stroke-linejoin="round" stroke-miterlimit="10" d="
			M379.912,188.818l-20.819,11.749l0.495,0.877l20.819-11.749L379.912,188.818z"/>
		
			<path fill="none" stroke="#111111" stroke-width="0.75" stroke-linecap="round" stroke-linejoin="round" stroke-miterlimit="10" d="
			M381.275,191.288l-20.818,11.749l0.495,0.877l20.817-11.749L381.275,191.288z"/>
		
			<path fill="none" stroke="#111111" stroke-width="0.75" stroke-linecap="round" stroke-linejoin="round" stroke-miterlimit="10" d="
			M382.698,193.725l-20.819,11.749l0.495,0.877l20.819-11.749L382.698,193.725z"/>
		
			<path fill="none" stroke="#111111" stroke-width="0.75" stroke-linecap="round" stroke-linejoin="round" stroke-miterlimit="10" d="
			M380.143,201.64l-15.495,8.746l0.494,0.877l15.497-8.746L380.143,201.64z"/>
		
			<path fill="none" stroke="#111111" stroke-width="0.75" stroke-linecap="round" stroke-linejoin="round" stroke-miterlimit="10" d="
			M381.475,204.052l-15.497,8.746l0.495,0.878l15.497-8.746L381.475,204.052z"/>
		
			<path fill="none" stroke="#111111" stroke-width="0.75" stroke-linecap="round" stroke-linejoin="round" stroke-miterlimit="10" d="
			M345.164,232.916l45.273-25.526"/>
		
			<path fill="none" stroke="#111111" stroke-width="0.75" stroke-linecap="round" stroke-linejoin="round" stroke-miterlimit="10" d="
			M346.412,235.119l45.221-25.569"/>
		
			<path fill="none" stroke="#111111" stroke-width="0.75" stroke-linecap="round" stroke-linejoin="round" stroke-miterlimit="10" d="
			M347.66,237.32l45.22-25.568"/>
		
			<path fill="none" stroke="#111111" stroke-width="0.75" stroke-linecap="round" stroke-linejoin="round" stroke-miterlimit="10" d="
			M348.856,239.48l45.272-25.526"/>
		
			<path fill="none" stroke="#111111" stroke-width="0.75" stroke-linecap="round" stroke-linejoin="round" stroke-miterlimit="10" d="
			M350.104,241.683l45.222-25.568"/>
		
			<path fill="none" stroke="#111111" stroke-width="0.75" stroke-linecap="round" stroke-linejoin="round" stroke-miterlimit="10" d="
			M351.352,243.885l45.222-25.568"/>
		
			<path fill="none" stroke="#111111" stroke-width="0.75" stroke-linecap="round" stroke-linejoin="round" stroke-miterlimit="10" d="
			M352.59,245.994l19.15-10.823"/>
		
			<path fill="none" stroke="#111111" stroke-width="0.75" stroke-linecap="round" stroke-linejoin="round" stroke-miterlimit="10" d="
			M332.735,204.055c0.724,2.213,2.339,5.999,5.727,9.396c1.342,1.332,8.914,8.852,14.661,5.968
			c3.482-1.773,5.254-6.891,4.593-12.407"/>
		
			<path fill="none" stroke="#111111" stroke-width="0.75" stroke-linecap="round" stroke-linejoin="round" stroke-miterlimit="10" d="
			M344.208,204.117c2.538,2.202,2.958,3.828,2.843,4.94c-0.116,1.541-1.248,2.527-0.797,3.146c0.398,0.577,1.877,0.556,2.706-0.157
			c0.304-0.273,0.461-0.577,0.534-0.777"/>
		
			<path fill="none" stroke="#111111" stroke-width="0.75" stroke-linecap="round" stroke-linejoin="round" stroke-miterlimit="10" d="
			M349.253,216.408c0.42-0.094,1.112-0.314,1.773-0.818c0.262-0.22,0.523-0.44,0.691-0.65"/>
		<path fill="#111111" d="M340.622,206.666c-0.493,0.294,0.115,2.328,1.416,3.283c0.524,0.419,1.479,0.839,1.825,0.514
			c0.43-0.43-0.284-2.119-1.49-3.084C341.859,207.054,340.926,206.394,340.622,206.666z"/>
		
			<path fill="none" stroke="#111111" stroke-width="0.75" stroke-linecap="round" stroke-linejoin="round" stroke-miterlimit="10" d="
			M337.633,208.145c0.021-0.242,0.105-1.636,1.27-2.769c1.216-1.091,2.652-1.059,2.946-0.996"/>
		<path fill="#111111" d="M348.497,202.303c0.483-0.388,2.192,0.808,2.654,2.381c0.22,0.692,0.324,1.636-0.084,1.824
			c-0.545,0.252-1.919-0.933-2.412-2.359C348.455,203.645,348.141,202.534,348.497,202.303z"/>
		
			<path fill="none" stroke="#111111" stroke-width="0.75" stroke-linecap="round" stroke-linejoin="round" stroke-miterlimit="10" d="
			M351.046,200.3c-0.252-0.116-1.552-0.64-3.062-0.042c-1.512,0.598-2.129,1.909-2.245,2.16"/>
		
			<path fill="none" stroke="#111111" stroke-width="0.75" stroke-linecap="round" stroke-linejoin="round" stroke-miterlimit="10" d="
			M334.833,208.743c-0.997,0.063-1.343,0.388-1.416,0.587c-0.556,1.017,1.374,2.905,1.636,3.115c1.396,1.373,3.179,1.94,4.635,2.16"
			/>
		
			<path fill="none" stroke="#111111" stroke-width="0.75" stroke-linecap="round" stroke-linejoin="round" stroke-miterlimit="10" d="
			M347.555,219.607c0.314,0.252,1.415,1.133,1.783,2.717c0.272,1.164,0,2.15-0.146,2.548"/>
		
			<path fill="none" stroke="#111111" stroke-width="0.75" stroke-linecap="round" stroke-linejoin="round" stroke-miterlimit="10" d="
			M356.164,216.262c0.042,0.377,0.23,1.646,1.238,2.537c0.378,0.389,0.829,0.577,1.133,0.735"/>
		<path fill="#111111" d="M349.254,221.998c-0.577-0.031-1.489-0.073-2.507,0.231c-1.709,0.525-2.202,1.678-3.691,2.035
			c-0.649,0.168-1.646,0.23-3.01-0.43c-3.439-6.02-6.839-12.092-10.279-18.112c0.944-0.535,1.931-1.122,2.927-1.615
			c0.703,1.594,1.395,3.094,2.098,4.688c-0.996,0.063-1.301,0.336-1.416,0.587c-0.514,0.965,1.322,3.293,3.356,4.405
			c1.122,0.64,2.244,0.849,2.874,0.923c0.911,0.902,2.181,2.003,3.816,2.968c1.595,1.017,3.105,1.709,4.342,2.097
			c0.273,0.304,0.703,0.734,1.008,1.322C349.044,221.401,349.128,221.726,349.254,221.998z"/>
		<path fill="#111111" d="M356.616,217.74c0.597-1.07,1.311-1.531,1.855-1.783c0.818-0.377,1.646-0.231,2.759-0.975
			c0.314-0.178,0.576-0.399,0.755-0.514c-1.321-2.433-2.737-4.856-4.06-7.289c0.157,1.416,0.147,3.472-0.503,5.789
			c-0.336,1.28-0.787,2.381-1.216,3.241C356.311,216.723,356.458,217.184,356.616,217.74z"/>
		<path fill="#111111" d="M334.833,208.743c0.346-0.325,0.87-0.766,1.416-1.448c1.594-1.992,1.017-2.884,2.433-4.331
			c0.808-0.902,1.583-1.227,2.076-2.38c0.189-0.451,0.241-0.839,0.262-1.081c0.315,0.252,0.63,0.504,1.028,0.651
			c3.943,1.95,9.48-2.392,10.184-2.947c-0.546-1.039-1.134-2.024-1.731-3.105c-5.977,3.388-11.913,6.723-17.891,10.11
			C333.249,205.67,334.036,207.159,334.833,208.743z"/>
		
			<path fill="none" stroke="#111111" stroke-width="0.75" stroke-linecap="round" stroke-linejoin="round" stroke-miterlimit="10" d="
			M141.208,358.373l-45.273-8.742l7.026-36.245c13.425,2.554,26.816,5.193,40.241,7.747c-0.112,1.75-0.163,3.475-0.275,5.225
			c0.318,0.08,0.66,0.219,1.003,0.356c1.738,0.757,2.633,1.867,3.008,2.418C144.943,338.844,143.058,348.65,141.208,358.373z"/>
		
			<path fill="none" stroke="#111111" stroke-width="0.75" stroke-linecap="round" stroke-linejoin="round" stroke-miterlimit="10" d="
			M143.141,321.159c1.266,2.657,2.471,5.341,3.711,7.938"/>
		
			<path fill="none" stroke="#111111" stroke-width="0.75" stroke-linecap="round" stroke-linejoin="round" stroke-miterlimit="10" d="
			M58.505,301.471l-23.273-8.389l-9.309,25.822l23.274,8.39L58.505,301.471z"/>
		
			<path fill="none" stroke="#111111" stroke-width="0.75" stroke-linecap="round" stroke-linejoin="round" stroke-miterlimit="10" d="
			M98.712,296.895l-28.603,79.263l-63.44-22.886c8.453-23.5,16.965-46.959,25.418-70.459c3.146,0.642,6.189,1.301,9.334,1.943
			c0.283-0.518,0.549-1.138,0.934-1.673c1.833-2.919,4.093-4.178,5.21-4.726C64.523,284.621,81.609,290.706,98.712,296.895z"/>
		
			<path fill="none" stroke="#111111" stroke-width="0.75" stroke-linecap="round" stroke-linejoin="round" stroke-miterlimit="10" d="
			M32.044,282.871c5.111-1.459,10.325-2.936,15.436-4.395"/>
		
			<path fill="none" stroke="#111111" stroke-width="0.75" stroke-linecap="round" stroke-linejoin="round" stroke-miterlimit="10" d="
			M77.813,354.823c1.34-1.11,2.681-2.22,4.021-3.328c1.729,1.606,3.501,3.153,5.17,4.718c0.375-0.271,0.811-0.499,1.246-0.727
			c2.276-1.156,4.166-1.148,5.075-1.034c8.543,10.305,17.086,20.61,25.628,30.916l-47.838,39.6l-31.699-38.267
			c6.011-4.961,11.962-9.967,17.973-14.928"/>
		
			<path fill="none" stroke="#111111" stroke-width="0.75" stroke-linecap="round" stroke-linejoin="round" stroke-miterlimit="10" d="
			M81.876,351.436c3.825,0.953,7.607,1.963,11.492,2.957"/>
		
			<path fill="none" stroke="#111111" stroke-width="0.75" stroke-linecap="round" stroke-linejoin="round" stroke-miterlimit="10" d="
			M86.36,311.425l-23.549-8.487l-0.745,2.064l23.549,8.489L86.36,311.425z"/>
		
			<path fill="none" stroke="#111111" stroke-width="0.75" stroke-linecap="round" stroke-linejoin="round" stroke-miterlimit="10" d="
			M71.425,310.986l-10.191-3.672l-0.373,1.033l10.191,3.672L71.425,310.986z"/>
		
			<path fill="none" stroke="#111111" stroke-width="0.75" stroke-linecap="round" stroke-linejoin="round" stroke-miterlimit="10" d="
			M83.835,318.582l-23.549-8.488l-0.373,1.033l23.549,8.488L83.835,318.582z"/>
		
			<path fill="none" stroke="#111111" stroke-width="0.75" stroke-linecap="round" stroke-linejoin="round" stroke-miterlimit="10" d="
			M82.852,321.305l-23.549-8.488l-0.373,1.033l23.549,8.488L82.852,321.305z"/>
		
			<path fill="none" stroke="#111111" stroke-width="0.75" stroke-linecap="round" stroke-linejoin="round" stroke-miterlimit="10" d="
			M81.843,324.096l-23.549-8.488l-0.373,1.033l23.549,8.488L81.843,324.096z"/>
		
			<path fill="none" stroke="#111111" stroke-width="0.75" stroke-linecap="round" stroke-linejoin="round" stroke-miterlimit="10" d="
			M80.835,326.889l-23.549-8.49l-0.373,1.033l23.549,8.489L80.835,326.889z"/>
		
			<path fill="none" stroke="#111111" stroke-width="0.75" stroke-linecap="round" stroke-linejoin="round" stroke-miterlimit="10" d="
			M79.852,329.609l-23.549-8.488l-0.373,1.033l23.549,8.488L79.852,329.609z"/>
		
			<path fill="none" stroke="#111111" stroke-width="0.75" stroke-linecap="round" stroke-linejoin="round" stroke-miterlimit="10" d="
			M78.843,332.4l-23.549-8.488l-0.373,1.033l23.549,8.488L78.843,332.4z"/>
		
			<path fill="none" stroke="#111111" stroke-width="0.75" stroke-linecap="round" stroke-linejoin="round" stroke-miterlimit="10" d="
			M72.806,333.301l-18.522-6.677l-0.373,1.033l18.522,6.677L72.806,333.301z"/>
		
			<path fill="none" stroke="#111111" stroke-width="0.75" stroke-linecap="round" stroke-linejoin="round" stroke-miterlimit="10" d="
			M24.174,323.844l51.027,18.452"/>
		
			<path fill="none" stroke="#111111" stroke-width="0.75" stroke-linecap="round" stroke-linejoin="round" stroke-miterlimit="10" d="
			M23.27,326.35l51.07,18.394"/>
		
			<path fill="none" stroke="#111111" stroke-width="0.75" stroke-linecap="round" stroke-linejoin="round" stroke-miterlimit="10" d="
			M22.409,328.797l51.07,18.393"/>
		
			<path fill="none" stroke="#111111" stroke-width="0.75" stroke-linecap="round" stroke-linejoin="round" stroke-miterlimit="10" d="
			M21.505,331.303l51.07,18.393"/>
		
			<path fill="none" stroke="#111111" stroke-width="0.75" stroke-linecap="round" stroke-linejoin="round" stroke-miterlimit="10" d="
			M20.644,333.75l51.07,18.393"/>
		
			<path fill="none" stroke="#111111" stroke-width="0.75" stroke-linecap="round" stroke-linejoin="round" stroke-miterlimit="10" d="
			M19.681,336.214l51.13,18.435"/>
		
			<path fill="none" stroke="#111111" stroke-width="0.75" stroke-linecap="round" stroke-linejoin="round" stroke-miterlimit="10" d="
			M18.82,338.661l51.129,18.435"/>
		
			<path fill="none" stroke="#111111" stroke-width="0.75" stroke-linecap="round" stroke-linejoin="round" stroke-miterlimit="10" d="
			M17.916,341.168l51.07,18.393"/>
		
			<path fill="none" stroke="#111111" stroke-width="0.75" stroke-linecap="round" stroke-linejoin="round" stroke-miterlimit="10" d="
			M45.2,360.646l20.552,7.41"/>
		
			<path fill="none" stroke="#111111" stroke-width="0.75" stroke-linecap="round" stroke-linejoin="round" stroke-miterlimit="10" d="
			M42.546,306.857c2.612,4.138,2.687,6.537,2.188,7.982c-0.069,0.221-0.335,0.842-0.509,1.708c-0.036,0.425-0.219,1.556,0.115,2.97
			c0.285,1.107,0.51,2.172,1.315,2.934c1.399,1.188,3.171,0.48,3.551,1.205c0.169,0.392,0.081,1.141-1.773,2.963"/>
		
			<path fill="none" stroke="#111111" stroke-width="0.75" stroke-linecap="round" stroke-linejoin="round" stroke-miterlimit="10" d="
			M42.546,306.857c-0.102,0.018-0.264-0.008-0.468,0.024c-1.575,0.308-0.833,3.91-2.846,5.076c-1.68,0.955-2.773-0.283-4.41,0.612
			c-1.911,1.148-1.121,3.433-2.889,5.136c-0.863,0.821-2.5,1.717-6.038,1.243"/>
		
			<path fill="none" stroke="#111111" stroke-width="0.75" stroke-linecap="round" stroke-linejoin="round" stroke-miterlimit="10" d="
			M36.709,319.342c0.069-0.221,0.581-2.558,2.907-3.408c1.73-0.647,3.293-0.063,3.633,0.092"/>
		
			<path fill="#111111" stroke="#111111" stroke-width="0.75" stroke-linecap="round" stroke-linejoin="round" stroke-miterlimit="10" d="
			M40.389,320.37c-0.041-0.57,0.43-1.224,0.898-1.247c0.893,0.012,1.921,2.467,1.46,2.855
			C42.27,322.268,40.367,321.527,40.389,320.37z"/>
		
			<path fill="none" stroke="#111111" stroke-width="0.75" stroke-linecap="round" stroke-linejoin="round" stroke-miterlimit="10" d="
			M34.339,295.712c1.892-0.622,2.937-0.319,3.471,0.065c1.171,0.754,0.741,1.977,2.064,3.021c1.188,0.856,2.058,0.4,2.896,1.365
			c0.601,0.793,0.157,1.285,0.774,2.181c0.845,1.331,2.2,0.954,2.57,1.942c0.446,1.134-1.105,1.909-0.814,3.383
			c0.275,1.371,1.917,1.472,1.971,2.774c0.063,1.037-1.163,1.236-1.296,2.675c-0.124,1.174,0.674,1.567,0.517,2.538
			c-0.105,0.646-0.602,1.461-2.256,2.254"/>
	</g>
</g>
<g>
	<g id="OP01">
		<polygon fill="#00B0AE" points="95.241,374.693 89.099,366.796 92.317,364.293 96.918,370.207 99.736,368.015 101.278,369.997 		
			"/>
		<path fill="#8BC541" d="M90.335,365.834l2.786,3.58c1.216,1.563,1.728,2.98,1.539,4.253c-0.19,1.272-0.757,2.275-1.699,3.008
			c-0.682,0.531-1.481,0.842-2.396,0.934c-0.914,0.091-1.741-0.084-2.481-0.523c-0.74-0.441-1.511-1.176-2.31-2.203l-2.665-3.426
			L90.335,365.834z"/>
		<polygon fill="#FCB814" points="83.276,384 77.133,376.104 83.108,371.456 84.649,373.438 81.888,375.586 83.004,377.02 
			85.051,375.427 86.593,377.409 84.545,379.002 86.49,381.501 		"/>
		<path fill="#F48024" d="M70.984,380.887l4.746-3.691c0.822-0.641,1.643-0.918,2.463-0.832c0.821,0.084,1.493,0.465,2.019,1.142
			c0.58,0.744,0.757,1.542,0.532,2.393c1.541,0.363,2.989,1.26,4.347,2.69l-3.337,2.597c-0.836-0.95-1.546-1.581-2.13-1.89
			c-0.585-0.31-1.104-0.288-1.558,0.064l2.275,2.924l-3.214,2.5L70.984,380.887z"/>
		<path fill="#EE4035" d="M75.029,390.624c-1.038,0.807-2.226,1.096-3.563,0.865s-2.45-0.915-3.335-2.054
			c-0.883-1.135-1.27-2.377-1.161-3.727c0.109-1.351,0.682-2.429,1.72-3.236c1.041-0.81,2.229-1.102,3.564-0.874
			c1.335,0.227,2.444,0.906,3.327,2.042c0.886,1.138,1.275,2.385,1.169,3.737C76.644,388.732,76.07,389.813,75.029,390.624z
			 M72.651,389.111l0.737-3.758l-3.823-0.21L72.651,389.111z"/>
		<polygon fill="#CA3091" points="67.692,396.123 61.549,388.227 64.768,385.723 69.368,391.637 72.187,389.444 73.729,391.427 		
			"/>
		<path fill="#644B9E" d="M65.48,398.051c-1.038,0.808-2.226,1.096-3.563,0.865c-1.338-0.229-2.45-0.914-3.335-2.053
			c-0.883-1.135-1.27-2.377-1.161-3.727c0.108-1.351,0.682-2.429,1.72-3.236c1.042-0.811,2.229-1.102,3.565-0.875
			c1.335,0.227,2.444,0.907,3.327,2.042c0.886,1.139,1.275,2.385,1.169,3.738S66.522,397.241,65.48,398.051z"/>
		<path fill="#1479BE" d="M58.709,391.572l0.822,3.838c-0.509,0.157-1.001,0.422-1.478,0.792c-0.682,0.531-0.867,0.998-0.553,1.402
			c0.151,0.193,0.363,0.27,0.638,0.229c0.275-0.039,0.588-0.195,0.94-0.47c0.476-0.37,0.813-0.782,1.011-1.234l3.674,1.942
			c-0.188,0.545-0.494,1.102-0.917,1.669c-0.425,0.568-0.883,1.044-1.375,1.427c-1.235,0.961-2.52,1.337-3.853,1.133
			c-1.334-0.206-2.441-0.875-3.322-2.007c-0.931-1.197-1.318-2.479-1.162-3.851s0.822-2.513,1.997-3.426
			c0.507-0.396,1.09-0.729,1.749-0.999C57.54,391.748,58.149,391.6,58.709,391.572z"/>
	</g>
	<g id="OP01_1_">
		<g>
			<defs>
				<path id="SVGID_3_" d="M90.335,365.834l2.786,3.58c1.216,1.563,1.728,2.98,1.539,4.253c-0.19,1.272-0.757,2.275-1.699,3.008
					c-0.682,0.531-1.481,0.842-2.396,0.934c-0.914,0.091-1.741-0.084-2.481-0.523c-0.74-0.441-1.511-1.176-2.31-2.203l-2.665-3.426
					L90.335,365.834z"/>
			</defs>
			<clipPath id="SVGID_4_">
				<use xlink:href="#SVGID_3_"  overflow="visible"/>
			</clipPath>
			<polygon clip-path="url(#SVGID_4_)" fill="#1C9458" points="95.241,374.693 89.099,366.796 92.317,364.293 96.918,370.207 
				99.736,368.015 101.278,369.997 			"/>
		</g>
		<g>
			<defs>
				<path id="SVGID_5_" d="M70.984,380.887l4.746-3.691c0.822-0.641,1.643-0.918,2.463-0.832c0.821,0.084,1.493,0.465,2.019,1.142
					c0.58,0.744,0.757,1.542,0.532,2.393c1.541,0.363,2.989,1.26,4.347,2.69l-3.337,2.597c-0.836-0.95-1.546-1.581-2.13-1.89
					c-0.585-0.31-1.104-0.288-1.558,0.064l2.275,2.924l-3.214,2.5L70.984,380.887z"/>
			</defs>
			<clipPath id="SVGID_6_">
				<use xlink:href="#SVGID_5_"  overflow="visible"/>
			</clipPath>
			<polygon clip-path="url(#SVGID_6_)" fill="#F05E24" points="83.276,384 77.133,376.104 83.108,371.456 84.649,373.438 
				81.888,375.586 83.004,377.02 85.051,375.427 86.593,377.409 84.545,379.002 86.49,381.501 			"/>
		</g>
		<g>
			<defs>
				<path id="SVGID_7_" d="M75.029,390.624c-1.038,0.807-2.226,1.096-3.563,0.865s-2.45-0.915-3.335-2.054
					c-0.883-1.135-1.27-2.377-1.161-3.727c0.109-1.351,0.682-2.429,1.72-3.236c1.041-0.81,2.229-1.102,3.564-0.874
					c1.335,0.227,2.444,0.906,3.327,2.042c0.886,1.138,1.275,2.385,1.169,3.737C76.644,388.732,76.07,389.813,75.029,390.624z"/>
			</defs>
			<clipPath id="SVGID_8_">
				<use xlink:href="#SVGID_7_"  overflow="visible"/>
			</clipPath>
			<path clip-path="url(#SVGID_8_)" fill="#E31D3B" d="M70.984,380.887l4.746-3.691c0.822-0.641,1.643-0.918,2.463-0.832
				c0.821,0.084,1.493,0.465,2.019,1.142c0.58,0.744,0.757,1.542,0.532,2.393c1.541,0.363,2.989,1.26,4.347,2.69l-3.337,2.597
				c-0.836-0.95-1.546-1.581-2.13-1.89c-0.585-0.31-1.104-0.288-1.558,0.064l2.275,2.924l-3.214,2.5L70.984,380.887z"/>
		</g>
		<g>
			<defs>
				<path id="SVGID_9_" d="M75.029,390.624c-1.038,0.807-2.226,1.096-3.563,0.865s-2.45-0.915-3.335-2.054
					c-0.883-1.135-1.27-2.377-1.161-3.727c0.109-1.351,0.682-2.429,1.72-3.236c1.041-0.81,2.229-1.102,3.564-0.874
					c1.335,0.227,2.444,0.906,3.327,2.042c0.886,1.138,1.275,2.385,1.169,3.737C76.644,388.732,76.07,389.813,75.029,390.624z"/>
			</defs>
			<clipPath id="SVGID_10_">
				<use xlink:href="#SVGID_9_"  overflow="visible"/>
			</clipPath>
			<polygon clip-path="url(#SVGID_10_)" fill="#A21C37" points="67.692,396.123 61.549,388.227 64.768,385.723 69.368,391.637 
				72.187,389.444 73.729,391.427 			"/>
		</g>
		<g>
			<defs>
				<path id="SVGID_11_" d="M65.48,398.051c-1.038,0.808-2.226,1.096-3.563,0.865c-1.338-0.229-2.45-0.914-3.335-2.053
					c-0.883-1.135-1.27-2.377-1.161-3.727c0.108-1.351,0.682-2.429,1.72-3.236c1.042-0.811,2.229-1.102,3.565-0.875
					c1.335,0.227,2.444,0.907,3.327,2.042c0.886,1.139,1.275,2.385,1.169,3.738S66.522,397.241,65.48,398.051z"/>
			</defs>
			<clipPath id="SVGID_12_">
				<use xlink:href="#SVGID_11_"  overflow="visible"/>
			</clipPath>
			<polygon clip-path="url(#SVGID_12_)" fill="#542E88" points="67.692,396.123 61.549,388.227 64.768,385.723 69.368,391.637 
				72.187,389.444 73.729,391.427 			"/>
		</g>
		<g>
			<defs>
				<path id="SVGID_13_" d="M58.709,391.572l0.822,3.838c-0.509,0.157-1.001,0.422-1.478,0.792
					c-0.682,0.531-0.867,0.998-0.553,1.402c0.151,0.193,0.363,0.27,0.638,0.229c0.275-0.039,0.588-0.195,0.94-0.47
					c0.476-0.37,0.813-0.782,1.011-1.234l3.674,1.942c-0.188,0.545-0.494,1.102-0.917,1.669c-0.425,0.568-0.883,1.044-1.375,1.427
					c-1.235,0.961-2.52,1.337-3.853,1.133c-1.334-0.206-2.441-0.875-3.322-2.007c-0.931-1.197-1.318-2.479-1.162-3.851
					s0.822-2.513,1.997-3.426c0.507-0.396,1.09-0.729,1.749-0.999C57.54,391.748,58.149,391.6,58.709,391.572z"/>
			</defs>
			<clipPath id="SVGID_14_">
				<use xlink:href="#SVGID_13_"  overflow="visible"/>
			</clipPath>
			<path clip-path="url(#SVGID_14_)" fill="#204393" d="M65.48,398.051c-1.038,0.808-2.226,1.096-3.563,0.865
				c-1.338-0.229-2.45-0.914-3.335-2.053c-0.883-1.135-1.27-2.377-1.161-3.727c0.108-1.351,0.682-2.429,1.72-3.236
				c1.042-0.811,2.229-1.102,3.565-0.875c1.335,0.227,2.444,0.907,3.327,2.042c0.886,1.139,1.275,2.385,1.169,3.738
				S66.522,397.241,65.48,398.051z"/>
		</g>
	</g>
	<path fill="#4895D0" d="M97.938,394.417l0.1,1.207c-0.307,0.056-0.553,0.155-0.737,0.299c-0.123,0.096-0.195,0.207-0.215,0.334
		s0.013,0.247,0.102,0.361c0.167,0.216,0.382,0.222,0.643,0.02l-0.324-0.417l1.083-0.843l1.116,1.435
		c-0.417,0.368-0.704,0.611-0.858,0.732c-0.599,0.465-1.122,0.65-1.57,0.556c-0.448-0.096-0.816-0.327-1.102-0.695
		c-0.197-0.254-0.324-0.528-0.38-0.824c-0.055-0.296-0.027-0.581,0.088-0.856c0.114-0.275,0.312-0.522,0.591-0.74
		c0.197-0.153,0.425-0.28,0.684-0.382C97.417,394.501,97.677,394.439,97.938,394.417z M98.591,393.406l1.598-1.244
		c0.277-0.215,0.554-0.308,0.83-0.279c0.276,0.028,0.502,0.156,0.679,0.384c0.196,0.251,0.255,0.52,0.18,0.807
		c0.519,0.122,1.007,0.424,1.464,0.905l-1.124,0.875c-0.282-0.32-0.521-0.532-0.718-0.637c-0.197-0.104-0.371-0.097-0.524,0.022
		l0.766,0.984l-1.083,0.842L98.591,393.406z M100.099,393.111l0.398,0.513l0.03-0.024c0.195-0.15,0.228-0.31,0.098-0.476
		c-0.054-0.07-0.122-0.116-0.202-0.138c-0.081-0.022-0.167,0.002-0.259,0.073L100.099,393.111z M105.27,392.55
		c-0.35,0.271-0.75,0.369-1.2,0.291c-0.451-0.077-0.825-0.308-1.124-0.691c-0.297-0.382-0.427-0.8-0.391-1.256
		c0.037-0.454,0.23-0.817,0.58-1.089c0.351-0.273,0.751-0.371,1.201-0.295c0.45,0.077,0.823,0.306,1.121,0.688
		c0.298,0.384,0.429,0.803,0.394,1.26C105.813,391.913,105.62,392.276,105.27,392.55z M103.927,390.824
		c-0.069,0.054-0.106,0.125-0.111,0.214c-0.005,0.089,0.023,0.173,0.086,0.253s0.137,0.129,0.225,0.146
		c0.086,0.018,0.165-0.001,0.234-0.056c0.07-0.055,0.108-0.126,0.113-0.214c0.004-0.09-0.024-0.173-0.086-0.254
		c-0.062-0.08-0.137-0.128-0.224-0.146C104.077,390.751,103.998,390.77,103.927,390.824z M107.589,386.406l0.938,1.206
		c0.41,0.526,0.582,1.004,0.518,1.432c-0.064,0.429-0.254,0.766-0.572,1.013c-0.229,0.179-0.499,0.283-0.806,0.315
		c-0.309,0.03-0.587-0.029-0.836-0.177c-0.249-0.148-0.509-0.396-0.778-0.742l-0.897-1.154l1.083-0.843l0.958,1.232
		c0.103,0.132,0.179,0.208,0.228,0.227c0.048,0.017,0.094,0.01,0.137-0.023c0.06-0.046,0.073-0.107,0.04-0.184
		c-0.033-0.075-0.108-0.188-0.225-0.338l-0.872-1.12L107.589,386.406z M108.677,385.56l1.483-1.153
		c0.313-0.244,0.621-0.345,0.923-0.303c0.302,0.043,0.552,0.19,0.75,0.444c0.193,0.249,0.278,0.522,0.254,0.821
		c-0.023,0.298-0.148,0.534-0.373,0.708c-0.187,0.146-0.434,0.214-0.74,0.204l0.853,1.097l-1.083,0.842L108.677,385.56z
		 M110.207,385.293l0.45,0.578c0.04-0.015,0.072-0.034,0.1-0.056c0.082-0.063,0.125-0.142,0.132-0.236
		c0.007-0.095-0.024-0.188-0.095-0.278c-0.07-0.09-0.146-0.144-0.229-0.162s-0.164,0.003-0.243,0.064L110.207,385.293z
		 M112.708,381.465l-19.954,15.521l3.046,3.915l19.954-15.521L112.708,381.465z"/>
</g>
<g>
	<g id="OP01_3_">
		<polygon fill="#00B0AE" points="424.256,165.491 431.725,158.834 434.437,161.876 428.844,166.864 431.22,169.528 429.345,171.2 
					"/>
		<path fill="#8BC541" d="M432.768,160.004l-3.386,3.018c-1.479,1.317-2.858,1.924-4.142,1.82c-1.282-0.104-2.32-0.603-3.115-1.494
			c-0.574-0.646-0.938-1.422-1.092-2.329c-0.151-0.906-0.032-1.743,0.357-2.511c0.391-0.768,1.071-1.586,2.043-2.452l3.239-2.889
			L432.768,160.004z"/>
		<polygon fill="#FCB814" points="414.169,154.174 421.637,147.517 426.673,153.167 424.8,154.838 422.472,152.228 421.115,153.437 
			422.842,155.372 420.967,157.043 419.241,155.106 416.878,157.214 		"/>
		<path fill="#F48024" d="M416.453,141.703l4.001,4.488c0.694,0.778,1.025,1.578,0.994,2.402c-0.029,0.824-0.363,1.52-1.004,2.091
			c-0.704,0.628-1.487,0.859-2.351,0.69c-0.261,1.563-1.058,3.068-2.394,4.518l-2.815-3.157c0.893-0.897,1.475-1.648,1.743-2.251
			c0.27-0.604,0.214-1.121-0.168-1.549l-2.766,2.465l-2.709-3.04L416.453,141.703z"/>
		<path fill="#EE4035" d="M407.008,146.39c-0.873-0.983-1.242-2.148-1.102-3.499c0.141-1.351,0.749-2.505,1.826-3.464
			c1.073-0.958,2.287-1.427,3.64-1.409c1.355,0.019,2.47,0.518,3.345,1.5c0.877,0.984,1.248,2.15,1.11,3.498
			c-0.136,1.346-0.74,2.498-1.815,3.456c-1.075,0.96-2.293,1.432-3.649,1.417C409.004,147.874,407.887,147.375,407.008,146.39z
			 M408.358,143.916l3.8,0.484l-0.047-3.83L408.358,143.916z"/>
		<polygon fill="#CA3091" points="401.031,139.437 408.499,132.779 411.212,135.823 405.618,140.81 407.995,143.476 
			406.119,145.146 		"/>
		<path fill="#644B9E" d="M398.959,137.359c-0.875-0.98-1.242-2.147-1.101-3.497c0.139-1.352,0.747-2.507,1.824-3.466
			c1.073-0.957,2.286-1.426,3.641-1.408c1.354,0.018,2.468,0.518,3.345,1.5c0.877,0.984,1.247,2.15,1.111,3.498
			c-0.137,1.348-0.742,2.5-1.816,3.458c-1.075,0.958-2.293,1.431-3.65,1.415C400.954,138.845,399.837,138.344,398.959,137.359z"/>
		<path fill="#1479BE" d="M404.97,130.169l-3.774,1.078c-0.191-0.497-0.487-0.971-0.889-1.42c-0.575-0.646-1.054-0.798-1.436-0.458
			c-0.184,0.163-0.245,0.381-0.188,0.652s0.235,0.575,0.532,0.907c0.401,0.451,0.834,0.759,1.3,0.927l-1.692,3.795
			c-0.557-0.15-1.132-0.419-1.728-0.804c-0.595-0.385-1.101-0.811-1.515-1.276c-1.042-1.167-1.502-2.424-1.389-3.768
			c0.117-1.346,0.71-2.495,1.78-3.45c1.133-1.009,2.387-1.481,3.764-1.417c1.379,0.065,2.563,0.652,3.553,1.764
			c0.429,0.479,0.8,1.039,1.113,1.677S404.904,129.612,404.97,130.169z"/>
	</g>
	<g id="OP01_2_">
		<g>
			<defs>
				<path id="SVGID_15_" d="M432.768,160.004l-3.386,3.018c-1.479,1.317-2.858,1.924-4.142,1.82
					c-1.282-0.104-2.32-0.603-3.115-1.494c-0.574-0.646-0.938-1.422-1.092-2.329c-0.151-0.906-0.032-1.743,0.357-2.511
					c0.391-0.768,1.071-1.586,2.043-2.452l3.239-2.889L432.768,160.004z"/>
			</defs>
			<clipPath id="SVGID_16_">
				<use xlink:href="#SVGID_15_"  overflow="visible"/>
			</clipPath>
			<polygon clip-path="url(#SVGID_16_)" fill="#1C9458" points="424.256,165.491 431.725,158.834 434.437,161.876 428.844,166.864 
				431.22,169.528 429.345,171.2 			"/>
		</g>
		<g>
			<defs>
				<path id="SVGID_17_" d="M416.453,141.703l4.001,4.488c0.694,0.778,1.025,1.578,0.994,2.402c-0.029,0.824-0.363,1.52-1.004,2.091
					c-0.704,0.628-1.487,0.859-2.351,0.69c-0.261,1.563-1.058,3.068-2.394,4.518l-2.815-3.157c0.893-0.897,1.475-1.648,1.743-2.251
					c0.27-0.604,0.214-1.121-0.168-1.549l-2.766,2.465l-2.709-3.04L416.453,141.703z"/>
			</defs>
			<clipPath id="SVGID_18_">
				<use xlink:href="#SVGID_17_"  overflow="visible"/>
			</clipPath>
			<polygon clip-path="url(#SVGID_18_)" fill="#F05E24" points="414.169,154.174 421.637,147.517 426.673,153.167 424.8,154.838 
				422.472,152.228 421.115,153.437 422.842,155.372 420.967,157.043 419.241,155.106 416.878,157.214 			"/>
		</g>
		<g>
			<defs>
				<path id="SVGID_19_" d="M407.008,146.39c-0.873-0.983-1.242-2.148-1.102-3.499c0.141-1.351,0.749-2.505,1.826-3.464
					c1.073-0.958,2.287-1.427,3.64-1.409c1.355,0.019,2.47,0.518,3.345,1.5c0.877,0.984,1.248,2.15,1.11,3.498
					c-0.136,1.346-0.74,2.498-1.815,3.456c-1.075,0.96-2.293,1.432-3.649,1.417C409.004,147.874,407.887,147.375,407.008,146.39z"/>
			</defs>
			<clipPath id="SVGID_20_">
				<use xlink:href="#SVGID_19_"  overflow="visible"/>
			</clipPath>
			<path clip-path="url(#SVGID_20_)" fill="#E31D3B" d="M416.453,141.703l4.001,4.488c0.694,0.778,1.025,1.578,0.994,2.402
				c-0.029,0.824-0.363,1.52-1.004,2.091c-0.704,0.628-1.487,0.859-2.351,0.69c-0.261,1.563-1.058,3.068-2.394,4.518l-2.815-3.157
				c0.893-0.897,1.475-1.648,1.743-2.251c0.27-0.604,0.214-1.121-0.168-1.549l-2.766,2.465l-2.709-3.04L416.453,141.703z"/>
		</g>
		<g>
			<defs>
				<path id="SVGID_21_" d="M407.008,146.39c-0.873-0.983-1.242-2.148-1.102-3.499c0.141-1.351,0.749-2.505,1.826-3.464
					c1.073-0.958,2.287-1.427,3.64-1.409c1.355,0.019,2.47,0.518,3.345,1.5c0.877,0.984,1.248,2.15,1.11,3.498
					c-0.136,1.346-0.74,2.498-1.815,3.456c-1.075,0.96-2.293,1.432-3.649,1.417C409.004,147.874,407.887,147.375,407.008,146.39z"/>
			</defs>
			<clipPath id="SVGID_22_">
				<use xlink:href="#SVGID_21_"  overflow="visible"/>
			</clipPath>
			<polygon clip-path="url(#SVGID_22_)" fill="#A21C37" points="401.031,139.437 408.499,132.779 411.212,135.823 405.618,140.81 
				407.995,143.476 406.119,145.146 			"/>
		</g>
		<g>
			<defs>
				<path id="SVGID_23_" d="M398.959,137.359c-0.875-0.98-1.242-2.147-1.101-3.497c0.139-1.352,0.747-2.507,1.824-3.466
					c1.073-0.957,2.286-1.426,3.641-1.408c1.354,0.018,2.468,0.518,3.345,1.5c0.877,0.984,1.247,2.15,1.111,3.498
					c-0.137,1.348-0.742,2.5-1.816,3.458c-1.075,0.958-2.293,1.431-3.65,1.415C400.954,138.845,399.837,138.344,398.959,137.359z"/>
			</defs>
			<clipPath id="SVGID_24_">
				<use xlink:href="#SVGID_23_"  overflow="visible"/>
			</clipPath>
			<polygon clip-path="url(#SVGID_24_)" fill="#542E88" points="401.031,139.437 408.499,132.779 411.212,135.823 405.618,140.81 
				407.995,143.476 406.119,145.146 			"/>
		</g>
		<g>
			<defs>
				<path id="SVGID_25_" d="M404.97,130.169l-3.774,1.078c-0.191-0.497-0.487-0.971-0.889-1.42
					c-0.575-0.646-1.054-0.798-1.436-0.458c-0.184,0.163-0.245,0.381-0.188,0.652s0.235,0.575,0.532,0.907
					c0.401,0.451,0.834,0.759,1.3,0.927l-1.692,3.795c-0.557-0.15-1.132-0.419-1.728-0.804c-0.595-0.385-1.101-0.811-1.515-1.276
					c-1.042-1.167-1.502-2.424-1.389-3.768c0.117-1.346,0.71-2.495,1.78-3.45c1.133-1.009,2.387-1.481,3.764-1.417
					c1.379,0.065,2.563,0.652,3.553,1.764c0.429,0.479,0.8,1.039,1.113,1.677S404.904,129.612,404.97,130.169z"/>
			</defs>
			<clipPath id="SVGID_26_">
				<use xlink:href="#SVGID_25_"  overflow="visible"/>
			</clipPath>
			<path clip-path="url(#SVGID_26_)" fill="#204393" d="M398.959,137.359c-0.875-0.98-1.242-2.147-1.101-3.497
				c0.139-1.352,0.747-2.507,1.824-3.466c1.073-0.957,2.286-1.426,3.641-1.408c1.354,0.018,2.468,0.518,3.345,1.5
				c0.877,0.984,1.247,2.15,1.111,3.498c-0.137,1.348-0.742,2.5-1.816,3.458c-1.075,0.958-2.293,1.431-3.65,1.415
				C400.954,138.845,399.837,138.344,398.959,137.359z"/>
		</g>
	</g>
	<path fill="#4895D0" d="M404.757,169.501l-1.198,0.18c-0.076-0.303-0.191-0.541-0.347-0.716c-0.104-0.116-0.22-0.181-0.348-0.192
		c-0.129-0.013-0.246,0.029-0.354,0.125c-0.204,0.182-0.194,0.396,0.023,0.642l0.396-0.35l0.912,1.024l-1.356,1.209
		c-0.395-0.391-0.656-0.662-0.788-0.807c-0.504-0.566-0.724-1.076-0.659-1.53c0.065-0.452,0.271-0.834,0.62-1.145
		c0.239-0.214,0.505-0.359,0.797-0.434s0.578-0.065,0.86,0.03c0.282,0.096,0.542,0.276,0.777,0.54
		c0.167,0.187,0.309,0.406,0.428,0.657C404.638,168.988,404.717,169.243,404.757,169.501z M405.809,170.084l1.349,1.512
		c0.232,0.261,0.344,0.531,0.333,0.81c-0.009,0.276-0.121,0.511-0.336,0.703c-0.238,0.212-0.501,0.29-0.794,0.234
		c-0.087,0.525-0.354,1.032-0.805,1.521l-0.948-1.063c0.301-0.302,0.496-0.554,0.587-0.758c0.091-0.204,0.072-0.377-0.058-0.521
		l-0.93,0.829l-0.913-1.023L405.809,170.084z M406.203,171.569l-0.484,0.432l0.026,0.029c0.163,0.185,0.324,0.206,0.481,0.065
		c0.065-0.059,0.107-0.129,0.124-0.21c0.017-0.083-0.013-0.168-0.09-0.254L406.203,171.569z M407.11,176.691
		c-0.295-0.331-0.419-0.723-0.371-1.177c0.047-0.455,0.251-0.845,0.614-1.168c0.361-0.321,0.771-0.479,1.228-0.474
		c0.456,0.007,0.83,0.175,1.125,0.506c0.297,0.331,0.42,0.723,0.375,1.178c-0.047,0.454-0.25,0.842-0.611,1.164
		c-0.363,0.324-0.773,0.482-1.231,0.478C407.781,177.191,407.406,177.023,407.11,176.691z M408.742,175.237
		c-0.059-0.066-0.132-0.098-0.222-0.097c-0.089,0.001-0.171,0.035-0.246,0.104c-0.075,0.067-0.119,0.145-0.131,0.234
		c-0.011,0.087,0.013,0.165,0.072,0.23c0.059,0.066,0.132,0.1,0.221,0.099c0.09-0.002,0.17-0.036,0.247-0.104
		c0.076-0.067,0.119-0.146,0.131-0.233C408.825,175.381,408.801,175.303,408.742,175.237z M413.396,178.596l-1.142,1.016
		c-0.498,0.444-0.962,0.648-1.394,0.612c-0.432-0.035-0.78-0.202-1.048-0.503c-0.194-0.216-0.317-0.478-0.37-0.782
		c-0.05-0.306-0.01-0.588,0.121-0.846c0.132-0.258,0.361-0.534,0.689-0.827l1.091-0.971l0.913,1.024l-1.165,1.039
		c-0.124,0.112-0.195,0.193-0.211,0.243c-0.014,0.048-0.003,0.094,0.032,0.135c0.049,0.056,0.112,0.065,0.187,0.026
		c0.072-0.038,0.18-0.119,0.321-0.247l1.06-0.944L413.396,178.596z M414.313,179.625l1.25,1.401
		c0.265,0.297,0.386,0.597,0.364,0.901c-0.022,0.304-0.153,0.563-0.394,0.778c-0.235,0.209-0.503,0.313-0.803,0.309
		c-0.299-0.004-0.543-0.113-0.73-0.325c-0.159-0.176-0.242-0.418-0.254-0.724l-1.037,0.924l-0.912-1.023L414.313,179.625z
		 M414.681,181.132l-0.547,0.487c0.018,0.04,0.039,0.07,0.063,0.097c0.069,0.077,0.149,0.115,0.245,0.115
		c0.095,0.001,0.186-0.037,0.271-0.113s0.134-0.156,0.147-0.24c0.013-0.084-0.014-0.163-0.082-0.238L414.681,181.132z
		 M418.668,183.371l-16.822-18.87l-3.701,3.301l16.821,18.871L418.668,183.371z"/>
</g>
<g>
	<g id="OP01_5_">
		<polygon fill="#00B0AE" points="331.18,425.408 329.752,418.956 332.381,418.374 333.451,423.206 335.754,422.696 
			336.113,424.316 		"/>
		<path fill="#8BC541" d="M330.762,418.731l0.648,2.926c0.282,1.277,0.188,2.268-0.287,2.975c-0.474,0.705-1.096,1.143-1.866,1.313
			c-0.558,0.122-1.122,0.082-1.694-0.121c-0.571-0.206-1.015-0.544-1.332-1.017c-0.316-0.474-0.568-1.129-0.755-1.969l-0.62-2.799
			L330.762,418.731z"/>
		<polygon fill="#FCB814" points="321.402,427.572 319.975,421.12 324.855,420.04 325.215,421.657 322.959,422.158 323.218,423.331 
			324.891,422.959 325.249,424.579 323.576,424.949 324.029,426.991 		"/>
		<path fill="#F48024" d="M314.95,422.232l3.878-0.858c0.672-0.149,1.24-0.082,1.705,0.202c0.466,0.281,0.759,0.699,0.882,1.252
			c0.134,0.608,0.015,1.135-0.36,1.578c0.816,0.654,1.428,1.6,1.832,2.838l-2.729,0.604c-0.229-0.805-0.474-1.382-0.734-1.731
			c-0.263-0.351-0.577-0.484-0.948-0.403l0.528,2.391l-2.626,0.58L314.95,422.232z"/>
		<path fill="#EE4035" d="M314.605,429.189c-0.848,0.187-1.639,0.023-2.372-0.494c-0.734-0.516-1.202-1.24-1.408-2.17
			c-0.207-0.928-0.084-1.778,0.361-2.553c0.448-0.775,1.096-1.257,1.944-1.443c0.851-0.188,1.643-0.026,2.375,0.488
			c0.732,0.513,1.201,1.232,1.406,2.161c0.207,0.93,0.086,1.783-0.359,2.561C316.104,428.518,315.457,429,314.605,429.189z
			 M313.615,427.612l1.504-2.033l-2.223-1.209L313.615,427.612z"/>
		<polygon fill="#CA3091" points="308.669,430.391 307.24,423.938 309.869,423.356 310.94,428.189 313.244,427.68 313.602,429.301 
					"/>
		<path fill="#644B9E" d="M306.803,430.915c-0.848,0.189-1.638,0.024-2.37-0.492c-0.734-0.516-1.205-1.24-1.41-2.171
			c-0.205-0.927-0.085-1.777,0.363-2.552c0.446-0.775,1.095-1.255,1.942-1.444c0.851-0.188,1.643-0.025,2.376,0.487
			c0.732,0.514,1.201,1.234,1.406,2.162c0.205,0.929,0.086,1.783-0.361,2.562C308.303,430.244,307.653,430.728,306.803,430.915z"/>
		<path fill="#1479BE" d="M304.598,425.132l-0.597,2.523c-0.349-0.05-0.718-0.033-1.105,0.054c-0.558,0.123-0.801,0.35-0.727,0.68
			c0.034,0.158,0.14,0.265,0.314,0.318c0.174,0.054,0.407,0.05,0.695-0.015c0.388-0.086,0.705-0.235,0.952-0.45l1.643,2.201
			c-0.266,0.271-0.607,0.517-1.021,0.736c-0.414,0.218-0.823,0.372-1.224,0.461c-1.01,0.224-1.883,0.084-2.62-0.415
			c-0.738-0.502-1.21-1.214-1.414-2.139c-0.217-0.979-0.085-1.854,0.396-2.626c0.482-0.774,1.202-1.268,2.162-1.48
			c0.415-0.093,0.858-0.125,1.326-0.1C303.851,424.905,304.255,424.989,304.598,425.132z"/>
	</g>
	<g id="OP01_4_">
		<g>
			<defs>
				<path id="SVGID_27_" d="M330.762,418.731l0.648,2.926c0.282,1.277,0.188,2.268-0.287,2.975
					c-0.474,0.705-1.096,1.143-1.866,1.313c-0.558,0.122-1.122,0.082-1.694-0.121c-0.571-0.206-1.015-0.544-1.332-1.017
					c-0.316-0.474-0.568-1.129-0.755-1.969l-0.62-2.799L330.762,418.731z"/>
			</defs>
			<clipPath id="SVGID_28_">
				<use xlink:href="#SVGID_27_"  overflow="visible"/>
			</clipPath>
			<polygon clip-path="url(#SVGID_28_)" fill="#1C9458" points="331.18,425.408 329.752,418.956 332.381,418.374 333.451,423.206 
				335.754,422.696 336.113,424.316 			"/>
		</g>
		<g>
			<defs>
				<path id="SVGID_29_" d="M314.95,422.232l3.878-0.858c0.672-0.149,1.24-0.082,1.705,0.202c0.466,0.281,0.759,0.699,0.882,1.252
					c0.134,0.608,0.015,1.135-0.36,1.578c0.816,0.654,1.428,1.6,1.832,2.838l-2.729,0.604c-0.229-0.805-0.474-1.382-0.734-1.731
					c-0.263-0.351-0.577-0.484-0.948-0.403l0.528,2.391l-2.626,0.58L314.95,422.232z"/>
			</defs>
			<clipPath id="SVGID_30_">
				<use xlink:href="#SVGID_29_"  overflow="visible"/>
			</clipPath>
			<polygon clip-path="url(#SVGID_30_)" fill="#F05E24" points="321.402,427.572 319.975,421.12 324.855,420.04 325.215,421.657 
				322.959,422.158 323.218,423.331 324.891,422.959 325.249,424.579 323.576,424.949 324.029,426.991 			"/>
		</g>
		<g>
			<defs>
				<path id="SVGID_31_" d="M314.605,429.189c-0.848,0.187-1.639,0.023-2.372-0.494c-0.734-0.516-1.202-1.24-1.408-2.17
					c-0.207-0.928-0.084-1.778,0.361-2.553c0.448-0.775,1.096-1.257,1.944-1.443c0.851-0.188,1.643-0.026,2.375,0.488
					c0.732,0.513,1.201,1.232,1.406,2.161c0.207,0.93,0.086,1.783-0.359,2.561C316.104,428.518,315.457,429,314.605,429.189z"/>
			</defs>
			<clipPath id="SVGID_32_">
				<use xlink:href="#SVGID_31_"  overflow="visible"/>
			</clipPath>
			<path clip-path="url(#SVGID_32_)" fill="#E31D3B" d="M314.95,422.232l3.878-0.858c0.672-0.149,1.24-0.082,1.705,0.202
				c0.466,0.281,0.759,0.699,0.882,1.252c0.134,0.608,0.015,1.135-0.36,1.578c0.816,0.654,1.428,1.6,1.832,2.838l-2.729,0.604
				c-0.229-0.805-0.474-1.382-0.734-1.731c-0.263-0.351-0.577-0.484-0.948-0.403l0.528,2.391l-2.626,0.58L314.95,422.232z"/>
		</g>
		<g>
			<defs>
				<path id="SVGID_33_" d="M314.605,429.189c-0.848,0.187-1.639,0.023-2.372-0.494c-0.734-0.516-1.202-1.24-1.408-2.17
					c-0.207-0.928-0.084-1.778,0.361-2.553c0.448-0.775,1.096-1.257,1.944-1.443c0.851-0.188,1.643-0.026,2.375,0.488
					c0.732,0.513,1.201,1.232,1.406,2.161c0.207,0.93,0.086,1.783-0.359,2.561C316.104,428.518,315.457,429,314.605,429.189z"/>
			</defs>
			<clipPath id="SVGID_34_">
				<use xlink:href="#SVGID_33_"  overflow="visible"/>
			</clipPath>
			<polygon clip-path="url(#SVGID_34_)" fill="#A21C37" points="308.669,430.391 307.24,423.938 309.869,423.356 310.94,428.189 
				313.244,427.68 313.602,429.301 			"/>
		</g>
		<g>
			<defs>
				<path id="SVGID_35_" d="M306.803,430.915c-0.848,0.189-1.638,0.024-2.37-0.492c-0.734-0.516-1.205-1.24-1.41-2.171
					c-0.205-0.927-0.085-1.777,0.363-2.552c0.446-0.775,1.095-1.255,1.942-1.444c0.851-0.188,1.643-0.025,2.376,0.487
					c0.732,0.514,1.201,1.234,1.406,2.162c0.205,0.929,0.086,1.783-0.361,2.562C308.303,430.244,307.653,430.728,306.803,430.915z"
					/>
			</defs>
			<clipPath id="SVGID_36_">
				<use xlink:href="#SVGID_35_"  overflow="visible"/>
			</clipPath>
			<polygon clip-path="url(#SVGID_36_)" fill="#542E88" points="308.669,430.391 307.24,423.938 309.869,423.356 310.94,428.189 
				313.244,427.68 313.602,429.301 			"/>
		</g>
		<g>
			<defs>
				<path id="SVGID_37_" d="M304.598,425.132l-0.597,2.523c-0.349-0.05-0.718-0.033-1.105,0.054c-0.558,0.123-0.801,0.35-0.727,0.68
					c0.034,0.158,0.14,0.265,0.314,0.318c0.174,0.054,0.407,0.05,0.695-0.015c0.388-0.086,0.705-0.235,0.952-0.45l1.643,2.201
					c-0.266,0.271-0.607,0.517-1.021,0.736c-0.414,0.218-0.823,0.372-1.224,0.461c-1.01,0.224-1.883,0.084-2.62-0.415
					c-0.738-0.502-1.21-1.214-1.414-2.139c-0.217-0.979-0.085-1.854,0.396-2.626c0.482-0.774,1.202-1.268,2.162-1.48
					c0.415-0.093,0.858-0.125,1.326-0.1C303.851,424.905,304.255,424.989,304.598,425.132z"/>
			</defs>
			<clipPath id="SVGID_38_">
				<use xlink:href="#SVGID_37_"  overflow="visible"/>
			</clipPath>
			<path clip-path="url(#SVGID_38_)" fill="#204393" d="M306.803,430.915c-0.848,0.189-1.638,0.024-2.37-0.492
				c-0.734-0.516-1.205-1.24-1.41-2.171c-0.205-0.927-0.085-1.777,0.363-2.552c0.446-0.775,1.095-1.255,1.942-1.444
				c0.851-0.188,1.643-0.025,2.376,0.487c0.732,0.514,1.201,1.234,1.406,2.162c0.205,0.929,0.086,1.783-0.361,2.562
				C308.303,430.244,307.653,430.728,306.803,430.915z"/>
		</g>
	</g>
	<path fill="#4895D0" d="M327.202,437.942l-0.283,0.749c-0.199-0.054-0.374-0.063-0.525-0.031c-0.101,0.023-0.174,0.068-0.223,0.138
		c-0.048,0.071-0.062,0.152-0.041,0.246c0.04,0.176,0.165,0.24,0.377,0.192l-0.073-0.341l0.885-0.194l0.259,1.172
		c-0.352,0.102-0.594,0.165-0.719,0.193c-0.489,0.108-0.854,0.07-1.096-0.113c-0.239-0.184-0.393-0.425-0.459-0.727
		c-0.047-0.207-0.045-0.407,0.007-0.6c0.05-0.192,0.148-0.354,0.294-0.486c0.147-0.132,0.334-0.224,0.562-0.274
		c0.163-0.036,0.335-0.046,0.518-0.034C326.867,437.846,327.04,437.883,327.202,437.942z M327.876,437.523l1.308-0.288
		c0.226-0.051,0.417-0.027,0.574,0.068c0.156,0.094,0.256,0.234,0.297,0.42c0.046,0.206,0.005,0.383-0.121,0.533
		c0.274,0.22,0.48,0.538,0.616,0.955l-0.919,0.203c-0.076-0.271-0.159-0.465-0.247-0.583c-0.089-0.118-0.194-0.163-0.319-0.135
		l0.179,0.804l-0.885,0.196L327.876,437.523z M328.86,437.776l0.093,0.418l0.025-0.006c0.159-0.034,0.223-0.121,0.192-0.257
		c-0.013-0.057-0.039-0.104-0.081-0.139c-0.042-0.036-0.102-0.047-0.176-0.03L328.86,437.776z M332.105,438.904
		c-0.286,0.064-0.552,0.009-0.799-0.165s-0.405-0.417-0.475-0.731c-0.069-0.312-0.027-0.599,0.122-0.859
		c0.152-0.262,0.369-0.423,0.654-0.485c0.287-0.065,0.553-0.01,0.801,0.163c0.247,0.173,0.405,0.415,0.474,0.728
		c0.069,0.313,0.027,0.602-0.122,0.864C332.61,438.68,332.393,438.842,332.105,438.904z M331.793,437.495
		c-0.057,0.013-0.099,0.044-0.128,0.096c-0.028,0.052-0.034,0.11-0.02,0.176s0.047,0.116,0.093,0.151
		c0.048,0.034,0.1,0.045,0.156,0.032c0.057-0.012,0.101-0.044,0.129-0.096c0.027-0.052,0.033-0.109,0.02-0.176
		c-0.015-0.065-0.046-0.115-0.092-0.15C331.903,437.494,331.851,437.482,331.793,437.495z M335.23,435.896l0.217,0.985
		c0.096,0.431,0.064,0.764-0.096,1.001c-0.159,0.238-0.368,0.385-0.628,0.442c-0.188,0.042-0.378,0.027-0.571-0.039
		c-0.191-0.07-0.342-0.186-0.448-0.344s-0.191-0.381-0.254-0.664l-0.209-0.941l0.886-0.196l0.222,1.006
		c0.025,0.108,0.049,0.175,0.073,0.2c0.023,0.023,0.053,0.032,0.089,0.025c0.047-0.01,0.072-0.045,0.075-0.1
		c0.001-0.054-0.012-0.142-0.04-0.265l-0.201-0.915L335.23,435.896z M336.12,435.7l1.211-0.27c0.256-0.057,0.468-0.029,0.638,0.081
		c0.167,0.11,0.274,0.271,0.32,0.478c0.045,0.203,0.018,0.391-0.081,0.563c-0.099,0.171-0.24,0.277-0.423,0.316
		c-0.153,0.035-0.318,0.005-0.499-0.087l0.197,0.896l-0.883,0.196L336.12,435.7z M337.107,435.975l0.104,0.472
		c0.028,0.003,0.053,0,0.077-0.005c0.065-0.015,0.114-0.049,0.145-0.104c0.031-0.054,0.039-0.118,0.021-0.192
		c-0.016-0.073-0.046-0.127-0.09-0.162c-0.045-0.034-0.099-0.044-0.164-0.029L337.107,435.975z M339.685,434.398l-16.306,3.609
		l0.71,3.198l16.304-3.609L339.685,434.398z"/>
</g>
</svg>
