<?xml version="1.0" encoding="utf-8"?>
<!-- Generator: Adobe Illustrator 16.0.0, SVG Export Plug-In . SVG Version: 6.00 Build 0)  -->
<!DOCTYPE svg PUBLIC "-//W3C//DTD SVG 1.1//EN" "http://www.w3.org/Graphics/SVG/1.1/DTD/svg11.dtd">
<svg version="1.1" id="Layer_1" xmlns="http://www.w3.org/2000/svg" xmlns:xlink="http://www.w3.org/1999/xlink" x="0px" y="0px"
	 width="495px" height="394px" viewBox="0 0 495 394" enable-background="new 0 0 495 394" xml:space="preserve">
<g>
	<defs>
		<rect id="SVGID_1_" width="494.4" height="393.2"/>
	</defs>
	<clipPath id="SVGID_2_">
		<use xlink:href="#SVGID_1_"  overflow="visible"/>
	</clipPath>
	<g clip-path="url(#SVGID_2_)">
		
			<path fill="none" stroke="#FFC910" stroke-width="0.75" stroke-linecap="round" stroke-linejoin="round" stroke-miterlimit="10" d="
			M197.7,267l6,5.3"/>
		
			<path fill="none" stroke="#FFC910" stroke-width="0.75" stroke-linecap="round" stroke-linejoin="round" stroke-miterlimit="10" d="
			M211,267l6,5.3"/>
		
			<path fill="none" stroke="#FFC910" stroke-width="0.75" stroke-linecap="round" stroke-linejoin="round" stroke-miterlimit="10" d="
			M379.4,257V154.9"/>
		
			<path fill="none" stroke="#FFC910" stroke-width="0.75" stroke-linecap="round" stroke-linejoin="round" stroke-miterlimit="10" d="
			M390.6,257V154.9"/>
		
			<path fill="none" stroke="#FFC910" stroke-width="0.75" stroke-linecap="round" stroke-linejoin="round" stroke-miterlimit="10" d="
			M305.9,247.5h-29v21.8"/>
		
			<path fill="none" stroke="#FFC910" stroke-width="0.75" stroke-linecap="round" stroke-linejoin="round" stroke-miterlimit="10" d="
			M299.5,241.8h-28.9v21.9"/>
		
			<path fill="none" stroke="#FFC910" stroke-width="0.75" stroke-linecap="round" stroke-linejoin="round" stroke-miterlimit="10" d="
			M203.7,392.9V272.3"/>
		
			<path fill="none" stroke="#FFC910" stroke-width="0.75" stroke-linecap="round" stroke-linejoin="round" stroke-miterlimit="10" d="
			M217,392.9V272.3"/>
		
			<path fill="none" stroke="#111111" stroke-width="0.75" stroke-linecap="round" stroke-linejoin="round" stroke-miterlimit="10" d="
			M444,263.1V387.4H295.5V263.1"/>
		
			<path fill="none" stroke="#111111" stroke-width="0.75" stroke-linecap="round" stroke-linejoin="round" stroke-miterlimit="10" d="
			M294.5,263.1H443"/>
		
			<path fill="none" stroke="#111111" stroke-width="0.75" stroke-linecap="round" stroke-linejoin="round" stroke-miterlimit="10" d="
			M268.5,228H284"/>
		
			<path fill="none" stroke="#111111" stroke-width="0.75" stroke-linecap="round" stroke-linejoin="round" stroke-miterlimit="10" d="
			M268.5,240l26,23.1"/>
		
			<path fill="none" stroke="#111111" stroke-width="0.75" stroke-linecap="round" stroke-linejoin="round" stroke-miterlimit="10" d="
			M280.3,374.7l14.2,12.7"/>
		
			<path fill="none" stroke="#111111" stroke-width="0.75" stroke-linecap="round" stroke-linejoin="round" stroke-miterlimit="10" d="
			M436.1,257l6.9,6.1"/>
		
			<path fill="none" stroke="#111111" stroke-width="0.75" stroke-linecap="round" stroke-linejoin="round" stroke-miterlimit="10" d="
			M453,154.8V257H316.6V149.2"/>
		
			<path fill="none" stroke="#111111" stroke-width="0.75" stroke-linecap="round" stroke-linejoin="round" stroke-miterlimit="10" d="
			M280.3,224.8v-91.3"/>
		
			<path fill="none" stroke="#111111" stroke-width="0.75" stroke-linecap="round" stroke-linejoin="round" stroke-miterlimit="10" d="
			M280.3,224.8l36.3,32.2"/>
		
			<path fill="none" stroke="#111111" stroke-width="0.75" stroke-linecap="round" stroke-linejoin="round" stroke-miterlimit="10" d="
			M466.9,34.4h-144v120.5h144V34.4z"/>
		
			<path fill="none" stroke="#111111" stroke-width="0.75" stroke-linecap="round" stroke-linejoin="round" stroke-miterlimit="10" d="
			M284.6,0.4h143.9"/>
		
			<path fill="none" stroke="#111111" stroke-width="0.75" stroke-linecap="round" stroke-linejoin="round" stroke-miterlimit="10" d="
			M284.6,0.4l38.301,34"/>
		
			<path fill="none" stroke="#111111" stroke-width="0.75" stroke-linecap="round" stroke-linejoin="round" stroke-miterlimit="10" d="
			M288.7,124.5l34.2,30.4"/>
		
			<path fill="none" stroke="#111111" stroke-width="0.75" stroke-linecap="round" stroke-linejoin="round" stroke-miterlimit="10" d="
			M466.8,34.4l-38.3-34v34"/>
		
			<path fill="none" stroke="#111111" stroke-width="0.75" stroke-linecap="round" stroke-linejoin="round" stroke-miterlimit="10" d="
			M280.4,272.3h-144v120.5h144V272.3z"/>
		
			<path fill="none" stroke="#111111" stroke-width="0.75" stroke-linecap="round" stroke-linejoin="round" stroke-miterlimit="10" d="
			M98.1,358.8V243.5"/>
		
			<path fill="none" stroke="#111111" stroke-width="0.75" stroke-linecap="round" stroke-linejoin="round" stroke-miterlimit="10" d="
			M130.4,267l6,5.3"/>
		
			<path fill="none" stroke="#111111" stroke-width="0.75" stroke-linecap="round" stroke-linejoin="round" stroke-miterlimit="10" d="
			M98.1,358.8l38.3,34.101"/>
		
			<path fill="none" stroke="#111111" stroke-width="0.75" stroke-linecap="round" stroke-linejoin="round" stroke-miterlimit="10" d="
			M268.5,261.8l11.8,10.5"/>
		
			<path fill="none" stroke="#111111" stroke-width="0.75" stroke-linecap="round" stroke-linejoin="round" stroke-miterlimit="10" d="
			M268.5,146.5h-144V267h144V146.5z"/>
		
			<path fill="none" stroke="#111111" stroke-width="0.75" stroke-linecap="round" stroke-linejoin="round" stroke-miterlimit="10" d="
			M211.8,112.6c6.1,0,12.2-0.1,18.3-0.1"/>
		
			<path fill="none" stroke="#111111" stroke-width="0.75" stroke-linecap="round" stroke-linejoin="round" stroke-miterlimit="10" d="
			M86.2,112.5c36.4,0,72.8,0,109.2,0"/>
		
			<path fill="none" stroke="#111111" stroke-width="0.75" stroke-linecap="round" stroke-linejoin="round" stroke-miterlimit="10" d="
			M86.2,233v-61.8"/>
		
			<path fill="none" stroke="#111111" stroke-width="0.75" stroke-linecap="round" stroke-linejoin="round" stroke-miterlimit="10" d="
			M86.2,112.5l38.3,34"/>
		
			<path fill="none" stroke="#111111" stroke-width="0.75" stroke-linecap="round" stroke-linejoin="round" stroke-miterlimit="10" d="
			M86.2,233l38.3,34"/>
		
			<path fill="none" stroke="#111111" stroke-width="0.75" stroke-linecap="round" stroke-linejoin="round" stroke-miterlimit="10" d="
			M230.2,112.5l38.3,34"/>
		
			<path fill="none" stroke="#111111" stroke-width="0.75" stroke-linecap="round" stroke-linejoin="round" stroke-miterlimit="10" d="
			M125.2,146.5l-68.5,43.3l-39-34l68.5-43.3"/>
		
			<path fill="none" stroke="#111111" stroke-width="0.75" stroke-linecap="round" stroke-linejoin="round" stroke-miterlimit="10" d="
			M284.5,48.8v5"/>
		
			<path fill="none" stroke="#111111" stroke-width="0.75" stroke-linecap="round" stroke-linejoin="round" stroke-miterlimit="10" d="
			M284.5,48.8L257.1,59L217.7,25.4C240,17,262.3,8.7,284.6,0.3"/>
		
			<path fill="none" stroke="#111111" stroke-width="0.75" stroke-linecap="round" stroke-linejoin="round" stroke-miterlimit="10" d="
			M322.8,34.5l-38.3,14.3"/>
		
			<path fill="none" stroke="#111111" stroke-width="0.75" stroke-linecap="round" stroke-linejoin="round" stroke-miterlimit="10" d="
			M268.1,146.7l54.7-58.9l-38.1-34l-54.8,58.9v33.8"/>
		
			<path fill="none" stroke="#111111" stroke-width="0.75" stroke-linecap="round" stroke-linejoin="round" stroke-miterlimit="10" d="
			M466.8,52.8L494,77.1l-27.3-42.7"/>
		<path fill="#111111" d="M38.7,61.9c0-0.5,0-2.7,1.7-4.5c2.4-2.5,6-1.7,6.1-1.7c0.6,0.6,1.7,1.8,3.2,3.1
			c26.7,26,57.3,38.7,70.2,36.9c1-0.1,5.4-0.8,11.7-1.1c3.9-0.2,7.2-0.2,9.4-0.1c2.9,5,8.3,7.9,13.9,7.5c7.5-0.5,11.4-6.7,11.8-7.3
			c1.6-0.1,10.8-0.7,18.1,6c4.7,4.4,6.3,9.5,6.8,11.8c-32.7,0-65.5,0.1-98.2,0.1c-11-7-23.8-16.6-36.5-29.6
			C49.8,75.8,43.8,68.6,38.7,61.9z"/>
		
			<path fill="none" stroke="#111111" stroke-width="0.75" stroke-linecap="round" stroke-linejoin="round" stroke-miterlimit="10" d="
			M169.6,96c-2.6,0.2-4.6-0.1-5.8-0.4c-1.5-0.4-2.1-0.8-2.5-1.2c-0.6-0.6-0.9-1.4-1-3.4c0-0.4,0-0.8,0-1.2"/>
		
			<path fill="none" stroke="#111111" stroke-width="0.75" stroke-linecap="round" stroke-linejoin="round" stroke-miterlimit="10" d="
			M135.5,95.6c3.6,0.2,6.3-0.1,7.7-0.5c0.5-0.1,1.3-0.4,2-1c0.2-0.2,0.6-0.6,1-1.2c0.4-0.7,0.9-1.7,1.3-2.8"/>
		
			<path fill="none" stroke="#111111" stroke-width="0.75" stroke-linecap="round" stroke-linejoin="round" stroke-miterlimit="10" d="
			M195.2,112.5c1.3,0.1,2.6,0.1,3.9,0.2c0.4,0.5,0.9,1.3,1.3,2.4c1.1,3.3,0,6.3,0.5,6.5c0.3,0.1,1.2-1.2,1.7-3
			c0.9-3.4-0.3-6.4-0.2-6.5c0.1,0,0.7,1.3,1.1,3.5c0.9,5.4-0.7,9.3-0.3,9.4c0.4,0.1,2.2-2.9,2.7-6.8c0.4-3.4-0.2-6.2-0.1-6.2
			c0.1,0,0.4,1.6,0.7,3.7c0.5,4.3,0,6.6,0.4,6.7s1.4-2.3,1.8-4.7c0.4-2.4,0-4.5-0.4-5.8c0.4,0.2,0.9,0.6,1.5,1.2
			c0.1,0.1,0.6,0.6,1.1,1.4c0.8,1.2,1.1,2.4,1.4,2.3c0.3-0.1,0.3-1.2,0.2-2.1c-0.2-2.3-1.5-4.9-3-5.3c-0.2-0.1-0.5-0.1-1.1-0.3
			c-0.5-0.1-0.8-0.3-1.4-0.3c-0.2,0-0.3,0-0.4,0c-0.7,0-1,0.2-1.4,0.3c-0.7,0.2-0.7-0.2-1.7-0.1c-0.7,0-0.7,0.2-1.4,0.3
			c-0.9,0.1-1.5-0.1-1.7-0.1C199.4,108.9,198,109.4,195.2,112.5z"/>
		
			<path fill="none" stroke="#111111" stroke-width="0.75" stroke-linecap="round" stroke-linejoin="round" stroke-miterlimit="10" d="
			M45.8,45.6l13.1-2.2l-19-36.8L2.8,8.1c0.4,1.7,11.5,42.8,11.5,42.8c9.6-1.6,19.2-3.2,28.7-4.8"/>
		
			<path fill="none" stroke="#111111" stroke-width="0.75" stroke-linecap="round" stroke-linejoin="round" stroke-miterlimit="10" d="
			M40.5,60.7c-0.2-0.5-0.6-1.3-1.2-2.2c-1.2-1.8-2.5-2.8-2.9-3.2c-1.3-1.1-2.8-3.2-3.9-7.6"/>
		
			<path fill="none" stroke="#111111" stroke-width="0.75" stroke-linecap="round" stroke-linejoin="round" stroke-miterlimit="10" d="
			M43.7,59.6c-0.2-1.4-0.3-3.3,0.7-5c0.9-1.5,1.7-1.3,2.4-2.5c1.1-1.9-0.5-3.4-1.8-9.9c-0.3-1.7-0.5-3-0.9-3c-0.6,0-1.1,2.5-1.1,2.6
			c-0.3,1.3-0.4,3.4,0.3,6.1"/>
		<path fill="#111111" d="M160.5,92.8c-0.1-1.1-0.2-2.1-0.3-3.2c1.5-1,3.9-3,5.9-6.1c2.1-3.2,2.8-6.3,3.1-8.1
			c0.3-0.3,0.6-0.7,0.9-1.2c1.9-3,2.2-7.4,0.6-8.3c-0.4-0.2-1.1-0.4-2.7,0.4c-1.7-3.5-3.8-5.4-5.3-6.6c-2.1-1.6-3.6-2-6.2-4
			c-1.9-1.5-3.2-3.1-4-4.2c-0.7,1.4-2,3.3-4,5c-2.5,2-4.2,2.2-6,4c-1.2,1.2-2.5,3.3-2.9,7.1c-1.9-1.2-2.7-1.2-3.1-0.9
			c-1.4,0.9-0.5,5.8,2,9.2c0.2,0.3,0.4,0.6,0.6,0.8c0.3,1.9,1,5.5,3.6,9c1.6,2.2,3.5,3.7,4.8,4.6c-0.2,0.5-0.4,0.9-0.6,1.4
			c-4,0.5-6.7,0.7-8.5,0.7c-0.1,0-0.2,0-0.4,0c-2.9,0-5.1-0.5-6.5-1c-0.6-3.2-1.2-7.6-1.4-12.9c-0.2-5.2,0-10,0.8-15.9
			c0.4-3.1,1.9-15.1,10.4-19.3c4-2,8.3-1.6,10.9-1.1c2-0.8,6.5-2.3,11.4-0.8c5.7,1.7,8.6,6.5,11.2,10.9c3.9,6.5,4.9,12.5,5.5,16.4
			c0.7,4.3,1.2,11.1-0.4,19.5c-0.4,0.2-1.2,0.5-2.1,0.8c-7,2.5-12.7,3.3-15.2,3.6C161.7,92.7,161,92.8,160.5,92.8z"/>
		
			<path fill="none" stroke="#111111" stroke-width="0.75" stroke-linecap="round" stroke-linejoin="round" stroke-miterlimit="10" d="
			M157.9,65.1c0.6-0.3,1.5-0.5,2.5-0.6c2.4-0.1,4.2,0.9,4.9,1.4"/>
		
			<path fill="none" stroke="#111111" stroke-width="0.75" stroke-linecap="round" stroke-linejoin="round" stroke-miterlimit="10" d="
			M150.4,65.1c-0.6-0.3-1.5-0.5-2.5-0.6c-2.4-0.1-4.2,0.9-4.9,1.4"/>
		<path fill="#111111" d="M161.2,73.8c0.9-0.1,1.9-4.1,0.5-5c-0.6-0.4-1.5-0.2-2,0.3C158.5,70.3,160.3,73.9,161.2,73.8z"/>
		<path fill="#111111" d="M146.4,73.8c-0.9,0-2.1-4-0.8-5c0.5-0.4,1.5-0.3,2,0.2C148.9,70.2,147.3,73.9,146.4,73.8z"/>
		
			<path fill="none" stroke="#111111" stroke-width="0.75" stroke-linecap="round" stroke-linejoin="round" stroke-miterlimit="10" d="
			M153.5,67.8c0.7,5.1-0.4,7.2-1.8,8.1c-0.9,0.6-2.2,0.9-2.2,1.7c-0.1,0.9,1.4,2,2.8,2.1c0.6,0.1,1.2-0.1,1.5-0.2"/>
		
			<path fill="none" stroke="#111111" stroke-width="0.75" stroke-linecap="round" stroke-linejoin="round" stroke-miterlimit="10" d="
			M151.3,84.8c0.8,0.2,2.1,0.4,3.6,0.1c3-0.6,4.6-2.6,5-3.1"/>
		
			<path fill="none" stroke="#111111" stroke-width="0.75" stroke-linecap="round" stroke-linejoin="round" stroke-miterlimit="10" d="
			M143.1,86.6c0.6,0.5,1.4,1.3,2.5,2c1.7,1.2,4.3,2.9,7.5,3.1c4.5,0.3,8.1-2.6,10-4.2c1.1-0.9,1.9-1.7,2.5-2.4"/>
		
			<path fill="none" stroke="#111111" stroke-width="0.75" stroke-linecap="round" stroke-linejoin="round" stroke-miterlimit="10" d="
			M12.2,18.4c1.3,4.9,2.6,9.8,3.9,14.7"/>
		
			<path fill="none" stroke="#111111" stroke-width="0.75" stroke-linecap="round" stroke-linejoin="round" stroke-miterlimit="10" d="
			M12.3,18.7c1.6-0.9,3.5-0.8,4.7,0.2c1.4,1.2,1.2,3.2,1.1,3.8c-0.3,2.8-3,4.3-3.3,4.5"/>
		
			<path fill="none" stroke="#111111" stroke-width="0.75" stroke-linecap="round" stroke-linejoin="round" stroke-miterlimit="10" d="
			M23.2,17.1c1,4.4,2,8.9,3.1,13.3c1.4-0.4,2.8-0.7,4.1-1.1"/>
		
			<path fill="none" stroke="#111111" stroke-width="0.75" stroke-linecap="round" stroke-linejoin="round" stroke-miterlimit="10" d="
			M23.1,17.5l4.1-1.2"/>
		
			<path fill="none" stroke="#111111" stroke-width="0.75" stroke-linecap="round" stroke-linejoin="round" stroke-miterlimit="10" d="
			M24.7,23.4l3.8-1.3"/>
		
			<path fill="none" stroke="#111111" stroke-width="0.75" stroke-linecap="round" stroke-linejoin="round" stroke-miterlimit="10" d="
			M32.4,17.4c-0.8,1.9,0.3,4.3,2.1,5.2c2.4,1.1,5.7-0.7,6-3.1c0.3-2.4-2.6-4.8-5.1-4.4C34.1,15.2,32.9,16.1,32.4,17.4z"/>
		
			<path fill="none" stroke="#111111" stroke-width="0.75" stroke-linecap="round" stroke-linejoin="round" stroke-miterlimit="10" d="
			M33.9,14.4c1.9,4.6,3.9,9.1,5.8,13.7"/>
		
			<path fill="none" stroke="#111111" stroke-width="0.75" stroke-linecap="round" stroke-linejoin="round" stroke-miterlimit="10" d="
			M46.1,46.5l10.7-1.6l-0.6-1"/>
		
			<path fill="none" stroke="#111111" stroke-width="0.75" stroke-linecap="round" stroke-linejoin="round" stroke-miterlimit="10" d="
			M43,47l-31.2,5.8L0.4,12.7H4"/>
		
			<path fill="none" stroke="#111111" stroke-width="0.75" stroke-linecap="round" stroke-linejoin="round" stroke-miterlimit="10" d="
			M115.2,138.2l27.8-13.7l47.7,22.2"/>
		
			<path fill="none" stroke="#111111" stroke-width="0.75" stroke-linecap="round" stroke-linejoin="round" stroke-miterlimit="10" d="
			M176.8,139.7c2-2.6,6.3-7.2,13.3-9.4c10.1-3.1,22.1,0.4,28.3,8.5c2.2,2.8,3.2,5.7,3.7,7.6"/>
		
			<path fill="none" stroke="#111111" stroke-width="0.75" stroke-linecap="round" stroke-linejoin="round" stroke-miterlimit="10" d="
			M305.1,18.6h58.2l19.9,15.8"/>
		
			<path fill="none" stroke="#111111" stroke-width="0.75" stroke-linecap="round" stroke-linejoin="round" stroke-miterlimit="10" d="
			M375.7,28.4h42.6c3,2,5.9,4,8.9,6"/>
		<rect x="349" y="356" fill="#111111" width="62" height="20"/>
		<rect x="344.5" y="353.5" fill="none" stroke="#000000" width="71" height="26"/>
		<rect x="359" y="368" fill="#FFFFFF" width="1" height="3"/>
		<rect x="357" y="372" fill="#FFFFFF" width="5" height="1"/>
		<rect x="371" y="372" fill="#FFFFFF" width="12" height="1"/>
		<rect x="397" y="364" fill="#FFFFFF" width="1" height="8"/>
		<rect x="394" y="371" fill="#FFFFFF" width="1" height="1"/>
		<rect x="395" y="372" fill="#FFFFFF" width="2" height="1"/>
		<rect x="381" y="360" fill="#FFFFFF" width="1" height="11"/>
		<rect x="380" y="361" fill="#FFFFFF" width="1" height="1"/>
		<rect x="379" y="362" fill="#FFFFFF" width="1" height="1"/>
		<rect x="378" y="363" fill="#FFFFFF" width="1" height="1"/>
		<rect x="384" y="363" fill="#FFFFFF" width="1" height="1"/>
		<rect x="383" y="362" fill="#FFFFFF" width="1" height="1"/>
		<rect x="382" y="361" fill="#FFFFFF" width="1" height="1"/>
		<rect x="372" y="360" fill="#FFFFFF" width="1" height="11"/>
		<rect x="371" y="361" fill="#FFFFFF" width="1" height="1"/>
		<rect x="370" y="362" fill="#FFFFFF" width="1" height="1"/>
		<rect x="369" y="363" fill="#FFFFFF" width="1" height="1"/>
		<rect x="375" y="363" fill="#FFFFFF" width="1" height="1"/>
		<rect x="374" y="362" fill="#FFFFFF" width="1" height="1"/>
		<rect x="373" y="361" fill="#FFFFFF" width="1" height="1"/>
		<rect x="390" y="362" fill="#FFFFFF" width="15" height="1"/>
		<rect x="392" y="361" fill="#FFFFFF" width="11" height="1"/>
		<rect x="394" y="360" fill="#FFFFFF" width="7" height="1"/>
		<rect x="356" y="365" fill="#FFFFFF" width="7" height="1"/>
		<rect x="355" y="360" fill="#FFFFFF" width="9" height="5"/>
		<rect x="357" y="366" fill="#FFFFFF" width="5" height="1"/>
	</g>
</g>
<g>
	<g id="OP01">
		<polygon fill="#00B0AE" points="383.81,217.682 383.81,169.263 403.544,169.263 403.544,205.529 420.826,205.529 420.826,217.682 
					"/>
		<path fill="#8BC541" d="M391.395,169.263v21.956c0,9.583-2.256,16.521-6.759,20.816c-4.506,4.295-9.649,6.441-15.431,6.441
			c-4.182,0-8.156-1.186-11.925-3.555c-3.763-2.369-6.404-5.494-7.924-9.375c-1.517-3.883-2.278-8.976-2.278-15.279v-21.004H391.395
			z"/>
		<polygon fill="#FCB814" points="310.443,217.682 310.443,169.263 347.078,169.263 347.078,181.414 330.147,181.414 
			330.147,190.204 342.7,190.204 342.7,202.357 330.147,202.357 330.147,217.682 		"/>
		<path fill="#F48024" d="M272.738,169.263h29.104c5.04,0,9,1.379,11.882,4.141c2.881,2.761,4.319,6.214,4.319,10.361
			c0,4.567-1.693,8.143-5.079,10.724c4.807,5.965,7.677,13.697,8.612,23.193h-20.463c-0.371-6.111-1.212-10.629-2.526-13.547
			c-1.313-2.92-3.362-4.381-6.144-4.381v17.928h-19.705V169.263z"/>
		<path fill="#EE4035" d="M259.257,218.477c-6.364,0-11.759-2.428-16.187-7.283c-4.428-4.854-6.641-10.771-6.641-17.751
			c0-6.96,2.213-12.856,6.641-17.69s9.822-7.25,16.187-7.25c6.384,0,11.789,2.417,16.217,7.25c4.427,4.833,6.641,10.729,6.641,17.69
			c0,6.98-2.214,12.898-6.641,17.751C271.046,216.049,265.641,218.477,259.257,218.477z M254.666,205.637l13.982-12.171
			l-13.982-12.157V205.637z"/>
		<polygon fill="#CA3091" points="214.886,217.682 214.886,169.263 234.619,169.263 234.619,205.529 251.902,205.529 
			251.902,217.682 		"/>
		<path fill="#644B9E" d="M200.71,218.477c-6.364,0-11.759-2.428-16.186-7.283c-4.428-4.854-6.641-10.771-6.641-17.751
			c0-6.96,2.213-12.856,6.641-17.69c4.427-4.833,9.822-7.25,16.186-7.25c6.384,0,11.789,2.417,16.217,7.25
			c4.428,4.833,6.642,10.729,6.642,17.69c0,6.98-2.214,12.898-6.642,17.751C212.499,216.049,207.095,218.477,200.71,218.477z"/>
		<path fill="#1479BE" d="M194.093,173.609l-8.261,17.104c-2.414-0.91-5.081-1.364-8-1.364c-4.184,0-6.275,1.237-6.275,3.712
			c0,1.186,0.583,2.111,1.752,2.777c1.167,0.666,2.832,0.999,4.991,0.999c2.919,0,5.43-0.571,7.532-1.713l8.261,18.34
			c-2.335,1.523-5.157,2.74-8.466,3.65c-3.308,0.908-6.47,1.363-9.486,1.363c-7.572,0-13.601-2.375-18.085-7.123
			c-4.487-4.75-6.729-10.594-6.729-17.534c0-7.338,2.335-13.393,7.006-18.163c4.671-4.771,10.606-7.155,17.808-7.155
			c3.112,0,6.329,0.46,9.647,1.38C189.105,170.802,191.874,172.045,194.093,173.609z"/>
	</g>
	<g id="OP01_1_">
		<g>
			<defs>
				<path id="SVGID_3_" d="M391.395,169.263v21.956c0,9.583-2.256,16.521-6.759,20.816c-4.506,4.295-9.649,6.441-15.431,6.441
					c-4.182,0-8.156-1.186-11.925-3.555c-3.763-2.369-6.404-5.494-7.924-9.375c-1.517-3.883-2.278-8.976-2.278-15.279v-21.004
					H391.395z"/>
			</defs>
			<clipPath id="SVGID_4_">
				<use xlink:href="#SVGID_3_"  overflow="visible"/>
			</clipPath>
			<polygon clip-path="url(#SVGID_4_)" fill="#1C9458" points="383.81,217.682 383.81,169.263 403.544,169.263 403.544,205.529 
				420.826,205.529 420.826,217.682 			"/>
		</g>
		<g>
			<defs>
				<path id="SVGID_5_" d="M272.738,169.263h29.104c5.04,0,9,1.379,11.882,4.141c2.881,2.761,4.319,6.214,4.319,10.361
					c0,4.567-1.693,8.143-5.079,10.724c4.807,5.965,7.677,13.697,8.612,23.193h-20.463c-0.371-6.111-1.212-10.629-2.526-13.547
					c-1.313-2.92-3.362-4.381-6.144-4.381v17.928h-19.705V169.263z"/>
			</defs>
			<clipPath id="SVGID_6_">
				<use xlink:href="#SVGID_5_"  overflow="visible"/>
			</clipPath>
			<polygon clip-path="url(#SVGID_6_)" fill="#F05E24" points="310.443,217.682 310.443,169.263 347.078,169.263 347.078,181.414 
				330.147,181.414 330.147,190.204 342.7,190.204 342.7,202.357 330.147,202.357 330.147,217.682 			"/>
		</g>
		<g>
			<defs>
				<path id="SVGID_7_" d="M259.257,218.477c-6.364,0-11.759-2.428-16.187-7.283c-4.428-4.854-6.641-10.771-6.641-17.751
					c0-6.96,2.213-12.856,6.641-17.69s9.822-7.25,16.187-7.25c6.384,0,11.789,2.417,16.217,7.25
					c4.427,4.833,6.641,10.729,6.641,17.69c0,6.98-2.214,12.898-6.641,17.751C271.046,216.049,265.641,218.477,259.257,218.477z"/>
			</defs>
			<clipPath id="SVGID_8_">
				<use xlink:href="#SVGID_7_"  overflow="visible"/>
			</clipPath>
			<path clip-path="url(#SVGID_8_)" fill="#E31D3B" d="M272.738,169.263h29.104c5.04,0,9,1.379,11.882,4.141
				c2.881,2.761,4.319,6.214,4.319,10.361c0,4.567-1.693,8.143-5.079,10.724c4.807,5.965,7.677,13.697,8.612,23.193h-20.463
				c-0.371-6.111-1.212-10.629-2.526-13.547c-1.313-2.92-3.362-4.381-6.144-4.381v17.928h-19.705V169.263z"/>
		</g>
		<g>
			<defs>
				<path id="SVGID_9_" d="M259.257,218.477c-6.364,0-11.759-2.428-16.187-7.283c-4.428-4.854-6.641-10.771-6.641-17.751
					c0-6.96,2.213-12.856,6.641-17.69s9.822-7.25,16.187-7.25c6.384,0,11.789,2.417,16.217,7.25
					c4.427,4.833,6.641,10.729,6.641,17.69c0,6.98-2.214,12.898-6.641,17.751C271.046,216.049,265.641,218.477,259.257,218.477z"/>
			</defs>
			<clipPath id="SVGID_10_">
				<use xlink:href="#SVGID_9_"  overflow="visible"/>
			</clipPath>
			<polygon clip-path="url(#SVGID_10_)" fill="#A21C37" points="214.886,217.682 214.886,169.263 234.619,169.263 234.619,205.529 
				251.902,205.529 251.902,217.682 			"/>
		</g>
		<g>
			<defs>
				<path id="SVGID_11_" d="M200.71,218.477c-6.364,0-11.759-2.428-16.186-7.283c-4.428-4.854-6.641-10.771-6.641-17.751
					c0-6.96,2.213-12.856,6.641-17.69c4.427-4.833,9.822-7.25,16.186-7.25c6.384,0,11.789,2.417,16.217,7.25
					c4.428,4.833,6.642,10.729,6.642,17.69c0,6.98-2.214,12.898-6.642,17.751C212.499,216.049,207.095,218.477,200.71,218.477z"/>
			</defs>
			<clipPath id="SVGID_12_">
				<use xlink:href="#SVGID_11_"  overflow="visible"/>
			</clipPath>
			<polygon clip-path="url(#SVGID_12_)" fill="#542E88" points="214.886,217.682 214.886,169.263 234.619,169.263 234.619,205.529 
				251.902,205.529 251.902,217.682 			"/>
		</g>
		<g>
			<defs>
				<path id="SVGID_13_" d="M194.093,173.609l-8.261,17.104c-2.414-0.91-5.081-1.364-8-1.364c-4.184,0-6.275,1.237-6.275,3.712
					c0,1.186,0.583,2.111,1.752,2.777c1.167,0.666,2.832,0.999,4.991,0.999c2.919,0,5.43-0.571,7.532-1.713l8.261,18.34
					c-2.335,1.523-5.157,2.74-8.466,3.65c-3.308,0.908-6.47,1.363-9.486,1.363c-7.572,0-13.601-2.375-18.085-7.123
					c-4.487-4.75-6.729-10.594-6.729-17.534c0-7.338,2.335-13.393,7.006-18.163c4.671-4.771,10.606-7.155,17.808-7.155
					c3.112,0,6.329,0.46,9.647,1.38C189.105,170.802,191.874,172.045,194.093,173.609z"/>
			</defs>
			<clipPath id="SVGID_14_">
				<use xlink:href="#SVGID_13_"  overflow="visible"/>
			</clipPath>
			<path clip-path="url(#SVGID_14_)" fill="#204393" d="M200.71,218.477c-6.364,0-11.759-2.428-16.186-7.283
				c-4.428-4.854-6.641-10.771-6.641-17.751c0-6.96,2.213-12.856,6.641-17.69c4.427-4.833,9.822-7.25,16.186-7.25
				c6.384,0,11.789,2.417,16.217,7.25c4.428,4.833,6.642,10.729,6.642,17.69c0,6.98-2.214,12.898-6.642,17.751
				C212.499,216.049,207.095,218.477,200.71,218.477z"/>
		</g>
	</g>
	<path fill="#4895D0" d="M335.502,301.048l-3.206,4.904c-1.337-0.699-2.572-1.049-3.706-1.049c-0.754,0-1.359,0.213-1.813,0.637
		c-0.456,0.424-0.685,0.984-0.685,1.684c0,1.324,0.801,1.986,2.399,1.986v-2.554h6.646v8.795c-2.688,0.164-4.507,0.246-5.457,0.246
		c-3.67,0-6.22-0.848-7.648-2.543s-2.144-3.673-2.144-5.931c0-1.553,0.332-2.979,0.998-4.275c0.666-1.296,1.625-2.301,2.881-3.013
		c1.255-0.713,2.741-1.068,4.459-1.068c1.206,0,2.453,0.19,3.746,0.572C333.263,299.819,334.439,300.355,335.502,301.048z
		 M340.998,299.123h9.801c1.697,0,3.031,0.465,4.002,1.395c0.97,0.93,1.455,2.093,1.455,3.489c0,1.539-0.57,2.743-1.711,3.612
		c1.619,2.008,2.586,4.612,2.9,7.811h-6.893c-0.124-2.06-0.408-3.579-0.851-4.563c-0.442-0.982-1.132-1.474-2.068-1.474v6.037
		h-6.636V299.123z M347.634,302.479v3.142h0.187c1.192,0,1.789-0.509,1.789-1.527c0-0.428-0.121-0.804-0.363-1.128
		c-0.243-0.324-0.646-0.486-1.209-0.486H347.634z M369.058,315.697c-2.144,0-3.961-0.817-5.452-2.452
		c-1.491-1.636-2.236-3.629-2.236-5.979c0-2.344,0.745-4.329,2.236-5.957s3.309-2.441,5.452-2.441c2.149,0,3.97,0.813,5.46,2.441
		c1.492,1.628,2.238,3.613,2.238,5.957c0,2.351-0.746,4.344-2.238,5.979C373.027,314.88,371.207,315.697,369.058,315.697z
		 M369.058,305.118c-0.427,0-0.78,0.162-1.062,0.486c-0.282,0.324-0.424,0.731-0.424,1.224s0.142,0.898,0.424,1.224
		c0.281,0.323,0.635,0.485,1.062,0.485c0.433,0,0.79-0.162,1.071-0.485c0.281-0.325,0.423-0.731,0.423-1.224
		s-0.142-0.899-0.423-1.224S369.49,305.118,369.058,305.118z M396.175,299.123v7.396c0,3.227-0.759,5.563-2.276,7.009
		c-1.517,1.446-3.248,2.17-5.195,2.17c-1.409,0-2.748-0.399-4.017-1.197s-2.157-1.851-2.669-3.157
		c-0.511-1.307-0.767-3.022-0.767-5.146v-7.074h6.646v7.555c0,0.813,0.066,1.326,0.196,1.539c0.132,0.213,0.329,0.32,0.591,0.32
		c0.366,0,0.6-0.193,0.697-0.581c0.098-0.39,0.146-1.042,0.146-1.962v-6.871H396.175z M402.845,299.123h9.095
		c1.921,0,3.396,0.529,4.424,1.587c1.029,1.058,1.544,2.367,1.544,3.928c0,1.523-0.488,2.821-1.465,3.889
		c-0.977,1.068-2.152,1.604-3.529,1.604c-1.147,0-2.291-0.474-3.431-1.422v6.722h-6.638V299.123z M409.482,302.649v3.548
		c0.197,0.057,0.379,0.085,0.55,0.085c0.499,0,0.901-0.17,1.21-0.513c0.309-0.341,0.462-0.79,0.462-1.346
		c0-0.549-0.132-0.981-0.394-1.299c-0.262-0.316-0.635-0.476-1.121-0.476H409.482z M430.41,295.452H308.063v24.012H430.41V295.452z"
		/>
</g>
</svg>
