<?xml version="1.0" encoding="utf-8"?>
<!-- Generator: Adobe Illustrator 16.0.0, SVG Export Plug-In . SVG Version: 6.00 Build 0)  -->
<!DOCTYPE svg PUBLIC "-//W3C//DTD SVG 1.1//EN" "http://www.w3.org/Graphics/SVG/1.1/DTD/svg11.dtd">
<svg version="1.1" id="Layer_1" xmlns="http://www.w3.org/2000/svg" xmlns:xlink="http://www.w3.org/1999/xlink" x="0px" y="0px"
	 width="642px" height="448px" viewBox="0 0 642 448" enable-background="new 0 0 642 448" xml:space="preserve">
<path fill="#111111" d="M396.968,154.216c16.03,6.686,29.725,8.809,38.96,9.446c15.075,1.061,29.194,2.017,42.251-3.609
	c1.698-0.743,7.537-3.184,15.605-3.396c3.396-0.106,6.157,0.212,7.962,0.531c0,0.636,0.105,1.379,0.637,2.122
	c1.062,1.38,3.397,1.168,4.883,1.062c3.503-0.319,6.264-2.123,7.963-3.503c2.972-0.637,7.324-1.273,12.633-1.061
	c10.722,0.318,18.79,3.821,24.521,6.58c21.656,10.614,41.189,22.289,52.761,29.4c1.062,2.229,0.425,4.67-1.168,5.731
	c-1.698,1.168-3.821,0.213-3.928,0.213c-4.989-1.911-9.022-3.397-11.571-4.246c-12.421-4.245-18.684-5.307-30.998-9.977
	c-2.548-0.955-4.671-1.804-6.051-2.335c0.212,2.654,0.424,5.519,0.85,8.491c0.212,1.698,0.425,3.397,0.742,4.989
	c-3.715-0.107-9.235-0.213-15.923-0.531c-9.235-0.531-12.952-0.955-17.835-1.168c-6.263-0.318-15.181-0.212-26.327,1.486
	c-2.017-0.743-4.776-1.486-8.174-1.698c-3.716-0.212-6.899,0.319-9.023,0.849c-0.638-2.229-1.274-4.457-1.805-6.686
	c-0.318-1.168-0.53-2.229-0.85-3.397c-16.773-0.955-38.004-4.457-60.51-14.328c-5.626-2.441-10.828-5.201-15.711-7.854
	c-1.486-1.061-2.229-2.76-1.806-4.352C395.27,155.065,396.756,154.322,396.968,154.216z"/>
<path fill="none" stroke="#111111" stroke-width="0.75" stroke-miterlimit="10" d="M516.396,143.602
	c-0.106,1.91,0,4.352,0.637,7.217c0,0,0.105,0.531,0.212,1.062c0.425,1.698,1.38,4.776,3.715,8.809"/>
<path fill="none" stroke="#111111" stroke-width="0.75" stroke-linecap="round" stroke-linejoin="round" stroke-miterlimit="10" d="
	M516.82,141.692c0.956,0.106,3.291,0.106,5.521-1.592c2.547-1.911,4.671-5.732,3.821-7.218c-0.106-0.212-0.743-1.273-3.928-0.424
	c1.486-2.866,4.353-9.552,2.336-15.284c-0.426-1.167-1.274-3.502-12.846-9.658c-11.996-6.474-14.013-5.944-14.649-4.988
	c-0.425,0.636-0.425,1.485-0.318,2.228c-1.487,3.184-7.962,17.725-6.794,27.49c0.106,0.955,0.424,2.653,0.637,4.245
	c1.593,9.765,2.653,11.993,3.503,12.843c0.106,0.106,0.213,0.212,0.318,0.318c1.911,1.698,4.777,1.274,6.263,1.061
	c5.309-0.849,11.891-5.625,12.739-6.262"/>
<path fill="none" stroke="#111111" stroke-width="0.75" stroke-miterlimit="10" d="M500.578,168.226
	c0.319-2.335,0.425-4.777,0.531-7.536c0.105-3.503,0-6.687-0.318-9.552"/>
<g>
	<path fill="#EAE8D3" d="M254.505,372.962c-0.637-0.319-1.486-0.849-2.336-1.592c-0.849-0.849-1.38-1.486-1.698-2.123
		c-0.531,0.637-2.017,2.335-4.671,3.078c-2.123,0.53-3.822,0.106-4.671-0.212c0,1.166,0.212,2.652,0.849,4.244
		c0.637,1.381,1.274,2.547,2.017,3.397c0.637,0.318,1.486,0.849,2.76,1.062c0,0,0,0,0.106,0c0.744,0.211,6.582,0.742,7.644-1.592
		c0.424-1.063-0.531-1.486-0.319-3.822C254.08,374.342,254.292,373.493,254.505,372.962z"/>
</g>
<path fill="#FFFFFF" stroke="#111111" stroke-width="0.75" stroke-miterlimit="10" d="M255.885,371.051
	c1.486-0.424,2.76,2.335,5.732,5.201c1.274,1.273,5.202,3.396,12.951,7.536c4.565,2.44,6.901,3.715,7.538,3.715
	c0,0,3.184,0.317,3.715,1.593v0.105c0.106,0.212,0.319,0.849,0.212,1.379c-0.53,2.972-7.218,5.095-13.375,4.777
	c-4.565-0.213-6.37-1.699-10.616-2.866c-1.911-0.531-3.503-0.743-5.52-1.062c-6.582-0.85-8.705,0.106-10.616-1.699
	c-1.063-0.955-1.38-2.121-2.229-4.563c-1.062-3.291-1.168-6.156-1.168-7.961c0.424,0.637,1.168,1.486,2.017,2.229
	c3.503,2.547,9.023,1.806,10.085-0.317c0.531-1.274-0.849-2.123-0.425-4.563C253.974,374.448,254.398,371.477,255.885,371.051z"/>
<path fill="none" stroke="#111111" stroke-width="0.75" stroke-miterlimit="10" d="M285.927,390.688
	c-0.53,1.272-1.38,3.396-3.503,4.987c-4.246,3.396-9.979,2.335-12.951,1.804c-3.291-0.636-7.75-1.272-9.979-4.139
	c-0.212-0.318-1.061-1.486-2.229-1.592c-0.956-0.105-1.593,0.425-1.911,0.637c-2.548,1.698-8.28,1.592-10.51-1.062
	c-0.424-0.425-1.38-1.804-1.061-4.776"/>
<path fill="#FFFFFF" d="M275.312,391.005c-1.062-1.274-2.654-3.185-4.884-3.502c-2.654-0.425-3.503,1.485-6.369,1.379
	c-3.61-0.212-5.52-3.396-7.431-2.547c-1.062,0.425-1.274,1.485-1.486,2.335"/>
<path fill="none" stroke="#111111" stroke-width="0.75" stroke-miterlimit="10" d="M275.312,391.005
	c-1.062-1.274-2.654-3.185-4.884-3.502c-2.654-0.425-3.503,1.485-6.369,1.379c-3.61-0.212-5.52-3.396-7.431-2.547
	c-1.062,0.425-1.274,1.485-1.486,2.335"/>
<path fill="#FFFFFF" stroke="#111111" stroke-width="0.75" stroke-miterlimit="10" d="M242.933,377.95
	c-0.849,0.849-8.068-3.821-7.537-5.2c0.213-0.637,1.699-0.531,2.336-0.425C241.235,372.855,243.57,377.314,242.933,377.95z"/>
<path fill="none" stroke="#111111" stroke-width="0.75" stroke-linecap="round" stroke-linejoin="round" stroke-miterlimit="10" d="
	M503.763,123.648c1.274-1.273,3.079-1.804,4.565-1.167c2.335,0.955,2.76,3.821,2.76,3.927"/>
<path fill="none" stroke="#111111" stroke-width="0.75" stroke-linecap="round" stroke-linejoin="round" stroke-miterlimit="10" d="
	M490.6,123.224c1.062-1.486,2.761-2.229,4.353-1.911c2.441,0.531,3.291,3.291,3.396,3.397"/>
<path fill="none" stroke="#111111" stroke-width="0.75" stroke-linecap="round" stroke-linejoin="round" stroke-miterlimit="10" d="
	M498.774,126.833c0.529,3.184,0.742,6.686-1.168,8.384c-1.594,1.38-3.929,0.955-4.141,1.805c-0.105,0.424,0.637,1.167,3.715,2.441"
	/>
<path fill="#FFC910" d="M317.244,317.24c-0.743,2.441-1.911,4.033-2.76,4.988c-0.638,0.85-2.229,2.547-2.974,4.883
	c-0.105,0.318-0.105,0.531-0.105,0.742c0,1.698,1.805,3.396,3.609,3.928c0.425,0.105,1.698,0.425,2.973-0.213
	c0.743-0.318,1.168-0.954,1.698-1.697c1.486-2.229,2.336-4.034,2.336-4.141c0.637-1.379,1.592-3.184,3.291-5.199
	c-0.531,0.212-1.593,0.529-2.761,0.424c-0.637,0-1.911-0.105-3.079-0.85C317.987,319.257,317.456,317.771,317.244,317.24z"/>
<path fill="#FFC910" d="M267.031,312.357c-0.106,1.274-0.318,6.899-0.318,9.553c0,0.107,0,0.531,0.106,0.956
	c0.319,1.379,1.38,2.864,2.866,3.29c0.956,0.318,1.699,0.105,2.548-0.106c1.38-0.319,2.442-0.956,3.079-1.38
	c0.212-3.927,0.318-7.854,0.53-11.781c-0.955,0.531-1.698,0.743-2.229,0.85c-1.698,0.318-3.185-0.213-5.202-0.955
	C267.881,312.677,267.35,312.464,267.031,312.357z"/>
<g>
	<path fill="#EAE8D3" d="M207.689,412.763c0-0.955,0-1.805,0-2.76c0.106-3.927,0.425-7.642,0.955-11.038
		c-1.38,0.531-4.246,1.274-7.749,0.531c-2.017-0.425-3.503-1.063-4.671-1.698c0,0.53,0,1.062,0,1.592
		c-0.106,4.776-0.531,9.341-1.062,13.691c0.213,0.531,0.531,1.274,1.168,2.017c1.486,1.805,4.565,3.185,7.325,2.123
		C206.627,416.053,207.583,413.081,207.689,412.763z"/>
</g>
<path fill="#FFFFFF" stroke="#111111" stroke-width="0.75" stroke-miterlimit="10" d="M210.874,410.852
	c1.486,0.531,1.061,3.609,2.017,7.748c0.424,1.806,2.547,5.944,7.006,14.011c2.654,4.775,3.928,7.217,4.459,7.642
	c0,0,2.548,2.123,2.335,3.609v0.105c0,0.212-0.212,0.85-0.637,1.38c-2.123,2.335-9.235,0.212-14.437-3.608
	c-5.202-3.821-4.671-6.793-11.784-12.736c-3.715-3.078-5.308-3.503-6.475-5.944c-2.017-4.139-0.213-9.233,1.592-12.948
	c0.212,1.273,0.425,2.441,0.637,3.715c6.051,3.927,8.493,4.033,9.554,3.078c0.956-0.85,0.637-2.441,2.229-4.245
	C207.37,412.55,209.494,410.322,210.874,410.852z"/>
<path fill="none" stroke="#111111" stroke-width="0.75" stroke-miterlimit="10" d="M225.948,445.24
	c-1.168,0.85-3.185,2.017-5.838,2.229c-5.627,0.425-10.085-3.714-12.315-5.942c-2.548-2.441-5.945-5.732-6.369-9.341
	c-0.106-0.53-0.106-1.91-0.956-2.653c-0.955-0.85-2.123-0.424-3.503-0.53c-2.76-0.319-6.051-3.078-6.475-6.262
	c-0.319-2.76,1.486-4.883,2.017-5.308"/>
<path fill="#FFFFFF" d="M212.466,434.627c-0.106-1.805-0.531-4.246-2.335-5.838c-2.017-1.91-3.822-0.637-6.37-2.547
	c-3.078-2.229-2.972-6.05-5.095-6.475c-1.062-0.213-2.017,0.53-2.654,1.167"/>
<path fill="none" stroke="#111111" stroke-width="0.75" stroke-miterlimit="10" d="M212.466,434.627
	c-0.106-1.805-0.531-4.246-2.335-5.838c-2.017-1.91-3.822-0.637-6.37-2.547c-3.078-2.229-2.972-6.05-5.095-6.475
	c-1.062-0.213-2.017,0.53-2.654,1.167"/>
<path fill="#FFFFFF" stroke="#111111" stroke-width="0.75" stroke-miterlimit="10" d="M195.162,410.852
	c-1.167,0.214-4.777-7.96-3.609-8.914c0.531-0.426,1.805,0.53,2.229,0.954C196.649,405.439,196.012,410.746,195.162,410.852z"/>
<path fill="none" stroke="#111111" stroke-width="0.75" stroke-miterlimit="10" d="M275.842,302.063
	c8.387-0.105,17.941,0.319,28.769,2.654c7.962,1.698,14.225,3.928,17.728,5.2"/>
<path fill="none" stroke="#111111" stroke-width="0.75" stroke-miterlimit="10" d="M239.218,217.685
	c-0.849,2.972-1.911,5.201-2.76,6.58c-2.229,3.715-6.37,8.704-7.537,10.614c-0.531,0.955-0.956,1.805-1.38,2.653
	c0,0.106-0.107,0.213-0.213,0.319c-0.318,0.742-1.38,3.289-2.229,6.155c-1.168,4.351-1.592,8.81-1.592,9.87"/>
<path fill="none" stroke="#111111" stroke-width="0.75" stroke-miterlimit="10" d="M388.051,149.44
	c0.743-15.921,0-22.926-0.955-26.322c-0.106-0.531-0.637-2.335-0.956-4.882c-0.53-4.564,0.106-8.067,0.212-8.916
	c1.806-11.887-22.293-32.902-19.744-51.794c0.212-1.274,0.955-6.156-1.911-9.234c-2.973-3.078-8.28-2.441-8.705-2.335
	c-3.503,0.531-6.9,2.759-8.386,5.731c-2.761,5.413,2.335,8.915,0.317,13.691c-2.335,5.413-10.297,3.927-19.002,10.295
	c-5.308,3.821-7.537,8.173-9.448,11.357c-8.705,13.903-21.762,21.545-47.665,45.957c-23.673,22.289-35.563,33.539-36.836,43.092
	c-1.699,12.099,4.034,19.104,5.201,29.081"/>
<path fill="none" stroke="#111111" stroke-width="0.75" stroke-miterlimit="10" d="M484.549,281.473
	c-2.761-1.168-5.096-2.44-7.007-3.715c-9.448-5.73-12.314-10.932-25.902-18.043c-7.112-3.715-8.705-3.503-11.253-6.262
	c-6.688-7.005-3.396-15.92-3.716-27.383c-0.53-17.088-8.492-18.893-11.04-34.602c-3.608-22.394,9.13-40.968,16.985-52.218
	c13.481-19.529,20.595-15.496,30.998-34.707c7.962-14.541,5.414-19.635,15.712-33.963c6.581-9.127,10.934-11.781,13.269-20.59
	c2.762-10.507-1.061-15.708,3.822-20.909c5.414-5.837,16.136-5.837,22.718-4.458c8.6,1.804,14.119,6.793,22.505,14.435
	c2.761,2.547,8.068,7.324,11.784,12.63c13.163,19.104-4.883,30.673,4.458,58.799c3.186,9.764,10.085,22.501,6.477,31.098
	c-0.426,1.061-2.018,4.457-1.486,9.021c0.531,4.67,2.972,8.066,3.928,9.552c0,0.107,0.106,0.107,0.106,0.107
	c2.017,2.759,9.022,12.63,26.539,37.253"/>
<path fill="none" stroke="#111111" stroke-width="0.75" stroke-miterlimit="10" d="M534.018,290.07
	c-7.75-0.213-16.984-0.743-27.282-2.654c-3.928-0.637-7.112-1.379-9.342-1.91"/>
<path fill="none" stroke="#111111" stroke-width="0.75" stroke-miterlimit="10" d="M612.999,212.166
	c0.531,0.637,4.565,5.519,6.476,8.172c0.638,0.85,3.079,4.458,3.186,4.564c0.105,0.105,0.105,0.105,0.212,0.213
	c8.068,11.355,11.677,14.859,15.711,22.925c0.956,1.91,1.487,2.972,1.699,3.502c2.866,9.978-9.554,19.954-13.164,22.819
	c-19.214,15.39-48.938,15.603-77.495,15.603c-1.061,0-2.229,0-3.397,0"/>
<path fill="none" stroke="#111111" stroke-width="0.75" stroke-miterlimit="10" d="M354.399,226.707
	c3.503,3.714,10.19,12.1,11.146,23.88c0.53,6.899-1.168,12.524-3.291,17.937c-8.067,20.166-22.506,37.254-31.635,46.912
	c0.317,0.85,0.743,1.806,1.061,2.654c-1.167,0-2.335,0-3.503,0c0.319,0.955,0.531,2.016,0.85,2.971
	c-1.167-0.105-2.335-0.211-3.609-0.317c-0.318,0.106-2.654,1.274-5.096,0c-2.123-1.062-2.76-2.972-2.973-3.29
	c-0.425-0.955-0.849-2.018-1.38-3.078c1.168,0,2.335,0.105,3.397,0.105c-0.212-1.166-0.425-2.229-0.637-3.396
	c0.742,0.212,1.592,0.53,2.336,0.743c1.804-2.866,4.67-7.536,8.067-13.374c21.656-37.253,18.789-46.063,17.091-49.353
	c-1.062-1.91-2.548-3.502-5.414-6.687c-5.308-5.731-10.615-9.446-14.33-11.781C335.821,229.359,345.163,228.086,354.399,226.707z"/>
<path fill="none" stroke="#111111" stroke-width="0.75" stroke-miterlimit="10" d="M310.025,231.27
	c-5.732,3.715-18.896,13.268-27.39,31.205c-9.023,19.211-7.324,36.723-6.263,43.409c0.956,0.318,1.911,0.638,2.973,0.955
	c-0.85,0.531-1.699,1.062-2.442,1.698c0.849,0.849,1.805,1.697,2.654,2.547c-1.168,0.637-2.336,1.168-3.61,1.805
	c-0.53,0.318-1.273,0.637-2.017,0.85c-3.184,0.849-5.944-0.531-6.794-1.062c-0.849-0.213-1.592-0.319-2.441-0.53
	c0.955-0.955,1.804-2.018,2.76-2.973c-0.956-0.425-2.017-0.955-2.973-1.38c0.85-0.53,1.593-1.062,2.442-1.592
	c-1.168-5.095-2.654-12.63-3.078-21.864c-0.637-12.63-1.381-26.109,5.732-39.801c5.202-10.189,12.845-16.77,18.684-20.909
	C295.375,226.07,302.7,228.723,310.025,231.27z"/>
<path fill="#111111" d="M269.367,199.005c0.743,2.229,2.123,2.76,3.928,4.882c4.564,5.095,2.866,9.128,6.157,12.1
	c1.698,1.486,4.777,2.972,11.252,2.016c-0.743,0.637-1.592,1.486-2.335,2.654c-0.425,0.637-0.849,1.273-1.062,1.804
	c5.839,3.503,16.243,8.703,30.149,10.4c17.622,2.229,31.529-2.334,38.217-4.987c0.106-0.531,0.106-1.485-0.317-2.547
	c-0.214-0.638-0.531-1.168-0.851-1.486c5.627-0.743,9.661-1.698,10.51-2.123c0.318-0.212,0.638-0.424,0.638-0.424
	c0.742-0.531,1.273-1.168,4.671-3.609c5.095-3.715,6.051-3.927,7.537-5.731c0.955-1.168,3.716-4.352,3.291-8.173
	c-0.319-2.547-1.806-3.29-2.761-6.58c-0.956-3.503,0.425-4.14-0.105-7.642c-0.637-4.458-3.504-7.748-6.37-11.038
	c-2.441-2.76-2.972-2.654-5.202-5.413c-2.972-3.609-4.352-6.793-4.883-7.748c-1.911-3.609-7.112-8.385-22.188-12.63
	c-0.955,0.637-7.536,4.67-14.649,2.016c-2.547-0.955-4.246-2.441-5.414-3.608c-3.503,0.106-9.023,0.849-14.862,3.821
	c-5.308,2.759-8.492,6.262-14.225,12.418c-7.006,7.641-5.308,7.747-11.253,13.585c-3.927,3.927-7.324,5.731-9.235,10.614
	C268.305,195.715,269.154,198.368,269.367,199.005z M346.862,214.182c0.425-3.608,6.582-4.776,7.219-4.882
	c1.38-0.212,2.866-0.53,3.609,0.319c0.742,0.849,0.53,2.547-0.213,3.608c-0.637,1.062-1.485,1.062-3.821,2.123
	c-3.397,1.698-3.929,2.76-5.097,2.335C347.499,217.367,346.65,215.562,346.862,214.182z M294.632,206.01
	c0.956-0.637,2.336,0,3.61,0.637c0.637,0.318,6.157,3.078,5.626,6.686c-0.212,1.38-1.486,2.866-2.76,2.972
	c-1.168,0.106-1.38-1.167-4.246-3.608c-1.911-1.699-2.654-1.911-3.079-3.078C293.465,208.345,293.677,206.753,294.632,206.01z"/>
<path fill="#FFFFFF" stroke="#111111" stroke-width="0.75" stroke-miterlimit="10" d="M354.081,209.3
	c1.38-0.212,2.866-0.53,3.609,0.319c0.742,0.849,0.53,2.547-0.213,3.608c-0.637,1.062-1.485,1.062-3.821,2.123
	c-3.397,1.698-3.929,2.76-5.097,2.335c-1.167-0.424-2.017-2.123-1.804-3.609C347.287,210.574,353.338,209.406,354.081,209.3z"/>
<path fill="#FFFFFF" stroke="#111111" stroke-width="0.75" stroke-miterlimit="10" d="M294.632,206.01
	c0.956-0.637,2.336,0,3.61,0.637c0.637,0.318,6.157,3.078,5.626,6.686c-0.212,1.38-1.486,2.866-2.76,2.972
	c-1.168,0.106-1.38-1.167-4.246-3.609c-1.911-1.698-2.654-1.91-3.079-3.078C293.465,208.345,293.677,206.753,294.632,206.01z"/>
<path fill="none" stroke="#111111" stroke-width="0.75" stroke-miterlimit="10" d="M353.125,185.101
	c-0.637,12.418-1.274,24.836-2.017,37.254c-17.092-0.212-34.076-0.531-51.168-0.743c0.425-12.524,0.849-25.048,1.168-37.572
	C318.518,184.358,335.822,184.677,353.125,185.101z"/>
<path fill="#FFFFFF" stroke="#111111" stroke-width="0.75" stroke-miterlimit="10" d="M353.125,185.101
	c-0.637,12.418-1.274,24.836-2.017,37.254c-17.092-0.212-34.076-0.531-51.168-0.743c0.425-12.524,0.849-25.048,1.168-37.572
	C318.518,184.358,335.822,184.677,353.125,185.101z"/>
<path fill="none" stroke="#111111" stroke-width="0.75" stroke-miterlimit="10" d="M339.749,153.154
	c-0.955-0.106-2.866-0.424-3.503-1.804c-0.106-0.212-0.212-0.531-0.212-2.229c0-1.061,0-2.016,0.105-2.653"/>
<path fill="none" stroke="#111111" stroke-width="0.75" stroke-miterlimit="10" d="M315.97,151.987c0.955,0,3.715-0.213,5.414-2.123
	c0.638-0.849,0.955-1.804,1.274-2.866c0.531-1.804,0.637-3.396,0.637-4.457"/>
<path fill="none" stroke="#111111" stroke-width="0.75" stroke-linecap="round" stroke-linejoin="round" stroke-miterlimit="10" d="
	M322.87,138.189c-1.274-1.91-1.911-3.715-2.335-4.882c-0.637,0-1.699,0-2.973-0.531c-4.141-1.698-6.157-7.323-4.777-8.915
	c0.531-0.743,1.911-0.849,2.76-0.743c0.637,0.106,1.168,0.424,1.487,0.637c0.317-4.352,1.167-7.854,1.91-10.189
	c0.743-2.442,2.761-7.748,5.732-8.704c2.123-0.743,2.76,0.956,5.732,0.531c3.716-0.531,4.459-3.184,7.538-3.715
	c1.592-0.212,4.033,0.106,7.218,2.866c2.973,4.458,3.716,8.066,3.822,10.507c0.105,1.38-0.106,2.229,0,5.307
	c0,1.698,0.105,2.866,0.212,3.29c0,0.637,0.106,3.503-0.53,6.793c-1.168,5.625-3.928,9.659-4.777,10.826
	c-1.911,2.653-2.761,4.139-4.777,4.882c-1.91,0.743-3.715,0.319-5.732-0.106c-1.805-0.424-4.777-1.38-8.067-4.139"/>
<path fill="none" stroke="#111111" stroke-width="0.75" stroke-miterlimit="10" d="M173.931,296.969
	c31.741,12.631,38.323,30.567,39.703,35.237c3.822,12.524,1.38,28.444-3.185,59.117c-0.424,2.972-0.849,5.413-1.167,7.005
	c-0.956,0.531-2.336,1.062-3.928,1.273c-4.777,0.638-8.599-1.804-9.661-2.547c0-2.865-0.106-7.324-0.424-12.63
	c-1.274-21.228-1.911-31.841-7.219-40.438c-2.229-3.502-9.342-13.266-28.663-17.299"/>
<path fill="none" stroke="#111111" stroke-width="0.75" stroke-miterlimit="10" d="M177.222,288.902
	c5.202,1.273,12.42,3.502,20.488,7.43c6.582,3.184,21.657,10.825,34.395,27.277c13.801,17.724,17.516,36.191,18.684,45.32
	c-0.531,0.635-1.804,2.121-4.034,2.864c-3.078,1.062-5.626,0.106-6.369-0.212c-2.123-5.625-5.733-13.373-12.208-21.333
	c-4.671-5.731-9.448-9.978-13.376-12.949"/>
<path fill="#FF4A47" d="M537.415,289.327c-0.318,3.714-0.531,5.625,0.106,7.005c0.213,0.529,0.955,2.016,2.548,2.865
	c1.911,0.955,3.821,0.425,4.353,0.318c-0.106-0.531-0.213-1.486,0.106-2.654c0.317-0.954,0.849-1.592,1.167-2.016
	c0.213-0.955,0.425-2.123,0.744-3.184c0.529-1.805,1.167-3.503,1.804-4.776c-1.167,0.212-2.76,0.318-4.564,0
	c-2.653-0.425-4.671-1.485-5.839-2.229C537.734,285.93,537.627,287.629,537.415,289.327z"/>
<path fill="#FF4A47" d="M498.561,288.584c0,0,2.549,5.73,2.018,7.536c0,0.106-0.106,0.106-0.106,0.106
	c-0.105,0.105-0.212,0.211-0.53,0.742c-0.318,0.53-1.062,1.592-1.381,2.016c-0.424,0.638-1.592,1.486-4.671,2.123
	c-0.637-1.697-1.273-3.078-1.697-4.032c-0.956-2.123-1.699-3.927-2.974-6.156c-0.529-1.062-1.061-1.911-1.38-2.44
	c0.956,0,2.442,0,4.142-0.638c2.652-1.062,4.245-2.972,4.776-3.821C497.5,286.037,498.137,287.629,498.561,288.584z"/>
<path fill="none" stroke="#111111" stroke-width="0.75" stroke-miterlimit="10" d="M492.616,194.016
	c-6.688-1.698-11.995-1.485-15.393-1.061c-4.353,0.531-13.694,1.698-16.561,7.96c-1.063,2.229-0.849,4.246-0.849,5.095
	c1.804,25.686,25.689,77.797,25.689,77.797c1.062,2.229,1.805,3.928,2.123,4.67c0.849,0.107,2.866,0.213,5.096-0.849
	c2.335-1.062,3.503-2.759,4.034-3.502c-3.396-17.726-6.158-30.461-8.599-40.544c-0.425-1.592-1.274-4.67-0.212-8.066
	c2.229-6.898,10.828-9.765,17.622-12.1c6.475-2.123,11.996-2.335,22.93-2.866c10.722-0.424,14.65,0.531,16.136,3.078
	c0.85,1.486,0.531,3.078,0.424,3.821c-2.335,14.115-2.76,28.445-5.2,42.561c-0.531,3.29-1.381,8.278-2.23,14.434
	c0.956,0.638,2.548,1.593,4.671,2.123c2.442,0.531,4.459,0.318,5.627,0.106c2.972-7.429,23.461-59.86,26.114-78.434
	c0.213-1.805,0.531-4.353-0.849-6.899c-3.716-6.687-16.349-7.111-28.133-7.536c-2.972-0.106-5.52-0.106-7.006,0
	c-6.369-0.955-13.693-1.698-21.869-1.698C507.479,192.212,499.411,193.061,492.616,194.016z"/>
<path fill="#111111" d="M156.627,328.703c3.61,0.425,8.811-3.29,10.722-8.278c1.38-3.608,0.531-7.005-0.106-9.022
	c5.202-4.139,10.403-8.385,15.605-12.629c2.336-1.912,4.671-3.821,7.007-5.732c0.955,0.318,1.91,0.531,2.866,0.85
	c0.955-1.699,1.592-3.715,1.274-5.943c-0.637-3.821-3.716-4.458-4.353-8.385c-0.53-3.291,1.38-5.201,0.106-6.687
	c-1.061-1.274-2.441-0.319-4.352-1.168c-3.609-1.592-3.503-7.323-6.157-16.875c-0.956-3.397-1.805-6.05-2.442-7.536
	c2.654-0.955,4.99-1.592,6.794-2.017c0,0,4.884-1.167,8.599-1.486c2.229-0.212,3.822-0.106,4.459-0.106
	c7.218,0.213,15.711-6.262,21.019-10.295c3.715-2.865,8.599-7.11,13.8-12.949c0.107-0.53,0.425-1.804-0.212-3.077
	c-0.849-1.805-3.185-2.972-5.732-2.548c-1.911,1.274-4.884,3.078-8.493,4.883c-8.493,4.245-17.198,8.809-27.707,8.172
	c-2.76-0.106-1.911-0.531-8.387-1.38c-6.157-0.85-11.252-1.167-14.543-1.273c-1.274-0.85-2.973-1.805-4.99-2.548
	c-3.927-1.486-7.537-1.698-9.872-1.698c-1.062-0.424-2.017-0.849-3.079-1.38c1.592,2.335,2.123,3.927,1.592,4.776
	c-1.273,1.911-7.643,0.531-19.108-4.245c-1.274,1.38-2.442,2.866-3.715,4.563c-2.124,2.867-3.822,5.625-5.096,8.172
	c4.246,5.414,8.705,12.313,12.633,20.697c8.599,18.361,10.509,35.344,10.722,46.381
	C146.118,316.498,150.895,328.066,156.627,328.703z"/>
<path fill="none" stroke="#111111" stroke-width="0.75" stroke-miterlimit="10" d="M145.481,329.445
	c2.229-18.467,0.637-33.538-1.168-43.621c-2.442-13.691-6.688-35.874-23.885-55.085c-3.185-3.503-6.051-6.155-8.175-7.96"/>
<path fill="none" stroke="#111111" stroke-width="0.75" stroke-miterlimit="10" d="M158.856,210.68
	c7.431,2.865,15.287,6.474,23.355,11.038c33.971,19.21,54.778,45.957,66.667,64.955"/>
<path fill="none" stroke="#111111" stroke-width="0.75" stroke-miterlimit="10" d="M193.358,413.612
	c-2.23,1.061-5.733,2.547-10.404,3.396c-8.386,1.486-12.739,0.106-28.025-2.652c-29.194-5.308-31.105,3.396-49.576-2.866
	c-9.767-3.29-17.091-8.81-31.848-19.953c-10.722-8.067-16.136-12.206-18.259-17.407c-5.202-12.736,4.458-21.97,7.325-41.605
	c0.956-6.58,0.319-8.385-5.838-42.666c-10.828-60.498-10.828-66.441-9.13-74.825c2.017-9.765,5.202-17.088,6.37-32.69
	c0.956-12.631-0.637-16.558-0.637-27.702c-0.106-17.3,3.185-52.537,16.667-55.934c8.28-2.017,18.259,8.596,22.399,14.859
	c7.325,10.719,5.52,19.741,8.28,32.371c2.335,10.507,8.068,24.517,23.249,39.801"/>
<path fill="none" stroke="#111111" stroke-width="0.75" stroke-miterlimit="10" d="M130.725,211.529
	c0.531,0.53,3.503,3.078,2.654,6.899c-0.213,0.955-0.637,1.698-1.062,2.335"/>
<path fill="#FFFFFF" stroke="#111111" stroke-width="0.75" stroke-miterlimit="10" d="M319.792,334.01c0,1.061,0,2.123,0,3.184
	c0,3.502,1.38,7.324,3.821,13.479c0.85,2.229,1.699,4.14,0.85,5.731c0,0.106-0.637,1.062-1.699,1.38
	c-2.865,0.956-7.219-3.078-9.554-6.899c-2.654-4.244-1.274-6.049-4.565-12.311c-2.017-3.715-2.548-4.564-2.76-5.52
	c0-0.213-0.106-0.318-0.106-0.531c-0.212-2.972,2.229-5.2,2.442-5.412c1.592-1.381,3.397-1.592,4.246-1.698
	c-0.318,0.53-0.531,1.062-0.849,1.698c1.485,2.652,3.396,5.095,5.095,4.882c1.593-0.212,2.336-2.759,3.079-2.548
	C320.004,329.658,319.792,330.932,319.792,334.01z"/>
<path fill="none" stroke="#111111" stroke-width="0.75" stroke-miterlimit="10" d="M322.658,357.784
	c-1.168,0.213-3.079,0.425-5.202-0.318c-4.353-1.485-6.263-5.625-7.219-7.854c-1.062-2.44-2.547-5.73-1.593-8.385
	c0.106-0.424,0.531-1.272,0.213-2.123c-0.425-0.955-1.486-0.955-2.441-1.484c-1.911-1.063-3.503-3.928-2.76-6.262
	c0.637-2.018,2.76-2.866,3.291-3.078"/>
<path fill="#FFFFFF" d="M316.182,346.428c0.531-1.273,0.956-3.078,0.213-4.67c-0.955-1.91-2.653-1.592-3.928-3.715
	c-1.485-2.441-0.105-5.094-1.593-5.943c-0.743-0.425-1.698-0.213-2.441,0"/>
<path fill="none" stroke="#111111" stroke-width="0.75" stroke-miterlimit="10" d="M316.182,346.428
	c0.531-1.273,0.956-3.078,0.213-4.67c-0.955-1.91-2.653-1.592-3.928-3.715c-1.485-2.441-0.105-5.094-1.593-5.943
	c-0.743-0.425-1.698-0.213-2.441,0"/>
<path fill="#FFFFFF" stroke="#111111" stroke-width="0.75" stroke-miterlimit="10" d="M311.936,325.413
	c-0.955-0.212-0.849-6.899,0.318-7.218c0.531-0.105,1.168,0.955,1.38,1.38C314.908,322.123,312.679,325.52,311.936,325.413z"/>
<path fill="none" stroke="#111111" stroke-width="0.75" stroke-miterlimit="10" d="M491.555,296.756
	c-0.53,0.213-0.425,1.699-0.425,2.76c0,1.168-0.531,3.291-1.698,7.536c-2.336,8.81-3.504,13.267-5.201,15.39
	c-1.063,1.379-3.079,3.289-2.549,5.307c0,0.105,0.319,1.168,1.168,1.804c2.549,1.806,9.448-0.849,12.739-5.837
	c1.592-2.441,1.274-2.865,3.821-9.34c0.531-1.273,1.273-2.866,2.441-4.67c2.336-3.609,3.609-4.458,3.822-6.898
	c0.318-4.033-2.867-7.643-5.839-10.084c0.212,1.063,0.425,2.123,0.637,3.291c-0.105,0.53-0.637,2.441-2.441,3.926
	c-1.698,1.274-3.503,1.381-4.034,1.381c0-0.743-0.106-1.91-0.849-3.078C493.041,297.924,492.192,296.65,491.555,296.756z"/>
<path fill="none" stroke="#111111" stroke-width="0.75" stroke-miterlimit="10" d="M482.85,329.552
	c0.426,0.319,1.168,0.849,2.229,1.169c4.99,1.485,12.633-3.504,13.907-9.129c0.425-1.91,0.105-3.715,1.273-7.535
	c0.425-1.273,0.743-2.334,1.063-2.972c0.743-0.319,2.017-0.956,3.184-2.017c0.637-0.637,2.867-2.866,2.76-6.156
	c-0.105-3.821-3.291-5.943-3.608-6.156"/>
<path fill="none" stroke="#111111" stroke-width="0.75" stroke-miterlimit="10" d="M501.64,294.421
	c1.168-0.106,1.593-7.96,0.212-8.385c-0.637-0.212-1.38,0.956-1.697,1.485C498.455,290.389,500.791,294.527,501.64,294.421z"/>
<path fill="#FFFFFF" stroke="#111111" stroke-width="0.75" stroke-miterlimit="10" d="M266.501,322.123
	c-0.637,0-1.062,1.697-2.017,3.82c-0.425,0.955-1.487,2.548-3.716,5.731c-2.76,4.14-4.246,6.156-4.883,6.793
	c-1.805,1.593-3.61,2.335-3.61,3.821c0,1.061,0.743,1.804,0.85,1.91c1.91,1.91,7.112,0.531,10.615-1.592
	c3.928-2.336,3.61-4.353,8.918-7.961c3.609-2.44,4.246-2.653,4.883-3.715c0.743-1.273,0.955-3.715-1.805-8.385
	c-0.106,0.637-0.106,1.273-0.212,1.911c-2.336,1.38-4.989,2.547-6.582,1.485C267.244,324.988,267.35,322.123,266.501,322.123z"/>
<path fill="none" stroke="#111111" stroke-width="0.75" stroke-miterlimit="10" d="M253.019,344.305
	c0.849,0.637,2.335,1.592,4.246,2.018c4.14,0.637,7.431-1.911,9.129-3.29c1.911-1.486,4.459-3.503,4.778-6.05
	c0-0.426,0.106-1.274,0.743-1.806c0.743-0.53,1.592-0.106,2.654-0.212c2.017-0.105,4.458-1.697,4.883-3.927
	c0.318-1.91-1.062-3.502-1.38-3.821"/>
<path fill="#FFFFFF" d="M263.104,337.831c0.106-1.168,0.53-2.866,1.804-3.927c1.593-1.168,2.866-0.213,4.671-1.274
	c2.229-1.38,2.229-4.032,3.822-4.139c0.743-0.106,1.486,0.53,1.911,1.061"/>
<path fill="none" stroke="#111111" stroke-width="0.75" stroke-miterlimit="10" d="M263.104,337.831
	c0.106-1.168,0.53-2.866,1.804-3.927c1.593-1.168,2.866-0.213,4.671-1.274c2.229-1.38,2.229-4.032,3.822-4.139
	c0.743-0.106,1.486,0.53,1.911,1.061"/>
<path fill="#FFFFFF" stroke="#111111" stroke-width="0.75" stroke-miterlimit="10" d="M276.798,324.458
	c0.849,0.212,3.609-5.201,2.76-5.944c-0.319-0.318-1.274,0.213-1.699,0.531C275.842,320.637,276.161,324.246,276.798,324.458z"/>
<path fill="none" stroke="#111111" stroke-width="0.75" stroke-miterlimit="10" d="M330.195,208.982
	c2.653-0.743,3.503-7.43,1.485-8.703c-1.38-0.849-4.033,0.955-4.883,1.592c-1.805-1.592-3.822-2.335-5.095-1.592
	c-2.018,1.167-1.805,6.58,0.743,7.535c1.592,0.637,3.503-0.636,3.82-0.955C326.798,207.496,328.603,209.406,330.195,208.982z"/>
<path fill="#111111" d="M344.845,139.569c0.318,0.425,3.186-0.531,4.246-2.653c0.743-1.38,0-2.017,0.637-3.503
	c0.851-2.123,2.549-1.698,3.397-3.609c1.063-2.122-0.637-3.184,0.213-5.837c0.743-1.91,1.698-1.592,2.441-3.715
	c0.637-1.91-0.212-2.229,0.425-4.988c0.425-2.123,1.061-2.654,0.743-4.033c-0.212-1.274-0.85-1.274-1.38-2.76
	c-1.063-2.653,0.53-3.927-0.531-5.413c-1.062-1.592-3.397-0.637-4.14-2.229c-0.743-1.485,0.849-2.972,0.105-4.033
	c-0.849-1.062-2.866,0.212-4.246-1.062c-1.168-1.062-0.212-2.653-1.38-3.715c-1.062-1.062-2.336,0.106-5.414-0.424
	c-3.185-0.531-3.61-2.017-5.627-1.592s-1.804,1.911-4.034,2.76c-2.972,1.167-4.671-0.849-6.688,0.531
	c-1.592,1.061-0.743,2.547-2.441,4.033c-2.017,1.698-4.034,0.318-5.414,1.91c-1.168,1.38,0,2.76-1.273,4.776
	c-1.168,1.911-2.761,1.38-3.503,2.972c-0.956,2.123,1.592,3.715,0.637,6.368c-0.637,1.911-2.336,2.229-2.23,4.14
	c0,0.637,0.213,1.592,0.743,2.335c0.531,0.637,0.851,0.743,1.274,1.273c0.53,0.531,0.956,1.592,0.743,3.609
	c0.425-1.061,1.273-1.804,2.336-2.017c1.273-0.212,2.123,0.637,2.335,0.743c-0.106-0.53-0.318-1.273,0.213-1.804
	c0.955-1.167,3.503,0.531,5.308-0.531c2.123-1.379,1.062-5.306,2.76-5.837c0.955-0.319,1.593,0.955,2.761,0.743
	c1.804-0.319,1.38-3.503,3.82-5.519c0.107-0.106,2.548-2.123,4.99-1.486c2.654,0.743,3.078,4.033,5.308,4.033
	c1.062,0,1.274-0.743,2.229-0.743c1.911-0.106,3.503,2.335,4.565,4.246c0.317,2.122,0.637,4.776,0.53,7.747
	c-0.106,2.548-0.318,4.777-0.743,6.687c-0.318,1.486-0.85,3.502-2.017,5.625C345.482,138.614,344.633,139.357,344.845,139.569z"/>
<path fill="#FFFFFF" d="M335.397,120.677c-0.531-0.213-2.018-0.637-3.717-0.213c-1.167,0.319-2.017,0.956-2.44,1.38"/>
<path fill="none" stroke="#111111" stroke-width="0.75" stroke-linecap="round" stroke-linejoin="round" stroke-miterlimit="10" d="
	M335.397,120.677c-0.531-0.213-2.018-0.637-3.717-0.213c-1.167,0.319-2.017,0.956-2.44,1.38"/>
<path fill="#FFFFFF" d="M347.074,121.101c-0.424-0.424-1.698-1.592-3.291-1.38c-1.062,0.106-1.91,0.849-2.335,1.274"/>
<path fill="none" stroke="#111111" stroke-width="0.75" stroke-linecap="round" stroke-linejoin="round" stroke-miterlimit="10" d="
	M347.074,121.101c-0.424-0.424-1.698-1.592-3.291-1.38c-1.062,0.106-1.91,0.849-2.335,1.274"/>
<path fill="#111111" d="M323.613,143.496c-2.018-0.319-2.866-1.062-3.185-1.698c-0.637-1.168,0.106-2.123-0.637-3.291
	c-0.637-0.955-1.593-0.743-2.548-1.592c-0.637-0.636-1.38-1.804-1.063-4.563c0.426,0.318,1.168,0.743,2.23,0.955
	c0.955,0.212,1.698,0.106,2.229,0c0.106,0.743,0.426,2.016,1.274,3.29c0.425,0.531,0.849,0.955,1.274,1.274
	c0.317,0.743,0.742,1.804,0.742,3.184C323.826,142.116,323.72,142.965,323.613,143.496z"/>
<path fill="#FFFFFF" d="M319.155,130.123c-0.638-0.213-1.274-0.319-1.911-0.531c0.425-0.743,0.743-1.592,1.168-2.335
	c-0.956-0.531-1.911-1.061-2.973-1.486c-0.106,0.212-0.425,0.743-0.425,1.38c0,0.955,0.53,1.592,0.743,1.804"/>
<path fill="none" stroke="#111111" stroke-width="0.75" stroke-linecap="round" stroke-linejoin="round" stroke-miterlimit="10" d="
	M319.155,130.123c-0.638-0.213-1.274-0.319-1.911-0.531c0.425-0.743,0.743-1.592,1.168-2.335c-0.956-0.531-1.911-1.061-2.973-1.486
	c-0.106,0.212-0.425,0.743-0.425,1.38c0,0.955,0.53,1.592,0.743,1.804"/>
<path fill="none" stroke="#111111" stroke-width="0.75" stroke-linecap="round" stroke-linejoin="round" stroke-miterlimit="10" d="
	M339.749,123.224c-1.698,4.033-1.167,6.262-0.212,7.536c1.273,1.698,3.503,2.229,3.185,3.184c-0.213,0.743-1.911,1.38-3.079,1.38
	c-0.637,0-1.168-0.107-1.485-0.107"/>
<path fill="#FFFFFF" d="M339.537,139.569c-0.531,0.106-1.38,0.212-2.442-0.106c-1.697-0.425-2.866-1.486-3.396-2.017"/>
<path fill="none" stroke="#111111" stroke-width="0.75" stroke-linecap="round" stroke-linejoin="round" stroke-miterlimit="10" d="
	M339.537,139.569c-0.531,0.106-1.38,0.212-2.442-0.106c-1.697-0.425-2.866-1.486-3.396-2.017"/>
<path fill="#1D1D1B" d="M507.16,134.156c2.336-2.229,1.062-7.111,0-7.217c-1.38-0.212-4.565,6.793-3.186,8.172
	C504.718,135.642,506.311,135.005,507.16,134.156z"/>
<path fill="#1D1D1B" d="M492.298,131.29c-0.637-2.865,2.548-5.731,3.503-5.2c1.168,0.53,0.106,7.323-1.592,7.535
	C493.466,133.732,492.617,132.352,492.298,131.29z"/>
<path fill="none" stroke="#111111" stroke-width="0.75" stroke-linecap="round" stroke-linejoin="round" stroke-miterlimit="10" d="
	M519.156,138.402c0.637,0,1.273,0,1.38-0.213c0.105-0.318-0.743-0.637-0.849-1.167c-0.106-1.168,2.653-2.866,3.396-2.229
	c0.531,0.424,0,2.123-0.425,2.866"/>
<path fill="none" stroke="#111111" stroke-width="0.75" stroke-linecap="round" stroke-linejoin="round" stroke-miterlimit="10" d="
	M495.589,144.027c1.168,0.212,2.76,0.318,4.565-0.106c1.273-0.213,2.335-0.531,3.184-0.956"/>
<path fill="#FFFFFF" d="M493.997,304.08c1.698-0.213,2.972-0.85,3.821-1.273c1.168-0.638,2.653-1.381,3.396-3.078
	c0.319-0.744,0.425-1.381,0.425-1.91"/>
<path fill="none" stroke="#111111" stroke-width="0.75" stroke-miterlimit="10" d="M493.997,304.08
	c1.698-0.213,2.972-0.85,3.821-1.273c1.168-0.638,2.653-1.381,3.396-3.078c0.319-0.744,0.425-1.381,0.425-1.91"/>
<path fill="none" stroke="#111111" stroke-width="0.75" stroke-miterlimit="10" d="M501.428,306.521
	c-1.486,1.592-2.973,3.607-4.034,6.155c-1.91,4.457-0.956,6.792-3.185,8.915c-1.911,1.698-3.079,0.743-5.626,3.078
	c-1.487,1.273-1.911,2.441-3.61,3.078c-1.273,0.425-2.548,0.318-3.291,0.105"/>
<path fill="none" stroke="#111111" stroke-width="0.75" stroke-miterlimit="10" d="M546.12,294.74
	c0.531,0.105,0.743,1.592,0.955,2.652c0.213,1.062,1.168,3.078,2.973,7.111c3.822,8.279,5.732,12.418,7.856,14.223
	c1.38,1.168,3.608,2.653,3.396,4.775c0,0.107-0.106,1.168-0.85,1.911c-2.229,2.229-9.448,0.849-13.588-3.503
	c-2.018-2.122-1.698-2.653-5.414-8.49c-0.743-1.168-1.806-2.548-3.186-4.141c-2.865-3.184-4.352-3.82-4.988-6.049
	c-1.063-3.926,1.485-8.066,3.928-11.039c0,1.063-0.106,2.229-0.106,3.291c0.212,0.531,1.062,2.336,3.185,3.396
	c1.911,0.955,3.609,0.743,4.247,0.637c-0.107-0.637-0.213-1.91,0.317-3.184C544.846,296.119,545.483,294.634,546.12,294.74z"/>
<path fill="none" stroke="#111111" stroke-width="0.75" stroke-miterlimit="10" d="M560.451,325.413
	c-0.424,0.425-0.955,1.062-1.911,1.592c-4.671,2.335-13.057-1.167-15.286-6.58c-0.743-1.805-0.743-3.608-2.654-7.218
	c-0.637-1.167-1.168-2.122-1.593-2.759c-0.849-0.212-2.123-0.531-3.503-1.486c-0.743-0.53-3.291-2.229-3.822-5.625
	c-0.529-3.821,2.124-6.476,2.442-6.687"/>
<path fill="none" stroke="#111111" stroke-width="0.75" stroke-miterlimit="10" d="M536.035,295.27
	c-1.168,0-2.973-7.535-1.698-8.277c0.53-0.319,1.592,0.742,1.91,1.167C538.371,290.707,536.884,295.164,536.035,295.27z"/>
<path fill="#FFFFFF" d="M545.059,302.275c-1.698,0.105-3.078-0.213-3.928-0.53c-1.273-0.425-2.867-0.956-3.822-2.44
	c-0.425-0.638-0.637-1.381-0.742-1.806"/>
<path fill="none" stroke="#111111" stroke-width="0.75" stroke-miterlimit="10" d="M545.059,302.275
	c-1.698,0.105-3.078-0.213-3.928-0.53c-1.273-0.425-2.867-0.956-3.822-2.44c-0.425-0.638-0.637-1.381-0.742-1.806"/>
<path fill="none" stroke="#111111" stroke-width="0.75" stroke-miterlimit="10" d="M538.158,305.99
	c1.699,1.273,3.503,3.078,4.99,5.307c2.653,4.033,2.123,6.475,4.776,8.172c2.123,1.381,3.185,0.213,6.051,2.018
	c1.698,1.061,2.335,2.123,4.034,2.334c1.38,0.213,2.547-0.105,3.291-0.424"/>
<path fill="none" stroke="#111111" stroke-width="0.75" stroke-linecap="round" stroke-linejoin="round" stroke-miterlimit="10" d="
	M389.75,143.071c0.424-0.106,0.955,1.911,2.548,4.989c0.85,1.698,1.273,2.122,2.123,3.608c0.955,1.699,2.335,4.14,3.503,7.536
	c-0.425-0.318-0.955-0.743-1.592-0.743c-0.956,0-1.593,0.637-1.805,0.849c-2.549,2.335-12.739-0.424-15.925-1.38
	c-3.928-1.061-6.475-2.122-6.475-2.228c0-0.213,2.441,0.53,6.051,0.53c2.335,0,4.353-0.212,4.353-0.424c0-0.319-4.565,0-9.555-2.335
	c-2.017-0.956-3.716-2.229-3.608-2.441c0.212-0.319,3.29,1.273,7.854,2.016c2.336,0.425,4.354,0.425,5.733,0.425
	c-1.699-0.425-4.247-1.168-7.007-2.654c-3.291-1.698-5.945-3.927-5.732-4.245c0.212-0.319,2.973,1.486,7.962,3.078
	c2.229,0.743,4.034,1.167,5.308,1.38c-3.185-1.805-5.626-3.609-7.432-4.989c-0.955-0.743-2.017-1.592-1.91-1.804
	c0.213-0.319,3.928,2.229,9.13,4.139c2.653,0.955,4.883,1.486,6.369,1.698c-0.106-0.743-0.213-2.016-0.318-3.396
	C389.431,145.088,389.431,143.178,389.75,143.071z"/>
<path fill="none" stroke="#111111" stroke-width="0.75" stroke-linecap="round" stroke-linejoin="round" stroke-miterlimit="10" d="
	M597.182,190.09c0.425-0.849,2.441-0.955,4.034-0.425c0.318,0.106,0.638,0.319,0.85,0.425c1.273,0.849,2.017,1.804,2.335,2.229
	c0.213,0.212,0.425,0.424,0.637,0.636c2.017,2.017,4.141,3.291,4.141,3.291c1.167,0.849,2.335,1.91,3.503,2.865
	c0.212,0.106,0.743,0.531,0.955,1.168c0.319,0.637,0.106,1.273,0.106,1.486c-0.212,1.167-0.424,5.094-0.85,10.507
	c-0.742-1.273-1.485-2.547-2.229-3.715c-0.106-2.122-0.106-2.122-0.213-6.262c0.106,4.14,0.106,4.14,0.213,6.262
	c-0.531-0.743-1.063-1.592-1.593-2.441c-0.638-1.061-1.062-2.122-1.38-2.972c-0.318-0.212-0.638-0.53-0.85-0.742
	c-0.105,0.212-0.317,0.424-0.531,0.742c-0.529,0.85-1.485,2.229-2.123,3.609c-1.061,2.547-0.425,3.927-1.485,4.352
	c-0.531,0.212-1.168,0.106-1.592-0.213c-0.638-0.424-0.744-1.379-0.426-4.139c0.212-1.38,0.426-3.184,0.955-5.307
	c-2.653-6.156-3.928-9.234-3.928-9.234C597.394,191.47,596.863,190.62,597.182,190.09z"/>
<path fill="none" stroke="#111111" stroke-width="0.75" stroke-linecap="round" stroke-linejoin="round" stroke-miterlimit="10" d="
	M606.948,202.189c0.213-0.212,1.381-0.849,2.653-0.531c0.426,0.106,0.744,0.319,0.956,0.425"/>
<path fill="none" stroke="#111111" stroke-width="0.75" stroke-linecap="round" stroke-linejoin="round" stroke-miterlimit="10" d="
	M608.222,201.658c0.106,0.425,0.106,0.955,0.213,1.486c0.106,0.425,0.106,0.955,0.106,1.38"/>
<path fill="none" stroke="#111111" stroke-width="0.75" stroke-linecap="round" stroke-linejoin="round" stroke-miterlimit="10" d="
	M159.812,316.922c1.805-0.212,4.034,8.598,5.202,13.373c0.743,2.973,3.609,14.328,2.335,14.753c-0.531,0.212-1.698-1.167-4.883-7.96
	c-3.503,6.58-7.644,9.764-10.51,11.569c-2.017,1.167-4.777,2.547-4.989,2.228c-0.212-0.318,1.911-1.804,4.352-3.927
	c2.973-2.759,5.096-5.412,6.476-7.429c-1.486,1.486-3.822,3.502-7.006,5.412c-3.822,2.229-7.962,3.608-8.175,3.185
	c-0.212-0.317,2.336-1.698,6.264-4.563c3.397-2.441,6.051-4.776,7.855-6.263c-1.911,1.486-4.777,3.29-8.705,4.776
	c-4.246,1.486-8.492,2.017-8.705,1.592c-0.106-0.424,3.291-1.273,7.962-3.82c3.504-1.91,6.264-3.822,7.962-5.201
	c-1.168,0.955-2.972,2.123-5.414,2.76c-3.397,0.955-6.688,0.531-6.688,0.212c0-0.318,3.185-0.212,6.582-2.228
	c1.062-0.638,2.654-1.912,4.565-4.67C159.069,323.502,158.22,317.027,159.812,316.922z"/>
<path fill="none" stroke="#111111" stroke-width="0.75" stroke-miterlimit="10" d="M166.712,376.464c0.106-2.971,0-6.368-0.212-9.87
	c-0.319-4.882-1.062-9.234-1.911-13.055"/>
<path fill="none" stroke="#111111" stroke-width="0.75" stroke-linecap="round" stroke-linejoin="round" stroke-miterlimit="10" d="
	M221.277,219.808c-0.212,1.273,0.956,2.759,2.23,2.971c1.698,0.425,2.654-1.804,5.732-2.122c0.319,0,0.531,0,0.743,0
	c0.85,0,1.486,0.212,1.593,0.212c1.167,0.318,8.068-3.396,9.66-4.246c1.274-0.636,0.955-0.318,5.414-2.335
	c3.822-1.698,4.034-1.91,4.034-2.016c-0.106-0.319-3.928,0.106-7.431,1.592c-0.637,0.212-1.38,0.637-1.38,0.531
	c-0.106-0.107,2.229-1.274,4.671-3.078c1.486-1.062,5.732-4.14,5.414-4.564c-0.319-0.425-4.246,1.486-7.113,2.972
	c-2.547,1.379-4.458,2.759-4.458,2.759c-0.106-0.106,2.654-1.91,5.945-4.776c2.017-1.698,5.307-4.776,5.095-5.095
	c-0.212-0.318-2.654,1.273-5.945,3.503c-2.654,1.698-4.777,3.184-6.157,4.139c0.319-0.318,0.743-0.849,1.274-1.486
	c4.14-4.776,6.263-6.686,5.945-7.005c-0.212-0.318-2.229,0.849-2.866,1.274c-2.336,1.38-3.291,2.547-4.99,3.715
	c-1.061,0.743-2.654,1.804-4.989,2.653c-0.319-0.424-0.637-1.167-0.743-2.123c-0.106-1.379,0.53-1.804,0.53-3.077
	c0-1.486-0.849-2.972-1.38-2.866c-0.424,0-0.424,1.167-1.486,4.245c-0.318,0.956-0.637,1.592-1.061,2.335
	c-0.531,0.955-0.956,1.486-1.168,1.698c-1.805,2.335-0.743,4.458-2.336,6.581C224.25,218.322,221.49,218.003,221.277,219.808z"/>
<path fill="none" stroke="#111111" stroke-width="0.75" stroke-linecap="round" stroke-linejoin="round" stroke-miterlimit="10" d="
	M135.183,213.652c3.504,3.184,6.901,4.564,9.024,5.094c5.202,1.486,12.208,1.274,13.482-1.38c0.531-1.061-0.319-1.804,0.318-4.457
	c0.319-1.486,0.743-1.805,1.274-3.291c0.319-1.061,0.637-2.653,0.531-4.882c1.168-0.212,1.911-0.743,2.335-1.061
	c0.531-0.425,1.168-0.849,1.168-1.486s-0.849-1.061-1.38-1.486c-3.397-2.441-2.866-8.385-2.76-9.34
	c0.106-0.637,0.319-1.167,0.319-1.167c0-0.425-0.107-0.956-0.107-1.699c0,0-0.424-4.563-2.017-7.641
	c-2.017-3.609-6.688-6.793-11.677-8.067c-7.006-1.804-15.817,0.637-20.595,5.944c-6.688,7.429-5.52,21.439,5.414,30.355"/>
<path fill="#1D1D1B" stroke="#111111" stroke-width="0.75" stroke-miterlimit="10" d="M154.079,198.368
	c-1.061-0.212-1.273-5.625-0.212-5.943c0.637-0.213,1.699,1.061,1.911,2.335C156.309,196.67,154.716,198.581,154.079,198.368z"/>
<path fill="none" stroke="#111111" stroke-width="0.75" stroke-linecap="round" stroke-linejoin="round" stroke-miterlimit="10" d="
	M148.984,190.832c1.274-2.016,3.397-3.078,5.414-2.759c1.274,0.212,2.123,0.849,2.654,1.273"/>
<path fill="none" stroke="#111111" stroke-width="0.75" stroke-linecap="round" stroke-linejoin="round" stroke-miterlimit="10" d="
	M150.152,209.831c0.637,0.212,1.698,0.531,3.078,0.637c1.274,0,2.336-0.212,2.973-0.319"/>
<path fill="none" stroke="#111111" stroke-width="0.75" stroke-linecap="round" stroke-linejoin="round" stroke-miterlimit="10" d="
	M140.81,203.038c-0.531-0.212-3.504-1.168-4.565-4.033c-0.849-2.229-0.531-5.519,1.274-6.156c1.38-0.425,3.078,0.849,3.397,1.167"/>
<path fill="#111111" d="M124.886,205.161c-0.743-0.955-2.229-2.547-2.76-3.502c-0.106-0.213-0.212-0.319-0.318-0.637
	c-0.744-1.698-0.213-1.911-1.062-3.397c-1.062-1.91-2.123-2.016-2.548-3.502c-0.318-0.955,0-1.38,0.637-3.715
	c0.956-3.608,0.531-4.245,1.592-7.748c0.425-1.592,0.85-2.441,1.487-3.396c0.53-0.743,0.743-0.849,1.38-1.804
	c0.743-1.168,0.955-2.335,1.592-2.76c0.637-0.531,0.956-0.212,1.911-0.743c1.168-0.637,1.062-1.167,2.017-1.486
	c0.955-0.318,1.168,0.212,2.017-0.106c1.168-0.425,1.062-1.38,2.017-1.486c0.743-0.106,0.849,0.425,1.698,0.425
	c0.85,0,0.956-0.531,1.911-0.743c0.637-0.106,0.637,0,2.123,0c1.168,0,1.274-0.106,2.124-0.106c1.061,0,1.061,0.212,2.654,0.318
	c1.698,0.212,1.698,0,2.441,0.212c1.062,0.319,1.168,0.743,2.017,0.743c0.849,0.106,1.168-0.318,1.805-0.106
	c0.212,0.106,0.212,0.106,1.061,1.061c0.531,0.637,0.85,0.956,1.062,1.062c0.637,0.53,0.955,0.424,1.38,0.849
	c0.637,0.531,0.212,1.062,0.849,1.698c0.425,0.425,0.743,0.425,0.85,0.637c0.106,0.531-0.956,1.061-1.699,1.274
	c-0.743,0.212-1.274,0.212-2.335,0.212c-0.531,0-1.274,0-2.336-0.212c-1.061-0.213-0.955-0.319-1.486-0.319
	c-1.168,0-1.38,0.637-2.123,0.531c-0.956-0.106-1.274-1.062-1.805-0.955c-0.531,0.106-0.318,1.804-0.955,2.865
	c-0.743,1.168-1.911,1.274-1.805,1.911c0.106,0.424,0.743,0.424,1.062,1.167c0.212,0.531-0.107,0.637,0,1.168
	c0.212,0.743,0.955,0.743,0.955,1.273c0,0.319-0.425,0.743-1.38,1.38c-0.849,0.637-1.168,0.743-1.168,1.061
	c-0.106,0.531,0.849,0.637,1.38,1.592c0.425,0.85,0,1.168,0.425,2.017c0.531,0.955,1.168,0.743,1.592,1.592
	c0.531,1.061,0.106,2.547-0.424,2.654c-0.425,0-0.425-1.062-1.805-2.123c-0.743-0.743-1.38-0.955-1.592-0.955
	c-0.319-0.107-1.168-0.319-1.805-0.107c-1.486,0.531-1.911,3.397-1.486,5.413c0.318,1.486,0.955,2.548,1.38,3.078
	c-1.486,1.592-2.76,2.123-3.716,2.229c-1.061,0.106-2.335-0.106-2.654,0.531c-0.212,0.318,0.213,0.743-0.106,1.167
	c-0.318,0.531-0.849,0.425-1.274,0.849c-0.955,0.85,0.319,2.76-0.318,3.291c-0.531,0.318-1.699-0.319-2.336-0.849
	C125.735,207.496,126.16,206.859,124.886,205.161z"/>
<path fill="none" stroke="#111111" stroke-width="0.75" stroke-miterlimit="10" d="M129.132,387.609
	c-1.38-4.564-4.564-12.418-11.465-20.272c-7.112-7.961-14.755-11.994-19.214-13.903"/>
<path fill="none" stroke="#111111" stroke-width="0.75" stroke-miterlimit="10" d="M84.228,163.343
	c-2.866-3.078-9.873-11.569-11.465-24.411c-1.062-8.173,0.531-14.859,1.805-18.68"/>
<path fill="none" stroke="#111111" stroke-width="0.75" stroke-linecap="round" stroke-linejoin="round" stroke-miterlimit="10" d="
	M109.069,247.085c-0.107-5.201-0.531-11.146-1.699-17.726c-2.123-11.992-6.051-22.5-9.661-29.611"/>
<path fill="none" stroke="#111111" stroke-width="0.75" stroke-miterlimit="10" d="M257.796,233.182
	c4.352-2.973,11.252-6.899,20.276-9.022c14.543-3.502,19.108,1.38,40.127,1.804c22.718,0.531,30.255-4.882,42.251,1.486
	c6.688,3.503,10.934,8.703,13.376,12.312"/>
<path fill="none" stroke="#111111" stroke-width="0.75" stroke-miterlimit="10" d="M207.689,409.154
	c7.219-3.185,11.465-7.217,13.801-9.978c2.335-2.759,4.14-5.519,10.297-19.528c2.548-5.731,4.565-10.508,6.051-14.01"/>
<path fill="none" stroke="#111111" stroke-width="0.75" stroke-miterlimit="10" d="M246.543,350.673
	c3.185-4.67,7.431-12.312,9.448-22.5c3.822-20.166-4.246-36.192-7.113-41.394"/>
<path fill="none" stroke="#111111" stroke-width="0.75" stroke-miterlimit="10" d="M265.757,301.107
	c-1.061,0.638-2.866,1.486-5.201,1.805c-2.123,0.318-3.928,0.105-5.096-0.105"/>
<path fill="none" stroke="#111111" stroke-width="0.75" stroke-miterlimit="10" d="M332.637,313.207
	c2.335,0.531,4.565,0.955,7.006,0.955c4.034,0.105,7.113-0.637,8.493-0.955c14.65-3.502,17.517-0.743,24.311-4.775
	c5.202-3.078,4.034-5.096,10.509-8.703c4.884-2.654,6.688-2.229,10.51-5.096c2.442-1.804,7.856-5.837,7.537-10.507
	c-0.318-5.201-7.325-6.262-8.386-13.586c-0.106-0.955-0.425-2.865,0.317-5.2c0.956-3.184,2.867-4.033,4.034-6.474
	c1.487-3.291,0.319-6.793-0.317-8.916c-2.974-10.933,2.548-17.089,1.38-39.376c-0.106-2.548-0.319-6.475-1.168-11.569
	c-1.274-7.854-4.565-18.574-6.688-29.4c-0.424-2.123-1.061-5.413-1.592-9.658"/>
<path fill="#111111" d="M504.825,113.353c-0.638-0.531-2.974-2.335-6.051-2.016c-3.822,0.424-5.945,4.033-6.477,5.094
	c-1.273,2.123-1.592,4.776-2.229,10.083c-0.213,1.38-0.319,2.547-0.319,3.29c-0.849-0.53-1.592-1.167-2.441-1.698
	c0.213,0,1.274-0.212,1.486-0.849c0.212-0.743-0.531-2.017-2.229-2.76c0.424-0.318,0.955-0.955,1.38-1.91
	c0.743-1.698,0.317-3.29,0.105-3.821c-0.425,0.106-1.062,0.106-1.699,0.106c-0.742,0-1.273-0.106-1.804-0.212
	c0.53-0.106,1.486-0.318,2.441-0.955c0.849-0.637,1.38-1.274,1.699-1.698c-0.743,0.53-2.337,1.485-4.672,1.698
	c-2.017,0.106-3.503-0.425-4.353-0.743c0.85-0.213,1.911-0.743,2.973-1.486c1.698-1.274,2.761-2.76,3.291-3.609
	c-0.318,0-0.637,0.106-0.956,0.212c-1.273,0.319-2.229,0.85-2.865,1.38c0.637-1.061,1.592-2.441,3.078-3.821
	c1.486-1.273,2.866-2.122,3.928-2.547c-0.318-0.106-0.638-0.318-1.167-0.318c-0.851-0.106-1.594,0.106-2.018,0.212
	c0.743-0.955,1.805-2.017,2.973-2.972c3.716-2.972,7.536-3.821,9.873-4.139c-0.743-0.106-1.594-0.212-2.549-0.318
	c-0.637,0-1.273,0-1.91,0c2.336-0.319,4.776-0.637,7.112-0.956c0.106-0.212,0.106-0.424,0.106-0.637
	c0-0.531-0.106-0.955-0.213-1.167c0.53,0.212,1.168,0.531,1.805,0.955c0.637,0.425,1.274,0.849,1.805,1.274
	c0.212-0.212,0.425-0.531,0.743-0.849c0.743-0.743,1.486-1.062,2.018-1.274c-0.319,0.318-0.638,0.849-0.85,1.592
	c-0.105,0.212-0.105,0.531-0.105,0.743c0.849-0.637,2.017-1.379,3.29-2.017c3.609-1.698,7.007-1.592,8.918-1.379
	c-1.063,0-3.397,0.318-5.414,2.123c-0.638,0.531-1.063,1.062-1.38,1.592c1.38-0.637,4.671-1.911,8.811-1.38
	c3.184,0.424,5.626,1.804,6.9,2.653c-0.955-0.212-2.229-0.424-3.717-0.212c-0.424,0.106-0.742,0.106-1.061,0.212
	c1.486,0.637,4.883,2.441,7.431,6.368c1.593,2.547,2.229,5.095,2.442,6.581c-0.956-1.592-2.442-2.548-3.61-2.335
	c-0.212,0-0.53,0.106-0.849,0.424c0,1.168,0.105,3.821,1.698,6.581c1.273,2.228,2.866,3.502,3.821,4.139
	c-0.317,0.212-1.273,0.531-2.441,0.318c-0.743-0.106-1.273-0.424-1.592-0.636c0.425,1.273,0.956,2.865,1.168,4.67
	c0.317,2.759,0.105,5.094-0.106,6.686c0-0.849-0.213-2.016-0.743-3.184c-0.213-0.318-0.318-0.637-0.531-0.955
	c0.318,1.167,0.85,3.396,0.318,6.05c-0.318,1.485-0.849,2.653-1.273,3.396c-0.213-0.955-0.53-2.017-0.743-2.017
	c-0.106,0-0.106,0.637-0.212,1.168c-0.106,0.849-0.319,1.91-1.063,3.29c-0.849-1.274-2.229-1.486-2.76-0.955
	c-0.531,0.53-0.318,1.698-0.318,1.698c-0.53-0.425-1.168-0.318-1.485,0c-0.319,0.318-0.319,0.743-0.319,0.849
	c-0.743,0-1.592,0-2.335,0c-0.107,0.743-0.213,1.486-0.425,2.229c-0.955-0.637-1.911-1.061-2.123-0.743
	c-0.319,0.318,0.105,1.274,1.061,2.547c-0.637-0.106-1.272-0.212-1.91-0.318c-0.106-0.637-0.213-1.592-0.213-2.654
	c0-1.061,0.213-1.91,0.319-2.547c0.849,0.212,3.821,0.743,6.475-1.061c2.974-2.017,4.354-6.262,3.291-7.536
	c-0.317-0.318-1.273-0.849-4.458,0.637c-0.213-0.318-0.53-0.849-0.85-1.486c-1.061-2.229-1.486-4.033-1.592-4.564
	c-0.318-1.698-2.654-12.418-8.068-14.434C509.92,112.292,507.903,111.973,504.825,113.353z"/>
<path fill="#1D1D1B" d="M332.106,123.967c-0.85,0.106-1.381,2.229-1.274,3.821c0,0.424,0.212,2.229,1.38,2.653
	c0.106,0,0.531,0.212,0.956,0c1.061-0.531,0.955-2.653,0.955-2.866C333.911,125.877,332.955,123.967,332.106,123.967z"/>
<path fill="#1D1D1B" d="M343.677,123.436c-0.849,0.106-1.38,2.229-1.273,3.821c0,0.425,0.213,2.229,1.38,2.653
	c0.106,0,0.531,0.213,0.956,0c1.061-0.53,0.955-2.653,0.955-2.865C345.588,125.347,344.526,123.33,343.677,123.436z"/>
<path fill="none" stroke="#111111" stroke-width="0.75" stroke-miterlimit="10" d="M226.691,214.076h-9.766V0"/>
<path fill="none" stroke="#111111" stroke-width="0.75" stroke-miterlimit="10" d="M434.442,214.076h-36.519"/>
<path fill="none" stroke="#111111" stroke-width="0.75" stroke-miterlimit="10" d="M202.487,226.706l14.438-12.63"/>
<path fill="none" stroke="#111111" stroke-width="0.75" stroke-miterlimit="10" d="M1.212,402.468l55.202-48.186"/>
<g>
	<g id="OP01">
		<polygon fill="#00B0AE" points="129.646,278.462 129.646,264.03 135.53,264.03 135.53,274.84 140.679,274.84 140.679,278.462 		
			"/>
		<path fill="#8BC541" d="M131.907,264.03v6.544c0,2.856-0.673,4.925-2.016,6.204c-1.341,1.28-2.875,1.921-4.598,1.921
			c-1.247,0-2.431-0.354-3.555-1.06c-1.121-0.707-1.907-1.638-2.361-2.795c-0.452-1.157-0.68-2.675-0.68-4.554v-6.261H131.907z"/>
		<polygon fill="#FCB814" points="107.778,278.462 107.778,264.03 118.698,264.03 118.698,267.652 113.653,267.652 113.653,270.272 
			117.393,270.272 117.393,273.895 113.653,273.895 113.653,278.462 		"/>
		<path fill="#F48024" d="M96.542,264.03h8.673c1.503,0,2.683,0.412,3.542,1.234c0.859,0.823,1.289,1.853,1.289,3.089
			c0,1.36-0.506,2.427-1.515,3.195c1.432,1.778,2.288,4.083,2.567,6.913h-6.099c-0.111-1.821-0.361-3.168-0.753-4.038
			c-0.39-0.87-1.001-1.305-1.831-1.305v5.343h-5.873V264.03z"/>
		<path fill="#EE4035" d="M92.522,278.699c-1.897,0-3.504-0.725-4.824-2.172c-1.32-1.446-1.979-3.21-1.979-5.289
			c0-2.075,0.659-3.832,1.979-5.273c1.319-1.439,2.927-2.161,4.824-2.161c1.903,0,3.514,0.722,4.833,2.161
			c1.321,1.441,1.979,3.198,1.979,5.273c0,2.079-0.658,3.843-1.979,5.289C96.037,277.975,94.426,278.699,92.522,278.699z
			 M91.155,274.871l4.168-3.627l-4.168-3.623V274.871z"/>
		<polygon fill="#CA3091" points="79.298,278.462 79.298,264.03 85.18,264.03 85.18,274.84 90.331,274.84 90.331,278.462 		"/>
		<path fill="#644B9E" d="M75.073,278.699c-1.897,0-3.505-0.725-4.825-2.172c-1.319-1.446-1.979-3.21-1.979-5.289
			c0-2.075,0.66-3.832,1.979-5.273c1.32-1.439,2.928-2.161,4.825-2.161c1.903,0,3.514,0.722,4.833,2.161
			c1.319,1.441,1.979,3.198,1.979,5.273c0,2.079-0.66,3.843-1.979,5.289C78.587,277.975,76.976,278.699,75.073,278.699z"/>
		<path fill="#1479BE" d="M73.101,265.326l-2.461,5.098c-0.72-0.271-1.515-0.407-2.385-0.407c-1.247,0-1.87,0.369-1.87,1.107
			c0,0.353,0.173,0.629,0.522,0.827c0.347,0.198,0.844,0.297,1.487,0.297c0.87,0,1.618-0.17,2.246-0.511l2.461,5.467
			c-0.696,0.455-1.537,0.817-2.523,1.087c-0.986,0.271-1.928,0.408-2.827,0.408c-2.257,0-4.054-0.708-5.391-2.124
			c-1.337-1.415-2.005-3.156-2.005-5.225c0-2.188,0.696-3.991,2.088-5.414c1.392-1.423,3.161-2.133,5.308-2.133
			c0.927,0,1.886,0.137,2.875,0.41C71.614,264.489,72.439,264.86,73.101,265.326z"/>
	</g>
	<g id="OP01_1_">
		<g>
			<defs>
				<path id="SVGID_1_" d="M131.907,264.03v6.544c0,2.856-0.673,4.925-2.016,6.204c-1.341,1.28-2.875,1.921-4.598,1.921
					c-1.247,0-2.431-0.354-3.555-1.06c-1.121-0.707-1.907-1.638-2.361-2.795c-0.452-1.157-0.68-2.675-0.68-4.554v-6.261H131.907z"/>
			</defs>
			<clipPath id="SVGID_2_">
				<use xlink:href="#SVGID_1_"  overflow="visible"/>
			</clipPath>
			<polygon clip-path="url(#SVGID_2_)" fill="#1C9458" points="129.646,278.462 129.646,264.03 135.53,264.03 135.53,274.84 
				140.679,274.84 140.679,278.462 			"/>
		</g>
		<g>
			<defs>
				<path id="SVGID_3_" d="M96.542,264.03h8.673c1.503,0,2.683,0.412,3.542,1.234c0.859,0.823,1.289,1.853,1.289,3.089
					c0,1.36-0.506,2.427-1.515,3.195c1.432,1.778,2.288,4.083,2.567,6.913h-6.099c-0.111-1.821-0.361-3.168-0.753-4.038
					c-0.39-0.87-1.001-1.305-1.831-1.305v5.343h-5.873V264.03z"/>
			</defs>
			<clipPath id="SVGID_4_">
				<use xlink:href="#SVGID_3_"  overflow="visible"/>
			</clipPath>
			<polygon clip-path="url(#SVGID_4_)" fill="#F05E24" points="107.778,278.462 107.778,264.03 118.698,264.03 118.698,267.652 
				113.653,267.652 113.653,270.272 117.393,270.272 117.393,273.895 113.653,273.895 113.653,278.462 			"/>
		</g>
		<g>
			<defs>
				<path id="SVGID_5_" d="M92.522,278.699c-1.897,0-3.504-0.725-4.824-2.172c-1.32-1.446-1.979-3.21-1.979-5.289
					c0-2.075,0.659-3.832,1.979-5.273c1.319-1.439,2.927-2.161,4.824-2.161c1.903,0,3.514,0.722,4.833,2.161
					c1.321,1.441,1.979,3.198,1.979,5.273c0,2.079-0.658,3.843-1.979,5.289C96.037,277.975,94.426,278.699,92.522,278.699z"/>
			</defs>
			<clipPath id="SVGID_6_">
				<use xlink:href="#SVGID_5_"  overflow="visible"/>
			</clipPath>
			<path clip-path="url(#SVGID_6_)" fill="#E31D3B" d="M96.542,264.03h8.673c1.503,0,2.683,0.412,3.542,1.234
				c0.859,0.823,1.289,1.853,1.289,3.089c0,1.36-0.506,2.427-1.515,3.195c1.432,1.778,2.288,4.083,2.567,6.913h-6.099
				c-0.111-1.821-0.361-3.168-0.753-4.038c-0.39-0.87-1.001-1.305-1.831-1.305v5.343h-5.873V264.03z"/>
		</g>
		<g>
			<defs>
				<path id="SVGID_7_" d="M92.522,278.699c-1.897,0-3.504-0.725-4.824-2.172c-1.32-1.446-1.979-3.21-1.979-5.289
					c0-2.075,0.659-3.832,1.979-5.273c1.319-1.439,2.927-2.161,4.824-2.161c1.903,0,3.514,0.722,4.833,2.161
					c1.321,1.441,1.979,3.198,1.979,5.273c0,2.079-0.658,3.843-1.979,5.289C96.037,277.975,94.426,278.699,92.522,278.699z"/>
			</defs>
			<clipPath id="SVGID_8_">
				<use xlink:href="#SVGID_7_"  overflow="visible"/>
			</clipPath>
			<polygon clip-path="url(#SVGID_8_)" fill="#A21C37" points="79.298,278.462 79.298,264.03 85.18,264.03 85.18,274.84 
				90.331,274.84 90.331,278.462 			"/>
		</g>
		<g>
			<defs>
				<path id="SVGID_9_" d="M75.073,278.699c-1.897,0-3.505-0.725-4.825-2.172c-1.319-1.446-1.979-3.21-1.979-5.289
					c0-2.075,0.66-3.832,1.979-5.273c1.32-1.439,2.928-2.161,4.825-2.161c1.903,0,3.514,0.722,4.833,2.161
					c1.319,1.441,1.979,3.198,1.979,5.273c0,2.079-0.66,3.843-1.979,5.289C78.587,277.975,76.976,278.699,75.073,278.699z"/>
			</defs>
			<clipPath id="SVGID_10_">
				<use xlink:href="#SVGID_9_"  overflow="visible"/>
			</clipPath>
			<polygon clip-path="url(#SVGID_10_)" fill="#542E88" points="79.298,278.462 79.298,264.03 85.18,264.03 85.18,274.84 
				90.331,274.84 90.331,278.462 			"/>
		</g>
		<g>
			<defs>
				<path id="SVGID_11_" d="M73.101,265.326l-2.461,5.098c-0.72-0.271-1.515-0.407-2.385-0.407c-1.247,0-1.87,0.369-1.87,1.107
					c0,0.353,0.173,0.629,0.522,0.827c0.347,0.198,0.844,0.297,1.487,0.297c0.87,0,1.618-0.17,2.246-0.511l2.461,5.467
					c-0.696,0.455-1.537,0.817-2.523,1.087c-0.986,0.271-1.928,0.408-2.827,0.408c-2.257,0-4.054-0.708-5.391-2.124
					c-1.337-1.415-2.005-3.156-2.005-5.225c0-2.188,0.696-3.991,2.088-5.414c1.392-1.423,3.161-2.133,5.308-2.133
					c0.927,0,1.886,0.137,2.875,0.41C71.614,264.489,72.439,264.86,73.101,265.326z"/>
			</defs>
			<clipPath id="SVGID_12_">
				<use xlink:href="#SVGID_11_"  overflow="visible"/>
			</clipPath>
			<path clip-path="url(#SVGID_12_)" fill="#204393" d="M75.073,278.699c-1.897,0-3.505-0.725-4.825-2.172
				c-1.319-1.446-1.979-3.21-1.979-5.289c0-2.075,0.66-3.832,1.979-5.273c1.32-1.439,2.928-2.161,4.825-2.161
				c1.903,0,3.514,0.722,4.833,2.161c1.319,1.441,1.979,3.198,1.979,5.273c0,2.079-0.66,3.843-1.979,5.289
				C78.587,277.975,76.976,278.699,75.073,278.699z"/>
		</g>
	</g>
	<path fill="#4895D0" d="M78.369,284.57l-2.104,3.22c-0.878-0.459-1.689-0.688-2.434-0.688c-0.494,0-0.893,0.139-1.19,0.418
		c-0.299,0.278-0.448,0.646-0.448,1.104c0,0.87,0.523,1.304,1.574,1.304v-1.676h4.363v5.774c-1.765,0.108-2.958,0.161-3.583,0.161
		c-2.41,0-4.083-0.556-5.021-1.669c-0.938-1.112-1.408-2.413-1.408-3.895c0-1.019,0.219-1.955,0.656-2.807
		c0.436-0.851,1.067-1.511,1.891-1.978c0.824-0.468,1.8-0.701,2.928-0.701c0.792,0,1.611,0.125,2.458,0.374
		C76.899,283.763,77.671,284.116,78.369,284.57z M81.977,283.307h6.435c1.114,0,1.991,0.305,2.627,0.914
		c0.637,0.61,0.956,1.374,0.956,2.292c0,1.011-0.375,1.801-1.123,2.37c1.063,1.319,1.697,3.029,1.904,5.128H88.25
		c-0.082-1.351-0.268-2.349-0.558-2.994s-0.744-0.967-1.358-0.967v3.961h-4.357V283.307z M86.334,285.509v2.063h0.123
		c0.783,0,1.174-0.332,1.174-1.004c0-0.281-0.079-0.526-0.239-0.738c-0.159-0.213-0.423-0.32-0.792-0.32H86.334z M100.399,294.188
		c-1.407,0-2.6-0.537-3.578-1.611c-0.979-1.073-1.47-2.38-1.47-3.924c0-1.54,0.49-2.844,1.47-3.912
		c0.978-1.068,2.171-1.602,3.578-1.602c1.412,0,2.606,0.533,3.584,1.602c0.98,1.068,1.47,2.372,1.47,3.912
		c0,1.544-0.49,2.851-1.47,3.924C103.005,293.65,101.811,294.188,100.399,294.188z M100.399,287.242
		c-0.28,0-0.512,0.105-0.697,0.318c-0.186,0.214-0.278,0.482-0.278,0.804c0,0.323,0.092,0.591,0.278,0.803
		c0.185,0.214,0.417,0.32,0.697,0.32c0.284,0,0.519-0.106,0.704-0.32c0.185-0.212,0.278-0.479,0.278-0.803
		c0-0.321-0.093-0.59-0.278-0.804C100.917,287.348,100.683,287.242,100.399,287.242z M118.202,283.307v4.855
		c0,2.117-0.498,3.652-1.494,4.602c-0.996,0.949-2.132,1.424-3.412,1.424c-0.924,0-1.804-0.263-2.636-0.787
		c-0.833-0.522-1.416-1.213-1.752-2.07c-0.336-0.859-0.505-1.986-0.505-3.379v-4.645h4.364v4.958c0,0.536,0.044,0.873,0.13,1.014
		c0.086,0.139,0.214,0.209,0.387,0.209c0.24,0,0.394-0.128,0.458-0.383c0.064-0.254,0.096-0.684,0.096-1.286v-4.512H118.202z
		 M122.581,283.307h5.971c1.262,0,2.229,0.347,2.905,1.042c0.675,0.694,1.013,1.554,1.013,2.578c0,0.999-0.319,1.852-0.96,2.553
		c-0.642,0.701-1.414,1.053-2.319,1.053c-0.751,0-1.503-0.311-2.252-0.933v4.411h-4.357V283.307z M126.938,285.623v2.328
		c0.131,0.037,0.25,0.055,0.362,0.055c0.329,0,0.592-0.111,0.794-0.336c0.203-0.224,0.304-0.519,0.304-0.884
		c0-0.359-0.085-0.644-0.259-0.853c-0.173-0.208-0.417-0.311-0.736-0.311H126.938z M140.679,280.896H60.354v15.766h80.325V280.896z"
		/>
</g>
</svg>
