<?xml version="1.0" encoding="utf-8"?>
<!-- Generator: Adobe Illustrator 16.0.0, SVG Export Plug-In . SVG Version: 6.00 Build 0)  -->
<!DOCTYPE svg PUBLIC "-//W3C//DTD SVG 1.1//EN" "http://www.w3.org/Graphics/SVG/1.1/DTD/svg11.dtd">
<svg version="1.1" id="Layer_1" xmlns="http://www.w3.org/2000/svg" xmlns:xlink="http://www.w3.org/1999/xlink" x="0px" y="0px"
	 width="390px" height="467px" viewBox="0 0 390 467" enable-background="new 0 0 390 467" xml:space="preserve">
<path fill="none" stroke="#111111" stroke-width="0.75" stroke-linecap="round" stroke-linejoin="round" stroke-miterlimit="10" d="
	M37.1,203.6l21.3,53.9l69.3,20.9L107.4,219.3L37.1,203.6z"/>
<path fill="none" stroke="#111111" stroke-width="0.75" stroke-linecap="round" stroke-linejoin="round" stroke-miterlimit="10" d="
	M107.4,219.3l1.2-1.2"/>
<path fill="none" stroke="#111111" stroke-width="0.75" stroke-linecap="round" stroke-linejoin="round" stroke-miterlimit="10" d="
	M155.9,248.6c-13.8-4.399-27.5-8.699-41.3-13.1"/>
<path fill="none" stroke="#111111" stroke-width="0.75" stroke-linecap="round" stroke-linejoin="round" stroke-miterlimit="10" d="
	M128.9,277.2l-1.2,1.2l28.2-27.601"/>
<path fill="#111111" d="M1.7,418.4c-0.2,0.1,0.3,4,3.1,6.5c2.7,2.399,6.4,2.399,7.8,2.3c7.1-0.2,9.3-5.101,21.7-12
	c3.4-1.9,5.1-2.8,7.7-3.9c4.6-1.899,9.2-3.1,14-6.7c1.2-0.899,2.3-1.899,2.3-3.199c0-1.801-2-3.7-4.1-4.101
	c-1.4-0.3-2.6,0.2-3.8,0.7c-5.7,2.5-9.8,4.3-12,8.9c-0.4,0.8-0.9,2-1.2,3.699c-4.1,3.101-8.7,6.301-14,9.4c-3.2,1.9-6.3,3.5-9.3,5
	c-2.6,0.3-6.2,0.3-8.9-1.9C2.5,421.3,1.8,418.3,1.7,418.4z"/>
<path fill="#FFC910" d="M40.6,388.6c-1.1,0.9-2.2,2.2-2,3.5c0.1,0.9,0.8,1.2,0.9,1.7c0.1,1.101-2.7,2.9-13.5,5.9
	c0.7,1.7,2.2,4.899,5.4,7.6c1.9,1.601,3.7,2.5,5.1,3c2-0.6,4.2-1.3,6.4-2.1c4.8-1.8,8.8-4,12.2-6c0.9-2.5,0.6-4,0.1-4.8
	c-0.8-1.4-2.2-1.801-2.1-2.801c0.1-1.1,1.9-1.199,2.1-2.199c0.2-1.301-2.1-2.9-3.7-3.601C47.4,386.9,43.1,387.8,40.6,388.6z"/>
<path fill="none" stroke="#111111" stroke-width="0.75" stroke-linecap="round" stroke-linejoin="round" stroke-miterlimit="10" d="
	M25.2,396.4c0.3,1.8,1.3,7,6.1,11.1c2.1,1.7,4.2,2.7,5.9,3.3c-4.2,2.9-8,5.4-11.1,7.5c-9.4,6.2-12.1,7.5-15.5,7.2
	c-0.3,0-4.5-0.5-7.2-3.6c-4.2-4.9-1-12.5,1.7-16.301C11.3,396.8,23.8,396.5,25.2,396.4z"/>
<path fill="#FFFFFF" d="M25.2,396.4c0.8,0.899,1.5,1.8,2.3,2.699L25.2,396.4z"/>
<path fill="none" stroke="#111111" stroke-width="0.75" stroke-linecap="round" stroke-linejoin="round" stroke-miterlimit="10" d="
	M25.2,396.4c0.8,0.899,1.5,1.8,2.3,2.699"/>
<path fill="#111111" d="M46.4,455.2c0,1,0,5.6,3.4,8.6c2.8,2.4,6.3,2.4,7.8,2.3c7.1-0.199,9.3-5.1,21.7-12
	c3.4-1.899,5.1-2.8,7.7-3.899c4.6-1.9,9.2-3.101,14-6.7c1.2-0.9,2.3-1.9,2.3-3.2c0-1.8-2.2-3.5-4.1-4.1c-0.1,0-1.9-0.601-3.8-0.2
	c-4.9,1.1-6.8,7.4-12.5,13.5c-1,1-0.3,0.2-17.3,11.6c-1.9,1.301-4.2,2.801-7.4,3c-0.9,0.101-5.6,0.4-9-3.199
	C47,458.8,46.5,456.2,46.4,455.2z"/>
<path fill="#FFC910" d="M79.2,419.3c-0.7,1.101-1.5,2.8-0.9,4.2c0.6,1.3,2.1,1.3,2.5,2.4c0.5,1.3-0.8,2.899-3.1,5.399
	c-1.6,1.8-3.8,4.101-6.7,6.7c0.4,1.5,1.3,4,3.3,6.4c3,3.6,6.6,5,8.2,5.5c4.3-2.9,8.7-5.9,13-8.801c0.4-0.899,0.8-2.1,0.9-3.5
	c0.2-1.899-0.3-2.899-1.1-7.199c-0.6-3.5-0.6-4.2-0.3-5c0.7-1.601,1.9-1.7,2.1-2.9c0.4-1.9-2.2-4.2-3.7-5.1
	C88,414,80.1,418.7,79.2,419.3z"/>
<path fill="none" stroke="#111111" stroke-width="0.75" stroke-linecap="round" stroke-linejoin="round" stroke-miterlimit="10" d="
	M70.2,435.3c0.3,1.8,1.5,7,6.1,11.101c2.4,2.1,4.9,3.1,6.5,3.6c-4.5,3.3-8.3,5.8-11.3,7.7c-10.1,6.399-13.1,7-16,6.6
	c-0.9-0.1-4.7-0.7-7.2-3.6c-4.2-4.9-1-12.5,1.7-16.3C56.3,435.7,68.8,435.3,70.2,435.3z"/>
<path fill="#FFFFFF" d="M70.2,435.3c0.5,0.601,1,1.2,1.6,1.9L70.2,435.3z"/>
<path fill="none" stroke="#111111" stroke-width="0.75" stroke-linecap="round" stroke-linejoin="round" stroke-miterlimit="10" d="
	M70.2,435.3c0.5,0.601,1,1.2,1.6,1.9"/>
<path fill="none" stroke="#111111" stroke-width="0.75" stroke-linecap="round" stroke-linejoin="round" stroke-miterlimit="10" d="
	M37.1,203.6l1.2-1.2l70.3,15.7l19.6,57.1"/>
<path fill="none" stroke="#111111" stroke-width="0.75" stroke-linecap="round" stroke-linejoin="round" stroke-miterlimit="10" d="
	M128.2,275.2c9.2-8.9,18.5-17.7,27.7-26.601c0,0.7,0,1.5,0,2.2"/>
<path fill="#111111" stroke="#1D1E1B" stroke-miterlimit="10" d="M71.3,261.4C60.9,274.3,41.9,301.6,37.7,340.3
	c-1.7,15.3-0.6,28.8,1.1,39.601c-1.1,0.8-2.1,1.6-3.2,2.399c1.4,0.8,2.8,1.5,4.2,2.3c-1,0.9-2.1,1.9-3.1,2.801
	c0.8,1,1.9,2.1,3.3,2.899c6,3.8,13,1.7,14.6,1.2c1.8-0.6,3.6-1.2,5.4-1.7c-1.7-0.8-3.3-1.5-5-2.3c1.5-0.8,2.9-1.6,4.4-2.4
	c-1-0.8-2-1.5-2.9-2.3c0-2.7,0-6.6,0.3-11.2c0.8-14.6,2.6-45.6,22.3-73.3c5-7.1,13.5-17,27-26.399C94.5,268.3,82.9,264.9,71.3,261.4
	z"/>
<path fill="#111111" d="M146.4,72.6c-1.8,0.2-3.7,0.1-4.4-1c-0.6-0.9,0-1.6-0.5-2.2c-1.3-1.4-5.3,1.8-7.8,0.4c-1.8-1-2.8-3.8-2-4.8
	c0.7-0.9,2.5-0.5,2.7-1.2c0.2-0.6-1.4-1.2-1.3-1.9c0.1-1,3.2-0.6,4-2.2c0.6-1.2-0.7-2.5,0-3.2c0.6-0.7,2,0.2,2.8-0.5
	c1-0.9-0.7-2.9,0.2-4.8c1-2.2,4.1-1.7,4.6-3.4c0.5-1.8-2.6-3.3-2.1-4.6c0.8-2.2,10.3-0.2,10.8-2.1c0.3-1.1-2.5-2.8-2.1-3.5
	c0.4-0.7,3.3,1,4.8-0.2c1.4-1.1,0.3-3.6,1.4-4.3c1.2-0.7,2.5,1.8,5.5,2.3c3.7,0.6,5.6-2.4,8.1-1.2c1.9,0.9,1.7,3,3,3.1
	c2,0.1,3.2-5.3,5.2-5.2c1.4,0.1,1.6,2.8,3.4,3.1c2,0.3,3.5-2.6,4.6-2c1,0.5,0.2,3.3,1.1,3.7c1,0.4,2.7-2.5,3.4-2.1
	c0.3,0.2,0.3,0.9-0.2,4.4c-0.4,2.8-0.4,2.9-0.3,3.1c1.2,2.2,7.5-0.7,9.8,2.1c1.2,1.4,1.101,4.1,1.101,4.6c0,1.8-0.601,2.6,0,3.6
	c0.8,1.4,2.5,1.2,2.6,2c0.101,1.1-3.1,1.8-3.1,3.2c0,1.4,3.399,1.8,3.6,3.6c0.2,1.4-2.1,1.8-2.5,3.9c-0.5,2.5,2,4.2,1.101,5.5
	c-0.7,1-2.601,0.3-3,1.2c-0.601,1.3,2.899,3.7,2.3,4.7c-0.4,0.8-2.8,0.1-3,0.7s2.1,1.3,2.7,3.3c0.3,1.2-0.301,1.5-0.4,3.9
	c-0.1,2,0.3,2.1,0.3,3.4c-0.2,3-2.7,5.2-3.3,5.7c-2.5,2.2-4,1.3-5.1,3.3c-1,1.8-0.6,3.7-1.9,4.3c-0.9,0.4-1.7-0.1-2.2,0.4
	c-0.7,0.7,0.4,2.1-0.2,3.3c-0.4,0.9-1.4,1.3-2.3,1.5c-0.1-1.3-0.1-2.8,0-4.5c0.1-1.2,0.3-2.3,0.4-3.3c0.6-0.6,1.6-1.5,2.9-2.5
	c3.4-2.5,4.6-2.1,7-4c0.7-0.6,4.7-3.8,4.5-7.9c0-0.8-0.1-2-1-2.7c-1.8-1.5-6.399,0.1-9,2.9c-2,2.1-2.3,4.2-3.1,4.1
	c-0.9-0.1-1.3-2.3-1.7-4.7c-1.4-7.5-2.1-11.3-2.6-12.8c-1.1-3.3-2.7-8-6.6-9.5c-2.2-0.8-3.5,0.1-5.8-1.4c-2.2-1.4-2.9-3.3-4.4-3.1
	c-1.2,0.2-1.2,1.5-2.4,1.6c-1.6,0.2-2.1-2-4-2.3c-2.4-0.3-4.8,2.6-5.1,2.9c-1.2,1.4-1.4,2.7-2.7,3c-1,0.2-1.6-0.3-2,0.1
	c-0.7,0.7,0.4,2.4-0.3,3.1c-0.7,0.6-2.2-0.7-3.2,0c-0.7,0.5-0.4,1.7-1.1,2c-0.6,0.3-1.3-0.7-1.7-0.5
	C145.7,67.5,145.5,68.7,146.4,72.6z"/>
<path fill="#111111" stroke="#1D1E1B" stroke-miterlimit="10" d="M116.6,275c-9.4,8.8-23,23.9-32.7,46.1
	C67.5,358.7,72.7,393,75.5,406.7c-1.2,0.7-2.4,1.5-3.6,2.2c1.3,0.8,2.7,1.6,4,2.399c-0.9,1.101-1.9,2.3-2.8,3.4
	c1.1,0.5,2.3,0.899,3.4,1.399c-0.7,1.2-1.3,2.4-2,3.601c1,0.5,2,1.1,3,1.6c2.1,0.601,5.4,1.3,9.4,1c3.6-0.3,6.5-1.2,8.4-2
	c1.1-1.1,2.3-2.3,3.4-3.399c-1.1-0.9-2.3-1.9-3.4-2.801c1.2-0.6,2.4-1.199,3.6-1.8c-1.5-1.1-3.1-2.3-4.6-3.399c1.3-1,2.5-2,3.8-3
	c-1.2-1.101-2.4-2.101-3.6-3.2c-2.9-41.5,8-63.101,19.1-75.3c7.4-8.101,30.8-29.7,58.5-46.2c4.4-2.601,12.5-7.2,18.3-16.7
	c7.2-11.7,7.2-24.7,6.2-33.3c-12.899,1.7-28.1,2.3-44.8,0.2c-3.8-0.5-7.5-1.1-11-1.8c-0.8,4.5-1.7,9-2.5,13.5
	c5.9,1.9,11.7,3.7,17.6,5.601c0,0.7,0,1.5,0,2.2c-9.4,9.199-18.8,18.3-28.2,27.5C124,277.2,120.3,276.1,116.6,275z"/>
<path fill="#111111" d="M193.8,117.6c-2.4,2.9-5.6,7.3-7.2,13.4c-2,7.5-0.7,13.5,0,18.5c2,13.9-1,14.7-0.5,32.9
	c0.4,15.1,0.8,27.3,6.4,41.5c4,10.1,9.1,16.9,12.6,32.4c1,4.5,1.601,8.2,1.9,10.7c1.7-0.3,4.2-0.9,6.4-2.7
	c2.399-1.899,2.1-3.2,4-5.399c4.1-4.7,9.1-2.601,13.1-7c1-1.101,2.3-2.9,2.9-6.2c1.399,0.899,3.5,2.399,4,4.8
	c0.8,3.5-2.301,5.2-3.5,10.7c-1.2,5.399,1.3,6.1,0,10.7c-1.601,5.5-5.601,6-6.7,10.399c-0.601,2.5-0.3,6.4,4,12.101
	c0.1-2.2,0.2-4.5,0.3-6.7c5.1,3.7,9.8,5.3,12.9,6.2c4.199,1.1,11.3,3.1,14.5-0.301c1.3-1.399,1.1-2.8,1.6-6.699
	c0.6-4.2,1.6-7.601,3.7-14.5c2.8-9.101,4.3-7.301,6.7-15.301c1.3-4.199,1-5.1,3.699-19.3c0.4-2.3,1.7-4.1,1.301-6.7
	c-0.5-3.8-3-5.7-5.601-9.1c-2.7-3.5-3.2-5.7-5.899-12.3c-9.7-23.7-30.301-60.7-37-65.4c-0.301-0.2-1.301-0.9-1.9-2.1
	c-1.2-2.7,1.2-5.2,2.1-8.8c1.2-4.5,0.2-10.8-2.899-12.6c-2.8-1.6-4.7,1.6-11.8,1.6c-3.5,0-6.301-0.8-11-2.1
	C198.6,119.5,195.8,118.4,193.8,117.6z"/>
<path fill="#111111" d="M171.2,121.2c-0.4,0.7-1,1.9-1.9,3.3c-1.6,2.6-3,4.3-3.2,4.6c-2.3,3-11.7,18.9-16.3,31.3
	c-4.6,12.3-3,16.9-5.9,44.7c-0.9,8.7-2.4,21.8-5.1,38c-7.8-2.5-15.7-5-23.5-7.399c-0.9-5.6-1.7-14-0.3-23.9
	c1.6-11.2,4.4-12.3,8.8-27.1c6.1-20.2,3.4-26.7,11.2-40.4c2-3.5,4.1-7.2,8-11C152.9,123.8,165.2,121.7,171.2,121.2z"/>
<path fill="none" stroke="#111111" stroke-width="0.75" stroke-linecap="round" stroke-linejoin="round" stroke-miterlimit="10" d="
	M164.9,123.3c1.8,1.4,5.1,3.7,9.8,4.7c7.8,1.7,14-1.3,15.9-2.3"/>
<path fill="none" stroke="#111111" stroke-width="0.75" stroke-linecap="round" stroke-linejoin="round" stroke-miterlimit="10" d="
	M146.1,67.4c-0.7,6.9,0.7,10.7,2.1,13c0.4,0.5,0.8,1.2,1.3,2.3c1.8,3.8,1.2,7.5,1.1,9.1c-0.8,9.1,5.2,17.4,5.6,17.9
	c1.4,1.8,5,6.7,10.2,6.8c1.5,0.1,3.5-0.3,7.5-2.9c10.3-6.8,9.3-12.6,17.8-17.4c3.4-1.9,5.8-2.3,8.2-5.4c2.1-2.7,3.8-7,2.3-8.6
	s-6-0.1-8.7,2c-2.2,1.7-3.3,3.8-3.7,5.1c-0.6-1.4-1.3-3.5-2-6c-2.1-7.7-1.5-12.3-4.7-17.5c-0.9-1.5-2-2.9-3.7-3.6
	c-1.8-0.8-2.3,0-4.3-0.5c-3.6-1.1-4.4-4.5-6.4-4.2c-1.2,0.2-1.2,1.5-2.4,1.6c-1.6,0.2-2.1-2-4-2.3c-2.3-0.3-4.5,2.2-4.7,2.4
	c-1.3,1.6-1.2,2.9-2.5,3.3c-1.1,0.4-2-0.3-2.5,0.3c-0.7,0.8,0.4,2.5-0.3,3.1c-0.7,0.6-2.2-0.7-3.2,0c-0.7,0.5-0.4,1.7-1.1,2
	C147.3,68.1,146.6,67.8,146.1,67.4z"/>
<path fill="#1D1D1B" stroke="#111111" stroke-width="0.75" stroke-miterlimit="10" d="M156.3,81.6c-1.1,0-3.3,7.2-0.5,9.5
	c0.2,0.1,0.9,0.8,1.5,0.5C159.1,90.9,157.5,81.6,156.3,81.6z"/>
<path fill="#1D1D1B" stroke="#111111" stroke-width="0.75" stroke-miterlimit="10" d="M172.3,80.4c1.1,0,3.3,7.2,0.5,9.5
	c-0.2,0.1-0.9,0.8-1.5,0.5C169.6,89.7,171.1,80.5,172.3,80.4z"/>
<path fill="none" stroke="#111111" stroke-width="0.75" stroke-linecap="round" stroke-linejoin="round" stroke-miterlimit="10" d="
	M163,87.2c0.5,4.4-0.5,6.5-1.6,7.6c-1.3,1.4-3.4,1.9-3.3,3.1c0,0.8,1.1,1.4,1.5,1.6c1.9,1.1,4.1,0.2,4.6,0"/>
<path fill="none" stroke="#111111" stroke-width="0.75" stroke-linecap="round" stroke-linejoin="round" stroke-miterlimit="10" d="
	M149.3,76.4c0.8-0.8,3-2.5,6.2-2.8c1.4-0.1,2.6,0,3.5,0.3"/>
<path fill="none" stroke="#111111" stroke-width="0.75" stroke-linecap="round" stroke-linejoin="round" stroke-miterlimit="10" d="
	M165.7,73.4c1.2-0.6,4-1.9,7.8-1.6c2.4,0.2,4.3,1,5.4,1.6"/>
<path fill="none" stroke="#111111" stroke-width="0.75" stroke-linecap="round" stroke-linejoin="round" stroke-miterlimit="10" d="
	M163.9,108.7c1.6-0.3,4.1-1.1,6.7-2.8c1.7-1.1,2.9-2.3,3.7-3.3"/>
<path fill="none" stroke="#111111" stroke-width="0.75" stroke-linecap="round" stroke-linejoin="round" stroke-miterlimit="10" d="
	M192.3,92.4c0.8-0.6,1.9-1.5,1.7-2c-0.2-0.6-1.8-0.1-2.2-0.7c-0.5-0.9,1.8-3.6,4.7-4.1c0.2,0,2.4-0.4,2.8,0.5
	c0.2,0.5-0.2,1.3-0.899,2"/>
<path fill="none" stroke="#111111" stroke-width="0.75" stroke-linecap="round" stroke-linejoin="round" stroke-miterlimit="10" d="
	M168.3,125.6c1-1,2.9-3.3,3.6-6.7c0.3-1.6,0.3-3.1,0.1-4.1"/>
<path fill="none" stroke="#111111" stroke-width="0.75" stroke-linecap="round" stroke-linejoin="round" stroke-miterlimit="10" d="
	M194.2,120.2c-0.4-0.3-1.1-0.9-1.8-1.8c-5.1-5.9-4.6-14-4.4-16.2c0.1-0.9,0.2-2.2,0.5-3.7"/>
<path fill="none" stroke="#111111" stroke-width="0.75" stroke-linecap="round" stroke-linejoin="round" stroke-miterlimit="10" d="
	M163.7,127.1c1.7,1.4,4.5,3.3,8.2,4.4c8.3,2.5,15.5-0.6,17.6-1.6"/>
<path fill="none" stroke="#111111" stroke-width="0.75" stroke-linecap="round" stroke-linejoin="round" stroke-miterlimit="10" d="
	M180.7,214.1c-5.6-0.3-9.8-3.7-10.2-7.4c-0.2-1.9,0.6-3,1.4-5c2.6-6.8-1.1-11.9-2.6-21.9c-0.5-3.4-1-8.6-0.2-15.1"/>
<path fill="none" stroke="#111111" stroke-width="0.75" stroke-linecap="round" stroke-linejoin="round" stroke-miterlimit="10" d="
	M79.2,247c-2.6,0.5-5.1-0.3-6.4-2.2c-1.9-2.7-0.8-7.2,1.7-8c1.9-0.6,4.1,1.3,4.3,1.5c0.2-0.1,2.6-1.7,4.8-0.7
	c2.6,1.101,3.6,5.2,1.8,7.7C84.1,247,81.6,247.7,79.2,247z"/>
<path fill="none" stroke="#111111" stroke-width="0.75" stroke-linecap="round" stroke-linejoin="round" stroke-miterlimit="10" d="
	M79.5,234.6c-1.1,0.2-3.1-2.6-2.2-4c0.5-0.9,2.2-1.1,3-0.5C81.6,231.1,80.6,234.4,79.5,234.6z"/>
<path fill="none" stroke="#111111" stroke-width="0.75" stroke-linecap="round" stroke-linejoin="round" stroke-miterlimit="10" d="
	M221.1,129.1c1.5-3.4,4.2-8,8.801-12.1c3.5-3.1,6.6-4.5,8-5.2c16.699-8.4,18.6-26,39-37.4c6.399-3.5,8.1-2.9,10.399-6
	c7-9.3-3.399-21.6,3.2-30.9c1.4-2,1.7-1.2,17.7-9.6c8.6-4.6,13-6.9,14.899-8.8C331.2,10.8,329.7,1.4,333.9,0.5
	c5.1-1.1,11.8,11.5,13.3,14.2c7.3,13.5,19.7,32.7,42.2,57.5c-1.601,5.8-3.2,11.5-4.801,17.3c-4,2.4-8,4.8-12.1,7.2
	c4.6,9.1,7.7,17.1,9.6,22.9c5.9,17.6,10.4,31.6,4.801,45.4c-2.301,5.6-5.601,9.6-8,12.1c3.5,2.1,7,4.3,10.399,6.4
	c-1.6,6.3-4.399,14.9-10,24.1c-7.5,12.3-16.5,20.1-22.5,24.5c4.101,8.1,8.9,11.8,12.5,13.7c4.7,2.5,10.101,3.3,11.7,7.601
	c0.2,0.699,0.7,2.199,0,4.8c-2.7,10.6-16.9,12.1-24.9,23.7c-1.1,1.699-1.399,2.399-5.199,15.3c0,0-6.4,21.399-12.9,57
	c-0.7,3.7-1.8,10.5,2,16.1c1.6,2.3,3.5,3.601,4.8,4.4c-3.8,4.5-9.7,9.8-17.7,10.8c-3.699,0.5-3.5-0.5-8,0
	c-10.3,1.1-13.6,6.5-21.699,6c-1.7-0.1-4.2-0.5-7.2-2c-2.5,2.9-6.601,7.1-12.101,11.7C261.3,415,247.7,417.1,209.8,428.9
	C174.3,440,173.6,442,165.2,441c-17.3-2.2-19.2-11.5-44.6-19.7c-21.7-7-26.8-2.3-40.6-9.2c-18.1-9.199-26.6-26-31.7-36.199
	c-3.2-6.301-28.4-55.4-5.6-101.601c4.7-9.6,10.3-16.5,14.1-20.8"/>
<path fill="none" stroke="#111111" stroke-width="0.75" stroke-linecap="round" stroke-linejoin="round" stroke-miterlimit="10" d="
	M140.4,293.8c11.5-6.8,30.6-15.6,55-16.899c7.7-0.4,14.7,0,20.9,0.8"/>
<path fill="none" stroke="#111111" stroke-width="0.75" stroke-linecap="round" stroke-linejoin="round" stroke-miterlimit="10" d="
	M148.8,279.8c5.4,0.2,18.7,1.4,31.7,10.8c9.6,7,14.8,15.4,17.3,20.101"/>
<path fill="none" stroke="#111111" stroke-width="0.75" stroke-linecap="round" stroke-linejoin="round" stroke-miterlimit="10" d="
	M255.3,285.8c3.101,1.7,11.2,5.7,22.101,4.8c11.899-0.899,19.8-7,22.5-9.199"/>
<path fill="none" stroke="#111111" stroke-width="0.75" stroke-linecap="round" stroke-linejoin="round" stroke-miterlimit="10" d="
	M260.5,133.5c4.1-7.9,10.1-17.7,18.9-27.7c11.399-13,23.3-21.5,32.1-26.9"/>
<path fill="none" stroke="#111111" stroke-width="0.75" stroke-linecap="round" stroke-linejoin="round" stroke-miterlimit="10" d="
	M361.3,176.5c-7.7-5.2-19.6-14.9-27.3-30.9c-2.2-4.5-3.7-8.9-4.8-12.9"/>
<path fill="none" stroke="#111111" stroke-width="0.75" stroke-linecap="round" stroke-linejoin="round" stroke-miterlimit="10" d="
	M353.7,163.3c-4-4.7-8-9.4-12.101-14.1"/>
<path fill="none" stroke="#111111" stroke-width="0.75" stroke-linecap="round" stroke-linejoin="round" stroke-miterlimit="10" d="
	M298.6,94.2c1.601,5.1,3.2,10.2,4.801,15.3"/>
<path fill="none" stroke="#111111" stroke-width="0.75" stroke-linecap="round" stroke-linejoin="round" stroke-miterlimit="10" d="
	M339.2,17c2-0.4,5.5,2.4,12.1,18.5c-2.3,2.1-4.6,4.3-6.8,6.4c-1.1-0.7-8.8-6.3-8.8-15.3C335.6,23.1,336.7,17.5,339.2,17z"/>
<path fill="none" stroke="#111111" stroke-width="0.75" stroke-linecap="round" stroke-linejoin="round" stroke-miterlimit="10" d="
	M231.9,286.4c-0.7,4.1-1.301,9.899-0.4,16.899c0.6,4.601,1.8,9.9,2.8,9.8c1.2-0.1,2.2-8.6,2.2-8.899c0.3-2.9,0.2-4.2,0.8-4.4
	c1.4-0.5,4.601,5.8,5.2,7c5.4,10.7,6,18.9,7,18.8c0.8-0.1,1.2-5.6,0.4-11c-0.7-4.699-2.2-8.199-2.2-8.199s1.5,3.399,2.2,8.199
	c0.699,4.9,0.199,7.9,1,8c0.699,0.2,2.1-2.199,2.8-4.6c2.3-7.7-2.101-14.7-1.3-15.1c0.6-0.301,3.6,3.399,5.1,8.5
	c1.5,5.1,0.6,8.8,1.1,8.8c0.7,0.1,3.2-5.7,1.9-11.9c-1.1-5.2-4.6-8.5-4.3-8.7c0.5-0.399,7.8,8.9,8.6,8.301
	c0.601-0.4-2.2-6.101-6.3-11.2c-2.3-2.8-4.4-4.9-6-6.2C245.7,289.1,238.8,287.8,231.9,286.4z"/>
<path fill="none" stroke="#111111" stroke-width="0.75" stroke-linecap="round" stroke-linejoin="round" stroke-miterlimit="10" d="
	M99.2,216c2.1-1.7,4.2-3.4,6.3-5.2c9.8-8.5,18.1-17.2,25.2-25.7"/>
<path fill="#111111" d="M156.4,124.7c-11.4,3.5-20.4,6.7-26.7,9.2c-13.2,5.2-15.3,4.2-24.1,6.6c-2.5,0.7-8,2.2-10-0.2
	c-0.9-1.1-0.8-2.6-0.8-3.2c0.5-8-4.4-11.9-4.8-23.3c-0.3-7.9,1.8-13.6,0.1-22.9c-0.2-1.2-0.6-2.8-1.8-3.6c-3.2-2.2-7.5,3.4-15.9,3.2
	c-3.5-0.1-5.5-1.1-6.6,0.2c-1.4,1.6,0.1,4.8,0.9,7c2.6,7.3-0.2,9.4-0.3,24.3c0,9.7,1.2,7.5,1.6,20.5c0.3,10.9-0.5,14.6,2.4,18.1
	c3.5,4.2,9.4,4.5,13.5,4.6c19,0.6,40-1.5,51.6-2.9"/>
<path fill="none" stroke="#111111" stroke-width="0.75" stroke-linecap="round" stroke-linejoin="round" stroke-miterlimit="10" d="
	M64.9,79c0,0.3,0,0.9-0.5,1.3c-0.3,0.2-0.8,0.3-1.7,0.1c-0.4-0.1-6-1.5-6.4-5.4c0-0.3-0.2-1.9,0.7-2.7c1.4-1.2,4.3,0.1,4.3,0
	c0.1-0.3-7.4-4.9-13.7-5.3c-0.6-0.1-2.8-0.2-4-1.7c-0.1-0.1-0.9-1.1-0.5-1.8c0.4-0.8,2.1-0.6,3.2-0.4c7.4,1.1,18.2,5.5,19.4,6
	c1.2,0.5,3.2,1.3,5.8,2.3"/>
<path fill="none" stroke="#111111" stroke-width="0.75" stroke-linecap="round" stroke-linejoin="round" stroke-miterlimit="10" d="
	M74.3,82.1c-0.7-0.1-2.2-0.4-3.5-1.6c-0.8-0.6-1.3-1.3-1.6-1.8"/>
<path fill="none" stroke="#111111" stroke-width="0.75" stroke-linecap="round" stroke-linejoin="round" stroke-miterlimit="10" d="
	M64.4,80.3c0.1,0.2,0.5,1,0.2,1.8c-0.3,0.9-1.1,1.2-1.5,1.4c-2,0.9-4.2-0.2-5.4-0.8c-1.6-0.8-2.7-1.3-3.1-2.4
	c-0.6-1.6,0.1-3.6,1.7-5.3"/>
<path fill="none" stroke="#111111" stroke-width="0.75" stroke-linecap="round" stroke-linejoin="round" stroke-miterlimit="10" d="
	M61.3,74.5c0.3,0.2,0.6,0.3,0.9,0.5"/>
<path fill="none" stroke="#111111" stroke-width="0.75" stroke-linecap="round" stroke-linejoin="round" stroke-miterlimit="10" d="
	M55.9,81.7c-0.2,0.3-0.6,0.8-0.6,1.5c-0.1,1.5,1.3,2.6,1.8,3c2.2,1.7,4.9,1.1,5.5,0.9c0.8-0.2,2-0.5,2.6-1.5
	c0.3-0.5,0.7-1.5,0.1-2.1c-0.4-0.4-1-0.5-1.7-0.2"/>
<path fill="none" stroke="#111111" stroke-width="0.75" stroke-linecap="round" stroke-linejoin="round" stroke-miterlimit="10" d="
	M61.3,87.5c0.8,0.8,2,1.8,3.7,2.5c4.3,1.8,7.1-0.3,9.2,1.6c1.8,1.8,0.7,4.3,2.8,5.6c1.2,0.7,2.8,0.7,3.9,0.1c2.1-1,2.5-3.9,2.8-6.1
	c0.5-3.2-0.2-5.8-0.8-8.3c-0.6-2.5-1.1-4.2-2.2-6.1c-1.5-2.5-5.1-6.7-8.2-6c-2,0.4-1.8,2.3-4.5,3.2s-4.7-0.3-5.4,0.7
	c-0.6,0.9,0.2,2.6,1.3,3.5c1.7,1.4,4.7,1.1,7.3-0.8"/>
<g>
	<g id="OP01">
		<polygon fill="#00B0AE" points="260.108,356.726 260.108,333.897 269.413,333.897 269.413,350.996 277.561,350.996 
			277.561,356.726 		"/>
		<path fill="#8BC541" d="M263.685,333.897v10.352c0,4.519-1.063,7.789-3.187,9.813c-2.124,2.025-4.549,3.037-7.275,3.037
			c-1.971,0-3.845-0.559-5.622-1.676c-1.773-1.117-3.02-2.59-3.735-4.42c-0.715-1.83-1.074-4.231-1.074-7.204v-9.902H263.685z"/>
		<polygon fill="#FCB814" points="225.519,356.726 225.519,333.897 242.791,333.897 242.791,339.626 234.809,339.626 
			234.809,343.771 240.727,343.771 240.727,349.5 234.809,349.5 234.809,356.726 		"/>
		<path fill="#F48024" d="M207.742,333.897h13.721c2.377,0,4.244,0.65,5.603,1.952s2.036,2.93,2.036,4.885
			c0,2.153-0.799,3.839-2.395,5.056c2.266,2.813,3.619,6.458,4.061,10.936h-9.647c-0.175-2.882-0.571-5.012-1.191-6.388
			c-0.618-1.377-1.585-2.064-2.896-2.064v8.452h-9.29V333.897z"/>
		<path fill="#EE4035" d="M201.386,357.1c-3.001,0-5.544-1.145-7.631-3.434c-2.087-2.288-3.131-5.078-3.131-8.369
			c0-3.281,1.043-6.062,3.131-8.341c2.087-2.278,4.63-3.418,7.631-3.418c3.01,0,5.559,1.14,7.646,3.418
			c2.088,2.279,3.131,5.06,3.131,8.341c0,3.291-1.043,6.081-3.131,8.369C206.944,355.955,204.396,357.1,201.386,357.1z
			 M199.222,351.046l6.593-5.737l-6.593-5.731V351.046z"/>
		<polygon fill="#CA3091" points="180.466,356.726 180.466,333.897 189.77,333.897 189.77,350.996 197.918,350.996 197.918,356.726 
					"/>
		<path fill="#644B9E" d="M173.783,357.1c-3,0-5.544-1.145-7.631-3.434c-2.088-2.288-3.131-5.078-3.131-8.369
			c0-3.281,1.043-6.062,3.131-8.341c2.087-2.278,4.63-3.418,7.631-3.418c3.01,0,5.558,1.14,7.646,3.418
			c2.088,2.279,3.132,5.06,3.132,8.341c0,3.291-1.044,6.081-3.132,8.369C179.341,355.955,176.793,357.1,173.783,357.1z"/>
		<path fill="#1479BE" d="M170.663,335.946l-3.895,8.063c-1.138-0.429-2.396-0.643-3.772-0.643c-1.972,0-2.958,0.583-2.958,1.75
			c0,0.559,0.275,0.995,0.826,1.31c0.55,0.313,1.335,0.47,2.353,0.47c1.376,0,2.56-0.269,3.551-0.808l3.895,8.647
			c-1.101,0.718-2.432,1.292-3.992,1.721c-1.56,0.428-3.05,0.643-4.472,0.643c-3.57,0-6.412-1.119-8.527-3.358
			c-2.115-2.238-3.172-4.994-3.172-8.266c0-3.46,1.101-6.314,3.303-8.563c2.202-2.25,5-3.374,8.396-3.374
			c1.467,0,2.984,0.217,4.548,0.65C168.312,334.623,169.617,335.209,170.663,335.946z"/>
	</g>
	<g id="OP01_1_">
		<g>
			<defs>
				<path id="SVGID_1_" d="M263.685,333.897v10.352c0,4.519-1.063,7.789-3.187,9.813c-2.124,2.025-4.549,3.037-7.275,3.037
					c-1.971,0-3.845-0.559-5.622-1.676c-1.773-1.117-3.02-2.59-3.735-4.42c-0.715-1.83-1.074-4.231-1.074-7.204v-9.902H263.685z"/>
			</defs>
			<clipPath id="SVGID_2_">
				<use xlink:href="#SVGID_1_"  overflow="visible"/>
			</clipPath>
			<polygon clip-path="url(#SVGID_2_)" fill="#1C9458" points="260.108,356.726 260.108,333.897 269.413,333.897 269.413,350.996 
				277.561,350.996 277.561,356.726 			"/>
		</g>
		<g>
			<defs>
				<path id="SVGID_3_" d="M207.742,333.897h13.721c2.377,0,4.244,0.65,5.603,1.952s2.036,2.93,2.036,4.885
					c0,2.153-0.799,3.839-2.395,5.056c2.266,2.813,3.619,6.458,4.061,10.936h-9.647c-0.175-2.882-0.571-5.012-1.191-6.388
					c-0.618-1.377-1.585-2.064-2.896-2.064v8.452h-9.29V333.897z"/>
			</defs>
			<clipPath id="SVGID_4_">
				<use xlink:href="#SVGID_3_"  overflow="visible"/>
			</clipPath>
			<polygon clip-path="url(#SVGID_4_)" fill="#F05E24" points="225.519,356.726 225.519,333.897 242.791,333.897 242.791,339.626 
				234.809,339.626 234.809,343.771 240.727,343.771 240.727,349.5 234.809,349.5 234.809,356.726 			"/>
		</g>
		<g>
			<defs>
				<path id="SVGID_5_" d="M201.386,357.1c-3.001,0-5.544-1.145-7.631-3.434c-2.087-2.288-3.131-5.078-3.131-8.369
					c0-3.281,1.043-6.062,3.131-8.341c2.087-2.278,4.63-3.418,7.631-3.418c3.01,0,5.559,1.14,7.646,3.418
					c2.088,2.279,3.131,5.06,3.131,8.341c0,3.291-1.043,6.081-3.131,8.369C206.944,355.955,204.396,357.1,201.386,357.1z"/>
			</defs>
			<clipPath id="SVGID_6_">
				<use xlink:href="#SVGID_5_"  overflow="visible"/>
			</clipPath>
			<path clip-path="url(#SVGID_6_)" fill="#E31D3B" d="M207.742,333.897h13.721c2.377,0,4.244,0.65,5.603,1.952
				s2.036,2.93,2.036,4.885c0,2.153-0.799,3.839-2.395,5.056c2.266,2.813,3.619,6.458,4.061,10.936h-9.647
				c-0.175-2.882-0.571-5.012-1.191-6.388c-0.618-1.377-1.585-2.064-2.896-2.064v8.452h-9.29V333.897z"/>
		</g>
		<g>
			<defs>
				<path id="SVGID_7_" d="M201.386,357.1c-3.001,0-5.544-1.145-7.631-3.434c-2.087-2.288-3.131-5.078-3.131-8.369
					c0-3.281,1.043-6.062,3.131-8.341c2.087-2.278,4.63-3.418,7.631-3.418c3.01,0,5.559,1.14,7.646,3.418
					c2.088,2.279,3.131,5.06,3.131,8.341c0,3.291-1.043,6.081-3.131,8.369C206.944,355.955,204.396,357.1,201.386,357.1z"/>
			</defs>
			<clipPath id="SVGID_8_">
				<use xlink:href="#SVGID_7_"  overflow="visible"/>
			</clipPath>
			<polygon clip-path="url(#SVGID_8_)" fill="#A21C37" points="180.466,356.726 180.466,333.897 189.77,333.897 189.77,350.996 
				197.918,350.996 197.918,356.726 			"/>
		</g>
		<g>
			<defs>
				<path id="SVGID_9_" d="M173.783,357.1c-3,0-5.544-1.145-7.631-3.434c-2.088-2.288-3.131-5.078-3.131-8.369
					c0-3.281,1.043-6.062,3.131-8.341c2.087-2.278,4.63-3.418,7.631-3.418c3.01,0,5.558,1.14,7.646,3.418
					c2.088,2.279,3.132,5.06,3.132,8.341c0,3.291-1.044,6.081-3.132,8.369C179.341,355.955,176.793,357.1,173.783,357.1z"/>
			</defs>
			<clipPath id="SVGID_10_">
				<use xlink:href="#SVGID_9_"  overflow="visible"/>
			</clipPath>
			<polygon clip-path="url(#SVGID_10_)" fill="#542E88" points="180.466,356.726 180.466,333.897 189.77,333.897 189.77,350.996 
				197.918,350.996 197.918,356.726 			"/>
		</g>
		<g>
			<defs>
				<path id="SVGID_11_" d="M170.663,335.946l-3.895,8.063c-1.138-0.429-2.396-0.643-3.772-0.643c-1.972,0-2.958,0.583-2.958,1.75
					c0,0.559,0.275,0.995,0.826,1.31c0.55,0.313,1.335,0.47,2.353,0.47c1.376,0,2.56-0.269,3.551-0.808l3.895,8.647
					c-1.101,0.718-2.432,1.292-3.992,1.721c-1.56,0.428-3.05,0.643-4.472,0.643c-3.57,0-6.412-1.119-8.527-3.358
					c-2.115-2.238-3.172-4.994-3.172-8.266c0-3.46,1.101-6.314,3.303-8.563c2.202-2.25,5-3.374,8.396-3.374
					c1.467,0,2.984,0.217,4.548,0.65C168.312,334.623,169.617,335.209,170.663,335.946z"/>
			</defs>
			<clipPath id="SVGID_12_">
				<use xlink:href="#SVGID_11_"  overflow="visible"/>
			</clipPath>
			<path clip-path="url(#SVGID_12_)" fill="#204393" d="M173.783,357.1c-3,0-5.544-1.145-7.631-3.434
				c-2.088-2.288-3.131-5.078-3.131-8.369c0-3.281,1.043-6.062,3.131-8.341c2.087-2.278,4.63-3.418,7.631-3.418
				c3.01,0,5.558,1.14,7.646,3.418c2.088,2.279,3.132,5.06,3.132,8.341c0,3.291-1.044,6.081-3.132,8.369
				C179.341,355.955,176.793,357.1,173.783,357.1z"/>
		</g>
	</g>
	<path fill="#4895D0" d="M178.996,366.387l-3.329,5.093c-1.389-0.725-2.671-1.088-3.85-1.088c-0.782,0-1.411,0.221-1.883,0.661
		c-0.473,0.44-0.71,1.022-0.71,1.748c0,1.375,0.83,2.063,2.491,2.063v-2.652h6.902v9.134c-2.791,0.17-4.68,0.255-5.667,0.255
		c-3.812,0-6.459-0.88-7.943-2.641c-1.484-1.761-2.226-3.814-2.226-6.159c0-1.612,0.346-3.094,1.037-4.439
		c0.691-1.347,1.688-2.39,2.992-3.129c1.303-0.74,2.847-1.11,4.63-1.11c1.253,0,2.548,0.198,3.89,0.594
		C176.671,365.111,177.893,365.668,178.996,366.387z M184.704,364.389h10.179c1.763,0,3.148,0.482,4.155,1.447
		c1.008,0.966,1.512,2.174,1.512,3.624c0,1.598-0.593,2.849-1.776,3.751c1.681,2.086,2.685,4.79,3.012,8.112h-7.158
		c-0.129-2.139-0.423-3.718-0.883-4.739c-0.459-1.021-1.176-1.53-2.148-1.53v6.27h-6.892V364.389z M191.596,367.873v3.263h0.194
		c1.238,0,1.858-0.528,1.858-1.587c0-0.444-0.126-0.834-0.378-1.171c-0.252-0.337-0.67-0.505-1.255-0.505H191.596z M213.845,381.601
		c-2.226,0-4.113-0.849-5.661-2.547c-1.549-1.698-2.324-3.768-2.324-6.209c0-2.435,0.775-4.496,2.324-6.188
		c1.548-1.69,3.436-2.535,5.661-2.535c2.233,0,4.123,0.845,5.671,2.535c1.549,1.691,2.324,3.753,2.324,6.188
		c0,2.441-0.775,4.511-2.324,6.209C217.968,380.752,216.078,381.601,213.845,381.601z M213.845,370.614
		c-0.442,0-0.811,0.169-1.103,0.505c-0.293,0.337-0.439,0.76-0.439,1.271c0,0.512,0.146,0.934,0.439,1.271
		c0.292,0.337,0.66,0.505,1.103,0.505c0.449,0,0.821-0.168,1.112-0.505c0.293-0.337,0.439-0.759,0.439-1.271
		c0-0.511-0.146-0.934-0.439-1.271C214.666,370.783,214.294,370.614,213.845,370.614z M242.007,364.389v7.68
		c0,3.351-0.788,5.777-2.364,7.279c-1.575,1.502-3.373,2.253-5.396,2.253c-1.463,0-2.854-0.414-4.17-1.243
		c-1.318-0.828-2.24-1.921-2.771-3.279c-0.531-1.356-0.797-3.139-0.797-5.344v-7.346h6.902v7.846c0,0.844,0.068,1.376,0.203,1.599
		c0.137,0.221,0.342,0.332,0.613,0.332c0.381,0,0.623-0.201,0.725-0.604s0.152-1.082,0.152-2.036v-7.136H242.007z M248.934,364.389
		h9.445c1.994,0,3.525,0.549,4.594,1.646c1.069,1.1,1.604,2.459,1.604,4.08c0,1.582-0.507,2.93-1.521,4.039
		c-1.015,1.109-2.235,1.665-3.666,1.665c-1.191,0-2.379-0.492-3.563-1.477v6.98h-6.893V364.389z M255.826,368.051v3.684
		c0.205,0.06,0.395,0.089,0.571,0.089c0.519,0,0.938-0.177,1.257-0.532c0.32-0.354,0.48-0.821,0.48-1.398
		c0-0.569-0.137-1.019-0.409-1.349c-0.272-0.329-0.66-0.493-1.164-0.493H255.826z M277.561,360.576H150.5v24.937h127.061V360.576z"
		/>
</g>
</svg>
