<?xml version="1.0" encoding="utf-8"?>
<!-- Generator: Adobe Illustrator 16.0.0, SVG Export Plug-In . SVG Version: 6.00 Build 0)  -->
<!DOCTYPE svg PUBLIC "-//W3C//DTD SVG 1.1//EN" "http://www.w3.org/Graphics/SVG/1.1/DTD/svg11.dtd">
<svg version="1.1" id="Layer_1" xmlns="http://www.w3.org/2000/svg" xmlns:xlink="http://www.w3.org/1999/xlink" x="0px" y="0px"
	 width="417px" height="531px" viewBox="0 0 417 531" enable-background="new 0 0 417 531" xml:space="preserve">
<path fill="none" stroke="#FFFFFF" stroke-width="0.75" stroke-linecap="round" stroke-linejoin="round" stroke-miterlimit="10" d="
	M216,405.8c51.3,1.8,89.8,9.5,89.8,18.7c0,10.6-50.899,19.1-113.7,19.1c-62.801,0-113.7-8.6-113.7-19.1s50.9-19.1,113.7-19.1
	c0.4,0,0.9,0,1.3,0"/>
<path fill="none" stroke="#FFFFFF" stroke-width="0.75" stroke-linecap="round" stroke-linejoin="round" stroke-miterlimit="10" d="
	M305.8,468.5c0,10.6-50.899,19.1-113.7,19.1c-61.6,0-111.7-8.198-113.6-18.5"/>
<path fill="none" stroke="#FFFFFF" stroke-width="0.75" stroke-linecap="round" stroke-linejoin="round" stroke-miterlimit="10" d="
	M324.7,508.3c0,12.3-59.2,22.2-132.2,22.2c-71.6,0-130-9.6-132.2-21.5"/>
<path fill="none" stroke="#FFFFFF" stroke-width="0.75" stroke-linecap="round" stroke-linejoin="round" stroke-miterlimit="10" d="
	M78.5,424.5v44"/>
<path fill="none" stroke="#FFFFFF" stroke-width="0.75" stroke-linecap="round" stroke-linejoin="round" stroke-miterlimit="10" d="
	M305.8,424.5v44"/>
<path fill="none" stroke="#FFFFFF" stroke-width="0.75" stroke-linecap="round" stroke-linejoin="round" stroke-miterlimit="10" d="
	M78.5,459.3c-5,1.7-11.1,4.602-14.8,9.9c-2.6,3.7-3.2,7.2-3.4,21.5c-0.1,5.2-0.1,11.3,0,18.1"/>
<path fill="none" stroke="#FFFFFF" stroke-width="0.75" stroke-linecap="round" stroke-linejoin="round" stroke-miterlimit="10" d="
	M306.3,459.3c5,1.7,11.102,4.602,14.8,9.9c2.602,3.7,3.2,7.2,3.4,21.5c0.1,5.2,0.1,11.3,0,18.1"/>
<path fill="#FFFFFF" d="M246,239.3c-0.8-11.3-1.2-22.7-2.4-34c-1.5-14.6-2.199-21.9-1.699-24.3c4.101-17.9,23.101-20.2,39.899-39.4
	c6.8-7.7,15.101-20.2,19.5-40.4c-0.7-0.6-1.7-1.5-3.2-2.1c-1.6-0.7-3.1-0.9-4-1c-2.3,5.2-4.6,9-6,11.2
	C270.9,136.5,242,148.5,224,156.1c-2.8,1.2-5.1,2.1-6.3,2.5c-0.101,0.4-1.4,4-5.101,5.1c-3,0.9-6.399-0.1-8.601-2.6
	c-2.2,1.1-4.2,1.6-5.6,1.9c-3.8,0.8-4.8,0.2-5.1,0c-1-0.7-1.3-2-1.4-2.7c-24-5.4-48-10.8-72-16.2c-0.3,0.2-2.1,1.1-2.6,3.4
	c-0.6,2.2,0.5,3.9,0.7,4.2c1.1,0.5,2.9,1.3,5.1,2.2c44.4,19.2,69.2,24.3,71.2,37.3c0.3,1.8,0.2,3.9,0,7.6
	c-0.3,5.7-0.5,11.3-2.7,17.4c-1.8,5-5.5,11.6-7.7,15.6c-0.7,1.3-2.2,4.1-1.6,7.5c0.3,1.8,1.1,3.2,1.7,4.1c0.6-0.5,1.1-1,1.7-1.5
	c7.7,2.8,14.1,4.2,18.4,4.9c6.299,1.1,9.299,1,15.299,2.2c7.101,1.5,12.601,3.7,16,5.3c-0.699,1.4-1.399,2.7-2.101,4.1
	c2.3,0.2,6.899,0.2,10.101-2.8C246.9,252,246.5,246.5,246,239.3z"/>
<path fill="none" stroke="#FFFFFF" stroke-width="0.75" stroke-linecap="round" stroke-linejoin="round" stroke-miterlimit="10" d="
	M167.101,361c0.4,0.1,1.1,0.4,1.8,0.9c1.1,0.699,1.6,1.6,1.9,1.898c0.7,0.9,1.9,2.301,4,4.102c0.3,1,0.7,2.5,0.5,4.3
	c-0.7,4.899-5.3,6-9.8,11.1c-4.2,4.7-3.9,7.7-6.1,11.7c-0.2,0.4-1.1,1.9-2.5,3.5c-1.2,1.4-3.6,3.6-7.4,5.1c-0.1,0-0.3-0.1-0.6-0.198
	c0,0-0.4-0.102-0.7-0.302c-0.7-0.398-1.6-0.898-2.2-2.1c-0.1-0.2-0.3-0.6-0.4-1.1c1.9-5.4,3.8-10.9,5.7-16.301
	c0-0.101,0.1-0.399,0-0.699c-0.1-0.5-0.2-0.801-0.3-0.801c-0.2-0.399,0.2-3.699,2.3-14.101"/>
<path fill="#FFE4BD" d="M153.8,356.3c1.2,2.101,1.8,4,2.1,5.3c0.3,1.2,0.4,1.9,0.3,3c-0.2,2.2-1.4,3.102-1,3.7
	c0.7,1.101,4.7-0.399,5.7-0.8c2.2-0.8,3.8-1.4,5-3.1c1-1.301,1.3-2.801,1.4-3.602c-0.8-0.898-1.8-2.3-2.5-4.199
	c-0.9-2.199-1.1-4.101-1.1-5.399c-0.7,1-2.6,3.7-6.2,4.7C156,356.3,154.7,356.4,153.8,356.3z"/>
<path fill="none" stroke="#FFFFFF" stroke-width="0.75" stroke-linecap="round" stroke-linejoin="round" stroke-miterlimit="10" d="
	M153.401,368c0.1-0.2,0.1-0.6,0-1c-0.1-0.5-0.3-0.7-0.3-0.9c0-0.8,2.3-1.8,2.8-1.199c0.6,0.699-1.3,2.5-0.7,3.5
	c1.1,1.899,10.7-2,11.3-5.101c0.1-0.2,0.5-2.3,0.5-2.3c0.3-0.2,0.6-0.4,1.1-0.5c0.1,0,1-0.3,1.5-0.2c1.1,0.2,1.5,2,2.5,3.9
	c0.5,1,1.3,2.399,2.7,3.8"/>
<path fill="none" stroke="#FFFFFF" stroke-width="0.75" stroke-linecap="round" stroke-linejoin="round" stroke-miterlimit="10" d="
	M188.4,239.5c-5.8,4.6-44.8,36.3-43.3,83.2c0.3,10.7,2.7,20.2,5.8,28.2c-0.4,0.5-0.7,1.1-1.1,1.6c0.8,0.1,1.5,0.2,2.3,0.3
	c-0.4,0.9-0.9,1.7-1.3,2.601c0.7-0.101,1.4-0.199,2.1-0.399c0.2,0.5,0.4,1,0.6,1.5c3.6,0.101,5.4-1,6.5-2c0.5-0.5,1.3-1.399,2.8-2.7
	c0.8-0.699,1.6-1.199,2.1-1.5c-0.6-0.699-1.2-1.398-1.8-2.1c0.4-0.9,0.8-1.801,1.2-2.7c-0.8,0.101-1.6,0.2-2.4,0.3
	c0.2-0.8,0.3-1.699,0.5-2.5c-0.7,0-1.4-0.1-2-0.1c-0.5-1.801-1-4.2-1.4-7.102c0,0-0.8-5.898-0.1-11.898
	c2.1-17.102,14-29.7,24.4-40.801c1.9-2.101,3.6-3.699,4.5-4.601"/>
<path fill="none" stroke="#FFFFFF" stroke-width="0.75" stroke-linecap="round" stroke-linejoin="round" stroke-miterlimit="10" d="
	M155,366.9c-0.9,4.6-0.7,7.699-0.4,9.898c0.2,1,0.5,2.801-0.4,4.2c-0.8,1.101-2,1.601-2.9,1.7"/>
<path fill="none" stroke="#FFFFFF" stroke-width="0.75" stroke-linecap="round" stroke-linejoin="round" stroke-miterlimit="10" d="
	M148.9,403.4c0.5,0.198,1.2,0.398,2,0.398c1,0,2.1-0.398,4.1-2c3.1-2.6,4.8-5.5,5.3-6.5c1-1.8,1.4-2.8,1.8-4.199s0.6-2.199,1-3.199
	c0.3-0.7,0.6-1.2,0.8-1.5c0.4-0.7,1.9-2.9,4.5-4c1.1-0.5,1-0.102,2-0.602c2.1-0.898,3.2-2.699,4.5-4.699c1-1.699,1.5-2.5,1.7-3.5
	c0.4-2.601-1.2-4.699-1.7-5.399"/>
<path fill="none" stroke="#FFFFFF" stroke-width="0.75" stroke-linecap="round" stroke-linejoin="round" stroke-miterlimit="10" d="
	M206.9,390c0.4,0.1,1.1,0.3,1.9,0.7c1.101,0.6,1.8,1.3,2.101,1.6c0.801,0.8,2.101,2.101,4.5,3.5c0.5,1,1,2.4,1,4.2
	c-0.101,4.9-4.5,6.6-8.399,12.3c-3.6,5.2-2.9,8.2-4.7,12.4c-0.2,0.5-0.9,2-2.1,3.8c-1.1,1.5-3.1,4-6.7,6.1c-0.1,0-0.3,0-0.6-0.1
	c0,0-0.4-0.1-0.8-0.2c-0.7-0.3-1.7-0.7-2.4-1.7c-0.1-0.198-0.3-0.5-0.5-1c1.2-5.698,2.5-11.3,3.7-17c0-0.1,0-0.398,0-0.698
	c-0.1-0.5-0.3-0.802-0.4-0.802c-0.3-0.398-0.2-3.698,0.6-14.3"/>
<path fill="#FFE4BD" d="M194.8,383.3c0.5,2.3,0.9,4.3,1.2,5.8c1,6.102,0.7,7.4,0.4,8c-0.3,0.802-0.6,1.302-0.4,1.7
	c0.4,0.7,3.2-0.398,5-1.2c2.5-1.198,5.4-2.699,5.5-4.699c0-0.699-0.2-1.801,0.5-2.801c0.2-0.199,0.3-0.398,0.4-0.5
	c-0.3-0.3-0.6-0.699-0.8-1.1c-1.9-2.7-2.6-5.6-2.8-7.8c-0.5,0.6-2.3,2.6-5.4,3C196.8,383.8,195.5,383.5,194.8,383.3z"/>
<path fill="none" stroke="#FFFFFF" stroke-width="0.75" stroke-linecap="round" stroke-linejoin="round" stroke-miterlimit="10" d="
	M207.3,224.5c-3.9,6.7-9.2,17-13.6,30.3c-10.1,30.5-8.8,56.8-7.5,77.4c0.7,11.6,2.4,27.7,6.9,46.7c-0.8,0.398-1.7,0.8-2.5,1.199
	c1,0.301,2,0.601,3,1c-0.5,0.5-1.1,1-1.6,1.5c0.9,0.301,1.9,0.601,2.8,0.899c0.8,0.2,2.9,0.7,5.5-0.3c2.4-0.9,3.7-2.602,4.2-3.2
	c0.8-0.2,1.5-0.5,2.3-0.7c-0.5-0.6-0.9-1.3-1.4-1.898c0.6-1,1.1-2,1.7-3c-0.9,0.199-1.8,0.5-2.7,0.699
	c-2.7-14.301-2.8-26.399-2.3-35.101c1-17.8,5.5-40.399,13.8-53.399c0.398-0.699,4.1-6.301,9-14.101c3.8-6.101,5.199-8.4,6.5-10.7
	c3-5.4,5.3-9.9,6.699-13"/>
<path fill="none" stroke="#FFFFFF" stroke-width="0.75" stroke-linecap="round" stroke-linejoin="round" stroke-miterlimit="10" d="
	M194.1,398.8c0-0.3,0-0.6-0.1-1c-0.2-0.5-0.4-0.6-0.4-0.898c-0.1-0.802,2-2.102,2.7-1.501c0.7,0.601-1,2.699-0.3,3.501
	c1.3,1.8,10.3-3.4,10.6-6.602c0-0.2,0.2-2.3,0.2-2.3c0.2-0.2,0.6-0.5,1.1-0.7c0.1-0.1,0.9-0.399,1.5-0.399
	c1.1,0,1.699,1.801,2.898,3.601c0.602,0.899,1.602,2.2,3.102,3.5"/>
<path fill="none" stroke="#FFFFFF" stroke-width="0.75" stroke-linecap="round" stroke-linejoin="round" stroke-miterlimit="10" d="
	M195.6,397.4c-0.3,4.6,0.2,7.8,0.8,9.898c0.3,1,0.8,2.7,0.1,4.2c-0.6,1.2-1.8,1.8-2.7,2.1"/>
<path fill="none" stroke="#FFFFFF" stroke-width="0.75" stroke-linecap="round" stroke-linejoin="round" stroke-miterlimit="10" d="
	M193.8,434.5c0.5,0.1,1.2,0.2,2,0.1c1-0.198,2-0.698,3.8-2.6c2.8-3,4.1-6.1,4.5-7.2c0.8-1.898,1-2.898,1.3-4.398
	c0.3-1.4,0.3-2.302,0.6-3.302c0.2-0.698,0.5-1.3,0.6-1.6c0.3-0.7,1.5-3.1,4-4.6c1-0.602,1-0.302,1.9-0.802
	c2-1.198,2.9-3.198,3.9-5.3c0.8-1.8,1.199-2.7,1.3-3.7c0-2.6-1.8-4.5-2.4-5.1"/>
<path fill="none" stroke="#FFFFFF" stroke-width="0.75" stroke-linecap="round" stroke-linejoin="round" stroke-miterlimit="10" d="
	M147.5,402.3c0.3-0.1,2-1,2.8-3.1c0.7-1.9,0.2-3.7,0-4"/>
<path fill="none" stroke="#FFFFFF" stroke-width="0.75" stroke-linecap="round" stroke-linejoin="round" stroke-miterlimit="10" d="
	M210.2,258c-0.7-1-1.8-3.2-1.8-6c0-4.1,2.6-8,6.5-10"/>
<path fill="none" stroke="#FFFFFF" stroke-width="0.75" stroke-linecap="round" stroke-linejoin="round" stroke-miterlimit="10" d="
	M197.9,377.8c1.2-0.3,2.3-0.6,3.5-1"/>
<path fill="none" stroke="#FFFFFF" stroke-width="0.75" stroke-linecap="round" stroke-linejoin="round" stroke-miterlimit="10" d="
	M198.2,379.9c0.9,0,1.9-0.102,2.8-0.102"/>
<path fill="none" stroke="#FFFFFF" stroke-width="0.75" stroke-linecap="round" stroke-linejoin="round" stroke-miterlimit="10" d="
	M154.4,349.7c1.4-0.9,2.9-1.9,4.3-2.8"/>
<path fill="none" stroke="#FFFFFF" stroke-width="0.75" stroke-linecap="round" stroke-linejoin="round" stroke-miterlimit="10" d="
	M155.3,352.8c1.6-1.2,3.3-2.5,4.9-3.7"/>
<path fill="none" stroke="#FFFFFF" stroke-width="0.75" stroke-linecap="round" stroke-linejoin="round" stroke-miterlimit="10" d="
	M211.4,152.4c-2,4.1-4.602,6.3-6.2,7.4c-4.8,3.5-10.8,4.3-12.2,2.9c-0.8-0.8-0.3-1.8-1.7-4c-0.8-1.3-1.3-1.4-2.2-2.7
	c-0.6-0.9-1.5-2.3-2.1-4.3c-1.1,0.2-1.9,0-2.4-0.2c-0.6-0.2-1.3-0.4-1.5-1c-0.2-0.6,0.4-1.2,0.8-1.8c2.2-3.3-0.2-8.5-0.6-9.4
	c-0.3-0.6-0.7-1-0.7-1c-0.1-0.4-0.3-0.9-0.4-1.6c0,0-0.8-3.7-0.3-7c0.6-3.9,3.7-8.3,7.6-10.9c5.4-3.7,13.4-5,19.6-1.4
	c8.102,4.6,11.602,16.9,6,27.8"/>
<path fill="#FFFFFF" d="M191.8,144.7c0.7-0.7-1.7-5.3-2.7-5.1c-0.6,0.1-0.8,1.7-0.5,2.8C189.2,144.2,191.3,145.1,191.8,144.7z"/>
<path fill="none" stroke="#FFFFFF" stroke-width="0.75" stroke-linecap="round" stroke-linejoin="round" stroke-miterlimit="10" d="
	M192.4,137c-1.7-1.4-3.9-1.8-5.6-0.9c-1.1,0.5-1.6,1.4-1.9,1.9"/>
<path fill="none" stroke="#FFFFFF" stroke-width="0.75" stroke-linecap="round" stroke-linejoin="round" stroke-miterlimit="10" d="
	M196.501,152.5c-0.3,0.6-0.8,1.5-1.6,2.4c-0.8,0.9-1.7,1.4-2.3,1.7"/>
<path fill="none" stroke="#FFFFFF" stroke-width="0.75" stroke-linecap="round" stroke-linejoin="round" stroke-miterlimit="10" d="
	M203.2,144.4c0.4-0.3,2.7-2.2,2.7-5.1c0-2.3-1.3-5.2-3.1-5.2c-1.4,0-2.4,1.7-2.6,2.1"/>
<path fill="#FFFFFF" d="M220.102,140.9c0.799-1,0.601-1.8,1.199-4.4c0-0.1,0.1-0.4,0.1-0.7c0.201-1.4-0.1-1.8-0.1-2.6
	c0-0.4,0-0.7,0.1-1.1c0.302-1.7,0.701-2.4,1-4.1c0.102-0.4,0.102-0.7,0.102-0.9c0-1.2-0.699-2-1.3-2.8c-1.101-1.5-0.5-1.2-2.7-5
	c-0.3-0.6-0.699-1.2-1.3-2.1c-0.899-1.4-1.601-2.1-2.399-2.7c-0.699-0.5-1-0.5-1.9-1.2c-1.1-0.9-1.199-1.3-2-1.5
	c-0.799-0.2-1,0.2-2.199,0c-1.3-0.2-1.4-0.7-2.4-0.7c-1,0.1-1.1,0.6-2.1,0.7c-1.2,0-1.5-0.9-2.4-0.7c-0.7,0.2-0.7,0.8-1.5,1.1
	c-0.8,0.3-1-0.2-2.2,0c-0.6,0.1-0.6,0.3-2.1,0.8c-1.2,0.5-1.3,0.4-2.2,0.7c-1,0.4-1,0.6-2.5,1.3c-1.6,0.8-1.7,0.7-2.3,1.2
	c-1,0.7-0.9,1.2-1.7,1.5c-0.9,0.4-1.3,0.1-1.8,0.6c-0.2,0.2-0.2,0.2-0.7,1.4c-0.4,0.8-0.6,1.2-0.7,1.4c-0.4,0.6-0.7,0.7-0.9,1
	c-0.1,0.1-0.2,0.2-0.2,0.3c-0.4,0.6-0.4,1.1-0.6,1.6c-0.4,0.8-0.8,0.9-0.8,1.2c0.1,0.6,1.4,0.9,2.5,0.8c0.7,0,1.3-0.2,2.4-0.7
	c0.5-0.2,1.3-0.5,2.2-1.1c0.9-0.6,0.9-0.7,1.4-0.9c1.1-0.4,1.5,0.1,2.3-0.4c0.9-0.5,1-1.5,1.5-1.6c0.5,0,0.5,1.1,1.5,1.8
	c1.1,0.8,2.2,0.5,2.3,1.1c0.1,0.5-0.6,0.8-0.7,1.6c0,0.6,0.3,0.6,0.3,1.2c0,0.8-0.7,1.1-0.6,1.6c0.1,0.4,0.7,0.5,1.8,0.9
	c1.1,0.3,1.4,0.3,1.5,0.5c0.2,0.5-0.6,1-0.8,2.1c-0.2,1,0.4,1.2,0.2,2.2c-0.2,1.1-0.9,1.2-1.1,2.2c-0.2,1.1,0.5,2.5,1.2,2.4
	c0.6-0.1,1.1-1.4,1.5-2.2c0.4-1.1,0.4-1.6,0.9-2.2c0.2-0.2,0.8-0.8,1.4-0.8c1.4,0,2.6,2.8,2.7,5c0.1,1.3-0.2,2.4-0.5,3.1
	c0.5,0.2,1.1,0.3,1.7,0c0.7-0.3,1-1,1.2-0.9c0.2,0.1-0.2,0.9,0.1,1.8c0.2,0.6,0.7,1.4,1.399,1.6c0.601,0.2,1-0.6,1.899-0.5
	c0.7,0,1.101,0.4,1.4,0.7c0.899,0.8,0.698,1.5,1.3,2.1c1,1,3,1,3.398,0.4c0.302-0.4-0.5-0.9-0.1-1.8c0.301-0.7,0.9-0.7,1.2-1.5
	c0.3-0.7-0.3-1.1-0.101-1.8C219.001,141.6,219.501,141.6,220.102,140.9z"/>
<path fill="none" stroke="#FFFFFF" stroke-width="0.75" stroke-miterlimit="10" d="M215.6,142.3c-0.398,2.1-0.898,5.8,0.102,10.3
	c0.898,4.3,2.8,7.3,4,9.1"/>
<path fill="none" stroke="#FFFFFF" stroke-width="0.75" stroke-linecap="round" stroke-linejoin="round" stroke-miterlimit="10" d="
	M123.7,152.9c0,0,0.2-0.3-2.1-4.2c-0.1-0.2-0.2-0.3-0.2-0.4c-1.5-2.8-3-7.5-3.3-8.3c-1.1-3.6-2.8-7.9-3.3-7.8
	c-0.4,0.1,1.3,3.3,0.4,7.5c-0.3,1.2-0.8,2.5-0.2,4c0.5,1.3,1.5,2.1,1.5,2.1c-0.4-0.3-1.1-0.9-1.5-2.1c-0.4-1.3-0.1-2.4,0-2.9
	c-1.7-0.4-3.6-0.8-5.8-1.3c-3.5-0.8-6.4-1.4-10.1-2.1c-3.3-0.6-5-0.9-5.1-0.7c-0.2,0.6,11.2,4.5,11.1,4.8c-0.1,0.1-3.6-1.2-8.6-2.1
	c-4.2-0.7-8.6-1-8.6-0.6c-0.1,0.8,16.6,4.3,16.5,4.8c-0.1,0.3-3.7-0.6-9-0.2c-2.5,0.2-5.7,0.6-5.7,1c0,0.8,14.5,1.5,14.5,1.6
	c0,0-3.8-0.6-7.3,1.3c-0.4,0.2-1.8,1-1.7,1.5c0.3,1,7.6-2.5,13.2,0.5c0.9,0.5,1.7,1,3.3,1.6c2.9,1,5.6,1.1,6.2,0.2
	c0.1-0.1,0.4-0.6,1.1-1c0.1-0.1,0.2-0.1,0.3-0.1C121.3,149.7,123.5,153.1,123.7,152.9z"/>
<path fill="none" stroke="#FFFFFF" stroke-width="0.75" stroke-linecap="round" stroke-linejoin="round" stroke-miterlimit="10" d="
	M108.8,140.8c-0.7,0.8-1.9,2.5-2.1,4.9c-0.1,0.7,0,1.4,0.1,2"/>
<path fill="none" stroke="#FFFFFF" stroke-width="0.75" stroke-linecap="round" stroke-linejoin="round" stroke-miterlimit="10" d="
	M295.4,105.7c-0.102,0-0.301-0.1-0.301-4.5c0-0.2,0-0.3,0-0.5c-0.199-2.8-1-6.5-1.5-8.5c-0.801-3.4-1.199-7-0.899-7
	c0.2,0,0.399,0.8,1.3,2.6c1.1,2.1,1.7,3.2,2.6,4c0.801,0.7,1.4,1,1.7,2c0.2,0.6,0.101,1.2,0,1.6c0.101-0.3,0.2-0.9,0-1.6
	c-0.399-1.3-1.5-1.8-1.7-2c2-1.8,3.602-3.3,4.602-4.4c3.199-3.3,4.398-4.9,7.3-7.1c1.6-1.3,4.2-3,4.5-2.7c0.6,0.6-8.101,8.9-7.8,9.1
	c0.1,0.1,2.8-2.5,7.1-5.7c0.3-0.2,5.102-3.7,5.4-3.4c0.5,0.5-10.3,10.2-10.102,10.5c0.102,0.1,2.802-2.5,7.4-4.6
	c2.1-1,4.6-1.8,4.8-1.5s-1.7,1.3-5.3,4c-3.4,2.5-5,3.9-4.9,4.1c0.102,0.1,2.4-1.7,6.102-2.7c1-0.3,2.3-0.6,2.5-0.3
	c0.398,0.6-5.9,2.6-11,8c-2.4,2.5-5.9,7.5-7.2,6.9c-0.3-0.2-0.8-0.9-1.7-0.9c0,0-0.199,0-0.3,0.1
	C295.9,101.8,295.8,105.8,295.4,105.7z"/>
<path fill="none" stroke="#FFFFFF" stroke-width="0.75" stroke-linecap="round" stroke-linejoin="round" stroke-miterlimit="10" d="
	M302.5,87.7c1,0.3,3,1.1,4.4,3c0.398,0.6,0.698,1.2,1,1.7"/>
<path fill="none" stroke="#FFFFFF" stroke-width="0.75" stroke-linecap="round" stroke-linejoin="round" stroke-miterlimit="10" d="
	M214.1,330.2c0.801-5.4,4.2-23.3,19.9-38c17.1-16.101,37.2-17.4,42.4-17.601"/>
<path fill="none" stroke="#FFFFFF" stroke-width="0.75" stroke-linecap="round" stroke-linejoin="round" stroke-miterlimit="10" d="
	M220.3,325.9c1.7-3,6.4-10.4,15.8-15.301c9.602-5,18.602-4.5,22-4.101"/>
<path fill="none" stroke="#FFFFFF" stroke-linecap="round" stroke-linejoin="round" stroke-miterlimit="10" d="M53,136H19v91h34V136
	z"/>
<path fill="none" stroke="#FFFFFF" stroke-linecap="round" stroke-linejoin="round" stroke-miterlimit="10" d="M19,152h34"/>
<path fill="none" stroke="#FFFFFF" stroke-linecap="round" stroke-linejoin="round" stroke-miterlimit="10" d="M19,183h34"/>
<path fill="none" stroke="#FFFFFF" stroke-linecap="round" stroke-linejoin="round" stroke-miterlimit="10" d="M19,136l17-41l17,41"
	/>
<path fill="none" stroke="#FFFFFF" stroke-width="0.75" d="M18.625,240.948L8.421,228.453c1.794-5.341,3.614-10.704,5.434-16.068
	c1.596-4.702,3.191-9.405,4.77-14.093v0.007v0.064v0.063v0.064v0.064v0.064v0.064v0.064v0.063v0.064v0.064v0.064v0.064v0.063v0.064
	v0.064v0.064v0.064v0.063v0.063v0.064v0.063v0.064v0.063v0.064v0.064v0.064v0.063v0.064v0.064v0.064v0.064v0.063v0.064v0.064v0.064
	v0.063v0.064v0.064v0.064v0.063v0.064v0.064v0.064v0.063v0.064v0.064v0.064v0.063v0.064v0.064v0.063v0.063v0.064v0.064v0.064v0.063
	v0.064v0.064v0.064v0.063v0.064v0.064v0.063v0.064v0.064v0.064v0.063v0.064v0.064v0.063v0.064v0.064v0.064v0.063v0.064v0.063v0.063
	v0.064v0.064v0.064v0.063v0.064v0.064v0.063v0.064v0.064v0.063v0.064v0.064v0.064v0.063v0.064v0.064v0.063v0.063v0.064v0.063v0.064
	v0.064v0.063v0.064v0.064v0.064v0.063v0.064v0.064v0.063v0.064v0.064v0.063v0.064v0.064v0.063v0.063v0.064v0.063v0.064v0.064v0.063
	v0.064v0.063v0.063v0.064v0.064v0.063v0.064v0.064v0.063v0.064v0.064v0.063v0.064v0.064v0.063v0.063v0.063v0.064v0.064v0.063v0.063
	v0.064v0.063v0.064v0.064v0.063v0.064v0.064v0.063v0.064v0.064v0.063v0.064v0.064v0.063v0.064v0.063v0.063v0.064v0.063v0.064v0.064
	v0.063v0.064v0.064v0.063v0.064v0.063v0.064v0.064v0.063v0.064v0.064v0.063v0.064v0.063v0.063v0.064v0.063v0.064v0.064v0.063v0.064
	v0.064v0.063v0.064v0.063v0.064v0.064v0.063v0.064v0.064v0.063v0.064v0.063v0.063v0.064v0.063v0.064v0.064v0.063v0.064v0.064v0.063
	v0.064v0.063v0.064v0.064v0.063v0.064v0.064v0.063v0.063v0.063v0.064v0.063v0.063v0.064v0.064v0.063v0.064v0.063v0.064v0.064v0.063
	v0.064v0.064v0.063v0.064v0.063v0.064v0.063v0.063v0.064v0.063v0.064v0.063v0.063v0.064v0.064v0.063v0.064v0.064v0.063v0.064v0.063
	v0.064v0.064v0.063v0.064v0.063v0.063v0.064v0.063v0.064v0.063v0.063v0.064v0.064v0.063v0.064v0.063v0.064v0.064v0.063v0.064v0.064
	v0.063v0.064v0.064v0.063v0.064v0.063v0.064v0.064v0.063v0.063v0.064v0.063v0.064v0.064v0.063v0.064v0.063v0.064v0.064v0.063v0.064
	v0.064v0.063v0.064v0.064v0.063v0.064v0.064v0.063v0.064v0.063v0.064v0.064v0.063v0.064v0.064v0.063v0.064v0.063v0.063v0.064v0.064
	v0.063v0.064v0.064v0.063v0.064v0.063v0.063v0.064v0.064v0.063v0.064v0.064v0.063v0.063v0.064v0.063v0.064v0.064v0.063v0.064v0.064
	v0.063v0.064v0.064v0.063v0.064v0.063v0.063v0.064v0.064v0.063v0.064V220v0.063v0.064v0.064v0.063v0.064v0.064v0.064v0.063v0.064
	v0.064v0.063v0.064v0.063v0.063v0.064v0.064v0.063v0.063v0.064v0.064v0.063v0.064v0.064v0.063v0.064v0.064v0.064v0.063v0.064v0.064
	v0.063v0.063v0.064v0.063v0.063v0.064v0.064v0.064v0.063v0.064v0.064v0.063v0.064v0.064v0.064v0.063v0.064v0.064v0.064v0.063v0.063
	v0.064v0.064v0.063v0.064v0.064v0.064v0.063v0.064v0.064v0.064v0.063v0.064v0.064v0.064v0.063v0.064v0.063v0.064v0.063v0.063v0.064
	v0.064v0.064v0.063v0.064v0.064v0.064v0.064v0.063v0.064v0.064v0.063v0.064v0.063v0.064v0.064v0.064v0.063v0.063v0.064v0.064v0.064
	v0.064v0.063v0.064v0.064v0.064v0.064v0.063v0.064v0.064v0.064v0.064v0.064v0.063v0.064v0.064v0.064v0.064v0.064v0.064v0.063v0.064
	v0.063v0.064v0.064v0.064v0.063v0.064v0.064v0.064v0.064v0.064v0.063v0.064v0.063v0.064v0.064v0.063v0.064v0.064v0.064v0.064v0.064
	v0.025v0.026v0.026v0.026v0.025v0.026v0.026v0.026v0.026v0.025v0.026v0.026v0.026v0.026v0.025v0.026v0.026v0.026v0.026v0.025v0.026
	v0.026v0.026v0.026v0.025v0.026v0.026v0.026v0.026v0.026v0.025v0.026v0.026v0.026v0.026v0.026v0.025v0.026v0.026v0.026v0.026v0.026
	v0.026v0.025v0.026v0.026v0.026v0.026v0.026v0.026v0.026v0.025v0.026v0.026v0.026v0.026v0.026v0.026v0.026v0.025v0.026v0.026v0.026
	v0.026v0.026v0.026v0.026v0.026v0.026v0.025v0.026v0.026v0.026v0.026v0.026v0.026v0.026v0.026v0.026v0.026v0.026v0.025v0.026v0.026
	v0.026v0.026v0.026v0.026v0.026v0.026v0.026v0.026v0.026v0.026v0.026v0.026v0.026v0.026v0.026v0.026v0.025v0.026v0.026v0.026v0.026
	v0.026v0.026v0.026v0.026v0.026v0.026v0.026v0.026v0.026v0.026v0.026v0.026v0.026v0.026v0.026v0.026v0.026v0.026v0.026v0.026v0.026
	v0.026v0.026v0.026v0.026v0.026v0.026v0.026v0.026v0.026v0.026v0.026v0.026v0.026v0.026v0.026v0.026v0.026v0.026v0.026v0.026v0.026
	v0.027v0.026v0.026v0.026v0.026v0.026v0.026v0.026v0.026v0.026v0.026v0.026v0.026v0.026v0.026v0.026v0.026v0.026v0.026v0.026v0.027
	v0.026v0.026v0.026v0.026v0.026v0.026v0.026v0.026v0.026v0.026v0.026v0.026v0.027v0.026v0.026v0.026v0.026v0.026v0.026v0.026v0.026
	v0.026v0.026v0.027v0.026v0.026v0.026v0.026v0.026v0.026v0.026v0.026v0.026v0.027v0.026v0.026v0.026v0.026v0.026v0.026v0.026v0.027
	v0.026v0.026v0.026v0.026v0.026v0.026v0.026v0.027v0.026v0.026v0.026v0.026v0.026v0.026v0.026v0.027v0.026v0.026v0.026v0.026v0.026
	v0.027v0.026v0.026v0.026v0.026v0.026v0.026v0.027v0.026v0.026v0.026v0.026v0.026v0.027v0.026v0.026v0.026v0.026v0.026v0.027v0.026
	v0.026v0.026v0.026v0.026v0.027v0.026v0.026v0.026v0.026v0.026v0.027v0.026v0.026v0.026v0.026v0.027v0.026v0.026v0.026v0.026v0.027
	v0.026v0.026v0.026v0.026v0.026v0.027v0.026v0.026v0.026v0.026v0.027v0.026v0.026v0.026v0.026v0.027v0.026v0.026v0.026v0.027v0.026
	v0.026v0.026v0.026v0.027v0.026v0.026v0.026v0.026v0.027v0.026v0.026v0.026v0.027v0.026v0.026v0.026v0.026v0.027v0.026v0.026v0.026
	v0.027v0.026v0.026v0.026v0.027v0.026v0.026v0.026v0.026v0.027v0.026v0.026v0.026v0.027v0.026v0.026v0.026v0.027v0.026v0.026v0.026
	v0.027v0.026v0.026v0.026v0.027v0.026v0.026v0.026v0.027v0.026v0.026v0.026v0.027v0.026v0.026v0.026v0.027v0.026v0.026v0.026v0.027
	v0.026v0.026v0.026v0.027v0.026v0.026v0.027v0.026v0.026v0.026v0.027v0.026v0.026v0.026v0.027v0.026v0.026v0.026v0.027v0.026v0.026
	v0.027v0.026v0.026v0.026v0.027v0.026v0.026v0.026v0.027v0.026v0.026v0.027v0.026v0.026v0.026v0.027v0.026v0.026v0.027v0.026v0.026
	v0.026v0.027v0.026v0.026v0.027v0.026v0.026v0.026v0.027v0.026v0.026v0.027v0.026v0.026v0.026v0.027v0.026v0.026v0.027v0.026v0.026
	v0.026v0.027v0.026v0.026v0.027v0.026v0.026v0.026v0.027v0.026v0.026v0.027v0.026v0.026v0.027v0.026v0.026v0.026v0.027v0.026v0.026
	v0.027v0.026v0.026v0.027v0.026v0.026v0.026v0.027v0.026v0.026v0.027v0.026v0.026v0.027v0.026v0.026v0.026v0.027v0.026v0.026v0.027
	v0.026v0.026v0.027v0.026v0.026v0.026v0.027v0.026v0.026V240.948L18.625,240.948z"/>
<path fill="none" stroke="#FFFFFF" stroke-width="0.75" d="M62.586,228.458l-9.211,12.408v-0.024v-0.026v-0.026v-0.026v-0.027
	v-0.026v-0.026v-0.027v-0.026v-0.026v-0.027v-0.026v-0.026v-0.026v-0.027v-0.026v-0.026v-0.027v-0.026v-0.026v-0.027v-0.026v-0.026
	v-0.026v-0.027v-0.026v-0.026v-0.027v-0.026v-0.026v-0.027v-0.026v-0.026v-0.026v-0.027v-0.026v-0.026v-0.027v-0.026v-0.026v-0.027
	v-0.026v-0.026v-0.026v-0.027v-0.026v-0.026v-0.027v-0.026v-0.026v-0.026v-0.027v-0.026v-0.026v-0.027v-0.026v-0.026v-0.026v-0.027
	v-0.026v-0.026v-0.027v-0.026v-0.026v-0.026v-0.027v-0.026v-0.026v-0.027v-0.026v-0.026v-0.026v-0.027v-0.026v-0.026v-0.027v-0.026
	v-0.026v-0.026v-0.027v-0.026v-0.026v-0.027v-0.026v-0.026v-0.026v-0.027v-0.026v-0.026v-0.026v-0.027v-0.026v-0.026v-0.027v-0.026
	v-0.026v-0.026v-0.027v-0.026v-0.026v-0.026v-0.027v-0.026v-0.026v-0.026v-0.027v-0.026v-0.026v-0.027v-0.026v-0.026v-0.026v-0.027
	v-0.026v-0.026v-0.026v-0.027v-0.026v-0.026v-0.026v-0.027v-0.026v-0.026v-0.026v-0.027v-0.026v-0.026v-0.026v-0.027v-0.026v-0.026
	V237.4v-0.027v-0.026v-0.026v-0.026v-0.027v-0.026v-0.026v-0.026v-0.027v-0.026v-0.026v-0.026v-0.027v-0.026v-0.026v-0.026v-0.026
	v-0.027v-0.026v-0.026v-0.026v-0.027v-0.026v-0.026v-0.026v-0.027v-0.026v-0.026v-0.026v-0.026v-0.027v-0.026v-0.026v-0.026v-0.027
	v-0.026v-0.026v-0.026v-0.026v-0.027v-0.026v-0.026v-0.026v-0.026v-0.027v-0.026v-0.026v-0.026v-0.027v-0.026v-0.026v-0.026v-0.026
	v-0.027v-0.026v-0.026v-0.026v-0.026v-0.027v-0.026V235.8v-0.026v-0.026v-0.026v-0.027v-0.026v-0.026v-0.026v-0.026v-0.027v-0.026
	v-0.026v-0.026v-0.026v-0.027v-0.026v-0.026v-0.026v-0.026v-0.026v-0.027v-0.026v-0.026v-0.026v-0.026v-0.026v-0.027v-0.026v-0.026
	v-0.026v-0.026v-0.026v-0.027v-0.026v-0.026v-0.026v-0.026v-0.026v-0.027v-0.026v-0.026v-0.026v-0.026v-0.026v-0.026v-0.027v-0.026
	v-0.026v-0.026v-0.026v-0.026v-0.027v-0.026v-0.026v-0.026v-0.026v-0.026v-0.026v-0.026v-0.027v-0.026v-0.026v-0.026v-0.026v-0.026
	V234.1v-0.026v-0.027v-0.026v-0.026v-0.026v-0.026v-0.026v-0.026v-0.026v-0.027v-0.026v-0.026v-0.026v-0.026v-0.026v-0.026v-0.026
	v-0.026v-0.026v-0.027v-0.026v-0.026v-0.026v-0.026v-0.026v-0.026v-0.026v-0.026v-0.026v-0.026v-0.027v-0.026v-0.026v-0.026v-0.026
	v-0.026v-0.026v-0.026v-0.026v-0.026v-0.026v-0.026v-0.026v-0.027v-0.026v-0.026v-0.026v-0.026v-0.026v-0.026v-0.026v-0.026v-0.026
	v-0.026v-0.026v-0.026v-0.026v-0.026v-0.026v-0.026v-0.026v-0.026v-0.026v-0.027v-0.026v-0.026v-0.026v-0.026V232.3v-0.026v-0.026
	v-0.026v-0.026v-0.026v-0.026v-0.026v-0.026v-0.026v-0.026v-0.026v-0.026v-0.026v-0.026v-0.026v-0.026v-0.026v-0.026v-0.026v-0.026
	v-0.026v-0.026v-0.026v-0.026v-0.026v-0.026v-0.026v-0.026v-0.026v-0.026v-0.026v-0.026v-0.026v-0.026v-0.026v-0.026v-0.026v-0.026
	v-0.026v-0.026v-0.026v-0.025v-0.026v-0.026v-0.026v-0.026v-0.026v-0.026v-0.026v-0.026v-0.026v-0.026v-0.026v-0.026v-0.026v-0.026
	v-0.026v-0.026v-0.026v-0.026v-0.025v-0.026v-0.026v-0.026v-0.026v-0.026v-0.026v-0.026v-0.026v-0.026v-0.026v-0.026v-0.025v-0.026
	v-0.026v-0.026v-0.026v-0.026v-0.026v-0.026v-0.026v-0.026v-0.025v-0.026v-0.026v-0.026v-0.026v-0.026v-0.026v-0.026v-0.025v-0.026
	v-0.026v-0.026v-0.026v-0.026v-0.026v-0.026v-0.025v-0.026v-0.026v-0.026v-0.026v-0.026v-0.026v-0.025v-0.026v-0.026v-0.026v-0.026
	v-0.026v-0.025v-0.026v-0.026v-0.026v-0.026v-0.026v-0.025v-0.026v-0.026v-0.026v-0.026v-0.025v-0.026v-0.026v-0.026v-0.026v-0.025
	v-0.026v-0.026v-0.026v-0.026v-0.025v-0.026v-0.026v-0.026v-0.026v-0.025v-0.026v-0.026v-0.026v-0.025v-0.064v-0.064v-0.064v-0.064
	v-0.064v-0.063v-0.064v-0.064v-0.063v-0.064v-0.064v-0.064v-0.064v-0.064v-0.064V227.6v-0.063v-0.064v-0.064v-0.064v-0.063v-0.064
	v-0.063v-0.064v-0.064v-0.064v-0.064v-0.064v-0.064v-0.063v-0.064v-0.064v-0.064v-0.064v-0.064v-0.063v-0.064v-0.064v-0.064v-0.063
	v-0.063v-0.064v-0.064v-0.064v-0.064v-0.063v-0.064v-0.064v-0.064v-0.064v-0.063v-0.064v-0.063v-0.064v-0.064v-0.063v-0.064v-0.064
	v-0.063v-0.064v-0.063v-0.064V224.6v-0.064v-0.063v-0.064v-0.064v-0.063v-0.064v-0.063v-0.064v-0.064v-0.064V223.9v-0.064v-0.064
	v-0.064v-0.063v-0.064v-0.064v-0.064v-0.063v-0.064v-0.064v-0.063v-0.063v-0.064v-0.064v-0.063v-0.063v-0.064v-0.064v-0.064v-0.063
	v-0.064v-0.064v-0.063v-0.064v-0.064v-0.064v-0.063v-0.063v-0.064v-0.064v-0.063v-0.064v-0.064v-0.063v-0.064v-0.064v-0.064v-0.063
	v-0.064v-0.064v-0.063v-0.064v-0.064v-0.063v-0.063v-0.064v-0.064v-0.063v-0.064v-0.064v-0.063v-0.064v-0.063v-0.063v-0.064v-0.064
	v-0.064v-0.063v-0.064v-0.064v-0.063v-0.063v-0.064v-0.063v-0.064v-0.064v-0.063v-0.064v-0.064v-0.063v-0.064v-0.063v-0.063v-0.064
	v-0.064v-0.063v-0.064v-0.064v-0.063v-0.064v-0.063v-0.063v-0.064v-0.064v-0.063v-0.064v-0.064v-0.063v-0.064v-0.064v-0.063v-0.064
	v-0.063v-0.063v-0.064v-0.064v-0.063v-0.063v-0.064v-0.063v-0.064v-0.064v-0.063v-0.064v-0.064v-0.063v-0.064v-0.063v-0.064v-0.064
	v-0.063v-0.063v-0.064v-0.063v-0.064v-0.064v-0.063v-0.064v-0.064v-0.063v-0.064v-0.063v-0.064v-0.064v-0.063v-0.064v-0.064v-0.063
	v-0.064v-0.064v-0.063v-0.064v-0.063v-0.064v-0.064v-0.063v-0.064v-0.064v-0.063v-0.064v-0.064v-0.063v-0.064v-0.063v-0.064v-0.064
	v-0.063v-0.064v-0.064v-0.063v-0.064v-0.063v-0.063V214.1v-0.063v-0.064v-0.064v-0.063v-0.064v-0.063v-0.064v-0.064v-0.063v-0.064
	V213.4v-0.063v-0.064v-0.064v-0.063v-0.064v-0.063v-0.063v-0.063v-0.063v-0.064v-0.063v-0.064v-0.064v-0.063v-0.064v-0.064v-0.063
	v-0.064v-0.063v-0.064v-0.064v-0.063v-0.064v-0.064v-0.063v-0.063v-0.063v-0.064v-0.064v-0.063v-0.064v-0.064v-0.063v-0.064v-0.063
	v-0.064v-0.064v-0.063v-0.064v-0.064v-0.063v-0.064v-0.063v-0.063v-0.064v-0.063v-0.064v-0.063v-0.063v-0.064v-0.064v-0.063v-0.064
	v-0.063v-0.064v-0.064v-0.063v-0.064v-0.064v-0.063v-0.064v-0.063v-0.064v-0.064v-0.063v-0.064v-0.063v-0.063v-0.064v-0.064v-0.063
	v-0.064v-0.063v-0.064v-0.064v-0.063v-0.064v-0.064v-0.063v-0.064v-0.063v-0.063v-0.064v-0.063v-0.064v-0.064v-0.063v-0.063v-0.064
	v-0.063v-0.064v-0.064v-0.063v-0.064v-0.064v-0.063v-0.064v-0.063v-0.063v-0.064v-0.064v-0.063v-0.064v-0.063v-0.064v-0.064v-0.063
	v-0.064v-0.064v-0.063v-0.064v-0.064v-0.063v-0.064v-0.064v-0.063v-0.063v-0.064v-0.063v-0.064v-0.064v-0.063v-0.064v-0.064v-0.063
	v-0.064v-0.064v-0.063v-0.064v-0.064v-0.063v-0.064v-0.064v-0.063v-0.064v-0.064v-0.064v-0.063v-0.064v-0.064v-0.063v-0.064v-0.064
	v-0.063v-0.064V204.1v-0.063v-0.064v-0.064v-0.064v-0.063v-0.064v-0.063v-0.063v-0.064v-0.064V203.4v-0.064v-0.064v-0.064v-0.063
	v-0.064v-0.064v-0.063v-0.064v-0.064v-0.064v-0.063v-0.064v-0.063v-0.063v-0.064v-0.064v-0.064v-0.063v-0.064v-0.064v-0.063v-0.064
	v-0.064v-0.064v-0.063v-0.064v-0.064v-0.064v-0.063v-0.063v-0.064v-0.063v-0.063v-0.064v-0.064v-0.064v-0.063v-0.064v-0.064v-0.064
	v-0.063v-0.064v-0.064v-0.064v-0.063v-0.064v-0.064v-0.064v-0.063v-0.064v-0.063v-0.064v-0.064v-0.063v-0.064v-0.064v-0.064v-0.063
	v-0.064v-0.064v-0.064v-0.063v-0.063v-0.064v-0.064v-0.064v-0.064v-0.063v-0.064v-0.064v-0.064v-0.064v-0.063v-0.064v-0.064v-0.064
	v-0.045c1.412,4.613,2.839,9.24,4.267,13.866l0,0C59.298,217.744,60.954,223.112,62.586,228.458z"/>
<path fill="none" stroke="#FFFFFF" stroke-width="0.75" stroke-linecap="round" stroke-linejoin="round" stroke-miterlimit="10" d="
	M68,454.8c-1.1,2-5.8,9.9-15.3,12.602c-3.8,1.1-7.2,1-9.5,0.698"/>
<path fill="none" stroke="#FFFFFF" stroke-width="0.75" stroke-linecap="round" stroke-linejoin="round" stroke-miterlimit="10" d="
	M65.6,449.3c-1.4,1.2-4.3,3.602-8.9,4.8c-4.6,1.2-8.4,0.5-10.2,0"/>
<path fill="none" stroke="#FFFFFF" stroke-width="0.75" stroke-linecap="round" stroke-linejoin="round" stroke-miterlimit="10" d="
	M1,324c5.388-5.109,12.193-12.913,17.77-23.596c9.546-18.207,10.397-35.3,10.208-44.404"/>
<path fill="none" stroke="#FFFFFF" stroke-width="0.75" stroke-linecap="round" stroke-linejoin="round" stroke-miterlimit="10" d="
	M68,328c-5.443-6.416-11.825-15.158-17.269-26.503C42.66,284.759,39.938,269.415,39,259"/>
<path fill="none" stroke="#FFFFFF" stroke-width="0.75" stroke-linecap="round" stroke-linejoin="round" stroke-miterlimit="10" d="
	M54,294c-3.143-6.898-6.571-15.727-8.953-26.305C42.571,256.567,42,246.726,42,239"/>
<path fill="none" stroke="#FFFFFF" stroke-width="0.75" stroke-linecap="round" stroke-linejoin="round" stroke-miterlimit="10" d="
	M30,282c1.113-5.996,2.024-12.639,2.53-19.742c0.81-11.254,0.506-21.402-0.405-30.258"/>
<path fill="none" stroke="#FFFFFF" stroke-linecap="round" stroke-linejoin="round" stroke-miterlimit="10" d="M353,164h42V52h-42
	V164z"/>
<path fill="none" stroke="#FFFFFF" stroke-linecap="round" stroke-linejoin="round" stroke-miterlimit="10" d="M395,72h-42"/>
<path fill="none" stroke="#FFFFFF" stroke-linecap="round" stroke-linejoin="round" stroke-miterlimit="10" d="M395,122h-42"/>
<path fill="none" stroke="#FFFFFF" stroke-linecap="round" stroke-linejoin="round" stroke-miterlimit="10" d="M395,52L374.058,1
	L353,52"/>
<path fill="none" stroke="#FFFFFF" stroke-width="0.75" d="M406.588,165.239l-11.213,15.597v-0.01v-0.032v-0.033v-0.032v-0.033
	v-0.033v-0.032v-0.033v-0.032v-0.033V180.5v-0.032v-0.033v-0.032v-0.033v-0.032v-0.033v-0.033v-0.032v-0.033v-0.032v-0.033v-0.033
	v-0.032v-0.033v-0.032v-0.033v-0.033v-0.032v-0.033v-0.032v-0.033v-0.033v-0.032v-0.033v-0.032v-0.033v-0.032v-0.033v-0.033v-0.032
	v-0.033v-0.032v-0.033v-0.033v-0.032v-0.033v-0.032v-0.033v-0.032v-0.033v-0.033v-0.032v-0.033v-0.032v-0.033v-0.033v-0.032v-0.033
	v-0.032v-0.033v-0.032v-0.033v-0.033v-0.032v-0.033v-0.032v-0.033v-0.032v-0.033v-0.033v-0.032v-0.033v-0.032v-0.033v-0.032v-0.033
	v-0.033v-0.032v-0.033v-0.032v-0.033v-0.032v-0.033v-0.033v-0.032v-0.033v-0.032v-0.033v-0.032v-0.033v-0.032v-0.033v-0.033v-0.032
	v-0.033v-0.032v-0.033v-0.032v-0.033v-0.032v-0.033v-0.033v-0.032v-0.033v-0.032v-0.033v-0.032v-0.033v-0.032v-0.033v-0.033v-0.032
	v-0.033v-0.032v-0.033v-0.032v-0.033v-0.032v-0.033v-0.032v-0.033v-0.032v-0.033v-0.033v-0.032v-0.033v-0.032v-0.033v-0.032v-0.033
	v-0.032v-0.033v-0.032v-0.033v-0.032v-0.033v-0.032v-0.033V176.3v-0.033v-0.033v-0.032v-0.033v-0.032v-0.033v-0.032v-0.033v-0.032
	v-0.033v-0.032v-0.033v-0.032v-0.033v-0.032v-0.033v-0.032v-0.033v-0.032v-0.033v-0.032v-0.033v-0.032v-0.033v-0.032v-0.033v-0.032
	v-0.033v-0.032v-0.033v-0.032v-0.033v-0.032v-0.033v-0.032v-0.033v-0.032v-0.033v-0.032v-0.033v-0.032v-0.033v-0.032v-0.033v-0.032
	v-0.032v-0.033v-0.032v-0.033v-0.032v-0.033v-0.032v-0.033v-0.032v-0.033v-0.032v-0.033v-0.032v-0.033v-0.032v-0.033v-0.032v-0.032
	v-0.033v-0.032v-0.033v-0.032v-0.033v-0.032v-0.033v-0.032v-0.032v-0.033v-0.032v-0.033v-0.032v-0.033v-0.032v-0.033v-0.032v-0.032
	v-0.033v-0.032v-0.033v-0.032v-0.033v-0.032v-0.032v-0.033v-0.032v-0.033v-0.032v-0.033v-0.032v-0.032v-0.033v-0.032v-0.033v-0.032
	v-0.032v-0.033v-0.032v-0.033v-0.032v-0.032v-0.033v-0.032v-0.033v-0.032v-0.032v-0.033v-0.032v-0.033v-0.032v-0.032v-0.033v-0.032
	v-0.033v-0.032v-0.032v-0.033v-0.032v-0.032v-0.033v-0.032v-0.033v-0.032v-0.032v-0.033v-0.032v-0.032v-0.033v-0.032v-0.032v-0.033
	v-0.032v-0.033v-0.032v-0.032v-0.033v-0.032v-0.032v-0.033v-0.032v-0.032v-0.033v-0.032v-0.032v-0.033v-0.032v-0.032v-0.033v-0.032
	v-0.032v-0.033v-0.032v-0.032v-0.033v-0.032v-0.032v-0.033v-0.032v-0.032v-0.032v-0.033v-0.032v-0.032v-0.033v-0.032v-0.032v-0.033
	v-0.032v-0.032v-0.032v-0.033v-0.032v-0.032v-0.033v-0.032v-0.032v-0.032V170.4v-0.032v-0.032v-0.033v-0.032v-0.032v-0.032v-0.033
	v-0.032v-0.032v-0.032v-0.033v-0.032v-0.032v-0.032v-0.033v-0.032v-0.032v-0.032v-0.033v-0.032v-0.032v-0.032v-0.033v-0.032v-0.032
	v-0.032v-0.033v-0.032v-0.032v-0.032v-0.032v-0.033v-0.032v-0.032v-0.032v-0.032v-0.033v-0.032v-0.032v-0.032v-0.033v-0.032v-0.032
	v-0.032v-0.032v-0.032v-0.033v-0.032v-0.032v-0.032v-0.032v-0.033v-0.032v-0.032v-0.032v-0.032v-0.032v-0.033v-0.032v-0.032v-0.032
	v-0.032v-0.032v-0.033v-0.032v-0.032v-0.032v-0.032v-0.032v-0.032v-0.033v-0.032v-0.032v-0.032v-0.032v-0.032v-0.032v-0.032v-0.033
	v-0.032v-0.032v-0.032v-0.032v-0.032v-0.032v-0.032V167.6v-0.032v-0.033v-0.032v-0.032v-0.032v-0.032v-0.032v-0.032v-0.032v-0.032
	v-0.032v-0.032v-0.032v-0.033v-0.032v-0.032v-0.032v-0.032v-0.032v-0.032v-0.032v-0.032v-0.032v-0.032v-0.032v-0.032v-0.032v-0.032
	v-0.032v-0.032v-0.032v-0.032v-0.032v-0.032v-0.032v-0.032v-0.032v-0.033v-0.032v-0.032v-0.032v-0.032v-0.032v-0.032v-0.032v-0.032
	v-0.032v-0.031v-0.032v-0.032v-0.032v-0.032v-0.032v-0.032v-0.032v-0.032v-0.032v-0.032v-0.032v-0.032v-0.032v-0.032v-0.032v-0.032
	v-0.032v-0.032v-0.032v-0.032v-0.079v-0.079v-0.079v-0.079v-0.08v-0.079v-0.079v-0.079v-0.079v-0.079v-0.079v-0.08v-0.079v-0.079
	v-0.079v-0.079v-0.079v-0.079v-0.08v-0.079v-0.079v-0.079v-0.079v-0.079v-0.079v-0.079v-0.079v-0.08v-0.079v-0.079v-0.079v-0.079
	v-0.079v-0.079v-0.079v-0.079v-0.079v-0.079v-0.08v-0.079v-0.079v-0.079v-0.079v-0.079v-0.079v-0.079v-0.079v-0.079v-0.079v-0.079
	v-0.079v-0.079v-0.079v-0.079v-0.079v-0.08v-0.079v-0.079v-0.079v-0.079v-0.079v-0.079v-0.079v-0.079v-0.079v-0.079v-0.079v-0.079
	v-0.079v-0.079v-0.079v-0.079v-0.079v-0.079v-0.079v-0.079v-0.079v-0.079v-0.079v-0.079v-0.079v-0.079v-0.079v-0.079v-0.079v-0.079
	v-0.079v-0.079v-0.079v-0.079v-0.079v-0.079v-0.079v-0.079v-0.079v-0.079v-0.079v-0.079v-0.079v-0.079v-0.079v-0.078v-0.079v-0.079
	v-0.079v-0.079v-0.079v-0.079v-0.079v-0.079v-0.079v-0.079v-0.079v-0.079v-0.079v-0.079v-0.079v-0.079v-0.079v-0.078v-0.079v-0.079
	v-0.079v-0.079v-0.079v-0.079v-0.079v-0.079v-0.079v-0.079v-0.079v-0.079v-0.079v-0.078v-0.079v-0.079v-0.079v-0.079v-0.079v-0.079
	v-0.079v-0.079v-0.079v-0.079v-0.078v-0.079v-0.079v-0.079v-0.079v-0.079v-0.079v-0.079v-0.079v-0.078v-0.079v-0.079v-0.079v-0.079
	v-0.079v-0.079v-0.079v-0.079v-0.078v-0.079v-0.079v-0.079v-0.079v-0.079v-0.079v-0.079v-0.079v-0.078v-0.079v-0.079v-0.079v-0.079
	v-0.079v-0.079v-0.078v-0.079v-0.079v-0.079v-0.079v-0.079v-0.079v-0.079v-0.078v-0.079v-0.079v-0.079v-0.079v-0.079v-0.079V150.1
	v-0.079v-0.079v-0.079v-0.079v-0.079v-0.079v-0.078v-0.079v-0.079v-0.079v-0.079v-0.079v-0.079v-0.078v-0.079v-0.079v-0.079v-0.079
	v-0.079v-0.078v-0.079v-0.079v-0.079v-0.079v-0.079v-0.079v-0.078v-0.079v-0.079v-0.079v-0.079v-0.079v-0.078v-0.079v-0.079v-0.079
	v-0.079v-0.079v-0.079v-0.078v-0.079v-0.079v-0.079v-0.079v-0.079v-0.078v-0.079v-0.079v-0.079v-0.079v-0.079V146v-0.079v-0.079
	v-0.079v-0.079v-0.079v-0.078v-0.079v-0.079v-0.079v-0.079v-0.079v-0.079v-0.078v-0.079v-0.079v-0.079v-0.079v-0.079v-0.078v-0.079
	v-0.079v-0.079v-0.079v-0.079v-0.078v-0.079v-0.079v-0.079v-0.079v-0.079v-0.078v-0.079v-0.079v-0.079v-0.079v-0.079v-0.079v-0.078
	v-0.079v-0.079v-0.079v-0.079v-0.079v-0.078v-0.079v-0.079v-0.079v-0.079v-0.079v-0.079v-0.078V141.9v-0.079v-0.079v-0.079v-0.079
	v-0.078v-0.079v-0.079v-0.079v-0.079v-0.079v-0.079v-0.078v-0.079v-0.079v-0.079v-0.079v-0.079v-0.079v-0.078v-0.079v-0.079v-0.079
	v-0.079v-0.079v-0.079v-0.078v-0.079v-0.079v-0.079v-0.079v-0.079v-0.079v-0.078v-0.079v-0.079v-0.079v-0.079v-0.079v-0.079v-0.079
	v-0.078v-0.079v-0.079v-0.079v-0.079v-0.079v-0.079v-0.079v-0.078v-0.079v-0.079v-0.079v-0.079v-0.079v-0.079v-0.079v-0.079v-0.078
	v-0.079v-0.079v-0.079v-0.079v-0.079v-0.079v-0.079v-0.079v-0.078v-0.079v-0.079v-0.079v-0.08v-0.079v-0.079v-0.079v-0.079v-0.079
	v-0.079v-0.078v-0.079v-0.079v-0.079v-0.079v-0.079v-0.079v-0.079v-0.079v-0.079v-0.079v-0.079v-0.078v-0.079v-0.079v-0.079v-0.079
	v-0.079v-0.079v-0.079v-0.079v-0.079v-0.079v-0.079v-0.079v-0.079v-0.079v-0.079v-0.078v-0.079v-0.079v-0.079v-0.079v-0.079v-0.079
	v-0.079v-0.079v-0.079v-0.079v-0.079v-0.079v-0.079v-0.079v-0.079v-0.079v-0.079v-0.079v-0.079v-0.079v-0.079v-0.08v-0.079v-0.079
	v-0.079v-0.079v-0.079v-0.079v-0.079v-0.079v-0.079v-0.079v-0.079v-0.079v-0.079v-0.079v-0.079v-0.079v-0.079v-0.079v-0.079v-0.079
	v-0.079v-0.079v-0.079v-0.079v-0.079v-0.079v-0.079v-0.079v-0.079v-0.079v-0.079v-0.079v-0.079v-0.079v-0.079v-0.079v-0.08v-0.079
	v-0.079v-0.079v-0.079v-0.079v-0.079v-0.079v-0.079v-0.079v-0.079v-0.079v-0.079v-0.079v-0.08v-0.079v-0.079v-0.023
	c1.742,5.879,3.504,11.776,5.266,17.674C402.633,151.93,404.625,158.599,406.588,165.239z"/>
<path fill="none" stroke="#FFFFFF" stroke-width="0.75" d="M352.625,180.755l-10.219-15.431c1.801-6.658,3.628-13.344,5.456-20.031
	c1.593-5.83,3.187-11.661,4.763-17.474v0.035v0.079v0.08v0.079v0.079v0.079v0.08v0.079v0.079v0.079v0.079v0.08v0.079v0.079v0.079
	v0.08v0.079v0.079v0.079v0.079v0.08v0.079v0.079v0.079v0.079v0.079v0.08v0.079v0.079v0.079v0.079v0.079v0.08v0.079v0.079v0.079
	v0.079v0.079v0.08v0.079v0.079v0.079v0.079v0.079v0.079v0.08v0.079v0.079v0.079v0.079v0.079v0.079v0.08v0.079v0.079v0.079v0.079
	v0.079v0.079v0.079v0.079v0.079v0.08v0.079v0.079V133v0.079v0.079v0.079v0.079v0.079v0.079v0.079v0.08v0.079v0.079v0.079v0.079
	v0.079v0.079v0.079v0.079v0.079v0.079v0.079v0.079v0.079v0.079v0.079v0.08v0.079v0.079v0.079v0.079v0.079v0.079v0.079v0.079v0.079
	v0.079v0.079v0.079v0.079v0.079v0.079v0.079v0.079v0.079v0.079v0.079v0.079v0.079v0.079v0.079v0.079v0.079v0.079v0.079v0.079v0.079
	v0.079v0.079v0.079v0.079v0.079v0.079v0.079v0.079v0.079v0.079v0.079v0.079v0.079v0.079v0.079v0.079v0.078v0.079v0.079v0.079v0.079
	v0.079v0.079v0.079v0.079v0.079v0.079v0.079v0.079v0.079v0.079v0.079v0.079v0.079v0.078v0.079v0.079v0.079v0.079v0.079v0.079v0.079
	v0.079v0.079v0.079v0.079v0.078v0.079v0.079v0.079v0.079v0.079v0.079v0.079v0.079v0.079v0.078v0.079v0.079v0.079v0.079v0.079v0.079
	v0.079v0.079v0.078v0.079v0.079v0.079v0.079v0.079v0.079v0.079v0.078v0.079v0.079v0.079v0.079v0.079v0.079v0.078v0.079v0.079v0.079
	v0.079v0.079v0.079v0.078v0.079v0.079v0.079v0.079v0.079v0.078v0.079v0.079v0.079V145v0.079v0.078v0.079v0.079v0.079v0.079v0.079
	v0.078v0.079v0.079v0.079v0.079v0.079v0.078v0.079v0.079v0.079v0.079v0.078v0.079v0.079v0.079v0.079v0.078v0.079v0.079v0.079v0.079
	v0.078v0.079v0.079v0.079v0.079v0.078v0.079v0.079v0.079v0.079v0.078v0.079v0.079v0.079v0.078v0.079v0.079v0.079v0.079v0.078v0.079
	v0.079v0.079v0.078v0.079v0.079v0.079v0.079v0.078v0.079v0.079v0.079v0.078v0.079v0.079v0.079v0.078v0.079v0.079v0.079v0.078v0.079
	v0.079v0.079v0.078v0.079v0.079v0.079v0.078v0.079v0.079v0.079v0.078v0.079v0.079v0.079v0.078v0.079v0.079v0.079v0.078v0.079v0.079
	v0.079v0.078v0.079v0.079v0.078v0.079v0.079v0.079v0.078v0.079v0.079v0.079v0.078v0.079v0.079v0.078v0.079v0.079v0.079v0.078v0.079
	v0.079v0.079v0.078v0.079v0.079v0.078v0.079v0.079v0.079v0.078v0.079v0.079v0.078v0.079v0.079v0.078v0.079v0.079v0.079v0.078v0.079
	v0.079v0.078v0.079v0.079v0.079v0.078v0.079v0.079v0.078v0.079v0.079v0.078v0.079v0.079v0.078v0.079v0.079v0.079v0.078v0.079v0.079
	v0.078v0.079v0.079v0.078v0.079v0.079v0.078v0.079v0.079v0.079v0.078v0.079v0.079v0.078v0.079v0.079v0.078v0.079v0.079v0.078v0.079
	v0.079v0.078v0.079v0.079v0.078v0.079v0.079v0.078v0.079v0.079v0.078v0.079v0.079v0.079v0.078v0.079v0.079v0.078v0.079v0.079v0.078
	v0.079v0.079v0.078v0.079v0.079v0.078v0.079v0.079v0.078v0.079v0.079v0.078v0.079v0.079v0.078v0.079v0.079v0.078v0.079v0.079v0.078
	v0.079v0.079v0.078v0.079v0.079v0.078v0.079v0.079v0.078v0.079v0.079v0.078v0.079v0.079v0.078v0.079v0.079v0.078v0.079v0.079v0.078
	v0.079v0.079v0.078v0.079v0.079v0.078v0.079v0.079v0.078v0.079v0.079v0.078v0.079v0.079v0.078v0.079v0.079v0.078v0.079v0.079v0.078
	v0.032v0.032v0.032v0.032v0.032v0.032v0.032v0.032v0.032v0.032v0.032v0.032v0.032v0.032v0.032v0.033v0.032v0.032v0.032v0.032v0.032
	v0.032v0.032v0.032v0.032v0.032v0.032v0.032v0.032v0.032v0.032v0.032v0.033v0.032v0.032v0.032v0.032v0.032v0.032v0.032v0.032v0.032
	v0.033v0.032v0.032v0.032v0.032v0.032v0.032v0.032v0.032v0.033v0.032v0.032v0.032v0.032v0.032v0.032v0.032v0.033v0.032v0.032v0.032
	v0.032v0.032v0.033v0.032v0.032v0.032v0.032v0.032v0.033v0.032v0.032v0.032v0.032v0.032v0.033v0.032v0.032v0.032v0.032v0.033v0.032
	v0.032v0.032v0.032v0.033v0.032v0.032v0.032v0.032v0.033v0.032v0.032v0.032v0.033v0.032v0.032v0.032v0.032v0.033v0.032v0.032v0.032
	v0.033v0.032v0.032v0.032v0.033v0.032v0.032v0.032v0.033v0.032v0.032v0.033v0.032v0.032v0.032v0.033v0.032v0.032v0.032v0.033v0.032
	v0.032v0.033v0.032v0.032v0.032v0.033v0.032v0.032v0.033v0.032v0.032v0.033v0.032v0.032v0.033v0.032v0.032v0.032v0.033v0.032v0.032
	v0.033v0.032v0.032v0.033v0.032v0.032v0.033v0.032v0.032v0.033v0.032v0.032v0.033v0.032v0.033v0.032v0.032v0.033v0.032v0.032v0.033
	v0.032v0.032v0.033v0.032v0.033v0.032v0.032v0.033v0.032v0.032v0.033v0.032v0.033v0.032v0.032v0.033v0.032v0.033v0.032v0.032v0.033
	v0.032v0.033v0.032v0.032v0.033v0.032v0.033v0.032v0.032v0.033v0.032v0.033v0.032v0.032v0.033v0.032v0.033v0.032v0.033v0.032v0.032
	v0.033v0.032v0.033v0.032v0.033v0.032v0.033v0.032v0.032v0.033v0.032v0.033v0.032v0.033v0.032v0.033v0.032v0.033v0.032v0.032v0.033
	v0.032v0.033v0.032v0.033V173v0.033v0.032v0.033v0.032v0.033v0.032v0.033v0.032v0.033v0.032v0.033v0.032v0.032v0.033v0.032v0.033
	v0.032v0.033v0.032v0.033v0.032v0.033v0.032v0.033v0.032v0.033v0.032v0.033v0.032v0.033v0.033v0.032v0.033v0.032v0.033v0.032v0.033
	v0.032v0.033v0.032v0.033v0.032v0.033v0.032v0.033v0.032v0.033v0.032v0.033v0.032v0.033v0.033v0.032v0.033v0.032v0.033v0.032v0.033
	v0.032v0.033v0.032v0.033v0.033v0.032v0.033v0.032v0.033v0.032v0.033v0.032v0.033v0.033v0.032v0.033v0.032v0.033v0.032v0.033v0.032
	v0.033v0.033v0.032v0.033v0.032v0.033v0.032v0.033v0.033v0.032v0.033v0.032v0.033v0.032v0.033v0.033v0.032v0.033v0.032v0.033v0.033
	v0.032v0.033v0.032v0.033v0.033v0.032v0.033v0.032v0.033v0.032v0.033v0.033v0.032v0.033v0.032v0.033v0.033v0.032v0.033v0.032v0.033
	v0.033v0.032v0.033v0.032v0.033v0.033v0.032v0.033v0.033v0.032v0.033v0.032v0.033v0.033v0.032v0.033v0.032v0.033v0.033v0.032v0.033
	v0.033v0.032v0.033v0.032v0.033v0.033v0.032v0.033v0.033v0.032v0.033v0.032v0.033v0.033v0.032v0.033v0.033v0.032v0.033v0.032v0.033
	v0.033v0.032v0.033v0.033v0.032v0.033v0.033v0.032v0.033v0.032v0.033v0.033v0.032v0.033v0.033v0.032v0.033v0.033v0.032v0.033v0.032
	v0.033v0.033v0.032v0.033v0.033v0.032v0.033v0.033v0.032v0.033v0.033v0.032v0.033v0.033v0.032v0.033v0.032v0.033v0.033v0.032v0.033
	v0.033v0.032v0.033v0.033v0.032v0.033v0.033v0.032v0.033v0.033v0.032v0.033v0.033v0.032v0.033v0.033v0.032v0.033v0.033v0.032v0.033
	v0.033v0.032v0.033v0.032v0.033v0.033v0.032v0.033v0.033v0.032v0.033V180.755z"/>
<path fill="none" stroke="#FFFFFF" stroke-width="0.75" stroke-linecap="round" stroke-linejoin="round" stroke-miterlimit="10" d="
	M416,283c-6.542-6.311-14.806-15.951-21.578-29.148c-11.592-22.491-12.625-43.606-12.396-54.852"/>
<path fill="none" stroke="#FFFFFF" stroke-width="0.75" stroke-linecap="round" stroke-linejoin="round" stroke-miterlimit="10" d="
	M334,288c6.757-7.904,14.68-18.673,21.438-32.648C365.456,234.732,368.835,215.83,370,203"/>
<path fill="none" stroke="#FFFFFF" stroke-width="0.75" stroke-linecap="round" stroke-linejoin="round" stroke-miterlimit="10" d="
	M351,247c3.929-8.528,8.214-19.445,11.19-32.522C365.286,200.719,366,188.552,366,179"/>
<path fill="none" stroke="#FFFFFF" stroke-width="0.75" stroke-linecap="round" stroke-linejoin="round" stroke-miterlimit="10" d="
	M380,231c-1.113-7.315-2.024-15.419-2.53-24.085c-0.81-13.73-0.506-26.111,0.405-36.915"/>
<path fill="#FFFFFF" d="M375.664,114.488V98.605h5.371l0.8-6.17h-6.171V88.55c0-1.828,0.457-2.971,3.086-2.971h3.313v-5.485
	c-1.6-0.114-3.197-0.229-4.799-0.229c-4.685,0-7.999,2.857-7.999,8.113v4.571h-5.37v6.17h5.37v15.768L375.664,114.488
	L375.664,114.488z"/>
<path fill="none" stroke="#FFFFFF" stroke-width="0.75" stroke-linecap="round" stroke-linejoin="round" stroke-miterlimit="10" d="
	M85.4,431.1v44"/>
<path fill="none" stroke="#FFFFFF" stroke-width="0.75" stroke-linecap="round" stroke-linejoin="round" stroke-miterlimit="10" d="
	M100.2,435.9V479.6"/>
<path fill="none" stroke="#FFFFFF" stroke-width="0.75" stroke-linecap="round" stroke-linejoin="round" stroke-miterlimit="10" d="
	M119,439.2V483.1"/>
<path fill="none" stroke="#FFFFFF" stroke-width="0.75" stroke-linecap="round" stroke-linejoin="round" stroke-miterlimit="10" d="
	M136.8,441.4V485.1"/>
<path fill="none" stroke="#FFFFFF" stroke-width="0.75" stroke-linecap="round" stroke-linejoin="round" stroke-miterlimit="10" d="
	M154.6,442.8v43.3"/>
<path fill="none" stroke="#FFFFFF" stroke-width="0.75" stroke-linecap="round" stroke-linejoin="round" stroke-miterlimit="10" d="
	M173.4,443.5v43.6"/>
<path fill="none" stroke="#FFFFFF" stroke-width="0.75" stroke-linecap="round" stroke-linejoin="round" stroke-miterlimit="10" d="
	M192.2,443.6v44"/>
<path fill="none" stroke="#FFFFFF" stroke-width="0.75" stroke-linecap="round" stroke-linejoin="round" stroke-miterlimit="10" d="
	M211,443.6v44"/>
<path fill="none" stroke="#FFFFFF" stroke-width="0.75" stroke-linecap="round" stroke-linejoin="round" stroke-miterlimit="10" d="
	M229.8,442.6v44"/>
<path fill="none" stroke="#FFFFFF" stroke-width="0.75" stroke-linecap="round" stroke-linejoin="round" stroke-miterlimit="10" d="
	M247.6,441.4v44"/>
<path fill="none" stroke="#FFFFFF" stroke-width="0.75" stroke-linecap="round" stroke-linejoin="round" stroke-miterlimit="10" d="
	M265.4,439.1v44"/>
<path fill="none" stroke="#FFFFFF" stroke-width="0.75" stroke-linecap="round" stroke-linejoin="round" stroke-miterlimit="10" d="
	M284.2,435.7v44"/>
<path fill="none" stroke="#FFFFFF" stroke-width="0.75" stroke-linecap="round" stroke-linejoin="round" stroke-miterlimit="10" d="
	M299,431.1v44"/>
<g id="OP01">
	<polygon fill="#00B0AE" points="209.17,517.335 209.17,499.284 216.527,499.284 216.527,512.805 222.969,512.805 222.969,517.335 	
		"/>
	<path fill="#8BC541" d="M211.997,499.284v8.185c0,3.573-0.843,6.16-2.521,7.76c-1.679,1.603-3.597,2.402-5.751,2.402
		c-1.56,0-3.041-0.44-4.446-1.325c-1.402-0.884-2.386-2.048-2.953-3.495c-0.564-1.446-0.85-3.346-0.85-5.695v-7.83L211.997,499.284
		L211.997,499.284z"/>
	<polygon fill="#FCB814" points="181.817,517.335 181.817,499.284 195.476,499.284 195.476,503.814 189.165,503.814 
		189.165,507.091 193.843,507.091 193.843,511.621 189.165,511.621 189.165,517.335 	"/>
	<path fill="#F48024" d="M167.763,499.284h10.848c1.881,0,3.356,0.515,4.431,1.544s1.611,2.315,1.611,3.863
		c0,1.7-0.633,3.034-1.895,3.996c1.791,2.225,2.861,5.106,3.211,8.646h-7.628c-0.139-2.278-0.452-3.963-0.942-5.051
		c-0.488-1.089-1.253-1.633-2.29-1.633v6.684h-7.346V499.284L167.763,499.284z"/>
	<path fill="#EE4035" d="M162.736,517.631c-2.373,0-4.383-0.905-6.034-2.716c-1.651-1.81-2.476-4.015-2.476-6.616
		c0-2.596,0.824-4.793,2.476-6.596c1.65-1.801,3.661-2.703,6.034-2.703c2.38,0,4.396,0.902,6.045,2.703
		c1.652,1.803,2.476,4,2.476,6.596c0,2.603-0.824,4.807-2.476,6.616C167.131,516.726,165.116,517.631,162.736,517.631z
		 M161.025,512.844l5.213-4.537l-5.213-4.53V512.844z"/>
	<polygon fill="#CA3091" points="146.195,517.335 146.195,499.284 153.551,499.284 153.551,512.805 159.994,512.805 
		159.994,517.335 	"/>
	<path fill="#644B9E" d="M140.911,517.631c-2.373,0-4.384-0.905-6.035-2.716c-1.65-1.81-2.476-4.015-2.476-6.616
		c0-2.596,0.826-4.793,2.476-6.596c1.651-1.801,3.662-2.703,6.035-2.703c2.38,0,4.395,0.902,6.045,2.703
		c1.65,1.803,2.476,4,2.476,6.596c0,2.603-0.825,4.807-2.476,6.616C145.305,516.726,143.291,517.631,140.911,517.631z"/>
	<path fill="#1479BE" d="M138.443,500.904l-3.079,6.376c-0.9-0.339-1.895-0.509-2.983-0.509c-1.559,0-2.338,0.462-2.338,1.385
		c0,0.44,0.217,0.787,0.653,1.035c0.435,0.248,1.056,0.371,1.86,0.371c1.088,0,2.024-0.214,2.809-0.64l3.079,6.838
		c-0.871,0.568-1.923,1.021-3.156,1.359c-1.234,0.34-2.412,0.51-3.536,0.51c-2.824,0-5.07-0.885-6.743-2.656
		c-1.672-1.77-2.508-3.947-2.508-6.534c0-2.736,0.87-4.992,2.612-6.771c1.742-1.779,3.954-2.668,6.639-2.668
		c1.16,0,2.359,0.172,3.596,0.514C136.584,499.857,137.616,500.322,138.443,500.904z"/>
</g>
<g id="surface1">
	<path fill="#FFFFFF" d="M36.267,161.971c-3.514,0-6.368,2.854-6.368,6.368c0,3.514,2.854,6.369,6.368,6.369
		c2.747,0,4.423-1.263,5.296-2.83c0.872-1.565,0.983-3.406,0.718-4.663l-0.052-0.217h-0.216l-5.746-0.008h-0.276v2.881h3.167
		c-0.479,1.108-1.453,1.87-2.891,1.87c-1.879,0-3.4-1.521-3.4-3.401s1.521-3.401,3.4-3.401c0.846,0,1.612,0.313,2.207,0.823
		l0.199,0.165l1.895-1.895l0.198-0.208l-0.208-0.19C39.428,162.602,37.918,161.971,36.267,161.971z M36.267,162.525
		c1.405,0,2.673,0.514,3.678,1.341l-1.333,1.333c-0.659-0.492-1.458-0.814-2.345-0.814c-2.179,0-3.954,1.775-3.954,3.955
		c0,2.179,1.775,3.955,3.954,3.955c1.814,0,3.119-1.112,3.583-2.622l0.112-0.355h-3.418v-1.773l5.218,0.008
		c0.184,1.118,0.062,2.721-0.683,4.059c-0.792,1.419-2.23,2.544-4.812,2.544c-3.215,0-5.814-2.601-5.814-5.815
		C30.453,165.125,33.052,162.525,36.267,162.525z"/>
</g>
</svg>
