<?xml version="1.0" encoding="utf-8"?>
<!-- Generator: Adobe Illustrator 16.0.0, SVG Export Plug-In . SVG Version: 6.00 Build 0)  -->
<!DOCTYPE svg PUBLIC "-//W3C//DTD SVG 1.1//EN" "http://www.w3.org/Graphics/SVG/1.1/DTD/svg11.dtd">
<svg version="1.1" id="Layer_1" xmlns="http://www.w3.org/2000/svg" xmlns:xlink="http://www.w3.org/1999/xlink" x="0px" y="0px"
	 width="752px" height="512px" viewBox="0 0 752 512" enable-background="new 0 0 752 512" xml:space="preserve">
<path fill="#111111" d="M505.217,275.1c-1.399,1.4-1.7,3.5-0.7,5c1.101,1.801,3.4,2.4,5.4,1.4c12.7-2.2,27.6-6.7,42.2-16.1
	c2.1-1.301,4.1-2.7,6-4.101c10.3,2.9,18.7,4.601,24.7,5.601c5.199,0.899,9.6,1.399,11.199-0.9c1.601-2.3-0.5-6.3-1.199-7.8
	c-7-14.5,0.1-27-6.5-65.4c-0.7-3.8-1.5-7.6-3.2-15c-3.601-15.7-6.3-23.6-13-27.6c-0.5-0.3-1-0.5-1.3-0.7c-5.5-2.6-11.2-1.8-14.9-0.7
	c-2.9,2.2-10.4,8.6-14.1,20c-3.4,10.5-1.601,19.4-0.601,23c-3.399-8.1-6.6-17.9-8.3-29.2c-0.5-3.2-0.8-6.3-1.1-9.3
	c-2.301-0.6-5.5-1-8.9,0c-5.3,1.6-11.9,6.9-18.3,32.3c-4.9,19.8-4.601,31.4-7.8,58.2c-1.4,11.3-2.801,20.601-3.7,26.601
	c0.3,0.3,1.7,1.5,3.899,1.5c2.2,0,3.601-1.2,3.9-1.5c2.9-9.301,4.8-16.9,6-22c3.3-14.3,3.8-21.9,7.8-40.7
	c1.2-5.8,2.4-10.5,3.101-13.4c2.6,13.1,4.699,27.8,5.399,43.8c0.2,5.2,0.3,10.2,0.3,15.1c2.101,0.8,4.9,1.7,8.2,2.2
	c3.2,0.5,6,0.5,8.2,0.3c-3.5,3.3-8.1,7.2-14.1,10.8C516.717,271,510.217,273.5,505.217,275.1z"/>
<path fill="#49A6FF" d="M455.017,446c-0.399,0.9-1.1,2.3-1.899,3.9c-2.2,4.199-3.101,5.3-3.4,5.699c-0.7,0.801-1.8,2-3.5,3.2
	c0.5,0.601,1.2,1.3,2.3,2c1.2,0.7,2.5,1.101,4.801,1.3c4.699,0.4,7.1,0.5,8.5-1c0.6-0.6,0.6-1.199,1.399-5.6
	c0.4-2.4,0.7-4.3,0.9-5.3c-0.2,0.1-2.4,2-5.101,1.3C456.617,450.8,455.017,448.6,455.017,446z"/>
<path fill="#49A6FF" d="M167.816,459c0.8,0.6,1.6,1.2,2.4,2c1.7,1.5,3,3,4.1,4.4c0.3,0.199,2.4,1.1,4.3,0.1c1.3-0.6,1.8-1.8,2.4-3.4
	c0.5-1.1,1-2.199,0.6-3.399c-0.1-0.3-0.2-0.4-0.8-1.5c-0.4-0.8-0.8-1.5-1-1.9c-0.9-0.2-2-0.6-3.2-1.2c-0.9-0.5-1.6-1-2.2-1.399
	c0.1,0.5,0.2,2.3-1,3.899C172.216,458.4,170.116,459.3,167.816,459z"/>
<path fill="#FFC910" d="M238.117,417.6c0.5,3.301,1,6.7,1.5,10c0.3,0.2,0.6,0.5,0.9,0.801c1,0.899,1.8,1.899,2.4,2.699
	c0.9,0.101,6.8,0.801,8.3-2.1c0.3-0.6,0.4-1.3,0.1-3.8c-0.3-2.2-0.7-4.7-1.4-7.4c-2,0.101-4.2,0.101-6.4,0.101
	C241.717,417.8,239.917,417.7,238.117,417.6z"/>
<path fill="#FFC910" d="M355.616,418.7c-0.2,1.8-0.4,3.5-0.601,5.3c-0.3,0.7-0.699,1.4-1,2.1c-0.199,0.801-0.399,1.601-0.5,2.4
	c-2.699,1.9-5.699,2.5-7.899,1.4c-0.4-0.2-1.601-0.9-2.2-2.2c-0.5-1.101-0.3-2.2-0.1-3c0.3-1.601,0.6-3.9,0.8-7
	c1.8,0.5,4.1,1,6.8,1.2C352.616,419,354.216,418.9,355.616,418.7z"/>
<path fill="#FF4A47" d="M456.417,382.6c0.9,1.2,2.399,3.601,2.899,7c0.3,2,0.101,3.801-0.1,5c0.4,0.2,0.9,0.601,1.7,0.801
	c3.3,1,6.4-1.101,7.8-2c1.2-0.801,2.101-1.5,2.7-2.801c0.1-0.3,0.7-1.699,0.2-3.3c-0.4-1.2-1.2-1.7-2.2-2.8c-0.9-0.9-2-2.3-3-4.5
	c-0.1,0.4-0.601,2.6-2.601,3.8C461.516,385.1,458.517,384.6,456.417,382.6z"/>
<path fill="#111111" d="M509.317,85.5c-2.801-0.9-8.101-2-14.5-0.7c-3.5,0.7-6.301,1.9-8.301,3c2.601,0,6,0.3,9.9,1.4
	c2.4,0.7,4.4,1.6,6.1,2.4c-0.8,0.1-4.6,0.5-7,3.6c-0.899,1.1-1.3,2.3-1.6,3.1c1.3-0.6,3.8-1.7,7-1.4c1.2,0.1,2.2,0.4,3,0.7
	c-1.1,0.4-3.7,1.4-5.5,4.1c-0.9,1.3-1.4,2.6-1.6,3.6c2.1-0.8,4.199-1.5,6.3-2.3c-0.9,1.2-2.5,3.9-2.8,7.6
	c-0.101,2,0.199,3.6,0.5,4.8c1.1-3.1,4.5-4.3,6.8-3.1c1.8,0.9,2.8,3.4,2.1,5.8c-1.3,0.3-1.899,0.1-2.2-0.2
	c-1.199-1.2,0.301-5.5,2.801-8.4c2.199-2.6,3.399-2,4.399-4c1.9-3.4-1-6.4,0.5-8.8c1.3-2,4.601-2,10.5-1.8c8.8,0.3,13.9,0.5,17,4.4
	c1,1.2,2.101,3.3,2.3,6.7c0.5-1.6,1-3.2,1.5-4.9c2.9,5.3,3.301,9.4,3.2,12.1c-0.2,2.4-0.899,5.7-0.1,6c0.7,0.3,1.899-2.6,3.399-2.4
	c0.9,0.1,1.601,1.3,2,2.6c0.2,1.2,0.4,3-0.1,5.2c-0.2,1.1-0.6,2.1-1,2.9c-0.3,0.5-0.8,1.5-1.9,2.2c-1.3,0.9-2.5,1.1-3.1,1.1
	c1.3,0.1,2.9,0.1,4.8-0.2c1.601-0.2,3.101-0.6,4.2-1c0.4-3.1,0.9-6.2,1.3-9.3c0.5-1.3,1.101-2.7,1.601-4c1,0.7,2,1.5,3.1,2.2
	c0.9-1.5,1.8-3,2.7-4.5c0-3.3,0.1-6.6,0.1-10c1,0.8,2,1.6,3.101,2.4c0.5-1.8,1.1-4.7,0.699-8.2c-0.3-2.3-0.899-4.2-1.5-5.5
	c1.301,0.3,2.5,0.6,3.801,1c0-1.3-0.101-2.5-0.4-3.5c-2.4-10.1-17.7-13.2-19.3-13.5c1.399-0.4,2.8-0.8,4.2-1.2
	c-2.2-1.4-12.2-7.3-25.4-4.9C517.917,73.3,510.617,83.5,509.317,85.5z"/>
<path fill="#111111" d="M639.517,252.8c-7.399,1.2-11.6,10-13.8,14.101c-6.2,11.699-16.1,21.199-35.899,40.399
	c-5.801,5.601-14.7,13.4-27.101,21.4c-0.3,0.3-1.1,1.399-1.3,3c-0.1,1.3,0.3,2.2,0.5,2.6c2.6-0.3,5.1-0.6,7.7-0.899
	c0.1,1.1,0.3,2.6,0.8,4.3c0.3,1.1,1.1,3.399,2.8,5.8c0.9,1.2,4.8,6.5,11.5,7.2c2.7,0.3,4.9-0.3,6.2-0.7c2,1.3,4,2.6,6,3.8
	c3.4-1.1,8-2.6,13.5-4.6c29-10.601,30.5-16.4,41.8-16.3c2.7,0,8.7,0.399,13.9-3.4c2.3-1.7,3.7-3.6,4.6-4.8c8.2-12,15.7-23,14.7-37.7
	c-0.1-0.9-2.5-8.1-7.4-22.3c-3.399-9.8-5.699-16.2-10.3-17.1c-1.1-0.2-2.6,0.2-5.5,1c-6.2,1.6-7.6,3.4-11.5,4.3
	C645.117,254.3,643.617,252.1,639.517,252.8z"/>
<path fill="#111111" d="M364.617,79.6c2.1-0.7,4.1-0.7,5.399-0.7c0.7,0.8,1.4,1.6,2.2,2.4c2.2,2.5,4.2,5,6,7.5c1.5-1.7,3.8-4,7-6.1
	c2.9-1.9,5.601-3,7.7-3.7c0.7-0.1,2.7-0.4,5.1,0c22.7,2.9,31.4,48.3,33,61.1c0.801,7,0.9,15-3.8,22.3c-1.399,2.1-2.801,3.7-3.9,4.7
	c-0.101,1.6-0.3,3.2-0.399,4.8c-0.4,5-0.9,10-1.3,15c-6.101,1.5-13.3,2.9-21.601,3.5c-18.6,1.4-34.1-1.4-44.3-4.1
	c-1.5,5.8-3,11.7-4.5,17.5c-1,3.9-1.9,7.7-2.9,11.6c-0.7,1.2-2.1,2.1-3.6,2.2c-2,0.1-3.899-1.2-4.3-3c0-8.2,0-19.9,0.3-34
	c0.2-9.2,0.3-15,0.7-22.2c1.6-30.3,4.7-44.5,7.1-53C352.917,89.7,357.317,81.9,364.617,79.6z"/>
<path fill="#111111" d="M641.517,198.8c1,2.6,3.301,7.6,8.4,11.6c2.2,1.8,4.5,2.9,6.3,3.6c1.101-0.3,3.4-0.8,4.7,0.3
	c1.8,1.6,1.6,6.2-2,10.7c-3.7,3-4.5,6-4.8,7.2c-0.8,3.9,1.1,7.4,3.399,12c1.301,2.4,2.5,4.3,3.4,5.5c3.5-1.6,7-3.3,10.5-4.9
	c2.9-0.2,5.7-0.4,8.6-0.6c2-2.9,3.9-5.8,5.9-8.7c2.7-1.8,5.4-3.5,8.2-5.3c-0.7-2.1-1.7-5.2-3-8.9c-3.5-9.5-6.101-16.4-11.4-23.6
	c-4.3-5.8-9.6-12.9-19-15.4c-7.2-1.9-13.5-0.3-16.899,0.9c-2-0.4-5-0.8-8.5,0.1c-7.2,2-10.801,8.3-13.5,13.2
	c-2.2,3.9-6.9,12.2-4.801,20.7c0.4,1.7,1,2.9,1.601,5c0,0,0.399,1.6,0.8,3.2c0.7,2.9,1.4,8.6,1.7,15.9c1.1-1.5,2.2-2.9,3.3-4.4
	c-0.7-2.1-1.7-5-2.4-8.7c-0.5-2.4-0.899-5-0.899-7.8c0-1.8,0.2-8.8,5.3-14.6C631.517,199.9,638.917,199,641.517,198.8z"/>
<path fill="#111111" d="M377.717,23.7c0.4,2,1.101,5.1,2.601,8.6c3.1,7.3,5.899,8.1,6.399,12.5c0.601,5-2.8,6.5-3.899,13.3
	c-0.801,5,0.199,9.4,1.199,12.4c2.7,1.7,8.101,4.4,15.301,5c9.8,0.8,17.1-2.9,19.899-4.6c-4.5-7.1-5.8-13.1-6.1-17.2
	c-0.8-9.2,2.5-14.6-0.8-23.1c-1.5-3.7-3.4-6-4.9-7.7c-0.7-0.9-12.3-14-25.9-11.2c-2.899,0.6-5.1,1.7-6.6,2.6
	c-3.2,0.4-9.7,1.7-15.4,6.9c-8.6,7.8-9.1,19-9.1,20.8c-0.3,9.1,4,12.6,5,28.1c0.2,2.5,0.2,4.5,0.2,5.8c2.399-0.3,5.1-0.7,8-1.3
	c2.899-0.7,5.6-1.4,8-2.3c-1-0.3-2.2-0.7-3.4-1.3c-1.8-0.9-3.2-2-4.1-2.9c-1.5-2.2-3.601-5.6-5.101-10.1
	c-4.699-14.4,0.301-23.9,0.301-23.9c1.899-2.2,5.3-5.6,10.699-8C372.817,24.7,375.517,24.1,377.717,23.7z"/>
<path fill="none" stroke="#111111" stroke-width="0.75" stroke-linecap="round" stroke-linejoin="round" stroke-miterlimit="10" d="
	M368.917,43.4c-0.3,6.1-1.9,8.4-3.6,9.3c-0.801,0.5-2.101,0.8-2.2,1.6c-0.101,0.9,1.399,1.8,2.399,2.2s2,0.3,2.5,0.3"/>
<path fill="none" stroke="#111111" stroke-width="0.75" stroke-linecap="round" stroke-linejoin="round" stroke-miterlimit="10" d="
	M372.617,38c0.3-0.1,1.6-0.9,3.5-0.7c1.7,0.1,2.8,0.9,3,1.1"/>
<path fill="none" stroke="#111111" stroke-width="0.75" stroke-linecap="round" stroke-linejoin="round" stroke-miterlimit="10" d="
	M359.816,38.2c0.199-0.2,1.5-1,3.5-1c1.699,0,2.8,0.7,3.1,0.8"/>
<path fill="none" stroke="#111111" stroke-width="0.75" stroke-linecap="round" stroke-linejoin="round" stroke-miterlimit="10" d="
	M357.117,53.4c0.5,2.4,1.5,6,3.8,9.9c2.1,3.5,4.2,7,8.1,8.5c6.601,2.5,13.5-2.6,14.301-3.2"/>
<path fill="none" stroke="#111111" stroke-width="0.75" stroke-linecap="round" stroke-linejoin="round" stroke-miterlimit="10" d="
	M371.917,72.4c1.3,1.8,1.6,4.1,0.7,5.9c-0.601,1.2-1.601,1.8-2.101,2.1"/>
<path fill="none" stroke="#111111" stroke-width="0.75" stroke-linecap="round" stroke-linejoin="round" stroke-miterlimit="10" d="
	M385.317,67.3c-0.101,0.8-0.7,4.6,1.8,8c2.2,3.1,6.1,4.7,10.1,4.1"/>
<path fill="#111111" d="M373.717,42.3c-1.5,0.6-1.5,3.9,0.4,5.8c0.399,0.4,0.7,0.8,1.1,0.7c1.3-0.1,3.101-4.2,0.9-5.9
	C375.617,42.4,374.517,42,373.717,42.3z"/>
<path fill="#111111" d="M362.317,43.5c-1.301,0.5-1.301,3.4,0.399,5.2c0.3,0.3,0.601,0.7,1,0.6c1.2-0.1,2.8-3.7,0.8-5.2
	C363.917,43.6,363.017,43.2,362.317,43.5z"/>
<path fill="none" stroke="#111111" stroke-width="0.75" stroke-linecap="round" stroke-linejoin="round" stroke-miterlimit="10" d="
	M366.617,63c1,0,2.5-0.1,4.2-0.6c2.6-0.8,4.199-2.3,5.1-3.1"/>
<path fill="#111111" d="M570.717,330.3c-0.1,0.101-0.2,0.2-0.2,0.2c-0.699,0.7-0.699,2,0,2.7c0.7,0.7,1.9,0.7,2.7,0
	c0.101-0.101,0.2-0.2,0.2-0.2c0.7-0.7,0.7-2,0-2.7C572.617,329.6,571.417,329.5,570.717,330.3z"/>
<path fill="none" stroke="#111111" stroke-width="0.75" stroke-linecap="round" stroke-linejoin="round" stroke-miterlimit="10" d="
	M572.016,333c-27.899,3.8-55.8,7.5-83.6,11.3c-11.1,33.7-22.3,67.4-33.4,101.2c-0.1,3,1.801,5.5,4.301,6c2.699,0.6,4.899-1.5,5-1.7
	c8.8-22.1,17.6-44.2,26.399-66.3c-2.6-4.2-3.2-5.8-2.899-6c0.6-0.4,4.3,4.4,5.8,3.6c1.6-0.8-0.5-7.5,0.2-7.699
	c0.6-0.2,1.3,3.399,3.6,4.6c3.4,1.7,8.4-2.5,11.1-4.3c4.7-3.3,15.2-4.3,36.301-6.5c15.5-1.601,18.1-0.9,21.8-1.3
	c1.5-0.2,2.8-0.5,3.5-0.601c2.3-0.5,4.3-1,5.7-1.5"/>
<path fill="none" stroke="#111111" stroke-width="0.75" stroke-linecap="round" stroke-linejoin="round" stroke-miterlimit="10" d="
	M539.316,382c16.199,1.3,28,5.4,35.8,8.9c12.5,5.6,21.2,12.699,36.3,13.699c6.1,0.4,11.2-0.3,14.4-1"/>
<path fill="none" stroke="#111111" stroke-width="0.75" stroke-linecap="round" stroke-linejoin="round" stroke-miterlimit="10" d="
	M468.717,438.9c15.4,28.5,26.8,49.399,28.601,52.699c0.3,0.5,1,1.9,2.6,2.9c1.5,0.9,3.1,0.9,3.6,1c7,0.2,55,3.4,61,6.7
	c0.301,0.2,1.7,1,3.4,0.7c1.5-0.301,2.5-1.5,2.9-1.9c4.8-5.8,11.6-14,15.6-13.2c0.6,0.101,1.7,0.5,2.6,1.2c1.5,1,2.301,2.2,2.4,2.4
	c5.2,7.5,23.6,9.899,23.6,9.899c20.9,2.7,74.9,2.3,79.101,2.4c0.899,0,2.5,0.1,3.6,1.2c1.2,1.199,1.101,2.6,1.7,3.6
	c1.7,3.2,9.5,2.1,11.1,1.9c14.5-2.101,23.2-14.5,24.301-16.101c0.8-1.2,1.399-2.1,1.899-3.1c6.2-10.9,4.7-16.3,8.7-30.5
	c2.9-10.3,6.1-16.3,5-25.5c-0.2-1.5-0.4-2.9-0.5-3.101c-1.9-10.1-6.8-16.699-7.9-18.3c-6.8-9.899-11.399-36.399-17.1-69.2
	c0,0-6.2-35.6-18.7-46.1c-1.399-1.2-2.899-2.2-2.899-2.2c-8.5-5.7-17.7-6.399-23.301-6.2"/>
<path fill="none" stroke="#111111" stroke-width="0.75" stroke-linecap="round" stroke-linejoin="round" stroke-miterlimit="10" d="
	M498.816,291c16.199-0.1,31.3,0.2,38.3,0.4"/>
<path fill="none" stroke="#111111" stroke-width="0.75" stroke-linecap="round" stroke-linejoin="round" stroke-miterlimit="10" d="
	M489.917,291.1c0.6,0,1.2,0,1.8,0"/>
<path fill="none" stroke="#111111" stroke-width="0.75" stroke-linecap="round" stroke-linejoin="round" stroke-miterlimit="10" d="
	M485.316,291.2c0.699,0,1.3,0,2,0"/>
<path fill="none" stroke="#111111" stroke-width="0.75" stroke-linecap="round" stroke-linejoin="round" stroke-miterlimit="10" d="
	M478.717,291.4c1.3,0,3,0,5.101,0"/>
<path fill="none" stroke="#111111" stroke-width="0.75" stroke-linecap="round" stroke-linejoin="round" stroke-miterlimit="10" d="
	M523.817,251.6c-65.2,3.9-90.2,16.4-100.9,26.3c-0.3,0.199-0.4,0.399-0.7,0.6c-17.6,17.7,15.9,75.4,33.601,103.6
	c1.399,1.9,3.8,2.801,6,2.4c2.899-0.5,4.199-3.1,4.3-3.4c-12.2-28.899-30.7-77.699-17.5-86.5c1.399-0.899,2.6-1.1,3.5-1.199
	c5.5-0.801,9.899-1.9,25.2-1.9"/>
<path fill="none" stroke="#111111" stroke-width="0.75" stroke-linecap="round" stroke-linejoin="round" stroke-miterlimit="10" d="
	M541.016,268.6c-2.199,16.801-4.899,28.5-7,36.301c-1,3.6-3.1,11.199-3.8,21.6c-0.399,5.1-0.3,9.3-0.1,12.2"/>
<path fill="none" stroke="#111111" stroke-width="0.75" stroke-linecap="round" stroke-linejoin="round" stroke-miterlimit="10" d="
	M592.316,265.4c-0.301,1.1-0.699,2.899-1.399,4.899c-3.2,10.3-7.801,17.3-9.701,20.3c-5.3,8.301-12.999,22-23.299,40.601"/>
<path fill="none" stroke="#111111" stroke-width="0.75" stroke-linecap="round" stroke-linejoin="round" stroke-miterlimit="10" d="
	M468.117,291.9c0,27.199,0,54.399,0,81.5c3.6-0.101,7.1-0.101,10.7-0.2"/>
<path fill="none" stroke="#111111" stroke-width="0.75" stroke-linecap="round" stroke-linejoin="round" stroke-miterlimit="10" d="
	M581.217,290.6c1.5,0,3,0,4.5,0c0,8.5,0,17.101,0,25.601"/>
<path fill="none" stroke="#111111" stroke-width="0.75" stroke-linecap="round" stroke-linejoin="round" stroke-miterlimit="10" d="
	M278.817,302.7c-8.1-2.8-29.7-9.9-42.2-9.4c-0.7,0-1.8,0.101-2.9,0.7c-6.4,3.1-5.7,16.2-4.2,35.7c3.6,49.2,5.4,73.8,6.2,75.7
	c0.2,0.399,0.8,1.8,0.2,2.899c-1,2-5,1.601-5,2.4c-0.1,0.8,3.7,1.1,3.8,2.399c0.2,1.4-4.3,2.7-4.1,3.601c0.1,0.7,2.6,0.7,4.6,0.7
	c9.7,0.199,11.3,1.199,16.3,0c1.1-0.301,5.1-1.2,5-2.4c-0.1-1.6-8.3-2.5-8.2-3.6c0.1-0.801,4.4-0.5,5-2.2c0.5-1.4-1.6-3.4-3.4-4.8
	c0.2-4,0.3-8,0.5-12.101c1-22.399,2-44.7,3.1-66.899c-1.8,1.5-3.6,3-5.4,4.5"/>
<path fill="none" stroke="#111111" stroke-width="0.75" stroke-linecap="round" stroke-linejoin="round" stroke-miterlimit="10" d="
	M253.717,328.1c14,6.2,30.7,10.101,49.5,7.7c14.101-1.899,26.9-7,38-13.399"/>
<path fill="none" stroke="#111111" stroke-width="0.75" stroke-linecap="round" stroke-linejoin="round" stroke-miterlimit="10" d="
	M341.017,319.9c2.101,11.5,3.801,24.6,4.601,38.899c0.899,16.4,0.5,31.3-0.5,44.3c-3,0.101-6.101,0.2-9.101,0.4
	c2.4,2.2,4.801,4.5,7.2,6.7c-1.5,1.399-3,2.7-4.6,4.1c1.3,1,2.5,2,3.8,2.9c2,0.7,4.8,1.5,8.3,1.7c3.4,0.199,6.199-0.301,8.1-0.801
	c-0.601-1.899-1.199-3.699-1.699-5.6c1.5-1,3-2.1,4.6-3.1c-1.5-1.801-3-3.7-4.6-5.5c0.6-2.9,9.799-50.101,14.199-80.7
	c0.8-5.7,2.2-16.5-3.8-21.601c-2.6-2.199-5.6-2.6-8.5-2.8c-13.899-0.899-27.8,3.8-36.6,7.601"/>
<path fill="#111111" d="M280.116,235c2.7-0.6,5.7-0.9,5.7-0.9c2.3-0.3,4.3-0.4,5.7-0.4c1.2,2.6,2.4,5.4,3.5,8.2
	c2.4,5.9,4.3,11.6,5.9,16.9c0.6-3.8,1.5-8.3,3.2-13.2c1.899-5.4,4.1-9.9,6.2-13.4c2.8-0.6,7.3-1.1,12.399,0.2
	c7.5,2,12.3,7.1,16.5,12.5c11.3,14.8,27.4,36,19.101,50.2c-6.5,11.101-27.301,13.801-39.4,12.7c-0.3,0-0.6-0.1-0.8-0.1
	c0.3-0.9,0.2-1.5,0.1-1.9c-0.2-0.899-0.8-1.399-3.6-3.399c-0.601-0.5-1.2-0.9-1.601-1.2c-1.8,0-4.8,0.3-8.2,1.8
	c-4,1.8-6.5,4.4-7.8,5.9c-2.1-2.101-5.4-4.5-9.7-5.4c-2.9-0.6-4.1,0-4.6,0.3c-2.7,1.5-2.7,5.5-2.7,6c-2,0.3-4.9,0.5-8.4,0.3
	c-11-0.5-30.2-4.899-33.5-15.1c-0.3-1.1-0.5-2-0.4-2.9c1.1-12,11-16.699,22.2-32.5C266.416,250.8,274.216,236.2,280.116,235z"/>
<path fill="none" stroke="#111111" stroke-width="0.75" stroke-linecap="round" stroke-linejoin="round" stroke-miterlimit="10" d="
	M313.917,233.8c-1.1-0.9-3.6-3.3-4.9-7.3c-1-3-0.8-5.7-0.6-7.1"/>
<path fill="none" stroke="#111111" stroke-width="0.75" stroke-linecap="round" stroke-linejoin="round" stroke-miterlimit="10" d="
	M291.417,229.2c-0.1,3-0.3,6-0.4,9"/>
<path fill="none" stroke="#111111" stroke-width="0.75" stroke-linecap="round" stroke-linejoin="round" stroke-miterlimit="10" d="
	M270.817,179.8c-0.3,2.4-0.6,5.8-0.1,10c0.3,2.5,0.7,4.1,2.6,10.8c3.9,13.4,4.5,14.8,5.6,16.4c2.2,3.2,5.4,6.3,6.3,7.2
	c2.5,2.4,3.8,3.5,4.3,3.7c6.3,2.8,15.8-5.3,20.2-10.4c1.2-1.3,2-2.5,2.5-3.3"/>
<path fill="none" stroke="#111111" stroke-width="0.75" stroke-linecap="round" stroke-linejoin="round" stroke-miterlimit="10" d="
	M287.717,196.5c2,9,1.1,12.1-0.4,13c-1,0.6-2.7,0.4-3,1.3c-0.3,1,1,2.3,1.8,2.9c1,0.7,2.1,0.9,2.7,1"/>
<path fill="#111111" d="M296.517,193c-1.1,0.1-2.9,5.5-0.4,9.2c0.8,1.1,2.4,2.7,3.2,2.3C301.017,203.6,298.117,192.9,296.517,193z"
	/>
<path fill="#111111" d="M280.817,193c-1.1,0.1-2.9,5.5-0.4,9.2c0.8,1.1,2.4,2.7,3.2,2.3C285.317,203.6,282.417,192.9,280.817,193z"
	/>
<path fill="none" stroke="#111111" stroke-width="0.75" stroke-linecap="round" stroke-linejoin="round" stroke-miterlimit="10" d="
	M276.617,191.1c1.3-1.8,3.4-2.8,5.4-2.5c2.4,0.3,3.7,2.2,3.9,2.5"/>
<path fill="none" stroke="#111111" stroke-width="0.75" stroke-linecap="round" stroke-linejoin="round" stroke-miterlimit="10" d="
	M292.217,191.5c1.1-2,3.2-3.1,5.3-2.9c2.3,0.3,3.6,2.2,3.8,2.5"/>
<path fill="none" stroke="#111111" stroke-width="0.75" stroke-linecap="round" stroke-linejoin="round" stroke-miterlimit="10" d="
	M288.117,219.5c1,0,3.3-0.2,5.5-1.4c1.4-0.7,2.1-1.6,2.6-2.1"/>
<path fill="none" stroke="#111111" stroke-width="0.75" stroke-linecap="round" stroke-linejoin="round" stroke-miterlimit="10" d="
	M314.017,207.7c1.801-0.5,2.2-0.9,2.2-1.2c0-0.6-1.399-0.8-1.5-1.6c-0.1-0.7,0.9-1.5,1.7-1.8c0.2-0.1,1.7-0.6,2.3,0.3
	c0.4,0.5,0.2,1.4-0.399,2.1"/>
<path fill="none" stroke="#111111" stroke-width="0.75" stroke-linecap="round" stroke-linejoin="round" stroke-miterlimit="10" d="
	M173.917,358.6c0.7-3.5,1.4-6.199,2-8c0.6-1.8,3.2-9.8,8.3-17.5c13.7-20.6,37.4-27.5,44.6-29.3"/>
<path fill="none" stroke="#111111" stroke-width="0.75" stroke-linecap="round" stroke-linejoin="round" stroke-miterlimit="10" d="
	M233.017,436.6c-9-2.199-17.8-4.8-26.4-9.1c-6.1-3-14.7-8-23.9-16.5"/>
<path fill="none" stroke="#111111" stroke-width="0.75" stroke-linecap="round" stroke-linejoin="round" stroke-miterlimit="10" d="
	M338.816,450.2c-10.9,3.1-21.5,2.399-29.4,1.899c-7.6-0.5-9.3-1.399-18.4-3.699c-4.4-1.101-3.6-0.7-18.5-4.101
	c-2.4-0.5-4.4-1-5.7-1.3"/>
<path fill="none" stroke="#111111" stroke-width="0.75" stroke-linecap="round" stroke-linejoin="round" stroke-miterlimit="10" d="
	M447.717,368.6c0.101,2.9,0.2,7.7,0.601,13.601c0.699,11,1.3,13.3,0.199,17.8c-1.5,5.6-4.399,9.4-7,12.8
	c-1.899,2.4-5.3,6.4-10.6,10.101c-5.7,4-9.5,4.699-21.3,8.699c-20,6.7-17,7.101-22,7.801c-6.9,0.899-11.4-0.2-15.9-0.601"/>
<path fill="none" stroke="#111111" stroke-width="0.75" stroke-linecap="round" stroke-linejoin="round" stroke-miterlimit="10" d="
	M53.717,381.6c-4.2,21.101-8.3,42.101-12.5,63.2c1.8,3,4.2,6.3,7.4,9.4c11.8,11.1,27.5,11.8,36.3,12.3c5.4,0.3,10.6,0.5,17.3-1
	c5.7-1.3,10.6-3.4,14.7-5.9"/>
<path fill="none" stroke="#111111" stroke-width="0.75" stroke-linecap="round" stroke-linejoin="round" stroke-miterlimit="10" d="
	M63.417,410.6c3.1-1.5,6.2-3,9.4-4.6c7.3,5.8,15.3,11.6,24,17.3c25.101,16.4,49.4,27.7,70.701,35.601c0.2,0,3.1,0.699,5.3-1.4
	c2-1.9,1.7-4.5,1.7-4.8c-27.4-25.101-54.801-50.3-82.301-75.4"/>
<path fill="none" stroke="#111111" stroke-width="0.75" stroke-linecap="round" stroke-linejoin="round" stroke-miterlimit="10" d="
	M203.717,381.7c-1.3,2.5-2.8,5.1-4.4,7.6c-12.8,20.8-29.5,35.2-44.7,45.2"/>
<path fill="none" stroke="#111111" stroke-width="0.75" stroke-linecap="round" stroke-linejoin="round" stroke-miterlimit="10" d="
	M112.117,395.7c27.2-16.3,54.3-32.7,81.5-49c2.6,3.1,4.5,6.3,5.9,9.2"/>
<path fill="none" stroke="#111111" stroke-width="0.75" stroke-linecap="round" stroke-linejoin="round" stroke-miterlimit="10" d="
	M181.317,373.9c-12,17.399-23.9,34.899-35.9,52.3"/>
<path fill="#111111" d="M41.217,444.8c-0.9-0.6-2.2-1.5-3.6-2.899c-5.7-5.7-6-13-7.4-22.301c-0.8-5-2.2-12.1-4.8-20.699
	c-3-0.5-7.7-1.601-12.5-4.801c0,0-6.4-4.199-10.6-11.5c-3.9-6.8-5.7-39.5,18.5-74.3c7.5-10.7,12.1-17.2,20-18.2
	c13.6-1.8,26.5,14.301,31.9,24c4.8,8.7,6.1,17.101,6.6,22.101c-0.5-7-0.2-12.8,0.3-16.9c1-8.7,2.8-12.1,2.3-18.3
	c-0.5-6.3-3.1-11.3-5.4-14.8c13.2,0.8,27.8,2.8,43.4,6.899c56.7,14.801,83.3,45.7,85,54.601c0.3,1.6,1,5.7-1.2,7.7
	c-1.5,1.399-3.9,1.199-5.3,1c-3.7-4-7.9-8-12.7-11.801c-27.3-21.5-58.5-25.3-76.3-25.8c-8.2,33.101-5,44.9,0,49.2
	c1.6,1.4,8.7,6.5,13.8,16c0.9,1.6,1.5,3,1.9,3.9c-4.3,2.6-8.6,5.199-12.9,7.8c-6.9-6.101-13.9-12.2-20.8-18.3
	c-1.2-2.101-3.1-5-6.2-7.9c-2.3-2.1-4.2-3.9-7.2-4.9c-2.8-0.899-5.3-0.8-6.9-0.6c-0.9,0-3.3,0.2-5.4,2c-0.9,0.7-1.4,1.5-1.8,2.1
	c-3.2,3.101-6.9,7.601-9.5,13.801c-0.6,1.3-1,2.6-1.4,3.8C49.017,405.3,45.117,425.1,41.217,444.8z"/>
<path fill="none" stroke="#111111" stroke-width="0.75" stroke-linecap="round" stroke-linejoin="round" stroke-miterlimit="10" d="
	M67.717,464.2c0.4-3.8,0.8-7.7,1.2-11.5c7.9-1,15.7-1.9,23.6-2.9c2.3,5.4,4.5,10.8,6.8,16.2"/>
<path fill="none" stroke="#111111" stroke-width="0.75" stroke-linecap="round" stroke-linejoin="round" stroke-miterlimit="10" d="
	M47.717,290.7c0.8-0.4,5.4-3.101,6.8-9c1.5-6.101-1.9-10.8-2.4-11.5"/>
<path fill="none" stroke="#111111" stroke-width="0.75" stroke-linecap="round" stroke-linejoin="round" stroke-miterlimit="10" d="
	M83.216,287.5c-4.3,1.3-8.4-0.1-9.9-3c-1-1.8-0.7-3.8-0.5-4.7"/>
<path fill="none" stroke="#111111" stroke-width="0.75" stroke-linecap="round" stroke-linejoin="round" stroke-miterlimit="10" d="
	M358.917,287c11.9,0.5,21,3.2,26.8,5.4c7.2,2.8,11.8,5.699,13,6.5c4.4,2.899,9.601,6.3,13.7,12.3c4.9,7.1,3.3,10.5,8.2,17.3
	c3.5,4.8,7.6,7.8,10.399,9.4"/>
<path fill="none" stroke="#111111" stroke-width="0.75" stroke-linecap="round" stroke-linejoin="round" stroke-miterlimit="10" d="
	M416.617,186.5c0,13.1,0.2,26.6,0.7,40.5c0.699,18.6,1.8,36.4,3.3,53.5"/>
<path fill="none" stroke="#111111" stroke-width="0.75" stroke-linecap="round" stroke-linejoin="round" stroke-miterlimit="10" d="
	M403.717,302.3c-7.1-22.899-11.3-40.5-13-48.7c-2.7-12.5-4.7-25.2-4.7-25.2c-0.1-0.6-0.199-1.2-0.3-1.8
	c-1.399,21.5-2.8,42.9-4.2,64.4"/>
<path fill="none" stroke="#111111" stroke-width="0.75" stroke-linecap="round" stroke-linejoin="round" stroke-miterlimit="10" d="
	M358.816,185.5c-0.9,12.7-1.499,26.1-1.6,40.3c-0.2,20.1,0.5,38.8,1.7,56.101"/>
<path fill="none" stroke="#111111" stroke-width="0.75" stroke-linecap="round" stroke-linejoin="round" stroke-miterlimit="10" d="
	M373.016,187.3c-1.399,3.6-3.399,7.6-6,11.9c-3.3,5.4-6.699,9.6-9.699,12.7"/>
<path fill="none" stroke="#111111" stroke-width="0.75" stroke-linecap="round" stroke-linejoin="round" stroke-miterlimit="10" d="
	M395.816,188.1c1.399,3.4,4.1,8.9,9,14c4.199,4.4,8.399,6.9,11.3,8.2"/>
<path fill="#111111" d="M163.316,70.5c-4.5,0-12.6,0.7-17.9,6.4c-3.3,3.6-4.2,7.7-4.7,9.7c-7.5,30.3-11.3,45.5-12.1,58.9
	c-0.7,11.7-0.5,20.4-0.3,28.6c0.5,18.1,2.2,33.1,3.7,44c0.3,0.3,1.6,1.6,3.6,1.8c2.6,0.2,4.4-1.6,4.6-1.8c0.3-8.3,0.7-16.6,1-24.9
	c3.3,0.6,8.2,1.3,14.2,1.8c15.6,1.3,27,2.4,39.7-1.1c5.1-1.4,12.8-4.3,21.5-10.5c-0.5-11.5-0.9-23.1-1.4-34.6
	c1.6-8.2,2.1-15.1,2.2-19.9c0,0,0.9-26.9-10.7-48.9c-1.9-3.5-4.4-7.6-9.2-9.4c-4.4-1.7-8.7-0.7-11,0c-2.7,6.6-5.4,13.3-8.2,19.9
	c-0.8-2.5-2.1-5.5-4.1-8.7C170.716,76.2,166.316,72.6,163.316,70.5z"/>
<path fill="none" stroke="#111111" stroke-width="0.75" stroke-linecap="round" stroke-linejoin="round" stroke-miterlimit="10" d="
	M145.316,235.5c2.2,17.5,4.4,35.1,6.6,52.6c3.3,26,6.5,52,9.6,77.9"/>
<path fill="none" stroke="#111111" stroke-width="0.75" stroke-linecap="round" stroke-linejoin="round" stroke-miterlimit="10" d="
	M139.316,189c1.6,12.7,3.3,25.3,4.9,38"/>
<path fill="none" stroke="#111111" stroke-width="0.75" stroke-linecap="round" stroke-linejoin="round" stroke-miterlimit="10" d="
	M201.516,315.9c-2.5-16.5-5.4-33.4-8.6-50.7c-3.4-18.2-7-35.8-10.8-52.8c-2.2,17.9-3.8,37.2-4.7,57.7c-1.1,26.801-0.7,51.7,0.7,74.5
	"/>
<path fill="none" stroke="#111111" stroke-width="0.75" stroke-linecap="round" stroke-linejoin="round" stroke-miterlimit="10" d="
	M214.117,181.1c1.3,9.1,2.4,18.4,3.3,28c3.4,34.9,3.9,67.6,2.5,97.5"/>
<path fill="none" stroke="#111111" stroke-width="0.75" stroke-linecap="round" stroke-linejoin="round" stroke-miterlimit="10" d="
	M190.117,191.5c9.1,5.9,18.2,11.8,27.3,17.6"/>
<path fill="none" stroke="#111111" stroke-width="0.75" stroke-linecap="round" stroke-linejoin="round" stroke-miterlimit="10" d="
	M144.017,209.9c5.3-6.8,10.6-13.7,15.9-20.5"/>
<path fill="none" stroke="#111111" stroke-width="0.75" stroke-linecap="round" stroke-linejoin="round" stroke-miterlimit="10" d="
	M545.117,134.8c0.6-0.6,1.3-1.2,2-1.9c0.7-0.7,1.399-1.4,1.899-2.1c1.4-0.2,2.4-0.7,3.101-1.1c3.399-2.4,4.1-8.6,1.7-15.4"/>
<path fill="none" stroke="#111111" stroke-width="0.75" stroke-linecap="round" stroke-linejoin="round" stroke-miterlimit="10" d="
	M509.417,97.7c-0.8,12.6,1,22.5,2.7,28.8c0,0,3.8,14.5,10.5,17.7c2.1,1,4.2,1.2,4.2,1.2s2.6,0,5.5-0.9c2-0.6,9.1-5.3,16.8-13.8"/>
<path fill="none" stroke="#111111" stroke-width="0.75" stroke-linecap="round" stroke-linejoin="round" stroke-miterlimit="10" d="
	M561.816,156.5c-2.101-1.3-7.601-5.2-10.7-12.6c-2.3-5.6-2.2-10.6-1.9-13.1"/>
<path fill="none" stroke="#111111" stroke-width="0.75" stroke-linecap="round" stroke-linejoin="round" stroke-miterlimit="10" d="
	M528.417,155.8c0.7-0.9,2.3-3.3,2.5-6.6c0.1-1.5-0.2-2.7-0.5-3.6"/>
<path fill="none" stroke="#111111" stroke-width="0.75" stroke-linecap="round" stroke-linejoin="round" stroke-miterlimit="10" d="
	M622.817,198.6c-1.801,7-3.101,16.4-1.5,26.7c0,0,1.8,11.9,6.699,16.9c2.2,2.3,5.2,4.3,5.2,4.3c1.2,0.8,2.5,1.7,3.4,2
	c5,1.8,12.8-7.8,13.7-9"/>
<path fill="none" stroke="#111111" stroke-width="0.75" stroke-linecap="round" stroke-linejoin="round" stroke-miterlimit="10" d="
	M643.517,264.3c1-1.8,3.101-6.3,2.301-11.9c-0.301-2.4-1.101-4.3-1.801-5.7"/>
<path fill="none" stroke="#111111" stroke-width="0.75" stroke-linecap="round" stroke-linejoin="round" stroke-miterlimit="10" d="
	M661.617,230.2c0.1,3.5,0.6,7.8,1.8,12.7c1.1,4.6,2.6,8.5,4.1,11.7"/>
<path fill="none" stroke="#111111" stroke-width="0.75" stroke-linecap="round" stroke-linejoin="round" stroke-miterlimit="10" d="
	M523.816,114.1c1.699,7.1,0.6,9.9-0.801,11.2c-0.899,0.8-2.699,1.5-2.699,2.7c0,0.9,0.899,1.5,1.6,2"/>
<path fill="none" stroke="#111111" stroke-width="0.75" stroke-linecap="round" stroke-linejoin="round" stroke-miterlimit="10" d="
	M527.316,110.7c0.6-0.6,2.3-2.3,5.1-2.8c3.9-0.7,6.8,1.5,7.3,1.9"/>
<path fill="none" stroke="#111111" stroke-width="0.75" stroke-linecap="round" stroke-linejoin="round" stroke-miterlimit="10" d="
	M520.316,110.9c-0.2-0.2-1.3-1.3-3.3-1.6c-2.1-0.2-3.4,0.7-3.7,0.9c-1,0.7-1.3,1.5-1.399,1.8"/>
<path fill="#111111" d="M518.017,115.7c-0.8-0.6-2.1-0.6-2.8,0c-1,0.9-0.3,2.8,0,3.7c0.4,1,1.3,3,2.2,2.9c1-0.2,1.2-2.9,1.2-4
	C518.617,117.1,518.617,116.2,518.017,115.7z"/>
<path fill="#111111" d="M533.816,114.6c-0.801-0.6-2.101-0.6-2.801,0c-1,0.9-0.3,2.8,0,3.7c0.4,1,1.301,3,2.2,2.9
	c1-0.2,1.2-2.9,1.2-4C534.516,116,534.516,115.2,533.816,114.6z"/>
<path fill="none" stroke="#111111" stroke-width="0.75" stroke-linecap="round" stroke-linejoin="round" stroke-miterlimit="10" d="
	M550.917,128c1.3-0.6,2.399-1.3,2.299-1.8c-0.1-0.5-1.499-0.3-1.799-1c-0.2-0.5,0.2-1.5,2.5-3.3"/>
<path fill="none" stroke="#111111" stroke-width="0.75" stroke-linecap="round" stroke-linejoin="round" stroke-miterlimit="10" d="
	M630.617,220.1c1.5,4.4,1.1,7.1-0.2,8.7c-1.3,1.6-3.2,2-3.2,3c0.101,1.1,2.7,1.9,5,2.4"/>
<path fill="none" stroke="#111111" stroke-width="0.75" stroke-linecap="round" stroke-linejoin="round" stroke-miterlimit="10" d="
	M634.517,215.3c0.601-0.6,2.9-2.4,6.2-2.4c1.8,0,3.2,0.5,4,0.9"/>
<path fill="none" stroke="#111111" stroke-width="0.75" stroke-linecap="round" stroke-linejoin="round" stroke-miterlimit="10" d="
	M628.117,216.8c-0.601-0.2-1.7-0.5-3.101-0.3c-2.199,0.3-3.6,1.7-4,2.2"/>
<path fill="none" stroke="#111111" stroke-width="0.75" stroke-linecap="round" stroke-linejoin="round" stroke-miterlimit="10" d="
	M633.917,241.3c0.6,0.1,2.099,0.1,3.599-0.8c2.5-1.5,2.9-4.2,3-4.6"/>
<path fill="#111111" d="M638.017,218.9c-1,0.1-1.8,5.7-0.3,6.5c0.601,0.3,1.4,0,1.8-0.5C641.117,223.3,638.917,218.8,638.017,218.9z
	"/>
<path fill="#111111" d="M625.717,222.4c-1,0.1-1.8,5.7-0.3,6.5c0.6,0.3,1.4,0,1.8-0.5C628.817,226.8,626.617,222.3,625.717,222.4z"
	/>
<path fill="none" stroke="#FFFFFF" stroke-miterlimit="10" d="M75.217,312.7c5.1,20,5.7,30.2,4.9,35.7c0,0.199-0.1,0.699-0.2,1.399
	c-0.8,8.2,2.2,15,5.2,19.7"/>
<path fill="none" stroke="#111111" stroke-width="0.75" stroke-linecap="round" stroke-linejoin="round" stroke-miterlimit="10" d="
	M655.416,223c0.9-0.6,1.6-1.3,1.5-1.7c-0.2-0.6-1.6-0.4-1.9-1.1c-0.5-1.1,2.4-4,3.601-3.4c1,0.5,0.6,3,0.5,3.4"/>
<path fill="none" stroke="#111111" stroke-width="0.75" stroke-linecap="round" stroke-linejoin="round" stroke-miterlimit="10" d="
	M656.816,224.2c0.6,1,1.1,1.9,1.699,2.9"/>
<path fill="none" stroke="#111111" stroke-width="0.75" stroke-linecap="round" stroke-linejoin="round" stroke-miterlimit="10" d="
	M657.717,223.1c0.9,0.5,1.9,1.1,2.8,1.6"/>
<path fill="none" stroke="#111111" stroke-width="0.75" stroke-linecap="round" stroke-linejoin="round" stroke-miterlimit="10" d="
	M629.517,233.5c0.2,0.7,0.601,2.3,1,2.3c0.301,0,0.5-1,0.601-1.8"/>
<path fill="none" stroke="#111111" stroke-width="0.75" stroke-linecap="round" stroke-linejoin="round" stroke-miterlimit="10" d="
	M563.516,330.5c-1.699,0.5-3.8,1.3-6,2.6c-1.399,0.801-2.699,1.7-3.699,2.5"/>
<path fill="none" stroke="#FFFFFF" stroke-miterlimit="10" d="M378.217,82.2c-0.1,5.3-0.1,13.1,0.3,22.7c1,25.7,3.301,26.3,2.7,39.8
	c-0.8,18.7-5.5,22.6-3.8,39.1c0.8,7.9,2.6,14.2,4.1,18.4"/>
<path fill="none" stroke="#FFFFFF" stroke-miterlimit="10" d="M393.117,155.2c1,3.3,2.899,7.9,6.5,12.8c3,4,6.1,6.9,8.7,8.9"/>
<path fill="none" stroke="#FFFFFF" stroke-miterlimit="10" d="M61.917,361.9c-7.4,0.899-17.8,1.899-27.9,2.399
	c-1.8,0.101-4.5,0.2-5.4-1.399c-1.7-2.9,4.3-9.4,6.8-11.9"/>
<path fill="none" stroke="#FFFFFF" stroke-miterlimit="10" d="M14.217,395.4c1.6,1,5.8,3.199,11.5,2.899c7.5-0.399,12.2-5,13.3-6.1"
	/>
<path fill="none" stroke="#FFFFFF" stroke-miterlimit="10" d="M298.117,239.2c2,7.9,2.599,14.5,2.799,19.1c0.3,6.9,0.5,12.4-1,19.4
	c-1.3,6-3.3,10.6-2.6,17.899c0.2,2.301,0.7,4.2,1,5.4"/>
<path fill="none" stroke="#111111" stroke-width="0.75" stroke-linecap="round" stroke-linejoin="round" stroke-miterlimit="10" d="
	M341.017,319.9c3,1.1,6,2.3,9.101,3.399"/>
<path fill="none" stroke="#111111" stroke-width="0.75" stroke-linecap="round" stroke-linejoin="round" stroke-miterlimit="10" d="
	M83.817,222.6c2.6,4.8,3.5,8.8,3.8,11.6c0.8,6.5-1.3,7.6-0.8,16.4c0.3,4.4,0.9,6.2,0.6,10.9c-0.2,2.6-0.5,4.5-1.1,7.6
	c-0.9,4.7-1.7,6.801-2.8,8.601c-0.8,1.399-1.2,2-1.9,2.6c-2.6,1.9-6.4,0.601-10.2-0.8c-2.7-1-6.6-2.7-10.8-5.8"/>
<path fill="none" stroke="#111111" stroke-width="0.75" stroke-linecap="round" stroke-linejoin="round" stroke-miterlimit="10" d="
	M78.716,251.3c-0.2,1-0.3,2.6,0.3,4.4c0.3,0.899,0.6,1.7,1.3,2.5c1.2,1.3,2.4,1.1,2.6,1.899c0.2,0.801-1.1,1.801-2,2.2
	c-1.4,0.601-2.7,0.4-3.1,0.2"/>
<path fill="none" stroke="#111111" stroke-width="0.75" stroke-linecap="round" stroke-linejoin="round" stroke-miterlimit="10" d="
	M81.316,270.7c-0.9,0.3-2.3,0.7-4,0.2c-1.2-0.4-2.2-1-2.9-1.601"/>
<path fill="none" stroke="#111111" stroke-width="0.75" stroke-linecap="round" stroke-linejoin="round" stroke-miterlimit="10" d="
	M54.316,248.3c-0.4-0.1-4.6-0.8-5.9,1.1c-1.3,1.9,0.1,6.2,4.9,9.6"/>
<path fill="none" stroke="#111111" stroke-width="0.75" stroke-linecap="round" stroke-linejoin="round" stroke-miterlimit="10" d="
	M54.316,248.3c3.4-0.4,6.7-0.8,10.1-1.2v11.4l12.2-2.5c0-3.1,0.1-6.2,0.1-9.4c-4.1,0.2-8.2,0.3-12.4,0.5"/>
<path fill="none" stroke="#111111" stroke-width="0.75" stroke-linecap="round" stroke-linejoin="round" stroke-miterlimit="10" d="
	M80.316,246.7l0.1,7.8c2.2-0.4,4.4-0.9,6.6-1.3c0-2.2-0.1-4.4-0.1-6.5C84.716,246.7,82.517,246.7,80.316,246.7z"/>
<path fill="none" stroke="#111111" stroke-width="0.75" stroke-linecap="round" stroke-linejoin="round" stroke-miterlimit="10" d="
	M77.017,249.2h3.3"/>
<path fill="#111111" d="M71.517,252.8c-2-1.3,0-6.1,1.3-6.2c1.3-0.1,3.4,4.8,1.6,6.2C73.617,253.4,72.216,253.3,71.517,252.8z"/>
<path fill="#111111" d="M83.117,251.5c-1.6-1,0-4.8,1-4.9s2.6,3.8,1.2,4.9C84.717,251.9,83.717,251.8,83.117,251.5z"/>
<path fill="none" stroke="#111111" stroke-width="0.75" stroke-linecap="round" stroke-linejoin="round" stroke-miterlimit="10" d="
	M53.917,255.2c-0.9-1.3-0.9-1.8-0.8-2c0.2-0.3,0.8-0.2,1-0.6c0.3-0.4,0-1.2-0.4-1.6c-0.5-0.6-1.6-1.2-2.5-0.6
	c-0.7,0.5-1,1.6-0.5,2.4"/>
<path fill="#111111" d="M47.716,272.7c0.3,0.3,0.9,0.3,2.1,0.399c0.6,0.101,1,0.101,1,0.101c0.8,0,1.4-0.101,1.4-0.101
	c0.9-0.1,2-0.3,2.2-1c0.3-1-2.1-1.699-2.8-4c-0.7-2.199,1-3.199,0.2-5.199c-0.7-1.9-2.6-2.2-2.5-3.2c0.1-0.8,1.2-1.4,2.6-1.8
	c-0.6-0.301-2.4-1.2-3.4-3.3c-0.3-0.7-1.5-3.2-0.1-5.1c1.1-1.5,3.3-2,4.8-1.4c1.1,0.5,1.5,1.6,2.2,1.5c0.7-0.1,1-1.3,1.1-1.7
	c0.6-2.6-0.8-4.2-1-6c-0.7-5,8.5-10,8.9-10.3c1.2-0.6,9.5-4.9,14.2-1.5c1.7,1.2,1.7,2.5,3.6,3c2.6,0.8,4.1-2.4,7.4-1.9
	c1.8,0.2,3.4,1.3,3.8,0.8c0.2-0.3-0.3-0.8,0-1.5c0.3-0.9,1.4-1,1.4-1.3c-0.1-0.5-2.9-0.2-3-0.8c-0.1-0.4,1.2-0.9,1.1-1.5
	c-0.1-0.7-1.7-0.6-1.9-1.4c-0.2-0.9,1.6-1.7,1.4-2.4c-0.2-0.7-2.3-0.3-2.7-1.2c-0.5-1,1.4-2.4,0.9-3.2c-0.4-0.7-1.7,0-3-0.9
	c-1.1-0.7-0.9-1.5-1.8-2.1c-1.4-1-2.6,0.3-5.6,0c-1.6-0.2-2.8-0.7-4.4-1.4c-1.5-0.7-2.6-1.3-3.9-2.2c-1.4-0.9-1.8-1.4-3.3-1.9
	c-4-1.5-7.8-0.5-12.1,0.6c-4.8,1.2-4.5,2.2-9.8,3.5c-3.4,0.8-4.7,0.6-6.8,1.8c-1.6,0.9-3.2,2.4-5.2,5.7c-2.9,4.9-7.4,11.7-5.5,19.1
	c0.5,2.1,1.4,3.5,2.5,6.3c1,2.8,0.8,3.4,1.5,4.8c1.3,2.7,2.6,2.6,5.2,5.7c3.9,4.6,2.4,6.3,5.8,8.8c1.5,1.1,3.3,1.9,3.6,3.7
	C47.616,271,47.116,272.1,47.716,272.7z"/>
<path fill="none" stroke="#111111" stroke-width="0.75" stroke-linecap="round" stroke-linejoin="round" stroke-miterlimit="10" d="
	M64.117,243.4c1.1-0.5,2.9-1.1,5.2-1.3c2.2-0.1,4,0.2,5.1,0.5"/>
<path fill="none" stroke="#111111" stroke-width="0.75" stroke-linecap="round" stroke-linejoin="round" stroke-miterlimit="10" d="
	M80.117,242.5c0.8-0.4,1.9-0.7,3.1-1c1.7-0.3,3.2-0.3,4.3-0.2"/>
<path fill="none" stroke="#111111" stroke-width="0.75" stroke-linecap="round" stroke-linejoin="round" stroke-miterlimit="10" d="
	M159.517,75.8c0.8-1.9,1.6-4.2,2-6.8c1.6-9.3-1.9-17-3.8-20.6"/>
<path fill="none" stroke="#111111" stroke-width="0.75" stroke-linecap="round" stroke-linejoin="round" stroke-miterlimit="10" d="
	M189.617,71.4c-0.3,0-4.7,0.5-7.2-2.6c-1.3-1.6-1.5-3.3-1.5-4.1"/>
<path fill="none" stroke="#111111" stroke-width="0.75" stroke-linecap="round" stroke-linejoin="round" stroke-miterlimit="10" d="
	M191.017,13.5c2,4.3,3,7.8,3.6,10.2c0.9,3.8,0.8,5.3,0.3,6.6c-0.4,1.1-0.8,1.5-1,2.8c-0.3,1.9,0.1,3.4,0.5,4.8c0,0,0.8,3,1.2,6.9
	c0.4,4.2-0.5,7.6-1.1,9.7c-1.1,3.8-2.6,6.2-3.4,7.3c-0.9,1.3-1.4,2-2.2,2.5c-2.6,1.6-6.1,0.5-9.6-0.7c-2.5-0.8-6.2-2.3-10.2-5.1"/>
<path fill="none" stroke="#111111" stroke-width="0.75" stroke-linecap="round" stroke-linejoin="round" stroke-miterlimit="10" d="
	M185.617,34.8c-0.1,0.4-0.8,5.1,0.9,7.9c0.7,1.2,1.3,1.8,1.3,1.8c1.3,1.3,2.3,1.4,2.4,2.1c0.1,0.9-1.2,1.6-1.9,1.9
	c-1,0.6-2,0.7-2.6,0.7"/>
<path fill="#111111" d="M177.516,42.4c-2-1.6-0.3-6.9,0.9-6.9c1.3,0,3.5,5.6,1.8,7C179.516,43.1,178.216,43,177.516,42.4z"/>
<path fill="#111111" d="M189.216,40.9c-1.6-1.2-0.2-5.4,0.7-5.4c1,0,2.701,4.4,1.401,5.5C190.817,41.4,189.816,41.3,189.216,40.9z"
	/>
<path fill="none" stroke="#111111" stroke-width="0.75" stroke-linecap="round" stroke-linejoin="round" stroke-miterlimit="10" d="
	M162.717,42.2c-0.9-1.1-0.9-1.6-0.7-1.8c0.2-0.3,0.7-0.1,1-0.5c0.3-0.4,0-1.1-0.4-1.4c-0.5-0.5-1.5-1-2.4-0.5
	c-0.7,0.4-0.9,1.4-0.4,2.1"/>
<path fill="#111111" d="M159.117,47.1c0.1-0.5,0.5-1,1-1.2c0.7-0.3,1.2,0.3,2,0.1c0.4-0.1,1-0.4,1.6-1.3c-0.6-0.1-2.7-0.5-4.1-2.4
	c-0.4-0.5-1.8-2.3-1.3-4.3c0.1-0.3,0.4-1.7,1.7-2.3c1.5-0.7,3.1,0.2,3.2,0.3c0.7,0.8,1.6,1.9,1.9,3.4c0.2,1.2,0,2,0.4,2.2
	c0.5,0.2,1.7-0.9,1.8-2.1c0-1.1-0.9-1.5-0.7-2.5c0.1-0.7,0.7-0.7,0.8-1.4c0.1-0.7-0.4-1.4-1-2.3c-0.7-0.9-0.8-0.8-1-1.3
	c-0.5-1.2,0.2-2.6,0.5-3.2c0.4-0.8,0.5-0.7,1.4-1.9c1.2-1.7,1.1-2.2,1.8-2.5c1-0.5,1.7,0.3,2.4-0.2c1-0.7,0-2.7,1-3.6
	c0.9-0.8,2.2,0,2.8-0.7c0.5-0.7-0.4-1.4,0-2.4c0.5-1.1,1.8-0.7,3.4-2.1c1-0.9,1.1-1.5,1.6-1.5c1,0,1,2.3,2.6,3
	c1.3,0.5,2-0.6,3.8-0.1c1.1,0.3,1.2,0.8,2.3,1c0.7,0.1,1.3-0.1,2.6-0.4c1.7-0.5,2.5-0.7,2.6-1.2c0.1-0.5-0.9-0.9-2-1.9
	c-2-1.8-1.3-3.2-3-5.3c-0.9-1-0.9-0.5-3.7-2.6c-2.2-1.6-2.3-2.1-4.4-3.6c-1.6-1.2-2.4-1.7-3.6-2.2c-1.8-0.6-3.3-0.6-5.5-0.6
	c-0.9,0-2.5,0.2-5.5,0.5c-3.4,0.4-5.1,0.5-5.8,0.8c-2.4,0.9-2,1.7-4.8,2.9c-2.7,1.2-3.6,0.6-5.1,1.9c-1.2,1-0.8,1.5-2.4,3.3
	c-1.4,1.6-1.9,1.4-3.2,2.9c-0.8,0.9-2.2,2.5-2.4,4.7c-0.1,1.1,0.2,1,0.3,2.7c0.1,2.4-0.6,2.9-0.5,5c0,1.3,0.2,0.8,0.8,4.2
	c0.6,3.3,0.4,3,0.6,3.7c0.6,1.8,1.1,1.4,2,3.7c0.3,0.8,0.6,1.7,1.4,2.6c0.4,0.6,0.9,1,1,1c1.1,1,1.6,0.8,2.2,1.5
	c0.7,0.8,0.3,1.3,1,2c0.8,0.8,1.4,0.3,2.3,0.9c1.3,1,0.5,2.8,1.8,3.7c0.4,0.3,0.8,0.3,1.2,0.9c0.4,0.5,0.3,0.9,0.6,1
	c0.4,0.2,0.7-0.3,1.5-0.4c0.8-0.1,1.4,0.4,1.5,0.3C160.817,49.6,158.917,48.4,159.117,47.1z"/>
<path fill="none" stroke="#111111" stroke-width="0.75" stroke-linecap="round" stroke-linejoin="round" stroke-miterlimit="10" d="
	M172.316,31.9c1-0.4,2.7-1,4.9-1.1c2.1-0.1,3.7,0.2,4.8,0.5"/>
<path fill="none" stroke="#111111" stroke-width="0.75" stroke-linecap="round" stroke-linejoin="round" stroke-miterlimit="10" d="
	M187.517,31.1c0.8-0.3,1.8-0.7,3-0.9c1.6-0.3,3-0.3,4-0.2"/>
<path fill="none" stroke="#111111" stroke-width="0.75" stroke-linecap="round" stroke-linejoin="round" stroke-miterlimit="10" d="
	M522.117,137.2c0.8,0,1.8,0,2.8-0.3c1.7-0.3,3.1-0.9,4.1-1.4"/>
<path fill="none" stroke="#111111" stroke-width="0.75" stroke-linecap="round" stroke-linejoin="round" stroke-miterlimit="10" d="
	M271.717,303.5c2.4-0.3,5.3-0.6,8.5-0.5c7.1,0.2,9.7,1,10.7,1.5c2.3,1,3.7,2.2,4.1,2.6c1.4,1.2,2.2,2.5,2.8,3.4l-0.6,1.2
	c0.1,0.2,0.1,0.399,0.2,0.7c2.7,8.899,1.6,17,1.1,17c-0.4,0-0.1-4.601-2.6-11.801c-1.1-3.3-2.1-5.199-2.2-5.199
	c-0.1,0,2.8,4.8,2.7,10.899c0,5.3-2.2,9.601-2.7,9.5c-0.4-0.1,0.7-3.8,0.2-9.6c-0.5-5.7-2.5-10-2.6-10c0,0,0.7,2.399,1.3,5.399
	c1.4,6.5-2,12.801-2.6,12.7c-0.5-0.1,0.8-4.2-0.1-10.899c-0.5-3.801-1.5-6.601-1.5-6.601c-0.1,0,0.8,2.3,0.6,5.4
	c-0.1,3.3-1.3,6.2-1.7,6.1c-0.3-0.1-0.1-1.8-0.4-4.6c-0.4-3.2-1.3-5.8-1.7-6.7c-2.6-5.8-14.7-6-15.7-6
	C270.317,306.6,271.017,305,271.717,303.5z"/>
<path fill="none" stroke="#111111" stroke-width="0.75" stroke-linecap="round" stroke-linejoin="round" stroke-miterlimit="10" d="
	M299.117,326.8c1.3,3.601,1.9,4.4,2.2,4.4c0.5-0.101-0.7-4.101-0.2-9.601c0.5-5.699,2.5-10,2.6-10c0,0-0.7,2.4-1.3,5.4
	c-1.4,6.5,2,12.8,2.6,12.7c0.5-0.101-0.8-4.2,0.1-10.9c0.5-3.8,1.5-6.6,1.5-6.6c0.1,0-0.8,2.3-0.601,5.399
	c0.101,3.301,1.301,6.2,1.7,6.101c0.3-0.101,0.101-1.8,0.4-4.601c0.399-3.199,1.3-5.8,1.7-6.699c2.6-5.801,14.699-6,15.699-6"/>
<path fill="none" stroke="#111111" stroke-width="0.75" stroke-linecap="round" stroke-linejoin="round" stroke-miterlimit="10" d="
	M298.417,316.3c1.8-3.7,2.799-5.5,2.899-5.399c0.2,0.1-0.699,2.5-2.599,7.199"/>
<path fill="none" stroke="#111111" stroke-width="0.75" stroke-linecap="round" stroke-linejoin="round" stroke-miterlimit="10" d="
	M323.316,301.9c-1.601-0.4-4-0.7-6.9-0.7s-8.1,0.1-13.4,3.3c-1.4,0.8-3.5,2.3-5.6,4.7c0.2,0.3,0.4,0.5,0.7,0.8
	c-0.1,0.2-0.3,0.5-0.4,0.8c-0.1,0.3-0.3,0.601-0.4,0.9"/>
<path fill="none" stroke="#111111" stroke-width="0.75" stroke-linecap="round" stroke-linejoin="round" stroke-miterlimit="10" d="
	M63.017,366.6c-0.1,0.5,0.2,1,5.3,5.2c3.7,3.101,5.7,4.5,8.4,6.7c5.5,4.4,6.9,5.8,7.1,5.6c0.4-0.399-1.9-4.199-5.1-7.1
	c-1.9-1.7-3.5-2.6-3.4-2.6c0,0,4.1,1.899,7.5,5.899c3.1,3.601,4,7,4.5,6.8c0.4-0.1,0-2.899-1.1-5.6c-2.4-5.7-7.1-8.7-7.1-8.7
	s4.2,2.4,7.9,7.7c3.3,4.7,4.1,8.9,4.5,8.7c0.4-0.101,0-4.101-1.7-8.2c-2.5-6.1-6.8-9.7-6.7-9.7c0,0,2.6,2.4,6,6.9
	c3.9,5,5.1,7.8,5.4,7.6c0.4-0.2-1.9-8.1-8-14.899c-2.3-2.601-4.2-4.7-7.4-6.101C72.117,361.9,63.417,364.1,63.017,366.6z"/>
<path fill="none" stroke="#111111" stroke-width="0.75" stroke-linecap="round" stroke-linejoin="round" stroke-miterlimit="10" d="
	M573.417,262.2c-4,6-8,12.1-12,18.1c-0.4-2.1-0.7-5.2-0.3-8.7c0.899-6.399,3.899-10.899,5.6-13"/>
<path fill="none" stroke="#111111" stroke-width="0.75" stroke-linecap="round" stroke-linejoin="round" stroke-miterlimit="10" d="
	M441.417,288.8c1.6,2.9,3.2,5.8,4.8,8.601"/>
<path fill="none" stroke="#111111" stroke-width="0.75" stroke-linecap="round" stroke-linejoin="round" stroke-miterlimit="10" d="
	M446.116,297.4c-2.8,0.399-5.601,0.699-8.3,1.1"/>
<path fill="none" stroke="#111111" stroke-width="0.75" stroke-linecap="round" stroke-linejoin="round" stroke-miterlimit="10" d="
	M253.717,325.4c-0.9-0.601-1.9-1.2-2.8-1.801"/>
<path fill="none" stroke="#111111" stroke-width="0.75" stroke-linecap="round" stroke-linejoin="round" stroke-miterlimit="10" d="
	M341.017,319.9c1.4-0.9,2.801-1.801,4.2-2.7"/>
<path fill="none" stroke="#111111" stroke-width="0.75" stroke-linecap="round" stroke-linejoin="round" stroke-miterlimit="10" d="
	M205.317,379c-0.2-0.1,0.1-1.9,0.6-4.3c0.7-3.3,1.4-6.4,1.5-6.4c0,0-0.7,3.4-1.5,6.4c-0.8,3.1-1.8,7.1-2.2,7.1
	c-0.3-0.1,0-3.7,0.4-6.399c0.6-4.101,1.6-7.4,1.6-7.4c0.1,0-0.7,3.8-1.6,7.4c-0.7,2.899-2.4,8.8-2.8,8.699
	c-0.5-0.1,0.7-7.699,0.9-8.8c0.6-3.5,1.3-7.1,1.3-7c0,0-0.4,3.3-1.3,7c-0.7,3-2,7.4-2.4,7.3c-0.6-0.1,0.3-8.1,0.9-13
	c0,0,0.4-4.899,0.2-4.899c-0.1,0-0.2,2-1.3,4.3c-0.1,0.2-1.2,2.6-1.7,2.4c-0.6-0.2,0.2-4,0.9-8.9c0.6-4.4,0.9-8.2,1-10.7
	c1.1-0.8,2.3-1.6,3.4-2.399c1.1,1.199,2.7,3.199,3.9,6c1.8,4.199,1.9,7.8,1.9,9.899c0,1.2,0,4.3-1.1,8.101
	C207.017,376.1,205.617,379.1,205.317,379z"/>
<path fill="none" stroke="#111111" stroke-width="0.75" stroke-linecap="round" stroke-linejoin="round" stroke-miterlimit="10" d="
	M599.416,345.6c-7.7,4.101-11.7,7.301-14,9.5c-0.3,0.301-1.3,1.301-2.7,2.601c-2.899,2.7-5.399,4.8-6.899,6.1
	c1.899-0.6,3.699-1.3,5.6-1.899c-0.2,1.5-0.4,3.699-0.2,6.399c0.3,4.601,1.5,8.601,1.9,8.601c0.3,0-0.101-2.5,0.2-8
	c0.1-2.101,0.199-4.4,0.399-4.4c0.101,0,0,2.5,0.2,5.4c0.4,5.8,1.7,10.399,1.9,10.3c0.199,0-0.601-4-0.2-10c0.2-2.7,0.6-5.3,0.8-5.3
	s0,2.1,0.3,5.1c0.3,4.3,1.2,8.3,1.601,8.3c0.3,0-0.101-2.899,0.199-7.8c0.301-4.3,0.9-7.8,1.101-7.8c0.1,0-0.2,2.3,0.2,5.8
	c0.199,2.7,0.8,5.5,1.1,5.5s0.1-2.5,0.4-6.1c0.3-3.301,0.899-6.101,1.3-7.301c0.5-1.699,2.3-6.699,10.1-11.399
	C601.416,348,600.416,346.8,599.416,345.6z"/>
<path fill="none" stroke="#FFFFFF" stroke-miterlimit="10" d="M370.417,155.7c-0.7,3.1-2,7.5-5,12.2c-2.2,3.5-4.7,6.2-6.7,8.1"/>
<path fill="none" stroke="#111111" stroke-width="0.75" stroke-linecap="round" stroke-linejoin="round" stroke-miterlimit="10" d="
	M370.017,81.9c1.801,0.7,4.2,1.4,7.2,1.7c5.4,0.5,9.8-0.9,12.101-1.8"/>
<path fill="none" stroke="#FFFFFF" stroke-miterlimit="10" d="M378.517,88.4c0.7-0.5,5.601,4.2,5,5c-0.199,0.4-1.399,0-1.6-0.1
	C379.017,92.4,378.017,88.8,378.517,88.4z"/>
<path fill="none" stroke="#111111" stroke-width="0.75" stroke-linecap="round" stroke-linejoin="round" stroke-miterlimit="10" d="
	M291.517,238.4c2.1,0.6,5,1.2,8.4,1.2c3.7,0,6.8-0.6,8.9-1.3"/>
<path fill="none" stroke="#FFFFFF" stroke-miterlimit="10" d="M300.917,257.4c0.3-0.2,2.1,1.1,2.6,3c0.1,0.699,0.2,1.8-0.1,1.899
	C302.717,262.5,300.417,257.8,300.917,257.4z"/>
<path fill="none" stroke="#111111" stroke-width="0.75" stroke-linecap="round" stroke-linejoin="round" stroke-miterlimit="10" d="
	M527.316,157.9c2.5,0.4,5.399,0.7,8.399,0.8c6.5,0.2,12-0.6,16.5-1.7"/>
<path fill="none" stroke="#FFFFFF" stroke-width="0.75" stroke-linecap="round" stroke-linejoin="round" stroke-miterlimit="10" d="
	M536.617,181c0.399,2.4,1.2,6,2.399,10.4c1.2,4.2,2.101,6.8,2.601,8.2c2.1,6.5,4.2,17.5,1,27.7c-2,6.4-5.101,9.7-4.7,16.9
	c0.2,4,1.3,7.2,2.3,9.3"/>
<path fill="none" stroke="#FFFFFF" stroke-width="0.75" stroke-linecap="round" stroke-linejoin="round" stroke-miterlimit="10" d="
	M529.717,250.1c1-3.5,2.101-7.1,3.2-10.6c1.3-4.1,2.6-8.2,3.9-12.3"/>
<path fill="none" stroke="#FFFFFF" stroke-width="0.75" stroke-linecap="round" stroke-linejoin="round" stroke-miterlimit="10" d="
	M537.917,186.9c-3.8,6.6-4.3,8.3-3.9,8.5c0.4,0.3,1.601-0.9,2.101-1.4C538.617,191.3,538.017,187.5,537.917,186.9z"/>
<path fill="none" stroke="#111111" stroke-width="0.75" stroke-linecap="round" stroke-linejoin="round" stroke-miterlimit="10" d="
	M133.417,211.8c1.8-0.7,6.3,6.3,8.9,11.3c3.4,6.4,5.9,13.9,5,14.4c-0.4,0.2-1.6-1-5.4-7.1c-1,3.3-2.4,8-4.7,13.5
	c-0.2,0.5-3.1,7.7-3.6,7.5c-0.3-0.1,0.4-2.5,1.7-8.7c0.5-2.5,0.9-4.5,1.2-5.9c-0.6,1.3-1.6,3-2.8,5.1c-2.7,4.7-6.6,10.8-7.1,10.5
	c-0.6-0.3,4-10.2,4.3-10.7c1.7-3.7,3.1-6.1,2.8-6.3c-0.2-0.1-1.6,1.8-3.9,4.6c-3.1,3.6-6.7,7-7,6.7c-0.5-0.4,5.5-8.4,6.1-9.1
	c1.8-2.4,3.3-4.3,3.1-4.5c-0.2-0.2-1.2,0.9-3.6,2.7c-1.3,1-4.7,3.6-5,3.3c-0.1-0.1,0-0.4,3.2-4.1c1.8-2.2,1.9-2.3,2.3-2.8
	c1.8-2.4,2.6-4.8,3-6.1C134.217,218.8,131.817,212.5,133.417,211.8z"/>
<path fill="none" stroke="#111111" stroke-width="0.75" stroke-linecap="round" stroke-linejoin="round" stroke-miterlimit="10" d="
	M342.516,209.7c1-0.3,2.4,1.1,3.801,2.6c0.399,0.4,0.7,0.8,0.9,1.1c0.601,0.9,1.699,2.4,2.699,4.4c1.6,3.5,2.6,8.2,2.1,8.4
	c-0.399,0.1-1.999-2.5-2.898-4.9c-0.4-1.1-0.501-1.5-0.701-1.5c-0.7,0-1,7-0.9,13.1c0.101,5.4,0.501,8.2,0.102,8.3
	c-0.4,0.1-1.701-3.6-2.201-7.6c-0.5-4.5,0.1-7.9,0-7.9s-0.8,2.8-0.9,6.4c-0.3,7.2,1.801,11.9,1.301,12c-0.4,0.1-3.399-4.7-3.6-11
	c-0.1-4,0.799-7.2,0.699-7.2s-0.999,2.6-1.199,6c-0.399,5.9,1.499,10,1.199,10.1s-3-4.7-2.9-10.9c0.101-3.1,0.802-6,0.701-6
	c-0.1,0-0.601,1.7-0.9,3.6c-0.801,4.1-0.801,6.9-0.9,6.9s-0.6-2.8-0.4-6.8c0.301-4.3,1.101-4.7,1.9-9.8
	C341.416,212.8,341.116,210.1,342.516,209.7z"/>
<path fill="none" stroke="#111111" stroke-width="0.75" stroke-linecap="round" stroke-linejoin="round" stroke-miterlimit="10" d="
	M488.417,288.4c-0.4,0.399-0.7,0.699-1.1,1.1c-0.301,0.3-4.7,4.4-5,4.1c-0.2-0.199,1.1-1.6,4-5.5c1.199-1.6,2.1-2.899,2.699-3.699
	c-0.899,0.699-2.1,1.6-3.6,2.699c-3.4,2.4-8.1,5.4-8.4,5.101c-0.3-0.4,6.101-5.8,6.4-6.101c2.4-2,4.1-3.3,4-3.5
	c-0.1-0.199-1.7,0.801-4.2,1.9c-3.3,1.5-6.899,2.7-7.1,2.4c-0.2-0.4,6.6-4.101,7.1-4.4c2-1.1,3.7-1.9,3.601-2.1
	c-0.101-0.2-1.101,0.199-3.4,0.699c-1.2,0.301-4.5,1-4.6,0.7c0-0.1,0.1-0.2,3.5-1.899c2-0.9,2.1-1,2.5-1.2c2-1.101,3.3-2.5,4.1-3.3
	c3.9-4.301,4.3-9.5,5.6-9.4c1.5,0.1,2.4,6.4,2.601,10.8c0.1,1,0.1,2.101,0.1,3.101"/>
<path fill="none" stroke="#111111" stroke-width="0.75" stroke-linecap="round" stroke-linejoin="round" stroke-miterlimit="10" d="
	M506.917,276.6c-14.2,4.7-21.2,7.301-21,7.7c0.1,0.2,2.3-0.2,6.7-1.3c-1,1-2.2,2.3-3.3,4.1c-4.2,6.801-3.301,14.101-2.801,14.2
	c0.5,0.101,0.801-5,4.5-12.3c0.7-1.4,1.801-3.7,2.101-3.6c0.3,0.1-1.101,3.5-1.601,7.5c-0.8,6.899,1.9,12.399,2.2,12.399
	s-1.1-4.5-0.2-11.1c0.601-4.2,1.801-7.2,1.9-7.101c0.1,0-1.3,3.4-1,7.9c0.3,4.2,2.1,7.5,2.4,7.5c0.3-0.1-0.7-3-0.601-7.8
	c0-3.601,0.601-5.9,0.601-5.9s-0.9,3.2,0,7.101c0.5,2,1.3,4,1.6,4c0.2,0,0-1.5-0.1-3.301c-0.101-1.8,0.1-4.199,0.899-7.1
	c3.3-3.4,6.601-6.8,9.9-10.1"/>
<path fill="none" stroke="#1D1D1B" stroke-width="0.75" stroke-linecap="round" stroke-linejoin="round" stroke-miterlimit="10" d="
	M467.717,471.5c-0.3,1.3-0.8,3.1-2.1,4.7c-3.8,4.6-9.5,2.6-17.7,4.8c-7.5,2-9.1,5.4-14,7.9c-0.5,0.3-2.4,1.199-4.9,1.899
	c-2.199,0.601-6.1,1.3-11.199,0.4c-0.2-0.2-0.4-0.4-0.7-0.7c-0.7-0.6-1-0.7-1.2-1c-0.3-0.4-0.5-1.1-0.1-2.6
	c1.1-1.4,2.399-2.9,3.8-4.4c4.3-4.5,8.7-8,12.6-10.6c0.101-0.101,0.3-0.4,0.5-0.7c0.2-0.4,0.2-0.8,0.2-1V470.1
	c0-0.699,5.6-5.8,7.5-9c0.6-1,1.3-2.5,1.5-4.699"/>
<path fill="none" stroke="#1D1D1B" stroke-width="0.75" stroke-linecap="round" stroke-linejoin="round" stroke-miterlimit="10" d="
	M442.017,456.5c0.5-0.2,1.101-0.5,1.301-1.1c0.199-0.601-0.101-1.101,0.199-1.301c0.301-0.199,0.9,0.5,1.7,0.9
	c1.9,1,3.7,0.1,3.8,0.7c0.2,1.1-2.899,1.7-2.899,3.1c0,2.7,12.899,5.101,15.6,2.3c0.2-0.199,1.9-2,1.9-2c0.399,0,0.899,0,1.6,0.2
	c0.2,0,1.3,0.3,1.8,0.8c0.801,0.7,0.4,3.601,0.301,5.7c-0.101,1.4,0,3.3,0.5,5.7"/>
<path fill="none" stroke="#1D1D1B" stroke-width="0.75" stroke-linecap="round" stroke-linejoin="round" stroke-miterlimit="10" d="
	M447.217,457.5c-3.899,3.3-6.3,6.5-7.8,8.9c-1.4,2.199-3,5.399-5,5.3c-0.7,0-1.2-0.4-1.5-0.7"/>
<path fill="none" stroke="#1D1D1B" stroke-width="0.75" stroke-linecap="round" stroke-linejoin="round" stroke-miterlimit="10" d="
	M417.816,491.2c0.699,0.3,1.8,0.6,3.1,0.899c0.5,0.101,2.1,0.301,5.3,0c1.9-0.199,5.5-0.6,8.601-2.199
	c1.5-0.7,2.899-1.801,2.899-1.801c0.601-0.399,1.101-0.8,1.7-1.3c1.3-1.1,2-1.899,3.1-2.7c0,0,0.7-0.5,1.801-1
	c2.6-1.199,5.8-1.5,8.199-1.699c6.9-0.5,7.601-0.5,9.2-1.101c1.5-0.6,3.2-1.2,4.5-3c1.7-2.3,1.601-4.899,1.5-5.8"/>
<path fill="none" stroke="#1D1D1B" stroke-width="0.75" stroke-linecap="round" stroke-linejoin="round" stroke-miterlimit="10" d="
	M464.817,462c-0.101,1.2-0.101,2.8,0.3,4.6c0.5,2.601,1.6,4.5,2.399,5.7"/>
<path fill="none" stroke="#1D1D1B" stroke-width="0.75" stroke-linecap="round" stroke-linejoin="round" stroke-miterlimit="10" d="
	M453.916,472.9c-1.3-2.2-0.7-4.7,0.9-5.7c1.5-1,3.5-0.101,3.6-0.101c0.9-0.199,1.9-0.5,2.8-0.699"/>
<path fill="none" stroke="#1D1D1B" stroke-width="0.75" stroke-linecap="round" stroke-linejoin="round" stroke-miterlimit="10" d="
	M464.917,415.3c-0.5,1.5-1.5,3.7-3.2,6c-1.3,1.7-2.5,2.9-2.8,3.2c-1.4,1.3-3.9,3.2-7.9,4.5c-0.8-0.2-1.8-0.7-2.5-1.7
	c-2.3-3.399,2.801-9.1,5.801-17.1c1.3-3.4,2.699-8.601,2.899-15.4"/>
<path fill="none" stroke="#1D1D1B" stroke-width="0.75" stroke-linecap="round" stroke-linejoin="round" stroke-miterlimit="10" d="
	M471.117,384.6c0.399,0.2,1.1,0.601,1.7,1.2c0.699,0.7,1,1.3,1.3,1.8"/>
<path fill="none" stroke="#1D1D1B" stroke-width="0.75" stroke-linecap="round" stroke-linejoin="round" stroke-miterlimit="10" d="
	M457.217,394.8c0.2-0.399,0.3-1,0-1.399c-0.2-0.4-0.6-0.4-1-0.601c-1-0.5-1.7-1.7-1.5-2.3c0.4-0.9,3.9-1.2,4.8,0.3
	c0.801,1.2-1,2.7-0.399,3.8c0.899,1.7,6.2,1.2,9.5-1.199c0.8-0.601,3.2-2.4,3.1-4.601c0-0.1,0-0.1,0-0.3c-0.2-1.6-0.399-2.9-0.5-4"
	/>
<path fill="none" stroke="#1D1D1B" stroke-width="0.75" stroke-linecap="round" stroke-linejoin="round" stroke-miterlimit="10" d="
	M459.016,393.8c-1.199,4.4-1.199,7.5-1,9.601c0.101,0.899,0.4,2.699-0.699,4c-0.7,0.8-1.801,1.1-2.5,1.199"/>
<path fill="none" stroke="#1D1D1B" stroke-width="0.75" stroke-linecap="round" stroke-linejoin="round" stroke-miterlimit="10" d="
	M448.917,427.8c0.5,0.5,1.4,1.2,2.7,1.5c0.5,0.101,2.199,0.4,5.199-1.399c3-1.801,4.9-4.601,5.9-6.2c0.101-0.101,0.2-0.3,0.2-0.4"/>
<path fill="none" stroke="#1D1D1B" stroke-width="0.75" stroke-linecap="round" stroke-linejoin="round" stroke-miterlimit="10" d="
	M448.217,424.1c0.101,0.301,0.3,0.7,0.7,1c1.9,1.301,6.8-1.699,9.6-5.6c2-2.8,0.801-3.2,2.9-6.9c0.6-1.1,2.8-4.5,6.8-7.3"/>
<path fill="none" stroke="#1D1D1B" stroke-width="0.75" stroke-linecap="round" stroke-linejoin="round" stroke-miterlimit="10" d="
	M453.517,412.6c0.4-0.3,2.101-1.399,3.5-0.899c1.801,0.7,3,3.899,1.601,7.5"/>
<path fill="none" stroke="#111111" stroke-width="0.75" stroke-linecap="round" stroke-linejoin="round" stroke-miterlimit="10" d="
	M45.617,292.2c3.1,1.399,11.9,4.7,22.3,2c5-1.3,8.7-3.5,11.1-5.3"/>
<path fill="none" stroke="#FFFFFF" stroke-miterlimit="10" d="M97.417,372.3c1.4,1.9,4,4.8,8.101,7.101
	c3.2,1.8,6.099,2.699,8.199,3.1"/>
<path fill="none" stroke="#FFFFFF" stroke-miterlimit="10" d="M79.017,327.8c1.9,0.8,3.2,2.5,3.1,4.3c0,0.9-0.4,2.2-0.9,2.2
	C80.816,334.3,80.117,333.2,79.017,327.8z"/>
<path fill="none" stroke="#111111" stroke-width="0.75" stroke-linecap="round" stroke-linejoin="round" stroke-miterlimit="10" d="
	M184.117,55.4c0.6,0.4,1.6,1,2.8,1.3c0.9,0.2,1.7,0.3,2.4,0.3"/>
<path fill="none" stroke="#111111" stroke-width="0.75" stroke-linecap="round" stroke-linejoin="round" stroke-miterlimit="10" d="
	M163.217,73.5c1.6,0.9,7.2,3.9,14.5,2.6c4.8-0.9,8.1-3.3,9.6-4.6"/>
<path fill="none" stroke="#FFFFFF" stroke-width="0.75" stroke-linecap="round" stroke-linejoin="round" stroke-miterlimit="10" d="
	M178.817,85.4c-1.8,7.8-2.2,14.1-2.2,18.5c0,11,2.3,15.5,3.1,31.7c0.3,6.7,0.5,10,0.1,12.7c-1.9,12.3-8.7,16-7,24.3
	c0.6,3.1,1.6,2.7,4.6,10.4c1.8,4.7,2.9,8.6,3.6,11.2"/>
<path fill="none" stroke="#FFFFFF" stroke-width="0.75" stroke-linecap="round" stroke-linejoin="round" stroke-miterlimit="10" d="
	M208.816,108.4c0.6,12.3,2.5,25.2,6,38.6c0.3,1.3,0.7,2.5,1,3.7"/>
<path fill="none" stroke="#FFFFFF" stroke-width="0.75" stroke-linecap="round" stroke-linejoin="round" stroke-miterlimit="10" d="
	M188.417,154.4c1,3.2,3.1,8.1,7.1,12.9c2.6,3.1,5.3,5.3,7.5,6.8"/>
<path fill="none" stroke="#FFFFFF" stroke-width="0.75" stroke-linecap="round" stroke-linejoin="round" stroke-miterlimit="10" d="
	M168.617,148.9c-0.2,3.4-1.3,11.8-7.7,19.2c-3,3.5-6.2,5.8-8.7,7.1"/>
<path fill="none" stroke="#111111" stroke-width="0.75" stroke-linecap="round" stroke-linejoin="round" stroke-miterlimit="10" d="
	M181.016,457.1c-0.4-0.3-1.1-0.8-1.2-1.699c-0.1-0.9,0.5-1.7,1.8-3.301c1.1-1.399,1.7-2.1,2.5-2.199c0.9-0.101,1.2,0.699,2.3,1.3
	c0.6,0.399,1.3,0.6,6.2,0.5c3.2-0.101,4.2-0.2,5.8-0.2c0.1,0,1.5,0.1,2.8,0.2c0.8,0,0.9,0.1,1,0.1c3.3,0,6-1.399,9.5-3.1
	c2.7-1.4,4.3-2.5,5.9-1.9c0.7,0.3,1.2,0.8,1.6,1.2c-0.5-0.1-1.1-0.3-1.6-0.4c-1.2,1.2-2.4,2.4-3.6,3.601c0.6,1,1.3,1.899,1.9,2.899
	c-1.8,3.101-3.4,5.601-4.7,7.4c-3.3,4.7-5.3,7.4-8.9,9.9c-2.7,1.899-5.6,3.1-6.3,3.399c-3.3,1.3-3.5,0.9-5.9,2.101
	c-4.3,2.1-5.4,4.5-7.3,3.899c-0.8-0.3-1.3-1-2.1-2.6c-1.6-2.9-1.3-4.101-2.4-6.601c-1.6-3.6-4.3-5.399-3.9-5.899
	c0.3-0.4,1.4,0.7,2.9,0.399c1.6-0.3,2.5-1.8,3.3-3.199c0.7-1.2,1.5-2.4,1.2-3.801c-0.3-1.1-0.9-1.199-0.9-1.8
	c0.1-1.8,6.5-2.899,8.3-3.1c2.3-0.4,5.3-0.7,9.1-0.601"/>
<path fill="none" stroke="#111111" stroke-width="0.75" stroke-linecap="round" stroke-linejoin="round" stroke-miterlimit="10" d="
	M206.817,454.9c-4.7,3.399-7.6,6.8-9.3,9.1c-1.6,2.2-2.3,3.7-2,5.4c0.4,2.3,2.4,3.699,3.2,4.1"/>
<path fill="none" stroke="#111111" stroke-width="0.75" stroke-linecap="round" stroke-linejoin="round" stroke-miterlimit="10" d="
	M217.416,447.6c0.4,0,1,0.101,1.6,0.4c0,0,0.3,0.2,0.7,0.5c0,0,0.8,0.6,1.3,1.4c1.3,2-2.2,7.199-2.2,7.199
	c-4.9,7.301-9.4,11.301-9.4,11.301c-7.3,6.399-7.3,4.1-12.2,9.1c0,0-2.8,2.8-10.8,7.8c-0.3,0.2-1.2,0.8-2,0.4
	c-0.4-0.2-0.7-0.601-1.1-1.9c-0.3-0.8-0.6-1.8-1-3.1"/>
<path fill="none" stroke="#111111" stroke-width="0.75" stroke-linecap="round" stroke-linejoin="round" stroke-miterlimit="10" d="
	M195.017,459.9c-0.4,1-1.3,3.199-0.9,6.1c0.4,3.4,2.3,5.6,3,6.3"/>
<path fill="none" stroke="#111111" stroke-width="0.75" stroke-linecap="round" stroke-linejoin="round" stroke-miterlimit="10" d="
	M189.117,461.4c0.2,0.8,0.7,2.199,1.7,4c1.6,2.899,3.7,5.399,4.9,6.8"/>
<path fill="none" stroke="#111111" stroke-width="0.75" stroke-linecap="round" stroke-linejoin="round" stroke-miterlimit="10" d="
	M184.717,463.9c0.9,1.6,2.4,3.6,4.4,5.399c1.8,1.601,3.6,2.601,4.9,3.2"/>
<path fill="none" stroke="#111111" stroke-width="0.75" stroke-linecap="round" stroke-linejoin="round" stroke-miterlimit="10" d="
	M241.217,429.7c-0.1-0.5-0.4-1.3-1.1-1.7c-0.8-0.4-1.8-0.1-3.7,0.5c-1.7,0.6-2.6,0.9-2.9,1.6c-0.4,0.801,0.2,1.4,0.4,2.601
	c0.1,0.7,0.1,1.399-1.8,5.899c-1.2,3-1.7,3.9-2.2,5.301c0,0.1-0.4,1.399-0.9,2.699c-0.3,0.801-0.3,0.9-0.3,0.9
	c-1.1,3.1-3.4,5.2-6.2,7.8c-2.3,2.101-3.8,3.101-3.8,4.9c0,0.8,0.3,1.5,0.6,1.899c0.1-0.6,0.1-1.1,0.2-1.699
	c0.7-0.301,1.3-0.5,2-0.801c0.9,0.5,1.8,1,2.6,1.5c4.4-0.399,8.1-1.199,10.7-1.8c4.3-1.1,8.6-2.2,12.4-4.8c2.8-1.9,4.9-4.1,5.4-4.7
	c2.4-2.6,2.1-3,4-4.8c3.4-3.3,6.1-3.5,6.2-5.4c0.1-0.899-0.5-1.5-1.7-2.899c-2.1-2.5-3.4-2.601-5.4-4.601
	c-2.8-2.8-3.5-5.899-4.2-5.699c-0.4,0.1,0.2,1.5-0.6,2.899c-0.8,1.4-2.6,1.7-4.2,2c-2,0.4-2.5-0.3-4-0.2
	c-3.2,0.101-5.6,3.101-7.3,5.2c-2.3,2.8-3.3,5.9-3.8,8.3"/>
<path fill="none" stroke="#111111" stroke-width="0.75" stroke-linecap="round" stroke-linejoin="round" stroke-miterlimit="10" d="
	M230.117,453.1c5.8-1.5,9.8-3,12.5-4.199c1.2-0.5,3-1.4,4.9-0.7c1.8,0.7,2.6,2.8,3,3.8"/>
<path fill="none" stroke="#111111" stroke-width="0.75" stroke-linecap="round" stroke-linejoin="round" stroke-miterlimit="10" d="
	M219.617,460.4c-0.1,0.399-0.2,0.899-0.2,1.699c0,0,0,0.4,0.2,0.9c0.5,0.5,1.1,1,1.9,1.4c2.7,1.5,5.4,1,6.4,0.8
	c8.6-2,13.9-4.8,13.9-4.8c8.6-4.5,6.4-5.4,12.8-8.2c0,0,3.6-1.601,11.1-7.3c0.3-0.2,1.099-0.9,1.099-1.7c0-0.5-0.299-0.8-1.299-1.7
	c-0.6-0.5-1.5-1.2-2.5-2"/>
<path fill="none" stroke="#111111" stroke-width="0.75" stroke-linecap="round" stroke-linejoin="round" stroke-miterlimit="10" d="
	M239.017,443.8c1-0.1,3.5-0.1,6,1.3c3.4,1.801,4.7,4.801,5,5.7"/>
<path fill="none" stroke="#111111" stroke-width="0.75" stroke-linecap="round" stroke-linejoin="round" stroke-miterlimit="10" d="
	M130.317,442.8c-0.4,1-0.9,2.101-1.3,3.3"/>
<path fill="none" stroke="#111111" stroke-width="0.75" stroke-linecap="round" stroke-linejoin="round" stroke-miterlimit="10" d="
	M128.617,441.9c-0.7,1.699-1.1,2.5-1.4,3.6c0,0.1-0.4,1.4-0.8,2.7c-0.2,0.8-0.3,0.899-0.3,0.899c-1.1,3.101-3.4,5.2-6.2,7.801
	c-2.3,2.1-3.8,3.1-3.8,4.899c0,0.8,0.3,1.5,0.6,1.9c0.1-0.601,0.1-1.101,0.2-1.7c1.6-0.7,3.1-1.4,4.7-2.1c0.7,0.899,1.4,1.899,2,2.8
	c3.5-0.601,6.5-1.2,8.6-1.8c5.6-1.5,8.8-2.4,12.4-4.9c2.3-1.6,4.2-3.5,5-4.3"/>
<path fill="none" stroke="#111111" stroke-width="0.75" stroke-linecap="round" stroke-linejoin="round" stroke-miterlimit="10" d="
	M127.316,454.7c2.8-1.2,7.3-3,11.9-4.101c1.1-0.3,2.7-0.6,4.4-0.1c2.1,0.7,3.4,2.2,4,3.1"/>
<path fill="none" stroke="#111111" stroke-width="0.75" stroke-linecap="round" stroke-linejoin="round" stroke-miterlimit="10" d="
	M116.817,462.1c-0.1,0.4-0.2,1-0.2,1.7c0,0,0,0.4,0.2,0.9c0,0,0.3,0.899,0.8,1.7c1.4,1.899,7.5,0.5,7.5,0.5
	c8.6-2.101,13.9-4.9,13.9-4.9c8.6-4.6,6.4-5.4,12.8-8.2c0,0,0.3-0.1,1-0.5"/>
<path fill="none" stroke="#111111" stroke-width="0.75" stroke-linecap="round" stroke-linejoin="round" stroke-miterlimit="10" d="
	M250.816,434c2.1,0.8,3.9,1.3,5.1,1.6c1.7,0.5,2.9,0.7,4.1,1.7c0.8,0.7,1.2,1.4,1.4,2"/>
<path fill="none" stroke="#111111" stroke-width="0.75" stroke-linecap="round" stroke-linejoin="round" stroke-miterlimit="10" d="
	M354.016,426.8c-0.1-0.5-0.1-1.3,0.5-2c0.601-0.7,1.601-0.7,3.601-0.8c1.8-0.1,2.7-0.1,3.2,0.5c0.6,0.6,0.3,1.4,0.5,2.6
	c0.1,0.7,0.399,1.4,3.699,5c2.2,2.4,2.9,3.101,3.9,4.301c0.1,0.1,0.9,1.1,1.7,2.199c0.5,0.7,0.6,0.7,0.6,0.801
	c2.101,2.5,5,3.699,8.5,5.1c2.8,1.2,4.7,1.6,5.3,3.3c0.301,0.7,0.2,1.5,0.101,2c-0.2-0.5-0.5-1-0.7-1.5c-0.7,0-1.4,0-2.1,0
	c-0.601,0.8-1.301,1.601-1.9,2.3c-4.3,1.101-8,1.7-10.6,2c-4.4,0.5-8.801,0.9-13.301-0.3c-3.199-0.8-6-2.2-6.699-2.5
	c-3.101-1.6-3-2.1-5.4-3.1c-4.4-1.9-7-1.2-7.7-2.9c-0.3-0.8,0-1.6,0.5-3.3c1.101-3.1,2.3-3.6,3.5-6.1c1.7-3.601,1.3-6.801,1.9-6.801
	c0.5,0,0.399,1.5,1.6,2.5c1.3,1,3,0.7,4.601,0.4c2-0.3,2.3-1.1,3.6-1.6c3.1-1,6.3,1,8.6,2.3c3.101,1.899,5.101,4.399,6.4,6.399"/>
<path fill="none" stroke="#111111" stroke-width="0.75" stroke-linecap="round" stroke-linejoin="round" stroke-miterlimit="10" d="
	M372.517,444.9c-5.899,0.6-10.199,0.6-13.199,0.399c-1.301-0.1-3.301-0.3-4.801,1c-1.399,1.3-1.5,3.5-1.5,4.601"/>
<path fill="none" stroke="#111111" stroke-width="0.75" stroke-linecap="round" stroke-linejoin="round" stroke-miterlimit="10" d="
	M384.917,448.2c0.2,0.3,0.5,0.8,0.7,1.5c0,0,0.1,0.3,0.1,0.899c-0.3,0.601-0.7,1.301-1.3,2c-2,2.301-4.7,2.801-5.8,2.9
	c-8.8,1.1-14.7,0.2-14.7,0.2c-9.6-1.3-7.9-2.8-14.8-3.3c0,0-3.9-0.301-12.9-3.101c-0.399-0.1-1.399-0.399-1.6-1.2
	c-0.101-0.5,0-0.899,0.7-2.1c0.399-0.7,1-1.7,1.699-2.8"/>
<path fill="none" stroke="#111111" stroke-width="0.75" stroke-linecap="round" stroke-linejoin="round" stroke-miterlimit="10" d="
	M361.017,439.2c-1,0.3-3.3,1.1-5.199,3.3c-2.5,2.9-2.7,6.2-2.7,7.1"/>
<path fill="none" stroke="#111111" stroke-width="0.75" stroke-linecap="round" stroke-linejoin="round" stroke-miterlimit="10" d="
	M346.517,434.2c-1.699,1.5-3.2,2.5-4.2,3.3c-1.5,1-2.499,1.6-3.199,3c-0.5,0.9-0.601,1.7-0.7,2.3"/>
<path fill="none" stroke="#FFFFFF" stroke-width="0.75" stroke-linecap="round" stroke-linejoin="round" stroke-miterlimit="10" d="
	M634.117,314.8c9.6-2.1,13.899-6.1,16.1-9.399c2.7-4.101,2.3-7.7,5.601-18.101c1.399-4.5,2.899-8.1,3.8-10.5"/>
<path fill="#1D1D1B" d="M270.917,187c0.9-0.5,2.4-1.3,4-2.6c3.9-3,4.4-5.3,6.5-5.3c2.6,0,3.6,2.9,5.7,2.4c2-0.5,2-3.4,3.8-3.7
	c1.7-0.3,2.5,2.1,5.6,4.5c4.5,3.6,7.1,1.9,8.9,4.6c2.3,3.5-1.1,7.7,1.4,9.8c0.8,0.7,3.5,2.2,5.3,2.7c0.2,0.1,0.899,0.2,1.2,0.8
	c0.3,0.5,0.199,1.1,0,1.4c0.8-0.4,2.199-0.9,3.899-1c1.101-0.1,1.9-0.1,2.5,0.4c1.2,1,0.601,3.7,0.101,5.2
	c-1.101,2.7-3.301,4.2-4.9,5.2c-1,0.7-1.9,1.1-2.5,1.4c-0.6,1.4-1.3,2.8-1.9,4.2c1,2,1.801,2.3,2.301,2.3c1-0.1,1.1-1.6,2.6-2.2
	s2.5,0.5,3.3-0.2c0.7-0.6-0.1-1.7,0.7-3.2c0.5-1,1.1-0.9,1.8-1.8c0.8-1.2,0.4-1.9,0.9-3.8c0.6-2.8,1.8-2.7,2-4.9
	c0.2-2.1-0.9-2.7-0.3-4.1c0.6-1.4,1.8-1.2,2.8-2.5c1.399-1.8-0.101-3.6,0.1-7.2c0.3-4.7,2.9-5.7,2.101-8.7
	c-0.601-2.3-2.2-1.9-3.4-4.6c-1.6-3.7,0.7-6.1-1.1-8.4c-1.2-1.5-2.5-0.7-4.2-2.5c-1.7-1.8-1-3.3-2.4-4.8c-1.7-1.8-3.5-0.7-7.5-1.8
	c-5.4-1.5-5.6-4.5-9.6-4.6c-2.9-0.1-2.9,1.5-6.9,1.8c-4.1,0.3-5-1.3-7.6-0.4c-2.6,0.9-2.1,2.6-5.3,4.6c-3.6,2.3-5.5,1-7.7,3.3
	c-1.4,1.5-0.6,2-2.6,5.2c-1.9,3.1-3,3.1-3.6,5.1c-0.6,2.1,0.4,2.6,0.4,5.8c0.1,3.7-1.7,3.8-1.5,6.8c0.3,3.4,2.4,3.5,2.6,7.2
	c0.1,1.8-0.4,3.1,0.5,4c0.8,0.7,1.7,0.4,2.8,1.2c1,0.7,1.4,1.9,1.6,2.7C272.617,196.4,271.717,191.7,270.917,187z"/>
<g>
	<g id="OP01">
		<polygon fill="#00B0AE" points="690.187,445.144 690.187,422.315 699.491,422.315 699.491,439.414 707.639,439.414 
			707.639,445.144 		"/>
		<path fill="#8BC541" d="M693.763,422.315v10.352c0,4.519-1.063,7.789-3.187,9.813c-2.124,2.025-4.549,3.037-7.275,3.037
			c-1.971,0-3.845-0.559-5.622-1.676c-1.773-1.117-3.02-2.59-3.735-4.42c-0.715-1.83-1.074-4.231-1.074-7.204v-9.902H693.763z"/>
		<polygon fill="#FCB814" points="655.597,445.144 655.597,422.315 672.869,422.315 672.869,428.044 664.887,428.044 
			664.887,432.188 670.805,432.188 670.805,437.918 664.887,437.918 664.887,445.144 		"/>
		<path fill="#F48024" d="M637.82,422.315h13.721c2.377,0,4.244,0.65,5.603,1.952s2.036,2.93,2.036,4.885
			c0,2.153-0.799,3.839-2.395,5.056c2.266,2.813,3.619,6.458,4.061,10.936h-9.647c-0.175-2.882-0.571-5.012-1.191-6.388
			c-0.618-1.377-1.585-2.064-2.896-2.064v8.452h-9.29V422.315z"/>
		<path fill="#EE4035" d="M631.464,445.518c-3.001,0-5.544-1.145-7.632-3.434c-2.087-2.288-3.131-5.078-3.131-8.369
			c0-3.281,1.044-6.062,3.131-8.341c2.088-2.278,4.631-3.418,7.632-3.418c3.01,0,5.559,1.14,7.646,3.418
			c2.088,2.279,3.131,5.06,3.131,8.341c0,3.291-1.043,6.081-3.131,8.369C637.022,444.373,634.474,445.518,631.464,445.518z
			 M629.3,439.464l6.593-5.737l-6.593-5.731V439.464z"/>
		<polygon fill="#CA3091" points="610.545,445.144 610.545,422.315 619.848,422.315 619.848,439.414 627.996,439.414 
			627.996,445.144 		"/>
		<path fill="#644B9E" d="M603.861,445.518c-3,0-5.544-1.145-7.631-3.434c-2.088-2.288-3.131-5.078-3.131-8.369
			c0-3.281,1.043-6.062,3.131-8.341c2.087-2.278,4.631-3.418,7.631-3.418c3.01,0,5.559,1.14,7.646,3.418
			c2.088,2.279,3.132,5.06,3.132,8.341c0,3.291-1.044,6.081-3.132,8.369C609.42,444.373,606.871,445.518,603.861,445.518z"/>
		<path fill="#1479BE" d="M600.741,424.364l-3.895,8.063c-1.138-0.429-2.396-0.643-3.772-0.643c-1.972,0-2.958,0.583-2.958,1.75
			c0,0.559,0.274,0.995,0.826,1.31c0.55,0.313,1.335,0.47,2.353,0.47c1.377,0,2.561-0.269,3.552-0.808l3.895,8.647
			c-1.101,0.718-2.432,1.292-3.991,1.721c-1.561,0.428-3.051,0.643-4.473,0.643c-3.57,0-6.412-1.119-8.527-3.358
			c-2.115-2.238-3.172-4.994-3.172-8.266c0-3.46,1.102-6.314,3.303-8.563c2.203-2.25,5.001-3.374,8.396-3.374
			c1.467,0,2.984,0.217,4.549,0.65C598.39,423.041,599.695,423.627,600.741,424.364z"/>
	</g>
	<g id="OP01_1_">
		<g>
			<defs>
				<path id="SVGID_1_" d="M693.763,422.315v10.352c0,4.519-1.063,7.789-3.187,9.813c-2.124,2.025-4.549,3.037-7.275,3.037
					c-1.971,0-3.845-0.559-5.622-1.676c-1.773-1.117-3.02-2.59-3.735-4.42c-0.715-1.83-1.074-4.231-1.074-7.204v-9.902H693.763z"/>
			</defs>
			<clipPath id="SVGID_2_">
				<use xlink:href="#SVGID_1_"  overflow="visible"/>
			</clipPath>
			<polygon clip-path="url(#SVGID_2_)" fill="#1C9458" points="690.187,445.144 690.187,422.315 699.491,422.315 699.491,439.414 
				707.639,439.414 707.639,445.144 			"/>
		</g>
		<g>
			<defs>
				<path id="SVGID_3_" d="M637.82,422.315h13.721c2.377,0,4.244,0.65,5.603,1.952s2.036,2.93,2.036,4.885
					c0,2.153-0.799,3.839-2.395,5.056c2.266,2.813,3.619,6.458,4.061,10.936h-9.647c-0.175-2.882-0.571-5.012-1.191-6.388
					c-0.618-1.377-1.585-2.064-2.896-2.064v8.452h-9.29V422.315z"/>
			</defs>
			<clipPath id="SVGID_4_">
				<use xlink:href="#SVGID_3_"  overflow="visible"/>
			</clipPath>
			<polygon clip-path="url(#SVGID_4_)" fill="#F05E24" points="655.597,445.144 655.597,422.315 672.869,422.315 672.869,428.044 
				664.887,428.044 664.887,432.188 670.805,432.188 670.805,437.918 664.887,437.918 664.887,445.144 			"/>
		</g>
		<g>
			<defs>
				<path id="SVGID_5_" d="M631.464,445.518c-3.001,0-5.544-1.145-7.632-3.434c-2.087-2.288-3.131-5.078-3.131-8.369
					c0-3.281,1.044-6.062,3.131-8.341c2.088-2.278,4.631-3.418,7.632-3.418c3.01,0,5.559,1.14,7.646,3.418
					c2.088,2.279,3.131,5.06,3.131,8.341c0,3.291-1.043,6.081-3.131,8.369C637.022,444.373,634.474,445.518,631.464,445.518z"/>
			</defs>
			<clipPath id="SVGID_6_">
				<use xlink:href="#SVGID_5_"  overflow="visible"/>
			</clipPath>
			<path clip-path="url(#SVGID_6_)" fill="#E31D3B" d="M637.82,422.315h13.721c2.377,0,4.244,0.65,5.603,1.952
				s2.036,2.93,2.036,4.885c0,2.153-0.799,3.839-2.395,5.056c2.266,2.813,3.619,6.458,4.061,10.936h-9.647
				c-0.175-2.882-0.571-5.012-1.191-6.388c-0.618-1.377-1.585-2.064-2.896-2.064v8.452h-9.29V422.315z"/>
		</g>
		<g>
			<defs>
				<path id="SVGID_7_" d="M631.464,445.518c-3.001,0-5.544-1.145-7.632-3.434c-2.087-2.288-3.131-5.078-3.131-8.369
					c0-3.281,1.044-6.062,3.131-8.341c2.088-2.278,4.631-3.418,7.632-3.418c3.01,0,5.559,1.14,7.646,3.418
					c2.088,2.279,3.131,5.06,3.131,8.341c0,3.291-1.043,6.081-3.131,8.369C637.022,444.373,634.474,445.518,631.464,445.518z"/>
			</defs>
			<clipPath id="SVGID_8_">
				<use xlink:href="#SVGID_7_"  overflow="visible"/>
			</clipPath>
			<polygon clip-path="url(#SVGID_8_)" fill="#A21C37" points="610.545,445.144 610.545,422.315 619.848,422.315 619.848,439.414 
				627.996,439.414 627.996,445.144 			"/>
		</g>
		<g>
			<defs>
				<path id="SVGID_9_" d="M603.861,445.518c-3,0-5.544-1.145-7.631-3.434c-2.088-2.288-3.131-5.078-3.131-8.369
					c0-3.281,1.043-6.062,3.131-8.341c2.087-2.278,4.631-3.418,7.631-3.418c3.01,0,5.559,1.14,7.646,3.418
					c2.088,2.279,3.132,5.06,3.132,8.341c0,3.291-1.044,6.081-3.132,8.369C609.42,444.373,606.871,445.518,603.861,445.518z"/>
			</defs>
			<clipPath id="SVGID_10_">
				<use xlink:href="#SVGID_9_"  overflow="visible"/>
			</clipPath>
			<polygon clip-path="url(#SVGID_10_)" fill="#542E88" points="610.545,445.144 610.545,422.315 619.848,422.315 619.848,439.414 
				627.996,439.414 627.996,445.144 			"/>
		</g>
		<g>
			<defs>
				<path id="SVGID_11_" d="M600.741,424.364l-3.895,8.063c-1.138-0.429-2.396-0.643-3.772-0.643c-1.972,0-2.958,0.583-2.958,1.75
					c0,0.559,0.274,0.995,0.826,1.31c0.55,0.313,1.335,0.47,2.353,0.47c1.377,0,2.561-0.269,3.552-0.808l3.895,8.647
					c-1.101,0.718-2.432,1.292-3.991,1.721c-1.561,0.428-3.051,0.643-4.473,0.643c-3.57,0-6.412-1.119-8.527-3.358
					c-2.115-2.238-3.172-4.994-3.172-8.266c0-3.46,1.102-6.314,3.303-8.563c2.203-2.25,5.001-3.374,8.396-3.374
					c1.467,0,2.984,0.217,4.549,0.65C598.39,423.041,599.695,423.627,600.741,424.364z"/>
			</defs>
			<clipPath id="SVGID_12_">
				<use xlink:href="#SVGID_11_"  overflow="visible"/>
			</clipPath>
			<path clip-path="url(#SVGID_12_)" fill="#204393" d="M603.861,445.518c-3,0-5.544-1.145-7.631-3.434
				c-2.088-2.288-3.131-5.078-3.131-8.369c0-3.281,1.043-6.062,3.131-8.341c2.087-2.278,4.631-3.418,7.631-3.418
				c3.01,0,5.559,1.14,7.646,3.418c2.088,2.279,3.132,5.06,3.132,8.341c0,3.291-1.044,6.081-3.132,8.369
				C609.42,444.373,606.871,445.518,603.861,445.518z"/>
		</g>
	</g>
	<path fill="#4895D0" d="M609.074,454.805l-3.329,5.093c-1.389-0.725-2.671-1.088-3.85-1.088c-0.782,0-1.411,0.221-1.883,0.661
		c-0.474,0.44-0.71,1.022-0.71,1.748c0,1.375,0.83,2.063,2.491,2.063v-2.652h6.902v9.134c-2.791,0.17-4.681,0.255-5.667,0.255
		c-3.812,0-6.459-0.88-7.943-2.641s-2.227-3.814-2.227-6.159c0-1.612,0.346-3.094,1.037-4.439c0.691-1.347,1.688-2.39,2.992-3.129
		c1.303-0.74,2.846-1.11,4.63-1.11c1.253,0,2.548,0.198,3.89,0.594C606.749,453.529,607.971,454.086,609.074,454.805z
		 M614.781,452.807h10.18c1.763,0,3.148,0.482,4.155,1.447c1.008,0.966,1.512,2.174,1.512,3.624c0,1.598-0.593,2.849-1.776,3.751
		c1.681,2.086,2.685,4.79,3.012,8.112h-7.158c-0.129-2.139-0.423-3.718-0.883-4.739c-0.459-1.021-1.176-1.53-2.148-1.53v6.27h-6.893
		V452.807z M621.674,456.291v3.263h0.193c1.238,0,1.858-0.528,1.858-1.587c0-0.444-0.126-0.834-0.378-1.171s-0.67-0.505-1.256-0.505
		H621.674z M643.923,470.019c-2.226,0-4.113-0.849-5.661-2.547c-1.549-1.698-2.324-3.768-2.324-6.209
		c0-2.435,0.775-4.496,2.324-6.188c1.548-1.69,3.436-2.535,5.661-2.535c2.233,0,4.123,0.845,5.671,2.535
		c1.549,1.691,2.324,3.753,2.324,6.188c0,2.441-0.775,4.511-2.324,6.209C648.046,469.17,646.156,470.019,643.923,470.019z
		 M643.923,459.032c-0.442,0-0.811,0.169-1.103,0.505c-0.293,0.337-0.439,0.76-0.439,1.271c0,0.512,0.146,0.934,0.439,1.271
		c0.292,0.337,0.66,0.505,1.103,0.505c0.449,0,0.821-0.168,1.112-0.505c0.293-0.337,0.439-0.759,0.439-1.271
		c0-0.511-0.146-0.934-0.439-1.271C644.744,459.201,644.372,459.032,643.923,459.032z M672.085,452.807v7.68
		c0,3.351-0.788,5.777-2.364,7.279c-1.575,1.502-3.373,2.253-5.396,2.253c-1.463,0-2.854-0.414-4.17-1.243
		c-1.318-0.828-2.24-1.921-2.771-3.279c-0.531-1.356-0.797-3.139-0.797-5.344v-7.346h6.902v7.846c0,0.844,0.068,1.376,0.203,1.599
		c0.137,0.221,0.342,0.332,0.613,0.332c0.381,0,0.623-0.201,0.725-0.604s0.152-1.082,0.152-2.036v-7.136H672.085z M679.012,452.807
		h9.445c1.994,0,3.525,0.549,4.594,1.646c1.069,1.1,1.604,2.459,1.604,4.08c0,1.582-0.507,2.93-1.521,4.039
		c-1.015,1.109-2.235,1.665-3.666,1.665c-1.191,0-2.379-0.492-3.563-1.477v6.98h-6.893V452.807z M685.904,456.469v3.684
		c0.205,0.06,0.395,0.089,0.571,0.089c0.519,0,0.938-0.177,1.257-0.532c0.32-0.354,0.48-0.821,0.48-1.398
		c0-0.569-0.137-1.019-0.409-1.349c-0.272-0.329-0.66-0.493-1.164-0.493H685.904z M707.639,448.994H580.578v24.937h127.061V448.994z
		"/>
</g>
</svg>
