<?xml version="1.0" encoding="utf-8"?>
<!-- Generator: Adobe Illustrator 16.0.0, SVG Export Plug-In . SVG Version: 6.00 Build 0)  -->
<!DOCTYPE svg PUBLIC "-//W3C//DTD SVG 1.1//EN" "http://www.w3.org/Graphics/SVG/1.1/DTD/svg11.dtd">
<svg version="1.1" id="Layer_1" xmlns="http://www.w3.org/2000/svg" xmlns:xlink="http://www.w3.org/1999/xlink" x="0px" y="0px"
	 width="386px" height="385px" viewBox="0 0 386 385" enable-background="new 0 0 386 385" xml:space="preserve">
<path fill="#FF4A47" d="M306.118,241.389c7.138,4.98,8.952,14.772,4.044,21.991l-12.941-8.969L306.118,241.389z"/>
<path fill="#EAE8D3" d="M288.17,267.425c-7.138-4.979-8.952-14.772-4.044-21.991l12.94,8.969L288.17,267.425z"/>
<path fill="#49A6FF" d="M284.126,245.434c4.981-7.14,14.772-8.953,21.992-4.045l-8.97,12.941L284.126,245.434z"/>
<path fill="#FFC910" d="M310.162,263.38c-4.98,7.14-14.771,8.952-21.991,4.045l8.97-12.942L310.162,263.38z"/>
<path fill="#FFFFFF" stroke="#111111" stroke-width="0.75" stroke-miterlimit="10" d="M284.639,214.05
	c0.364,0.403,0.994,0.127,2.069,0.183c1.455,0.149,1.578,0.771,3.099,1.156c1.439,0.459,1.77,0.014,5.844,0.143
	c0.459,0.023,0.848-0.034,1.455,0.15c0.985,0.281,2.037,0.797,4.924,1.559c0.914,0.199,1.367,0.377,1.375,0.224
	c0.177-0.453-6.367-3.479-6.11-4.005c0.267-0.679,9.025,2.689,9.21,2.083c0.169-0.299-2.816-2.144-6.456-3.252
	c-1.593-0.466-2.896-0.608-2.887-0.763c0.008-0.153,0.856-0.188,8.778-0.018c0.767,0.039,1.462-0.003,1.389-0.083
	c0.089-0.227-2.645-0.981-5.32-1.348c-3.137-0.39-5.456-0.199-5.375-0.272c-0.066-0.233,8.809-0.632,8.758-1.173
	c0.017-0.307-2.586-0.593-4.972-0.637c-3.692-0.033-5.721,0.479-5.924-0.069c-0.341-0.863,3.526-2.746,3.243-3.223
	c-0.211-0.396-3.652,0.662-6.663,2.357c-0.396,0.211-1.671,1.069-3.988,2.724c-0.637,0.429-1.517,1.078-2.112,2.202
	C284.878,212.368,284.201,213.566,284.639,214.05z"/>
<path fill="#111111" d="M149.608,197.279c2.246-0.271,5.664-0.868,9.727-2.049c5.864-1.78,7.881-3.604,12.962-5.116
	c5.242-1.659,8.225-1.277,12.564-1.827c5.422-0.65,13.137-2.491,22.526-8.483c7.239,7.527,21.02,19.696,41.717,27.519
	c15.408,5.86,29.199,7.175,38.502,7.416c0.324-0.292,1.138-1.175,1.442-2.622c0.304-1.447-0.103-2.547-0.313-2.941
	c-3.654-0.801-7.447-1.917-11.297-3.421c-29.604-11.353-45.449-37.484-52.426-51.695c-0.113,0.687-0.675,2.66-2.33,3.423
	c-2.447,1.185-5.789-1.217-7.289-3.525c-1.703-2.858-1.267-6.916,1.055-10.186c-0.561-1.106-1.258-2.527-1.786-4.248
	c0,0-0.603-1.801-0.815-3.659c-0.459-3.104-1.164-28.698-1.841-63.992c-0.218-0.242-1.385-1.533-3.389-1.48
	c-1.925-0.021-3.222,1.3-3.384,1.445c-0.209,1.067-0.447,2.749-0.782,4.811c-6.562,41.394-5.517,63.311-16.055,67.705
	c-1.413,0.544-3.207,0.992-6.398,1.677c-4.904,1.061-9.646,1.975-15.086,1.469c-4.519-0.46-10.827-2.088-14.7-3.131
	c-1.14-0.289-3.874-1.043-6.635,0.28c-1.106,0.559-1.913,1.288-2.478,1.799c0.388-0.058,0.695-0.042,1.083-0.099
	c-1.479,7.931-1.015,13.96-0.304,18.153c0.67,3.498,1.85,7.561,1.482,13.316c-0.237,3.145-0.91,5.805-1.457,7.471
	c-0.598-0.338-1.043-0.668-1.642-1.007c-1.561,3.463-1.069,7.414,1.111,9.988C145.865,196.705,148.767,197.16,149.608,197.279z"/>
<path fill="#FFFFFF" d="M226.27,148.965c0.961-0.721,2.074-1.434,3.188-2.148c0.396-0.211,0.791-0.422,1.112-0.713
	c0.293,0.322,1.92,1.637,4.094,1.285c1.163-0.172,3.053-1,3.275-2.375c0.225-1.374-1.185-2.446-1.629-2.777
	c-1.847-1.556-4.246-1.293-4.869-1.17c0.396-0.211,1.035-0.641,1.826-1.063c1.26-0.552,2.188-0.659,3.045-0.846
	c0.621-0.123,5.444-1.11,5.772-3.018c0.008-0.154,0.081-0.073-0.505-2.181c-0.131-0.469-0.262-0.937-0.303-1.632
	c-0.125-2.085,0.351-2.369,0.209-4.147c-0.121-0.622-0.178-1.01-0.31-1.478c-0.682-1.729-1.118-2.213-1.299-3.223
	c-0.114-0.775,0.039-0.768,0.244-3.298c0.174-1.916,0.221-2.837-0.071-3.16c-0.729-0.807-2.158,0.045-6.826,1.04
	c-3.346,0.678-5.664,0.868-6.356,2.373c-0.17,0.299-0.274,0.833-0.765,1.424c-0.662,0.89-1.461,1.465-1.695,1.531
	c-1.422,0.697-3.461,2.981-6.485,6.446c-3.677,4.202-7.598,11.702-5.354,14.51c0.438,0.484,1.037,0.822,2.461,1.587
	c1.877,0.942,3.623,1.416,4.764,1.704"/>
<path fill="none" stroke="#111111" stroke-width="0.75" stroke-miterlimit="10" d="M226.27,148.965
	c0.961-0.721,2.074-1.434,3.188-2.148c0.396-0.211,0.791-0.422,1.112-0.713c0.293,0.322,1.92,1.637,4.094,1.285
	c1.163-0.172,3.053-1,3.275-2.375c0.225-1.374-1.185-2.446-1.629-2.777c-1.847-1.556-4.246-1.293-4.869-1.17
	c0.396-0.211,1.035-0.641,1.826-1.063c1.26-0.552,2.188-0.659,3.045-0.846c0.621-0.123,5.444-1.11,5.772-3.018
	c0.008-0.154,0.081-0.073-0.505-2.181c-0.131-0.469-0.262-0.937-0.303-1.632c-0.125-2.085,0.351-2.369,0.209-4.147
	c-0.121-0.622-0.178-1.01-0.31-1.478c-0.682-1.729-1.118-2.213-1.299-3.223c-0.114-0.775,0.039-0.768,0.244-3.298
	c0.174-1.916,0.221-2.837-0.071-3.16c-0.729-0.807-2.158,0.045-6.826,1.04c-3.346,0.678-5.664,0.868-6.356,2.373
	c-0.17,0.299-0.274,0.833-0.765,1.424c-0.662,0.89-1.461,1.465-1.695,1.531c-1.422,0.697-3.461,2.981-6.485,6.446
	c-3.677,4.202-7.598,11.702-5.354,14.51c0.438,0.484,1.037,0.822,2.461,1.587c1.877,0.942,3.623,1.416,4.764,1.704"/>
<path fill="#FFFFFF" d="M226.895,125.978c-3.266,3.684-5.147,4.359-6.223,4.304c-0.307-0.015-0.768-0.039-1.689-0.085
	c-2.15-0.109-2.457-0.125-2.699,0.094c-0.411,0.518-0.012,1.77,0.644,2.496c0.364,0.403,0.736,0.653,1.044,0.669"/>
<path fill="none" stroke="#111111" stroke-width="0.75" stroke-miterlimit="10" d="M226.895,125.978
	c-3.266,3.684-5.147,4.359-6.223,4.304c-0.307-0.015-0.768-0.039-1.689-0.085c-2.15-0.109-2.457-0.125-2.699,0.094
	c-0.411,0.518-0.012,1.77,0.644,2.496c0.364,0.403,0.736,0.653,1.044,0.669"/>
<path fill="#1D1D1B" stroke="#111111" stroke-width="0.75" stroke-miterlimit="10" d="M223.381,126.955
	c1.59-0.997,2.766-2.939,2.549-3.181c-0.365-0.404-4.617,2.999-4.576,3.694C221.491,127.783,222.663,127.458,223.381,126.955z"/>
<path fill="#1D1D1B" stroke="#111111" stroke-width="0.75" stroke-miterlimit="10" d="M227.414,130.931
	c1.232-1.554,3.561-1.898,3.844-1.422c0.35,0.711-3.839,4.348-4.502,3.775C226.311,132.954,226.76,131.668,227.414,130.931z"/>
<path fill="none" stroke="#111111" stroke-width="0.75" stroke-miterlimit="10" d="M214.512,137.899
	c0.293,0.323,1.881,2.405,4.418,2.457c0.614,0.031,1.163-0.172,1.633-0.302"/>
<path fill="none" stroke="#111111" stroke-width="0.75" stroke-miterlimit="10" d="M224.932,155.595
	c-0.283-0.477-0.625-1.341-0.562-2.569c0.124-2.458,2.118-3.819,2.36-4.038"/>
<path fill="none" stroke="#111111" stroke-width="0.75" stroke-miterlimit="10" d="M233.296,130.305
	c-0.05-0.541-0.157-1.47-0.644-2.496c-0.705-1.267-1.596-1.928-2.041-2.259"/>
<path fill="none" stroke="#111111" stroke-width="0.75" stroke-miterlimit="10" d="M228.628,123.679
	c-0.058-0.388-0.18-1.01-0.528-1.72c-0.488-1.026-1.225-1.679-1.67-2.009"/>
<path fill="#111111" d="M225.809,148.942c2.325,2.735,3.547,2.951,4.33,2.683c0.937-0.261,0.91-1.263,1.928-1.597
	c1.566-0.536,2.679,1.83,4.529,1.77c2.086-0.126,1.918-2.906,4.914-4.294c2.365-1.112,4.081-0.024,5.227-1.352
	c0.984-1.182,0.117-2.303,1.02-3.412c1.227-1.401,3.241-0.144,4.773-1.529c1.211-1.094,0.416-2.135,1.9-4.061
	c1.321-1.781,2.461-1.492,3.072-2.924c0.612-1.432,0.053-2.538-0.008-4.389c0.027-2.077,0.869-1.957,0.559-3.436
	c-0.303-1.632-1.313-1.452-2.125-3.649c-0.544-1.413-0.506-2.181-1.169-2.753c-0.737-0.654-1.06-0.362-2.022-1.104
	c-0.891-0.661-1.313-1.452-1.742-2.09c-0.989-1.743-0.586-2.108-1.242-2.834c-1.021-1.13-2.063-0.335-3.551-1.335
	c-1.563-1.08-1.564-2.542-2.486-2.589c-1.074-0.055-1.257,2.015-2.97,2.39c-0.856,0.188-1.213-0.369-2.077-0.028
	c-0.938,0.26-0.895,0.955-1.759,1.296c-1.414,0.545-2.597-0.439-3.087,0.152c-0.331,0.445,0.268,0.783-0.078,1.536
	c-0.362,1.059-1.817,0.909-2.421,2.187c-0.177,0.453-0.273,0.833-0.288,1.14c2.035-0.667,3.675-1.123,4.919-1.368
	c2.569-0.562,3.491-0.516,3.928-0.032c0.591,0.492,0.544,1.414,0.578,2.262c0.003,1.463-0.489,2.054-0.696,3.121
	c-0.248,1.836,1.047,2.132,1.528,4.774c0.758,3.272-0.913,4.342,0.272,6.789c0.283,0.476,0.633,1.186,0.44,1.946
	c-0.12,0.841-0.919,1.417-1.557,1.846c-1.913,1.289-3.353,0.831-6.017,1.774c-1.019,0.334-1.656,0.763-2.133,1.047
	c1.391-0.084,2.369,0.351,2.895,0.609c0.525,0.257,0.818,0.58,1.408,1.072c0.955,0.895,1.401,1.225,1.523,1.847
	c0.123,0.623-0.216,1.221-0.538,1.513c-0.919,1.416-2.705,1.711-3.092,1.768c-2.093,0.279-3.647-0.955-4.021-1.204
	c-0.637,0.429-1.348,0.778-1.986,1.208C227.545,148.106,226.673,148.601,225.809,148.942z"/>
<path fill="none" stroke="#111111" stroke-width="0.75" stroke-miterlimit="10" d="M157.282,146.087
	c-6.443-0.481-16.464-0.218-28.216,3.806c-4.701,1.609-8.876,3.476-12.436,5.375"/>
<path fill="#FFFFFF" d="M231.248,144.906c0.613,0.031,1.309-0.011,1.486-0.464c0.25-0.372-0.188-0.856-0.092-1.236
	c0.258-0.526,1.721-0.529,2.691,0.059c0.445,0.331,1.109,0.903,0.932,1.356c-0.096,0.38-0.483,0.437-0.959,0.721
	c-0.55,0.203-0.938,0.261-1.252,0.399"/>
<path fill="none" stroke="#111111" stroke-width="0.75" stroke-miterlimit="10" d="M231.248,144.906
	c0.613,0.031,1.309-0.011,1.486-0.464c0.25-0.372-0.188-0.856-0.092-1.236c0.258-0.526,1.721-0.529,2.691,0.059
	c0.445,0.331,1.109,0.903,0.932,1.356c-0.096,0.38-0.483,0.437-0.959,0.721c-0.55,0.203-0.938,0.261-1.252,0.399"/>
<path fill="none" stroke="#111111" stroke-width="0.75" stroke-miterlimit="10" d="M96.879,233.641
	c0.388-0.058,0.929-0.107,1.616,0.004c0.995,0.127,1.747,0.474,2.046,0.644c0.826,0.426,2.184,0.957,4.319,1.373
	c0.664,0.573,1.385,1.532,1.784,2.784c1.203,3.603-1.767,5.992-3.34,11.226c-1.47,4.698-0.189,6.765-0.441,10.216
	c-0.096,0.381-0.166,1.764-0.705,3.275c-0.457,1.439-1.423,3.777-3.625,6.206c-0.154-0.007-0.234,0.065-0.469,0.131
	c0,0-0.307-0.017-0.695,0.041c-0.614-0.031-1.536-0.077-2.28-0.577c-0.146-0.161-0.445-0.33-0.664-0.572
	c-0.469-4.412-0.938-8.824-1.562-13.244c-0.073-0.08-0.065-0.233-0.211-0.396c-0.138-0.315-0.438-0.483-0.438-0.483
	c-0.299-0.17-1.177-2.601-3.165-10.477"/>
<path fill="#FFC910" d="M86.808,233.361c-0.323,0.291-0.734,0.81-0.604,1.277c0.058,0.389,0.599,0.338,1.343,0.838
	c0.146,0.162,0.891,0.662,1.466,1.461c0.284,0.476,0.568,0.953,0.698,1.42c0.87,2.586,0.404,4.179,1.083,4.443
	c0.599,0.338,1.567-0.535,3.1-1.921c1.129-1.021,1.775-1.604,2.371-2.729c0.507-0.897,1.111-2.176,0.785-3.346
	c-0.448-1.795-2.21-1.961-2.424-3.82c-0.107-0.928,0.231-1.527-0.133-1.93c-0.292-0.324-0.986-0.281-1.455-0.152
	c0.073,0.082,0.073,0.082,0.065,0.236c-0.419,0.67-1.353,2.395-3.404,3.368C88.585,233.22,87.502,233.318,86.808,233.361z"/>
<path fill="none" stroke="#111111" stroke-width="0.75" stroke-miterlimit="10" d="M89.22,243.491
	c-0.065-0.234-0.13-0.468-0.349-0.71c-0.292-0.323-0.445-0.331-0.591-0.492c-0.203-0.549,1.03-2.104,1.71-1.838
	c0.679,0.265-0.036,2.23,0.636,2.65c1.416,0.918,7.118-5.261,6.547-7.676c0.008-0.154-0.448-1.794-0.448-1.794
	c0.089-0.226,0.331-0.444,0.653-0.737c0.081-0.071,0.646-0.582,0.96-0.721c0.864-0.341,1.804,0.861,3.221,1.78
	c0.744,0.5,1.788,1.168,3.228,1.626"/>
<path fill="none" stroke="#111111" stroke-width="0.75" stroke-miterlimit="10" d="M98.788,173.149
	c-3.243,3.223-14.785,15.264-17.491,32.218c-1.781,10.842,0.894,18.83,2.542,22.762c-0.25,0.373-0.346,0.753-0.596,1.125
	c0.453,0.178,0.986,0.281,1.439,0.458c-0.177,0.453-0.354,0.906-0.531,1.358c0.534,0.104,0.986,0.281,1.593,0.466
	c0.356,0.557,0.641,1.034,0.917,1.663c1.221,0.216,2.004-0.053,2.48-0.336c0.945-0.414,1.518-1.078,2.816-2.398
	c0.565-0.51,0.896-0.955,1.218-1.247c-0.372-0.25-0.744-0.499-1.189-0.829c0.411-0.519,0.822-1.037,1.233-1.555
	c-0.46-0.023-1.075-0.055-1.536-0.078c0.177-0.453,0.435-0.979,0.539-1.512c-0.534-0.104-1.067-0.208-1.601-0.313
	c-1.024-7.135,0.266-12.844,1.285-16.256c4.802-15.77,18.989-26.83,24.928-31.611c1.203-0.94,2.163-1.661,2.801-2.09"/>
<path fill="none" stroke="#111111" stroke-width="0.75" stroke-miterlimit="10" d="M89.985,242.068
	c0.904,3.433,2.104,5.572,3.117,6.854c0.43,0.638,1.297,1.761,1.081,2.979c-0.208,1.068-0.942,1.878-1.499,2.234"/>
<path fill="none" stroke="#111111" stroke-width="0.75" stroke-miterlimit="10" d="M98.153,269.271
	c0.388-0.057,1.01-0.18,1.567-0.535c0.711-0.35,1.437-1.006,2.225-2.891c1.304-2.937,1.59-5.539,1.636-6.461
	c0.078-1.535,0.044-2.384-0.128-3.548c-0.099-1.083-0.375-1.713-0.409-2.562c-0.05-0.541,0.054-1.074,0.07-1.381
	c0.031-0.615,0.366-2.677,1.915-4.369c0.653-0.736,0.637-0.43,1.21-1.094c1.226-1.4,1.465-3.082,1.631-4.844
	c0.231-1.527,0.27-2.296,0.002-3.08c-0.674-1.882-2.551-2.824-3.077-3.081"/>
<path fill="none" stroke="#111111" stroke-width="0.75" stroke-miterlimit="10" d="M38.279,191.333
	c0.057,0.388,0.026,1.002-0.159,1.608c-0.208,1.068-0.627,1.739-0.796,2.04c-0.427,0.824-1.103,2.021-1.753,4.222
	c-0.646,0.583-1.525,1.231-2.85,1.549c-3.66,0.815-5.808-2.372-10.791-4.317c-4.602-1.851-6.734-0.804-10.17-1.363
	c-0.38-0.096-1.754-0.319-3.186-0.932c-1.359-0.529-3.608-1.722-5.795-4.142c0.008-0.154-0.065-0.235-0.049-0.542
	c0,0,0.016-0.307,0.031-0.614c0.031-0.614,0.231-1.528,0.804-2.192c0.161-0.146,0.403-0.364,0.646-0.583
	c4.469-0.082,8.866-0.244,13.335-0.326c0.154,0.008,0.234-0.065,0.468-0.13c0.315-0.138,0.484-0.437,0.484-0.437
	c0.169-0.3,2.738-0.862,10.737-2.228"/>
<path fill="#FFC910" d="M40.836,180.376c-0.794-1.041-1.174-1.137-1.408-1.072c-0.388,0.057-0.338,0.599-0.838,1.343
	c-0.331,0.445-0.653,0.737-1.21,1.094c-0.484,0.437-0.718,0.502-2.301,1.346c-1.897,0.982-1.978,1.054-2.366,1.112
	c-0.695,0.042-1.543,0.076-1.697,0.068c-1.002,0.026-1.148-0.135-1.309,0.01c-0.411,0.519,0.951,2.512,1.891,3.715
	c1.377,1.686,2.682,3.292,4.598,3.466c0.307,0.015,1.229,0.062,2.1-0.433c0.477-0.284,0.565-0.51,1.21-1.093
	c0.807-0.729,1.775-1.604,3.003-1.542c1.002-0.026,1.585,0.619,1.989,0.255c0.403-0.365,0.289-1.14,0.158-1.609
	c-0.081,0.073-0.153-0.008-0.234,0.065c-0.672-0.419-2.226-1.652-3.046-3.695C40.824,182.146,40.878,181.071,40.836,180.376z"/>
<path fill="none" stroke="#111111" stroke-width="0.75" stroke-miterlimit="10" d="M161.189,160.142
	c-5.831-1.912-14.419-4.117-25.226-5.05c-23.305-1.95-41.624,4.051-57.988,9.458c-8.457,2.805-19.844,7.232-32.891,14.039
	c-0.526-0.257-1.052-0.515-1.578-0.773c0.049,0.542,0.107,0.93,0.156,1.471c-0.453-0.177-0.906-0.354-1.358-0.531
	c-0.177,0.453-0.281,0.987-0.458,1.44c-0.365-0.404-0.802-0.888-1.167-1.291c-0.112,0.687-0.397,3.29,1.321,5.841
	c1.151,1.598,2.575,2.363,3.254,2.628c-0.058-0.388-0.195-0.703-0.18-1.01c0.292,0.323,0.51,0.565,0.721,0.961
	c0.177-0.453,0.507-0.899,0.684-1.351c0.534,0.104,1.14,0.288,1.674,0.392c0.023-0.46-0.034-0.848-0.011-1.309
	c5.266-2.12,12.486-4.834,21.453-7.074c13.022-3.267,28.525-6.87,47.072-3.698c5.263,0.96,12.945,2.812,21.351,7.087
	c5.024,2.641,8.812,5.373,11.629,7.517"/>
<path fill="none" stroke="#111111" stroke-width="0.75" stroke-miterlimit="10" d="M29.243,182.791
	c0.154,0.008,0.469-0.13,0.784-0.268c0.396-0.211,0.331-0.445,0.564-0.51c0.549-0.204,1.942,1.176,1.677,1.855
	c-0.265,0.68-2.142-0.262-2.642,0.482c-1.072,1.409,4.622,7.548,7.029,7.131c0.153,0.008,1.786-0.294,1.786-0.294
	c0.146,0.161,0.445,0.33,0.737,0.653c0.073,0.08,0.583,0.645,0.56,1.106c0.188,0.856-0.934,1.723-2.079,3.051
	c-0.572,0.664-1.314,1.627-1.925,3.06"/>
<path fill="none" stroke="#111111" stroke-width="0.75" stroke-miterlimit="10" d="M30.506,183.702
	c-3.499,0.67-5.703,1.636-7.132,2.487c-0.638,0.43-1.905,1.136-3.045,0.847c-1.067-0.208-1.715-1.088-2.145-1.725"/>
<path fill="none" stroke="#111111" stroke-width="0.75" stroke-miterlimit="10" d="M2.657,189.373
	c0.057,0.388,0.026,1.002,0.302,1.632c0.349,0.711,0.924,1.51,2.721,2.525c2.767,1.602,5.362,2.042,6.203,2.161
	c1.528,0.231,2.45,0.278,3.532,0.179c1.156-0.019,1.705-0.222,2.626-0.175c0.614,0.031,0.994,0.128,1.301,0.143
	c0.607,0.186,2.588,0.594,4.272,2.295c0.656,0.727,0.349,0.711,1.013,1.283c1.32,1.299,2.921,1.611,4.667,2.084
	c1.447,0.305,2.208,0.497,3.063,0.311c1.947-0.441,2.962-2.237,3.3-2.836"/>
<path fill="none" stroke="#111111" stroke-width="0.75" stroke-miterlimit="10" d="M2.899,189.155
	c0.372,0.25,1.869,1.096,3.808,0.809c1.164-0.172,2.116-0.74,2.52-1.104"/>
<path fill="none" stroke="#111111" stroke-width="0.75" stroke-miterlimit="10" d="M96.779,269.048
	c0.242-0.219,1.153-1.481,1.004-3.104c-0.148-1.625-1.104-2.521-1.323-2.762"/>
<path fill="none" stroke="#111111" stroke-width="0.75" stroke-miterlimit="10" d="M146.878,173.66
	c-2.184-0.958-5.435-2.123-9.42-2.479c-2.911-0.301-5.383-0.119-7.395,0.087c0.749-1.117,2.225-2.889,4.598-4.155
	c4.99-2.75,10.222-1.176,11.281-0.814"/>
<path fill="none" stroke="#FFFFFF" stroke-width="0.75" stroke-miterlimit="10" d="M140.245,158.697
	c0.484-0.438,3.88-3.653,8.852-3.016c4.131,0.517,4.632,4.314,8.393,6.045c4.288,1.987,7.281-0.863,19.785-4.541
	c10.711-3.23,16.026-4.809,21.04-3.477c3.34,0.939,5.799,2.526,9.904,2.041c3.563-0.435,6.348-2.219,8.188-3.588"/>
<path fill="none" stroke="#FFFFFF" stroke-width="0.75" stroke-miterlimit="10" d="M153.096,175.515
	c3.303-1.373,6.679-2.665,9.982-4.037"/>
<path fill="none" stroke="#000000" stroke-width="0.75" stroke-linecap="round" stroke-linejoin="round" d="M85.341,228.128
	c1.112-0.358,2.055-0.696,3.048-1.289"/>
<path fill="none" stroke="#000000" stroke-width="0.75" stroke-linecap="round" stroke-linejoin="round" d="M87.072,230.044
	c0.797-0.344,1.535-0.685,2.271-1.136"/>
<path fill="none" stroke="#000000" stroke-width="0.75" stroke-linecap="round" stroke-linejoin="round" d="M45.692,184.452
	c-0.647-1.066-1.139-2.055-1.472-3.25"/>
<polygon fill="#CA3091" points="183.591,74.391 183.591,22.042 204.926,22.042 204.926,61.252 223.611,61.252 223.611,74.391 "/>
<path fill="#FFFFFF" stroke="#111111" stroke-width="0.75" stroke-miterlimit="10" d="M206.385,60.302
	c-0.395,0.211-0.563,0.51-0.805,0.729c0.217,0.242,0.444,0.331,0.663,0.572c0.882,0.814,1.378,1.687,1.653,2.316
	c0.414,0.945,1.039,2.285,0.904,3.433c-0.008,0.154-0.112,0.688,0.18,1.01c0.072,0.081,0.145,0.161,0.299,0.169
	c0.461,0.023,0.991-1.335,1.135-2.637c0.055-1.075-0.287-1.939-0.556-2.722c-0.276-0.63-0.479-1.179-0.479-1.179
	s0.203,0.549,0.408,1.098c0.268,0.784,0.52,1.874,0.676,3.345c0.396-0.211,1.106-0.56,1.379-1.393
	c0.009-0.154,0.178-0.453,0.07-1.382c-0.082-1.39-0.344-2.327-0.344-2.327s0.334,1.018,0.344,2.327
	c-0.031,0.614-0.054,1.075-0.07,1.382c0.47-0.13,1.1-0.407,1.519-1.078c0.903-1.109,0.608-2.895,0.608-2.895s0.05,0.541-0.063,1.229
	c-0.104,0.534-0.281,0.986-0.449,1.286c0.314-0.138,2.301-1.347,2.217-2.736c0.008-0.154-0.043-0.695-0.342-0.864
	c-0.371-0.25-0.783,0.269-1.164,0.172c-0.379-0.097-0.363-0.404-0.744-0.5c-0.379-0.096-0.768-0.039-0.849,0.034
	c-0.856,0.188-0.791,0.422-1.252,0.398c-0.307-0.016-0.38-0.096-0.841-0.12c-0.307-0.016-0.614-0.031-0.848,0.034
	c-0.549,0.203-0.815,0.882-0.903,1.109c-0.073-0.081-0.269-0.783-1.028-0.976C207.185,59.727,206.7,60.164,206.385,60.302z"/>
</svg>
