<?xml version="1.0" encoding="utf-8"?>
<!-- Generator: Adobe Illustrator 16.0.0, SVG Export Plug-In . SVG Version: 6.00 Build 0)  -->
<!DOCTYPE svg PUBLIC "-//W3C//DTD SVG 1.1//EN" "http://www.w3.org/Graphics/SVG/1.1/DTD/svg11.dtd">
<svg version="1.1" id="Layer_1" xmlns="http://www.w3.org/2000/svg" xmlns:xlink="http://www.w3.org/1999/xlink" x="0px" y="0px"
	 width="232px" height="169px" viewBox="0 0 232 169" enable-background="new 0 0 232 169" xml:space="preserve">
<path fill="#FFFFFF" stroke="#111111" stroke-width="0.75" stroke-miterlimit="10" d="M70.134,61.327
	c-0.979-2.284,3.479-4.458,3.697-9.46c0.109-1.305-0.217-1.74-0.435-2.718c0,0-0.108-0.435-0.108-1.087
	c-0.109-0.979,0.326-4.893,1.522-10.221c3.262,3.371,6.524,6.633,9.786,10.004c-3.588,3.479-5.001,4.784-5.654,5.001
	c-0.109,0.109-0.761,0.326-1.196,0.979c-0.217,0.218-0.326,0.435-0.326,0.544c-1.087,1.957-0.652,2.827-1.522,4.893
	c-0.543,1.305-1.305,3.153-2.718,3.371C71.982,62.958,70.678,62.414,70.134,61.327z"/>
<path fill="none" stroke="#111111" stroke-width="0.75" stroke-miterlimit="10" d="M75.789,48.496
	c0.435-0.435,0.87-1.087,0.652-1.631c-0.109-0.543-0.652-0.543-0.979-1.087c-0.109-0.326-0.218-0.979,0.435-1.957"/>
<path fill="none" stroke="#111111" stroke-width="0.75" stroke-miterlimit="10" d="M196.049,97.209
	c-1.412,0.436-3.479,1.305-5.763,2.719c-2.501,1.522-4.675,2.936-4.567,4.566c0.109,1.523,2.284,1.849,4.133,4.458
	c1.196,1.632,1.631,3.371,1.849,4.567c0.651,0.543,1.631,1.305,3.045,1.739c3.914,0.979,6.306-2.392,11.634-4.567
	c4.893-1.957,7.178-0.76,10.874-1.305c0.435-0.107,1.849-0.326,3.479-0.978c1.414-0.544,3.914-1.74,6.307-4.351
	c0.109-0.651,0.109-1.631-0.436-2.5c-1.74-2.936-7.938-1.197-15.113-1.849c-3.045-0.218-7.504-1.087-12.831-3.479"/>
<path fill="#EAE8D3" d="M181.588,100.906c-0.544-0.434-0.979-1.195-0.652-3.262c0.979,0.326,1.957,0.543,2.936,0.869
	c1.195,0.109,2.393-0.543,2.936-1.521c0.762-1.196,0.543-2.936-0.652-4.023c-0.652-0.436-1.413-0.762-2.066-1.195
	c0.109-0.219,0.327-0.545,0.762-0.979c0.326-0.326,0.652-0.652,1.088-0.761c0.979-0.218,1.957,0.869,2.065,1.087
	c0.761,0.87,0.544,1.413,1.306,2.719c0.435,0.652,0.869,1.087,1.086,1.305c1.85,1.739,4.35,2.065,5.764,2.283
	c0.761,0.108,1.305,0.108,1.74,0.108c0.108,0.326,0.217,0.871,0.217,1.631c0,0.327-0.217,1.632-2.066,3.372
	c-1.521,1.522-4.023,3.696-5.98,2.935c-0.435-0.107-0.979-0.435-1.739-0.978c-0.326-0.218-0.978-0.544-1.74-1.196
	c-1.413-1.088-1.304-1.195-1.848-1.523C183.327,100.798,182.35,101.559,181.588,100.906z"/>
<path fill="none" stroke="#111111" stroke-width="0.75" stroke-miterlimit="10" d="M198.768,96.123
	c-0.435,0-0.869-0.109-1.088-0.545c-0.217-0.326-0.109-0.543-0.109-0.979c0-0.869-0.651-1.957-1.195-1.957
	c-0.87-0.108-2.283,2.609-1.521,3.806c0.651,0.979,2.392,0.218,3.045,1.088c0.869,1.305-1.306,5.11-4.351,6.741
	c-0.761,0.435-3.044,1.631-4.567,0.652c-0.107,0-0.107,0-0.217-0.109c-1.087-0.76-2.065-1.412-2.826-1.848"/>
<path fill="none" stroke="#111111" stroke-width="0.75" stroke-miterlimit="10" d="M197.463,97.101
	c3.697,0.652,6.089,1.849,7.611,2.718c0.652,0.436,1.958,1.306,3.262,0.979c0.87-0.218,1.523-0.87,1.85-1.414"/>
<path fill="none" stroke="#111111" stroke-width="0.75" stroke-miterlimit="10" d="M226.93,101.885
	c0.219,0.543,0.326,1.522,0.109,2.609c-0.109,0.436-0.544,1.849-2.936,3.48c-2.066,1.305-4.242,1.957-6.959,2.282
	c-5.111,0.653-5.22-0.435-7.938,0.218c-5.437,1.196-6.198,5.764-10.547,6.09c-1.632,0.108-3.914-0.326-6.959-2.937"/>
<path fill="none" stroke="#111111" stroke-width="0.75" stroke-miterlimit="10" d="M199.747,54.911
	c-1.088,0.979-2.72,2.61-4.241,4.785c-1.631,2.392-3.152,4.567-2.393,6.089c0.762,1.414,2.828,0.761,5.546,2.393
	c1.739,1.087,2.827,2.501,3.479,3.479c0.87,0.326,2.066,0.543,3.479,0.326c4.024-0.652,4.784-4.676,8.917-8.808
	c3.805-3.697,6.306-3.479,9.46-5.545c0.325-0.218,1.522-0.979,2.827-2.284c1.087-1.087,2.826-3.153,4.023-6.524
	c-0.219-0.652-0.545-1.631-1.414-2.175c-2.719-2.066-7.721,2.066-14.57,4.35c-2.937,0.979-7.285,2.066-13.157,1.848"/>
<path fill="#EAE8D3" d="M187.786,64.045c-0.435-0.109-0.653-0.326-0.979-0.653c-0.869-0.87-0.979-1.848-1.086-2.283
	c1.086-0.109,2.065-0.109,3.152-0.218c0.218-0.108,0.979-0.326,1.414-0.979s0.326-1.305,0.326-1.74
	c-0.109-1.522-1.196-2.501-1.631-2.827c-0.871-0.108-1.74-0.217-2.61-0.217c0-0.326,0.108-0.979,0.326-1.631
	c0.218-0.544,0.327-0.87,0.653-1.196c0.76-0.543,2.174,0,2.392,0.109c1.087,0.543,1.087,1.087,2.282,1.957
	c0.654,0.435,1.197,0.652,1.523,0.761c2.393,0.87,4.784,0.217,6.198-0.217c0.651-0.218,1.196-0.435,1.631-0.544
	c0.218,0.326,0.543,0.761,0.761,1.414c0.108,0.326,0.436,1.522-0.543,3.915c-0.871,1.957-2.176,4.893-4.35,5.11
	c-0.436,0-1.088,0-1.958-0.217c-0.435-0.109-1.087-0.217-2.065-0.435c-1.74-0.435-1.632-0.652-2.393-0.652
	C189.417,63.284,188.873,64.262,187.786,64.045z"/>
<path fill="none" stroke="#111111" stroke-width="0.75" stroke-miterlimit="10" d="M201.813,52.845
	c-0.326,0.108-0.869,0.217-1.196,0c-0.326-0.218-0.326-0.544-0.435-0.87c-0.435-0.87-1.414-1.522-1.849-1.414
	c-0.761,0.326-1.087,3.262,0.108,4.132c0.979,0.652,2.283-0.761,3.263-0.218c1.413,0.87,0.761,5.219-1.414,7.938
	c-0.543,0.652-2.174,2.61-3.914,2.501c-0.108,0-0.108,0-0.218,0c-1.305-0.217-2.393-0.435-3.262-0.543"/>
<path fill="none" stroke="#111111" stroke-width="0.75" stroke-miterlimit="10" d="M200.943,54.258
	c3.697-0.87,6.306-0.761,8.045-0.435c0.762,0.108,2.283,0.435,3.371-0.435c0.762-0.543,0.979-1.414,1.088-2.066"/>
<path fill="none" stroke="#111111" stroke-width="0.75" stroke-miterlimit="10" d="M229.866,46.973
	c0.435,0.435,0.979,1.305,1.088,2.392c0.108,0.435,0.217,1.849-1.306,4.35c-1.305,2.066-3.045,3.371-5.437,4.784
	c-4.458,2.61-5.002,1.631-7.285,3.262c-4.567,3.262-3.479,7.72-7.284,9.786c-1.414,0.761-3.697,1.305-7.504,0"/>
<path fill="none" stroke="#111111" stroke-width="0.75" stroke-miterlimit="10" d="M226.822,46.321
	c0.326,0.109,0.652,0.326,0.869,0.652c0.979,1.631-1.631,5.654-5.002,7.829c-2.5,1.522-2.719,0.543-5.871,2.175
	c-0.979,0.543-4.459,2.5-6.959,6.415c-1.196,1.849-0.979,2.175-2.176,3.806c-1.631,2.283-3.588,3.697-5,4.458"/>
<path fill="none" stroke="#111111" stroke-width="0.75" stroke-miterlimit="10" d="M216.927,50.344
	c-0.218,0.326-1.305,1.74-0.87,2.936c0.545,1.522,3.153,2.718,6.307,1.631"/>
<path fill="#FFFFFF" d="M116.781,117.107c2.826-4.894,5.98-8.373,8.917-10.982c21.202-18.594,53.823-9.133,58.173-7.828
	c1.413,0,2.718-0.87,3.152-2.176c0.326-1.195-0.108-2.5-1.086-3.37c-5.547-2.719-12.832-5.546-21.748-7.285
	c-16.092-3.045-29.685-0.87-37.73,1.196"/>
<path fill="none" stroke="#111111" stroke-width="0.75" stroke-miterlimit="10" d="M116.781,117.107
	c2.826-4.894,5.98-8.373,8.917-10.982c21.202-18.594,53.823-9.133,58.173-7.828c1.413,0,2.718-0.87,3.152-2.176
	c0.326-1.195-0.108-2.5-1.086-3.37c-5.547-2.719-12.832-5.546-21.748-7.285c-16.092-3.045-29.685-0.87-37.73,1.196"/>
<path fill="#FFFFFF" stroke="#111111" stroke-width="0.75" stroke-miterlimit="10" d="M79.159,161.471
	c2.718,0.652,8.59,1.74,15.332-0.217c1.087-0.327,10.873-3.263,16.854-12.613c4.784-7.502,4.023-14.027,4.675-23.379
	c0.653-8.371,1.849-25.226,9.678-37.73c15.114-24.139,50.995-26.423,54.258-26.64c3.479-0.218,6.416-0.109,8.265,0
	c1.413-0.435,2.393-1.74,2.393-3.153c0-1.522-1.197-2.501-1.305-2.61c-9.025-0.979-45.888-4.023-76.225,20.769
	c-13.917,11.309-21.312,24.248-24.248,30.119C76.767,129.938,78.18,152.337,79.159,161.471z"/>
<path fill="#111111" d="M26.096,72.635c5.546,0.109,9.569,1.414,12.179,2.501c2.392,1.087,5.545,2.827,9.351,2.066
	c1.196-0.217,2.175-0.652,2.718-0.979c-2.501,3.262-5.001,6.633-7.502,9.895C37.296,81.66,31.75,77.202,26.096,72.635z"/>
<path fill="#111111" d="M76.332,53.171c-0.87-0.543-2.066-0.543-2.936,0c-2.936,5.654-6.089,11.417-9.351,17.289
	c-4.458,7.938-8.916,15.44-13.374,22.617c-2.284-0.218-3.806,0.326-4.676,0.761c-2.61,1.088-4.023,3.045-5.328,4.676
	c0,0-1.305,1.848-2.175,3.588c-2.392,5.438,0.761,13.049,1.522,14.897c4.023,9.786,7.611,18.05,15.332,29.25
	c3.806,5.545,8.59,11.308,14.462,17.181c1.849,1.848,3.479,3.37,4.458,4.239c2.066,0.435,6.089,0.87,10.874-0.543
	c5.654-1.74,9.134-5.11,10.547-6.742c-0.979,0-2.61,0-4.35-0.651c-1.74-0.545-2.936-1.306-3.806-1.957
	c-0.761-3.916-1.305-8.156-1.631-12.614c-1.196-15.331,0.652-28.813,3.153-39.253c-1.305-0.979-3.045-1.957-5.111-2.936
	c-1.74-0.762-3.371-1.414-4.784-1.74c2.392-2.936,4.784-6.09,7.177-9.352c6.307-8.916,11.091-17.506,14.896-25.444
	c-0.217-0.326-0.978-1.522-2.5-2.066c-1.74-0.543-3.262,0.109-3.588,0.218c-9.46,8.916-18.811,17.724-28.271,26.64
	c3.588-11.961,7.177-23.813,10.765-35.774C77.528,54.694,77.093,53.715,76.332,53.171z"/>
<path fill="#FFFFFF" d="M41.428,95.035c0.543,0.326,2.066,1.413,2.5,3.152c0.761,3.263-2.609,6.742-4.458,6.524
	c-0.979-0.108-0.979-1.196-2.392-2.501c-1.522-1.521-3.371-2.175-4.784-2.393"/>
<path fill="none" stroke="#111111" stroke-width="0.75" stroke-miterlimit="10" d="M41.428,95.035
	c0.543,0.326,2.066,1.413,2.5,3.152c0.761,3.263-2.609,6.742-4.458,6.524c-0.979-0.108-0.979-1.196-2.392-2.501
	c-1.522-1.521-3.371-2.175-4.784-2.393"/>
<path fill="#FFFFFF" d="M38.166,97.861c1.848-1.305,3.262-2.719,4.132-3.697c4.241-4.893,4.675-10.003,4.349-10.765
	c-0.217-0.435-0.435-0.543-1.196-1.087c-0.761-0.652-2.936-3.044-4.458-4.784c-0.761-0.87-1.957-2.175-3.588-3.479
	c0-1.849-0.218-4.023-0.979-4.241c-0.543-0.109-0.87,0.761-1.631,1.305c-3.153,2.393-8.916-5.437-14.353-3.371
	c-0.543,0.217-0.979,0.435-1.196,0.543"/>
<path fill="none" stroke="#111111" stroke-width="0.75" stroke-miterlimit="10" d="M38.166,97.861
	c1.848-1.305,3.262-2.719,4.132-3.697c4.241-4.893,4.675-10.003,4.349-10.765c-0.217-0.435-0.435-0.543-1.196-1.087
	c-0.761-0.652-2.936-3.044-4.458-4.784c-0.761-0.87-1.957-2.175-3.588-3.479c0-1.849-0.218-4.023-0.979-4.241
	c-0.543-0.109-0.87,0.761-1.631,1.305c-3.153,2.393-8.916-5.437-14.353-3.371c-0.543,0.217-0.979,0.435-1.196,0.543"/>
<path fill="#1D1D1B" stroke="#111111" stroke-width="0.75" stroke-miterlimit="10" d="M28.053,75.136
	c1.522,1.414,4.35,0.326,4.35-0.217c0-0.761-4.567-2.066-5.111-1.196C27.184,74.049,27.727,74.81,28.053,75.136z"/>
<path fill="none" stroke="#111111" stroke-width="0.75" stroke-miterlimit="10" d="M41.863,81.333
	c-0.652,0.543-1.958,1.522-3.697,1.305c-0.326,0-0.652-0.108-0.979-0.217"/>
<path fill="none" stroke="#111111" stroke-width="0.75" stroke-miterlimit="10" d="M29.032,86.771
	c-0.435,0.544-2.066,2.065-4.241,1.849c-1.74-0.218-4.132-1.74-4.132-3.479c0-1.522,2.066-2.501,2.283-2.61"/>
<path fill="#111111" d="M27.401,88.076c-0.652,4.783,0.544,7.176,1.631,8.372c1.196,1.305,3.044,1.957,4.675,4.35
	c0.652,0.978,1.087,1.957,1.305,2.5c-9.895,4.132-19.79,8.265-29.685,12.396c-0.435-1.195-1.087-2.936-1.305-5.109
	c-0.544-4.566,0.652-6.852,0.761-10.221c0.108-5.328-2.718-6.416-3.588-11.2c-1.849-9.569,6.307-22.291,15.005-23.27
	c4.023-0.435,8.046,1.631,8.046,1.74c0,0-2.066-0.979-3.588-0.109c-2.174,1.196-1.74,5.546-1.74,6.416
	c0.326,3.915,2.393,6.85,3.915,8.481c-0.326,0.109-0.87,0.326-1.414,0.979c-0.217,0.217-0.87,0.979-0.87,1.74
	c-0.109,1.739,2.718,3.806,5.328,3.371C26.64,88.402,27.184,88.184,27.401,88.076z"/>
<path fill="none" stroke="#111111" stroke-width="0.75" stroke-miterlimit="10" d="M27.292,69.917
	c-0.435,0.109-1.631,0.543-2.501,1.74c-0.87,1.305-0.979,2.609-0.979,2.936"/>
<path fill="#111111" d="M7.285,79.921c-1.196-1.087-2.175-1.849-3.153-1.631C0.979,78.833,0.217,88.293,0,97.318
	c2.066-0.326,4.132-0.652,6.307-0.979c2.827-0.652,4.023-2.066,4.458-2.719C13.592,89.815,11.091,83.183,7.285,79.921z"/>
<path fill="none" stroke="#111111" stroke-width="0.75" stroke-miterlimit="10" d="M224.43,100.037
	c0.217,0.217,0.434,0.543,0.543,0.979c0.217,1.957-3.806,4.566-7.721,5.219c-2.827,0.435-2.718-0.652-6.307-0.326
	c-1.088,0.109-5.11,0.544-8.916,3.045c-1.848,1.195-1.739,1.631-3.479,2.718c-2.392,1.414-4.784,1.958-6.415,2.175"/>
<path fill="none" stroke="#111111" stroke-width="0.75" stroke-miterlimit="10" d="M213.664,99.818
	c-0.326,0.218-1.848,1.088-1.957,2.393c-0.109,1.631,1.85,3.697,5.111,4.023"/>
<path fill="none" stroke="#FFFFFF" stroke-width="0.75" stroke-miterlimit="10" d="M45.669,93.186
	c2.718-0.435,6.089-0.652,9.895-0.435c3.262,0.108,6.089,0.544,8.481,1.087c1.414-1.521,2.827-3.152,4.132-4.676"/>
<path fill="none" stroke="#111111" stroke-width="0.75" stroke-miterlimit="10" d="M81.116,131.896
	c0.87,0.218,7.177,1.521,12.179-2.61c6.633-5.437,5.763-15.875,4.023-16.419c-0.652-0.217-1.414,1.305-3.153,2.936
	c-2.718,2.502-7.394,4.676-16.419,3.915"/>
<path fill="#EE4035" d="M85.437,70.808c-6.364,0-11.759-2.428-16.187-7.282c-4.428-4.855-6.641-10.772-6.641-17.752
	c0-6.96,2.213-12.856,6.641-17.69s9.822-7.25,16.187-7.25c6.384,0,11.789,2.417,16.217,7.25c4.427,4.833,6.641,10.729,6.641,17.69
	c0,6.98-2.214,12.897-6.641,17.752C97.226,68.38,91.821,70.808,85.437,70.808z M80.846,57.967l13.982-12.17L80.846,33.641V57.967z"
	/>
<path fill="#FFFFFF" stroke="#111111" stroke-width="0.75" stroke-miterlimit="10" d="M89.598,73.832
	c-1.196-4.132,6.742-7.503,5.763-11.744c-0.761-3.371-6.416-5.328-5.872-6.415c0.109-0.109,0.218-0.218,0.435-0.327
	c2.718-0.87,5.219,1.631,6.198,0.761c0.761-0.652,0.109-3.153-0.761-4.675v-0.109c-1.414-2.718-3.697-3.697-3.48-3.915
	c0.218-0.326,3.045,0.435,5.328,2.61c1.849,1.848,2.501,3.806,2.501,3.806s-0.652-1.958-2.501-3.806
	c-0.761-0.652-1.414-1.196-1.957-1.522c0.979-0.109,2.609-0.109,4.023,0.761c2.392,1.631,3.045,4.784,3.153,4.784
	c0.109,0-0.326-1.522-1.304-2.936c-0.653-0.87-1.305-1.413-1.849-1.848c1.305,0,3.045,0.326,4.132,1.522
	c1.414,1.522,0.979,3.806,1.848,3.914c0.544,0.109,0.87-1.087,2.501-2.5c0.653-0.653,1.631-1.414,1.849-1.305
	c0.435,0.326-0.87,3.045-2.61,6.198c-1.739,3.262-3.153,5.328-3.153,5.328c-7.176,10.874-8.155,14.462-10.765,14.353
	C91.664,76.876,90.033,75.462,89.598,73.832z"/>
</svg>
