<?xml version="1.0" encoding="utf-8"?>
<!-- Generator: Adobe Illustrator 16.0.0, SVG Export Plug-In . SVG Version: 6.00 Build 0)  -->
<!DOCTYPE svg PUBLIC "-//W3C//DTD SVG 1.1//EN" "http://www.w3.org/Graphics/SVG/1.1/DTD/svg11.dtd">
<svg version="1.1" id="Layer_1" xmlns="http://www.w3.org/2000/svg" xmlns:xlink="http://www.w3.org/1999/xlink" x="0px" y="0px"
	 width="24px" height="24px" viewBox="0 0 24 24" enable-background="new 0 0 24 24" xml:space="preserve">
<g>
	<g>
		<path fill="#FFFFFF" d="M2.31,2.72C0.577,5.32,0.682,10.327,3.872,13.882c2.96,3.299,7.376,6.958,7.414,6.988
			c0.094,0.085,2.355,2.108,5.693,2.108c0.322,0,0.65-0.02,0.975-0.06c3.621-0.438,4.948-2.759,5.418-4.104
			c0.242-0.692-0.166-1.55-0.891-1.873l-4.25-1.889c-0.204-0.091-0.448-0.139-0.707-0.139c-0.525,0-1.053,0.194-1.375,0.508
			l-1.339,1.299c-0.2,0.192-0.554,0.322-0.882,0.322c-0.14,0-0.262-0.025-0.356-0.072c-0.903-0.453-2.324-1.358-3.961-3.095
			c-1.453-1.542-2.143-2.598-2.467-3.214C6.962,10.32,7.151,9.724,7.435,9.44L8.626,8.25c0.496-0.496,0.719-1.408,0.507-2.075
			l-1.34-4.255C7.59,1.271,6.902,0.602,6.101,0.602C4.99,0.64,3.43,1.038,2.31,2.72z M6.143,1.361
			C6.526,1.362,6.956,1.785,7.07,2.147l1.34,4.255c0.126,0.4-0.024,1.012-0.321,1.31l-1.191,1.19
			c-0.487,0.487-0.775,1.453-0.427,2.113c0.345,0.656,1.074,1.776,2.586,3.381c1.713,1.816,3.216,2.771,4.173,3.252
			c0.195,0.098,0.438,0.15,0.699,0.15c0.526,0,1.065-0.205,1.407-0.535l1.339-1.297c0.268-0.26,0.901-0.373,1.244-0.223l4.251,1.89
			c0.324,0.145,0.604,0.582,0.483,0.93c-0.411,1.178-1.581,3.212-4.791,3.601c-0.295,0.036-0.592,0.054-0.885,0.054
			c-3.01,0-5.105-1.843-5.197-1.923c-0.042-0.036-4.438-3.683-7.345-6.922C1.581,10.193,1.358,5.515,2.941,3.14
			C3.882,1.728,5.201,1.393,6.143,1.361z"/>
	</g>
</g>
</svg>
