<?xml version="1.0" encoding="utf-8"?>
<!-- Generator: Adobe Illustrator 16.0.0, SVG Export Plug-In . SVG Version: 6.00 Build 0)  -->
<!DOCTYPE svg PUBLIC "-//W3C//DTD SVG 1.1//EN" "http://www.w3.org/Graphics/SVG/1.1/DTD/svg11.dtd">
<svg version="1.1" id="Layer_1" xmlns="http://www.w3.org/2000/svg" xmlns:xlink="http://www.w3.org/1999/xlink" x="0px" y="0px"
	 width="272px" height="254px" viewBox="0 0 272 254" enable-background="new 0 0 272 254" xml:space="preserve">
<path fill="none" stroke="#111111" stroke-width="0.75" stroke-miterlimit="10" d="M84.856,30.034
	c0.652-0.761,1.631-1.849,2.61-3.262c1.631-2.501,1.848-4.023,4.241-11.308c0.87-2.501,1.414-4.132,1.196-4.241
	c-0.326-0.108-2.718,5.22-3.153,5.002C89.097,16.007,92.794,5.677,92.25,5.46c-0.326-0.109-1.849,2.718-2.936,5.437
	c-1.305,3.262-1.631,5.22-1.848,5.22c-0.653-0.109,1.087-14.897,0.326-15.114c-0.435-0.109-1.74,4.567-2.501,8.916
	c-0.652,3.806-0.652,6.307-0.87,6.307c-0.543,0-0.979-12.831-1.522-12.831c-0.326,0-1.196,4.784-1.196,10.112
	c0,3.044,0.218,5.654-0.652,5.872c-0.326,0.109-0.652-0.217-2.936-1.957c-2.284-1.849-2.61-2.066-2.719-1.957
	c-0.543,0.326,0.761,3.479,2.501,5.98c0.109,0.109,0.109,0.218,0.218,0.326C79.528,23.945,81.703,26.772,84.856,30.034z"/>
<path fill="none" stroke="#111111" stroke-width="0.75" stroke-miterlimit="10" d="M68.329,221.408
	c0.87-1.197,2.174-2.936,3.914-4.895c2.501-2.718,3.915-4.132,5.219-3.914c1.522,0.326,1.414,2.502,3.806,4.676
	c1.522,1.414,3.153,2.066,4.241,2.393c0.544,0.762,1.087,1.848,1.196,3.262c0.435,4.023-3.262,5.871-6.089,10.873
	c-2.609,4.567-1.74,6.959-2.827,10.549c-0.108,0.435-0.543,1.738-1.414,3.262c-0.761,1.304-2.283,3.588-5.219,5.654
	c-0.652,0-1.631-0.109-2.501-0.762c-2.609-2.175,0.326-7.177,0.326-15.223c0-6.742-2.065-9.678-1.631-13.157"/>
<path fill="#49A6FF" d="M74.853,209.557c-0.109-1.089,0.435-1.632,0.652-2.828c0.217-0.869,0.435-1.957,0-2.609
	c-0.544-0.87-2.284-0.87-4.241-0.326c0.435,1.196,0.761,2.283,1.196,3.479c-0.326,0.326-1.414,1.957-3.588,2.285
	c-1.305,0.217-2.393-0.109-2.936-0.219c-0.87-1.305-1.849-2.609-2.718-3.914c-0.326,0.108-2.175,0.762-2.393,2.174
	c0,0.326,0,0.653,0.218,1.088c0.87,2.174,3.262,2.066,5.002,4.24c0.761,0.87,0.979,1.74,1.414,3.045
	c0.543,1.74,0.435,2.719,0.979,5.438c0.217,0.978,0.326,1.738,0.543,2.283c0.326,0.108,0.761,0.326,1.305,0.326
	c0.435,0,1.631,0,3.697-1.522c1.414-1.087,3.915-2.937,3.806-5.437c0-0.543-0.217-1.088-0.543-1.957
	c-0.652-1.632-1.305-2.283-1.958-4.242C74.961,210.208,74.853,209.882,74.853,209.557z"/>
<path fill="none" stroke="#111111" stroke-width="0.75" stroke-miterlimit="10" d="M31.25,203.9
	c0.979-0.979,2.501-2.392,4.567-3.914c2.827-2.174,4.35-3.262,5.545-2.719c1.414,0.545,0.979,2.61,2.718,5.111
	c1.196,1.631,2.61,2.5,3.588,3.044c0.326,0.761,0.761,1.957,0.652,3.371c-0.326,3.914-4.132,5.002-7.72,9.242
	c-3.262,3.915-2.827,6.307-4.567,9.46c-0.217,0.326-0.87,1.523-1.957,2.827c-0.979,1.196-2.827,2.936-5.872,4.459
	c-0.652-0.109-1.522-0.435-2.175-1.089c-2.175-2.5,1.631-6.74,2.936-14.243c1.196-6.308-0.326-9.569,0.761-12.722"/>
<path fill="none" stroke="#111111" stroke-width="0.75" stroke-miterlimit="10" d="M31.141,205.532
	c-0.544,3.588-0.218,6.089,0.217,7.829c0.217,0.761,0.544,2.175-0.217,3.262c-0.435,0.761-1.305,1.088-1.849,1.195"/>
<path fill="none" stroke="#111111" stroke-width="0.75" stroke-miterlimit="10" d="M26.466,233.805
	c0.435,0.325,1.305,0.76,2.283,0.869c0.326,0,1.849,0.109,4.023-1.631c1.849-1.414,3.045-3.262,4.132-5.545
	c2.174-4.459,1.196-4.895,2.609-7.178c2.827-4.566,7.068-3.913,8.808-7.719c0.652-1.414,0.979-3.697-0.543-7.178"/>
<path fill="#49A6FF" d="M36.36,191.505c-0.109-0.651-0.435-2.065-0.218-3.696c0.218-1.522,0.544-1.74,0.327-2.283
	c-0.218-0.652-1.305-1.306-5.219-1.088c0.435,1.196,0.761,2.393,1.196,3.588c-0.108,0.436-0.326,0.979-0.761,1.522
	c-1.414,1.957-4.132,1.849-4.458,1.849c-0.87-1.088-1.74-2.174-2.61-3.262c-2.283,2.609-2.392,3.697-2.066,4.24
	c0.435,0.761,1.631,0.436,3.262,1.414c0.87,0.544,1.305,1.195,2.175,2.393c0.435,0.543,1.957,2.826,2.827,6.741
	c0.435,2.175,0.326,2.827,0.652,3.263c0,0.107,0.109,0.217,0.217,0.217c1.522,1.305,9.025-1.74,9.243-5.219
	c0.109-1.632-1.305-2.066-3.588-6.959C36.904,193.463,36.578,192.702,36.36,191.505z"/>
<path fill="none" stroke="#111111" stroke-width="0.75" stroke-miterlimit="10" d="M29.836,206.512
	c0.108-0.326,0.108-0.869-0.109-1.195c-0.218-0.219-0.544-0.219-0.87-0.436c-0.87-0.326-1.522-1.195-1.414-1.631
	c0.109-0.544,2.827-0.87,3.697,0.217c0.652,0.87-0.326,1.85,0.326,2.61c0.979,1.196,5.11,0.325,7.502-1.958
	c0.544-0.543,2.393-2.283,2.066-3.914c-0.109-0.544-0.327-0.652-2.066-2.936c-1.305-1.849-1.522-2.283-1.413-2.719
	c0.326-0.869,1.739-1.305,2.283-0.979c0.326,0.218,0.109,0.761,0,2.066c-0.109,0.979-0.109,1.848-0.109,2.392"/>
<path fill="#FFFFFF" stroke="#111111" stroke-width="0.75" stroke-miterlimit="10" d="M76.266,96.797
	c-5.763,12.831-14.353,36.644-12.831,66.98c0.87,18.051,5.111,32.947,9.025,43.494c-0.218,0.328-1.305,1.74-3.153,2.176
	c-1.631,0.435-2.936,0-3.371-0.109c-7.611-10.873-18.159-28.923-24.03-53.279c-7.611-31.969-3.262-58.717,0-72.853
	C53.432,87.664,64.849,92.23,76.266,96.797z"/>
<path fill="#FFFFFF" d="M36.36,77.986c-4.241,3.806-10.33,9.569-16.636,17.506c-9.786,12.069-16.963,21.094-18.485,33.599
	c-1.087,9.678,1.631,16.854,6.198,28.488c3.479,9.025,9.46,21.095,19.79,33.816c0.327,0,2.284,0.326,3.806-1.086
	c0.87-0.871,1.196-1.85,1.305-2.285c-4.35-10.981-6.742-20.441-8.155-27.184c-2.936-13.918-4.35-20.984-0.87-28.271
	c3.588-7.61,10.438-11.525,14.461-13.482"/>
<path fill="none" stroke="#111111" stroke-width="0.75" stroke-miterlimit="10" d="M36.36,77.986
	c-4.241,3.806-10.33,9.569-16.636,17.506c-9.786,12.069-16.963,21.094-18.485,33.599c-1.087,9.678,1.631,16.854,6.198,28.488
	c3.479,9.025,9.46,21.095,19.79,33.816c0.327,0,2.284,0.326,3.806-1.086c0.87-0.871,1.196-1.85,1.305-2.285
	c-4.35-10.981-6.742-20.441-8.155-27.184c-2.936-13.918-4.35-20.984-0.87-28.271c3.588-7.61,10.438-11.525,14.461-13.482"/>
<path fill="none" stroke="#111111" stroke-width="0.75" stroke-miterlimit="10" d="M127.915,42.104
	c-1.522-1.522-2.501-3.044-3.044-4.132c-2.827-5.219-2.066-9.46-1.523-10.003c0.327-0.327,0.544-0.327,1.414-0.544
	c0.979-0.326,3.588-1.74,5.437-2.827c0.978-0.543,2.501-1.305,4.349-1.957c0.435-1.522,1.196-3.262,1.957-3.262
	c0.544,0,0.653,0.87,1.196,1.414c2.501,2.827,9.895-2.066,14.787,0.979c0.436,0.326,0.763,0.652,0.979,0.761"/>
<path fill="#111111" d="M81.376,21.009c-3.262,1.74-2.936,8.047-2.718,11.526c0.109,2.827,0.761,7.176,3.045,12.069
	c-20.116,10.221-40.232,20.442-60.24,30.664c-0.217,1.087-0.87,4.349,0.761,7.938c1.196,2.501,2.936,4.023,3.915,4.675
	c0.435-0.326,0.761-0.761,1.196-1.087c12.178,2.175,25.335,5.437,39.036,10.547c2.936,1.087,5.654,2.174,8.373,3.371
	c-0.326,0.652-0.761,1.413-1.087,2.066c0.327,0.217,2.827,1.522,5.763,0.435c2.392-0.87,3.697-3.154,4.023-3.806
	c3.479-6.089,21.855-28.924,39.58-31.316c1.74-0.217,2.936-0.217,12.396,1.414c25.227,4.241,51.105,4.458,76.006,10.221
	c1.305,0.326,4.893,1.196,6.85-0.652c1.631-1.522,1.306-4.35,0.979-6.307c-55.346-14.027-78.616-20.333-81.66-21.964
	c-0.218-0.109-1.74-0.979-3.915-1.849c-2.283-0.979-4.458-1.631-6.198-2.175c-2.174,0-11.308-0.326-13.483-4.132
	c-0.217-0.435-0.87-1.631-0.435-2.501c0.435-0.87,1.957-1.305,3.697-0.979c-1.957-1.196-4.784-2.61-8.372-3.479
	c-3.48-0.761-4.676-0.326-6.959-1.414c-2.828-1.305-2.61-2.827-6.416-6.959c-5.219-5.545-8.916-6.306-9.786-6.524
	C84.204,20.574,82.79,20.248,81.376,21.009z"/>
<path fill="none" stroke="#111111" stroke-width="0.75" stroke-miterlimit="10" d="M67.35,224.344c0-0.435,0-0.869-0.326-1.195
	c-0.326-0.219-0.544-0.219-0.979-0.219c-0.979-0.109-1.849-0.979-1.849-1.412c0-0.653,2.718-1.523,3.806-0.436
	c0.87,0.761,0.109,1.957,0.761,2.609c1.196,1.088,5.219-0.543,7.285-3.371c0.543-0.652,1.957-2.719,1.305-4.459
	c0,0,0-0.107-0.108-0.217c-1.087-2.283-1.414-2.719-1.849-3.588c-0.435-1.197-0.761-2.065-0.435-2.609
	c0.544-0.652,2.284-0.326,2.501,0.326c0.109,0.435-0.435,0.652-1.087,1.849c-0.326,0.543-0.435,1.087-0.543,1.413"/>
<path fill="none" stroke="#111111" stroke-width="0.75" stroke-miterlimit="10" d="M68.546,223.039
	c0.218,3.805,0.979,6.306,1.631,7.938c0.326,0.76,0.979,2.065,0.435,3.371c-0.326,0.869-1.087,1.305-1.74,1.631"/>
<path fill="none" stroke="#111111" stroke-width="0.75" stroke-miterlimit="10" d="M69.09,252.941
	c0.543,0.218,1.413,0.543,2.609,0.435c0.435,0,1.849-0.218,3.806-2.392c1.631-1.85,2.501-3.916,3.153-6.524
	c1.305-5.002,0.326-5.22,1.305-7.829c1.958-5.219,6.524-5.328,7.503-9.568c0.326-1.522,0.326-3.914-1.957-7.285"/>
<path fill="none" stroke="#111111" stroke-width="0.75" stroke-miterlimit="10" d="M57.455,97.776
	c-0.543,0.87-2.284,3.914-1.74,8.155c0.543,4.132,3.044,6.633,3.697,7.394c2.175-5.98,4.35-11.961,6.524-17.941"/>
<path fill="none" stroke="#111111" stroke-width="0.75" stroke-miterlimit="10" d="M137.701,23.728
	c2.066-0.217,4.132-0.326,6.09-0.543c1.305,1.087,2.5,2.175,3.805,3.262c-2.826,0.543-5.545,1.087-8.371,1.522
	C138.68,26.555,138.245,25.141,137.701,23.728z"/>
<path fill="#1D1D1B" stroke="#111111" stroke-width="0.75" stroke-miterlimit="10" d="M143.029,25.685
	c-1.739,0.435-3.37,0-3.37-0.326c0.108-0.435,4.893-0.87,5.002-0.435C144.661,25.141,143.682,25.467,143.029,25.685z"/>
<path fill="none" stroke="#111111" stroke-width="0.75" stroke-miterlimit="10" d="M128.459,27.533
	c0.544,0.652,1.522,1.74,3.262,2.066c0.326,0.109,0.652,0.109,0.979,0.109"/>
<path fill="none" stroke="#111111" stroke-width="0.75" stroke-miterlimit="10" d="M139.441,35.362
	c0.326,0.544,1.521,2.284,3.697,2.61c1.739,0.326,4.457-0.326,4.784-1.74c0.326-1.305-1.305-2.61-1.522-2.827"/>
<path fill="none" stroke="#111111" stroke-width="0.75" stroke-miterlimit="10" d="M142.921,34.927
	c0.108,0.217,0.326,0.435,0.652,0.326c0.435,0,0.544-0.652,0.979-0.761c0.761-0.217,1.849,0.87,1.632,1.414
	c-0.219,0.435-1.088,0.652-2.066,0.543"/>
<path fill="#111111" d="M140.746,36.885c-1.957,3.588-3.914,5.11-5.437,5.654c-0.761,0.326-2.283,0.761-3.805,2.175
	c-0.761,0.761-1.414,1.413-1.74,1.957c0.217,0.435,0.326,0.87,0.544,1.196c0.435-0.652,0.761-0.979,1.087-1.196
	c0.109-0.109,0.435-0.326,0.87-0.435c1.305-0.326,1.957,1.196,3.806,1.414c0.978,0.109,0.978-0.217,2.066-0.109
	c1.196,0.109,2.065,0.653,2.936,1.196c0,0,1.631,0.979,4.023,2.066c3.262,1.631,6.524,1.414,8.264,1.414
	c1.631-0.109,3.154-0.109,4.894-0.87c3.697-1.522,5.437-4.675,6.089-5.654c2.283-4.023,1.848-7.938,0.979-15.875
	c-0.87-7.829-2.502-10.874-3.371-10.765c-0.326,0.108-0.762,0.543-1.196,0.435c-0.543-0.218-0.435-1.196-1.087-1.522
	c-0.436-0.218-0.762,0.217-1.195,0.108c-1.414-0.217-1.522-4.023-1.957-3.914c-0.326,0-0.109,1.522-0.871,1.957
	c-0.761,0.435-1.74-0.761-2.5-0.326c-0.545,0.326-0.219,1.305-0.979,1.849c-0.761,0.652-1.739,0.217-1.957,0.543
	c-0.326,0.544,1.196,1.414,1.957,2.936c1.414,2.609,0.218,5.98,0.108,6.415c-1.521,4.241-5.437,5.763-5.871,5.98
	c0.218,0.109,0.762,0.544,1.088,1.087c0.107,0.218,0.543,0.979,0.435,1.631c-0.327,1.414-3.589,2.392-5.981,1.414
	C141.398,37.428,140.964,36.993,140.746,36.885z"/>
<path fill="none" stroke="#111111" stroke-width="0.75" stroke-miterlimit="10" d="M145.748,22.314
	c0.544,0.217,1.414,0.761,2.175,1.957c0.435,0.653,0.652,1.196,0.761,1.74"/>
<path fill="none" stroke="#111111" stroke-width="0.75" stroke-miterlimit="10" d="M141.725,21.335
	c0.326,0.652,0.762,1.305,1.088,1.849"/>
<path fill="none" stroke="#111111" stroke-width="0.75" stroke-miterlimit="10" d="M147.598,26.337
	c-0.109,2.501-0.326,4.893-0.436,7.394"/>
<path fill="none" stroke="#111111" stroke-width="0.75" stroke-miterlimit="10" d="M128.568,49.606
	c-0.109-0.217-0.652-1.087-0.326-2.066c0.109-0.326,0.326-0.543,0.652-0.761c0.327-0.326,0.979-0.761,2.066-0.979"/>
<path fill="none" stroke="#111111" stroke-width="0.75" stroke-miterlimit="10" d="M114.867,38.733
	c1.413,0.652,2.392,0.652,2.936,0.543c1.305-0.217,1.74-1.196,3.588-2.175c0.87-0.543,1.74-0.761,2.283-0.979"/>
<path fill="none" stroke="#FFFFFF" stroke-width="0.75" stroke-miterlimit="10" d="M115.193,44.061
	c0.327,1.087,0.435,2.284-0.217,3.044c-1.087,1.087-3.371,0.109-5.981-0.326c-6.741-0.979-12.396,2.61-13.917,3.479
	c-3.371,2.066-3.262,3.588-6.089,6.089c-8.264,7.394-16.093,1.196-24.792,7.394c-6.959,5.002-5.872,11.852-12.613,13.375
	c-3.262,0.761-4.893-0.544-9.243,0.979c-1.957,0.652-6.742,2.283-7.394,6.089c-0.435,2.827,1.631,5.219,2.175,5.872"/>
<path fill="none" stroke="#FFFFFF" stroke-width="0.75" stroke-miterlimit="10" d="M110.844,47.323
	c0.761,0.761,0.978,1.631,0.761,2.392c-0.218,0.544-0.761,1.196-1.087,1.087c-0.435-0.109-0.435-1.305-0.218-2.066
	C110.409,47.975,110.626,47.54,110.844,47.323z"/>
<path fill="none" stroke="#111111" stroke-width="0.75" stroke-miterlimit="10" d="M114.65,41.669
	c-2.284,1.196-2.827,2.066-2.827,2.718s0.652,0.979,0.543,1.414c-0.108,0.652-1.305,0.979-2.283,1.196"/>
<path fill="#FFFFFF" d="M116.172,40.69c-0.87-0.326-5.219,1.087-5.219,3.044c0,0.761,0.543,0.979,0.435,1.631
	c-0.218,1.087-2.175,1.087-2.175,1.522c0,0.543,3.153,1.631,6.198,0.652c0.761-0.218,2.392-0.761,2.609-1.958
	c0.218-1.087-1.304-1.631-1.304-3.371c0-0.326,0-1.087-0.435-1.414C116.389,40.799,116.281,40.69,116.172,40.69z"/>
<path fill="none" stroke="#111111" stroke-width="0.75" stroke-miterlimit="10" d="M112.149,40.364c0,0.652,0,1.957,0.761,3.371
	c0.761,1.522,1.849,2.284,2.501,2.61c1.414,0.979,2.827,1.196,3.588,1.305"/>
<path fill="none" stroke="#FFFFFF" stroke-width="0.75" stroke-miterlimit="10" d="M79.093,78.53
	c0.218,4.35,0.435,8.699,0.653,13.048"/>
<g id="OP01">
	<polygon fill="#00B0AE" points="236.106,109.894 232.539,76.348 246.212,74.894 248.884,100.021 260.857,98.748 261.753,107.167 	
		"/>
	<path fill="#8BC541" d="M237.795,75.789l1.617,15.212c0.706,6.639-0.347,11.612-3.149,14.919
		c-2.806,3.307-6.211,5.173-10.216,5.599c-2.897,0.309-5.738-0.221-8.523-1.584c-2.782-1.364-4.842-3.335-6.181-5.912
		c-1.337-2.578-2.24-6.05-2.705-10.418l-1.547-14.552L237.795,75.789z"/>
	<polygon fill="#FCB814" points="185.276,115.298 181.71,81.753 207.091,79.054 207.986,87.472 196.256,88.719 196.903,94.81 
		205.601,93.885 206.496,102.305 197.799,103.229 198.928,113.847 	"/>
</g>
<path fill="#FFFFFF" stroke="#111111" stroke-width="0.75" stroke-miterlimit="10" d="M208.706,77.877
	c2.282,3.697,10.003,0,12.612,3.588c2.066,2.827-0.325,8.264,0.871,8.59c0.108,0,0.326,0,0.543-0.108
	c2.393-1.414,2.283-4.893,3.588-5.111c0.979-0.108,2.393,2.066,3.045,3.697v0.109c0.979,2.827,0.218,5.219,0.544,5.219
	c0.325,0.109,1.739-2.609,1.631-5.654c-0.108-2.61-1.196-4.458-1.087-4.458c0,0,0.979,1.849,1.087,4.458
	c0,0.979,0,1.848-0.108,2.392c0.76-0.652,1.848-1.849,2.174-3.588c0.436-2.827-1.521-5.437-1.414-5.545
	c0.109,0,0.871,1.196,1.197,2.936c0.217,1.087,0.217,1.957,0.108,2.609c0.87-0.979,1.849-2.392,1.631-4.132
	c-0.217-2.066-2.174-3.371-1.739-4.023c0.326-0.435,1.305,0.108,3.588-0.109c0.979-0.109,2.174-0.217,2.174-0.544
	c0.109-0.543-2.826-1.305-6.305-2.174c-3.589-0.87-6.09-1.305-6.09-1.305c-12.831-1.957-16.201-3.697-17.833-1.74
	C207.836,74.289,207.836,76.464,208.706,77.877z"/>
</svg>
