<?xml version="1.0" encoding="utf-8"?>
<!-- Generator: Adobe Illustrator 16.0.0, SVG Export Plug-In . SVG Version: 6.00 Build 0)  -->
<!DOCTYPE svg PUBLIC "-//W3C//DTD SVG 1.1//EN" "http://www.w3.org/Graphics/SVG/1.1/DTD/svg11.dtd">
<svg version="1.1" id="Layer_1" xmlns="http://www.w3.org/2000/svg" xmlns:xlink="http://www.w3.org/1999/xlink" x="0px" y="0px"
	 width="241px" height="174px" viewBox="0 0 241 174" enable-background="new 0 0 241 174" xml:space="preserve">
<path fill="#111111" d="M56.563,97.016c-5.545,4.24-8.481,9.135-7.285,12.832c0.87,2.717,3.915,4.022,7.72,5.653
	c7.394,3.153,11.091,1.522,16.528,4.894c0.652,0.435,1.957,1.195,4.893,3.152c1.087,0.762,2.501,1.631,4.349,2.719
	c3.045,1.849,5.437,3.262,7.068,4.131c-4.567,3.59-9.242,7.287-13.918,11.201c-2.283,1.848-4.458,3.805-6.633,5.653
	c0,0.108,0,1.414,0.979,2.284c0.87,0.761,1.958,0.652,2.175,0.652c1.74-1.088,4.241-2.502,7.177-3.914
	c6.306-2.937,11.417-4.241,16.31-5.547c4.349-1.195,10.112-2.392,16.962-3.152c6.959,0.979,12.614,1.74,15.984,2.175
	c31.425,4.349,44.256,6.089,69.265,9.46c2.827,0.436,7.395,0.979,12.939,1.957c0.109-0.109,0.869-0.544,1.195-1.521
	c0.328-1.196-0.435-2.066-0.543-2.176c-11.961-5.219-22.182-7.938-29.576-9.568c0,0-22.726-4.894-34.795-12.178
	c-2.283-1.414-5.545-3.697-6.09-7.285c-0.326-2.176,0.545-4.024,1.088-5.111c-0.217-0.217-0.652-0.436-1.088-0.87
	c-9.459-7.394-14.461-9.896-20.006-13.7c-13.919-9.678-15.985-17.398-26.097-18.05c-1.414-0.109-2.501,0-3.153,0
	c0.217,1.305,0.435,2.501,0.652,3.806c-4.675,4.241-12.178,10.003-22.726,13.701c-4.784,1.739-9.351,2.718-13.157,3.263
	C56.89,100.169,56.781,98.646,56.563,97.016z"/>
<path fill="none" stroke="#111111" stroke-width="0.75" stroke-miterlimit="10" d="M29.597,37.646
	c-1.087,0.217-1.414,0.543-1.522,0.87c-0.108,0.218,0,0.218,0,0.544c0,0,0,0.652-0.435,1.305c-0.326,0.652-0.761,0.761-1.414,1.196
	c-0.435,0.326-0.979,0.87-1.414,1.631c-0.652,0.217-1.74,0.435-2.936,0.326c-3.371-0.543-4.023-3.915-7.502-7.285
	c-3.153-3.153-5.328-2.936-7.938-4.676c-0.435-0.326-1.414-0.979-2.392-1.848c-0.761-0.87-2.392-2.827-2.936-6.307
	c0-0.109,0.109-0.218,0.218-0.435c0.217-0.435,0.652-0.87,0.87-0.979c0.544-0.326,1.305,0,2.066,0.217
	c1.631,0.543,1.849,0.109,3.371,0.543c2.392,0.653,5.001,1.74,6.742,3.045c0.326,0.217,0.326,0.326,0.543,0.435
	c1.196,0.652,2.283,0.435,3.806,0.326c1.957-0.109,3.697,0.108,5.98,0.543c0.652,0.109,1.087,0.217,1.414,0.217"/>
<path fill="#49A6FF" d="M36.448,29.6c-0.435-0.761-0.761-0.979-1.087-0.979c-0.217,0-0.217,0-1.631,0.543
	c-0.435,0.109-0.87,0.327-1.414,0.435c-0.544,0.109-0.761,0.109-2.392,0.109c-1.631,0-1.414,0.109-2.175,0
	c-0.652-0.109-1.414-0.326-1.631-0.326c-1.087-0.326-1.196-0.544-1.414-0.435c-0.652,0.326-0.108,2.827,0,3.371
	c0.109,0.653,0.979,3.697,2.61,4.567c0.435,0.217,1.196,0.543,1.849,0.543c0.543,0,0.652-0.109,1.414-0.326
	c0.87-0.217,2.066-0.544,3.044,0c0.87,0.435,0.979,1.087,1.522,1.087c0.543,0,1.087-0.761,1.305-1.305
	c-2.066-2.61-1.849-3.806-1.631-4.241c0.108-0.326,0.543-1.087,0.979-1.848C36.122,30.144,36.339,29.818,36.448,29.6z"/>
<path fill="none" stroke="#111111" stroke-width="0.75" stroke-miterlimit="10" d="M26.118,27.316
	c0.761-0.108,1.414,0.326,1.522,0.87c0.109,0.435-0.109,0.979-0.544,1.087c-0.87,0.435-1.848-0.87-2.392-0.544
	c-1.305,0.761,1.196,7.829,3.371,8.373c0.108,0,1.522,0.327,1.522,0.327c0.109,0.217,0.218,0.435,0.326,0.87
	c0,0,0.109,0.326-0.217,0.761c-0.435,0.761-2.501,1.849-2.501,1.849c-0.87,0.761-1.74,1.522-2.61,2.174"/>
<path fill="none" stroke="#111111" stroke-width="0.75" stroke-miterlimit="10" d="M26.553,29.273
	c-0.435-0.217-0.979-0.435-1.848-0.652c-1.414-0.326-2.066-0.217-3.479-0.435c-1.849-0.218-1.522-0.653-3.045-0.87
	c-2.066-0.218-3.371,0.326-3.806-0.326c-0.217-0.326-0.109-0.761,0-1.087"/>
<path fill="#111111" d="M149.314,120.176c-0.326,0.326-1.414,1.196-1.414,2.393c0,0.869,0.545,1.521,0.979,1.957
	c0.326-2.066,0.652-3.045,0.978-3.045c0.436,0,0.762,1.74,1.088,5.328c-0.326-1.74,0.871-3.045,1.849-3.045
	c0.87,0,1.957,0.979,2.065,2.502c1.089-0.979,2.066-1.957,3.154-2.937c1.957,2.065,7.176,6.851,12.178,5.872
	c1.522-0.326,4.133-1.305,5.002-1.631c0.652-0.217,2.719-1.088,5.328-2.502c2.393-1.305,3.588-1.957,4.459-2.936
	c1.305-1.521,1.74-3.262,1.957-4.023c0.435-1.631,0.217-2.392,0.326-4.783c0-1.196,0.217-2.936,0.543-5.111
	c1.522,1.088,3.045,2.284,4.676,3.371c-1.088-1.521-2.174-3.152-3.262-4.676c0.326,0,2.283,0.109,3.805-1.413
	c1.632-1.631,2.066-4.458,1.088-5.328c-1.413-1.196-5.871,1.74-8.481,3.479c-0.651-0.652-2.175-2.066-4.132-4.023
	c-3.914-3.806-4.784-4.35-6.089-4.784c-2.065-0.761-4.022-0.761-5.22-0.761c-2.174,0-3.914,0.435-4.784,0.761
	c-3.697,1.196-6.306,3.479-9.568,6.306c-3.262,2.828-4.676,0.436-5.872,1.959C146.814,107.128,152.686,117.023,149.314,120.176z"/>
<path fill="none" stroke="#111111" stroke-width="0.75" stroke-miterlimit="10" d="M1.109,23.402C1,23.945,1,24.598,1,25.359
	c0,0.435,0.109,1.631,0.761,2.936c0.87,1.74,2.283,2.718,4.458,4.023c1.196,0.761,1.849,1.087,2.827,1.413
	c0.979,0.327,1.522,0.435,2.175,0.761c0.543,0.218,0.979,0.544,0.979,0.652c0.543,0.435,1.196,1.087,2.175,3.154
	c0.761,1.522,0.543,1.522,0.979,2.392c0.109,0.327,1.196,2.066,3.044,3.045c2.936,1.414,5.872-0.109,6.307-0.326"/>
<path fill="#49A6FF" d="M44.386,8.505c0.326-0.87,0.543-1.848,0.108-2.283c-0.435-0.326-0.979,0-2.392,0.217
	c-0.543,0.109-2.827,0.435-4.893,0c-0.543-0.108-1.196-0.217-1.957-0.326c-0.87-0.109-0.979-0.109-1.74-0.217
	c-1.196-0.218-1.414-0.435-1.631-0.218c-0.435,0.326-0.217,1.958,0.435,3.479c0.435,1.087,1.414,2.936,3.697,4.567
	c0.108,0.108,0.326,0.326,0.543,0.326c0.435,0,0.652-0.326,1.087-0.544c1.087-0.435,2.501,0.435,2.718,0.652
	c0.761,0.435,0.87,0.87,1.305,0.979c0.544,0,0.979-0.652,1.196-1.087c-0.109-0.218-1.087-1.958-0.217-3.697
	C43.189,9.266,44.06,8.723,44.386,8.505z"/>
<path fill="none" stroke="#111111" stroke-width="0.75" stroke-miterlimit="10" d="M56.999,101.691
	c-0.326-1.958-0.652-5.002-0.326-8.699c0.543-7.395,3.044-12.831,4.132-15.006c9.569-20.442,14.571-30.772,12.831-38.709
	c-2.066-9.787-9.786-16.202-13.374-18.812c-0.761-0.543-1.522-0.979-1.522-0.979c-4.567-3.044-8.917-4.458-12.069-5.219
	c-0.435,0.326-0.87,0.761-1.305,1.087c-0.109-0.435-0.217-0.979-0.326-1.414c-0.435,0.326-0.979,0.761-1.414,1.087
	c-0.217-0.326-0.326-0.761-0.543-1.087c-0.218-0.217-0.87-1.414-0.652-2.936c0.326-1.958,1.957-2.827,2.066-2.936
	c0.217-0.217,0.543-0.435,0.761-0.652c0.435,0.435,0.761,0.761,1.196,1.196c0.435-0.435,0.761-0.87,1.196-1.305
	c0.217,0.544,0.543,0.979,0.761,1.522c3.806,0.435,9.351,1.522,15.44,4.132c4.35,1.957,18.92,8.155,24.465,22.291
	c1.414,3.479,1.958,6.959,2.175,14.788c0.218,9.569-0.435,23.487-4.023,40.667"/>
<path fill="none" stroke="#111111" stroke-width="0.75" stroke-miterlimit="10" d="M61.13,77.226
	c1.74-3.371,4.35-9.786,4.241-18.159c-0.108-4.676-0.108-10.765-4.241-15.984c-6.85-8.699-19.572-7.611-20.986-7.502
	c-0.217,0.543-0.543,0.979-0.761,1.522c-0.435-0.544-0.87-1.087-1.413-1.631c-0.218,0.652-0.544,1.305-0.761,1.849
	c-0.435-0.326-0.979-0.979-1.414-1.849c-0.435-0.761-0.979-1.74-0.761-2.827c0.217-1.522,1.414-2.392,1.74-2.718
	c0.217-0.544,0.543-1.196,0.761-1.74c0.435,0.435,0.87,0.87,1.305,1.305c0.217-0.435,0.543-0.87,0.761-1.305
	c0.435,0.326,0.761,0.652,1.196,0.87c3.806-0.652,12.396-1.413,21.747,2.61c5.111,2.284,8.808,5.219,11.2,7.503"/>
<path fill="none" stroke="#111111" stroke-width="0.75" stroke-miterlimit="10" d="M140.29,112.782
	c0.978,0.435,3.262,1.305,5.871,0.544c0.653-0.219,1.088-0.436,1.632-0.653"/>
<path fill="none" stroke="#111111" stroke-width="0.75" stroke-miterlimit="10" d="M141.377,125.613
	c1.088-0.979,2.719-2.283,4.893-3.262c1.74-0.762,3.371-1.196,4.676-1.414"/>
<path fill="none" stroke="#111111" stroke-width="0.75" stroke-miterlimit="10" d="M208.357,148.23
	c-0.435,1.412,5.438,4.675,9.568,6.523c5.328,2.393,11.526,4.023,11.744,3.262c0.109-0.326-0.87-1.305-5.98-4.022
	c2.609-0.979,6.197-2.394,10.547-4.459c0.436-0.218,5.98-2.935,5.871-3.37c-0.107-0.219-1.957,0.436-6.85,1.848
	c-1.957,0.545-3.588,0.979-4.675,1.305c0.978-0.543,2.283-1.414,3.914-2.5c3.588-2.393,8.265-5.873,8.046-6.308
	c-0.326-0.435-7.938,3.806-8.372,4.024c-2.827,1.631-4.784,2.826-4.894,2.609c-0.108-0.218,1.414-1.414,3.479-3.371
	c2.72-2.719,5.22-5.763,5.002-5.98c-0.325-0.326-6.415,4.893-6.959,5.328c-1.849,1.631-3.262,2.936-3.37,2.718
	c-0.109-0.108,0.652-1.087,1.957-3.044c0.762-1.087,2.609-4.023,2.393-4.241c-0.109,0-0.327,0-3.154,2.827
	c-1.631,1.631-1.738,1.631-2.174,2.066c-1.85,1.631-3.697,2.283-4.785,2.719C214.012,148.447,208.793,146.925,208.357,148.23z"/>
<path fill="none" stroke="#111111" stroke-width="0.75" stroke-miterlimit="10" d="M75.81,146.055
	c-0.87-1.195-7.394,1.957-10.982,3.697c-2.284,1.087-10.765,5.219-10.33,6.198c0.109,0.325,1.522,0.435,7.394-1.089
	c-2.175,5.547-2.066,9.787-1.74,12.396c0.326,1.85,0.979,4.241,1.196,4.241c0.218,0,0.109-2.175,0.218-4.676
	c0.109-3.263,0.652-5.98,1.196-7.829c-0.109,1.74-0.218,4.24,0.326,7.177c0.652,3.479,1.957,6.851,2.283,6.741
	c0.326-0.107-0.109-2.283-0.435-6.198c-0.217-3.37-0.217-6.198-0.217-8.046c0.109,1.957,0.435,4.676,1.631,7.829
	c1.305,3.371,3.153,6.308,3.479,6.198s-0.87-2.719-1.848-6.851c-0.652-3.153-0.87-5.872-0.87-7.612c0,1.197,0.217,2.937,1.087,4.785
	c1.196,2.609,3.153,4.35,3.371,4.24c0.218-0.217-1.522-2.066-1.957-5.219c-0.109-1.088-0.217-2.609,0.543-5.221
	C72.221,149.859,76.571,147.033,75.81,146.055z"/>
<path fill="#FFFFFF" stroke="#111111" stroke-width="0.75" stroke-miterlimit="10" d="M143.66,110.716
	c-0.543-4.022,5.328-8.046,7.938-9.351c3.153-1.631,5.873-2.283,5.873-2.283c1.086-0.218,1.412-0.326,2.174-0.544
	c2.174-0.761,2.719-1.522,4.24-2.065c0.109,0,0.109-0.109,0.219-0.109c0.651-0.217,2.392-0.869,5.436-0.979
	c1.088,0,1.631-0.109,1.74,0c2.175,0.652,3.152,4.132,3.588,5.871c0.109,0.436,0.218,0.762,0.326,1.414
	c0.326,1.74,0.762,3.48,0.652,5.219c0,0.979-0.109,3.59-1.631,6.09c-0.218,0.326-0.979,1.414-2.501,2.719
	c-4.022,3.371-8.59,3.914-8.59,4.132c0,0.108,0.979,0.108,4.784-0.544c1.631,1.631,1.74,2.609,1.523,3.152
	c-0.654,2.066-5.981,3.154-9.679,1.197c-0.87-0.435-1.522-0.979-1.957-1.414c-0.979-0.109-2.392-0.326-3.806-1.087
	c-0.652-0.327-1.196-0.653-1.631-0.979c-4.241-3.48-7.176-7.72-7.176-7.72C144.204,112.021,143.77,111.26,143.66,110.716z"/>
<path fill="#1D1D1B" stroke="#111111" stroke-width="0.75" stroke-miterlimit="10" d="M163.341,99.843
	c-0.108-0.544-3.696-0.761-4.565,0.435c-0.327,0.436-0.327,0.979,0.107,1.306C159.971,102.018,163.559,100.386,163.341,99.843z"/>
<path fill="#1D1D1B" stroke="#111111" stroke-width="0.75" stroke-miterlimit="10" d="M165.842,109.52
	c0,0.543-3.369,2.283-4.458,1.631c-0.435-0.217-0.543-0.762-0.217-1.195C162.037,108.977,165.842,108.867,165.842,109.52z"/>
<path fill="none" stroke="#111111" stroke-width="0.75" stroke-miterlimit="10" d="M164.973,104.518
	c-4.24,1.85-6.959,1.522-8.59,0.871c-1.305-0.545-2.501-1.414-3.045-0.979c-0.761,0.544-0.218,2.501,0.217,4.022"/>
<path fill="none" stroke="#111111" stroke-width="0.75" stroke-miterlimit="10" d="M158.014,104.301l-0.979-4.676
	c-0.219-0.869,0.436-1.848,1.304-1.957l4.677-0.979c0.869-0.217,1.848,0.436,1.957,1.305l0.979,4.676
	c0.217,0.87-0.436,1.85-1.305,1.957l-4.676,0.979C159.102,105.823,158.23,105.171,158.014,104.301z"/>
<path fill="none" stroke="#111111" stroke-width="0.75" stroke-miterlimit="10" d="M160.732,117.132l-1.523-7.176
	c-0.217-0.87,0.436-1.849,1.305-1.958l4.676-0.979c0.871-0.218,1.849,0.436,1.957,1.306l1.522,7.176
	c0.218,0.87-0.435,1.849-1.304,1.957l-4.676,0.979C161.818,118.654,160.84,118.111,160.732,117.132z"/>
<path fill="none" stroke="#111111" stroke-width="0.75" stroke-miterlimit="10" d="M149.424,108.215
	c0.108,0.87,0.326,2.719,1.739,4.567c0.653,0.761,1.305,1.305,1.958,1.739"/>
<path fill="none" stroke="#111111" stroke-width="0.75" stroke-miterlimit="10" d="M152.794,105.823
	c-0.651,0.108-0.979,0.544-0.87,0.979s0.653,0.761,1.196,0.435"/>
<path fill="none" stroke="#111111" stroke-width="0.75" stroke-miterlimit="10" d="M160.514,123.655
	c-0.652,0.544-1.305,1.196-1.957,1.739"/>
<path fill="none" stroke="#111111" stroke-width="0.75" stroke-miterlimit="10" d="M161.602,124.09
	c-0.435,0.762-0.869,1.523-1.305,2.284"/>
<path fill="none" stroke="#111111" stroke-width="0.75" stroke-miterlimit="10" d="M161.493,122.895
	c0.651,0.435,1.413,0.869,1.631,0.761c0.326-0.218-0.435-1.196,0.108-1.522c0.543-0.435,3.154,0.326,3.045,1.196
	c0,0.651-1.305,1.087-1.414,1.196"/>
<path fill="none" stroke="#111111" stroke-width="0.75" stroke-miterlimit="10" d="M165.407,94.841
	c0.327,0.218,2.719,1.631,2.936,4.567c0.109,1.521-0.435,2.826-0.761,3.262"/>
<path fill="none" stroke="#111111" stroke-width="0.75" stroke-miterlimit="10" d="M168.234,106.367
	c0.436,0.326,2.393,1.848,2.937,4.566c0.543,2.609-0.435,4.566-0.761,5.11"/>
<path fill="none" stroke="#111111" stroke-width="0.75" stroke-miterlimit="10" d="M93.425,85.925
	c-0.653-2.719-1.196-5.545-1.74-8.373c-0.653-3.371-1.196-6.633-1.74-9.895"/>
<path fill="#FFFFFF" d="M151.598,106.91c0.217,0,0.326-0.108,0.543-0.108L151.598,106.91z"/>
<path fill="none" stroke="#111111" stroke-width="0.75" stroke-miterlimit="10" d="M151.598,106.91c0.217,0,0.326-0.108,0.543-0.108
	"/>
<path fill="none" stroke="#111111" stroke-width="0.75" stroke-miterlimit="10" d="M164.973,104.518c0.108,0,0.652,0.326,0.87,0.979
	c0.218,0.761-0.435,1.413-0.435,1.413"/>
<path fill="none" stroke="#111111" stroke-width="0.75" stroke-miterlimit="10" d="M168.452,116.805
	c-0.218,1.196-0.326,2.393-0.544,3.588"/>
<path fill="none" stroke="#111111" stroke-width="0.75" stroke-miterlimit="10" d="M23.182,41.234
	c0.87-1.305,0.87-1.957,0.652-2.392c-0.543-1.087-2.609-0.543-4.893-1.957c-1.087-0.652-1.849-1.522-2.284-2.175"/>
<path fill="none" stroke="#111111" stroke-width="0.75" stroke-miterlimit="10" d="M38.079,14.377
	c-1.087,0.326-1.414,0.761-1.522,1.087c0,0.218,0,0.218,0,0.653c0,0,0,0.652-0.327,1.414c-0.326,0.761-0.761,0.87-1.413,1.522
	c-0.435,0.435-0.87,0.979-1.305,1.958c-0.761,0.326-1.74,0.761-3.044,0.652c-3.588-0.218-4.784-3.697-8.808-6.851
	c-3.697-2.936-5.98-2.501-9.025-3.914c-0.544-0.218-1.631-0.761-2.718-1.74C8.938,8.396,7.089,6.548,6.111,2.851
	c0-0.108,0.108-0.326,0.108-0.435C6.437,1.872,6.763,1.438,6.98,1.22c0.544-0.435,1.414-0.108,2.175,0
	c1.849,0.435,1.957-0.108,3.697,0.109c2.61,0.326,5.545,1.196,7.503,2.392c0.326,0.217,0.435,0.217,0.652,0.326
	c1.414,0.544,2.501,0.218,4.023-0.109c2.066-0.326,3.915-0.326,6.416-0.108c0.652,0,1.196,0.108,1.522,0.108"/>
<path fill="none" stroke="#111111" stroke-width="0.75" stroke-miterlimit="10" d="M33.077,3.83c0.87-0.217,1.631,0.217,1.74,0.761
	c0.108,0.435,0,0.979-0.435,1.305c-0.761,0.544-2.066-0.761-2.61-0.326c-1.305,0.979,2.284,8.155,4.567,8.481
	c0.218,0,1.74,0.217,1.74,0.217c0.109,0.218,0.326,0.435,0.435,0.87c0,0,0.109,0.326-0.109,0.87
	c-0.326,0.87-2.392,2.175-2.392,2.175c-0.87,0.87-1.631,1.74-2.501,2.719"/>
<path fill="none" stroke="#111111" stroke-width="0.75" stroke-miterlimit="10" d="M33.838,5.896
	c-0.435-0.109-1.087-0.326-1.957-0.544c-1.522-0.217-2.175,0-3.697,0c-1.957-0.108-1.74-0.543-3.371-0.543
	c-2.175,0-3.479,0.761-4.023,0.109c-0.218-0.326-0.218-0.761-0.109-1.196"/>
<path fill="none" stroke="#111111" stroke-width="0.75" stroke-miterlimit="10" d="M6.111,2.742c0,0.544,0,1.196,0.108,2.066
	c0.109,0.435,0.326,1.74,1.196,3.044c1.196,1.74,2.718,2.61,5.11,3.697c1.414,0.652,2.175,0.87,3.153,1.087
	c0.979,0.217,1.631,0.326,2.392,0.543c0.653,0.218,1.087,0.435,1.196,0.544c0.652,0.326,1.414,0.979,2.718,3.044
	c0.979,1.522,0.761,1.631,1.305,2.392c0.217,0.326,1.522,2.066,3.588,2.827c3.262,1.087,6.198-0.761,6.633-1.087"/>
<path fill="none" stroke="#111111" stroke-width="0.75" stroke-miterlimit="10" d="M21.333,7.527c3.044-0.544,4.241,0,4.676,0.761
	c0.979,1.305-0.544,3.588,0.652,5.219c0.435,0.653,1.196,0.979,1.631,1.088"/>
<path fill="none" stroke="#111111" stroke-width="0.75" stroke-miterlimit="10" d="M80.268,36.559
	c2.501-0.87,5.002-1.631,7.503-2.501"/>
<path fill="none" stroke="#111111" stroke-width="0.75" stroke-miterlimit="10" d="M83.747,39.386
	c1.74-0.87,3.371-1.631,5.111-2.501"/>
<path fill="none" stroke="#111111" stroke-width="0.75" stroke-miterlimit="10" d="M75.266,101.689
	c-0.979-1.957-2.936-6.523-2.501-12.612c0.652-7.394,4.675-12.287,6.089-13.81c-0.87,2.392-1.957,6.633-1.522,11.852
	c0.435,4.675,1.848,8.264,2.936,10.439"/>
<path fill="none" stroke="#111111" stroke-width="0.75" stroke-miterlimit="10" d="M69.938,41.886
	c0.979-1.087,1.849-2.283,2.828-3.371"/>
<path fill="none" stroke="#111111" stroke-width="0.75" stroke-miterlimit="10" d="M45.69,9.919
	c-0.217,0.652-0.435,1.414-0.652,2.066"/>
<path fill="none" stroke="#111111" stroke-width="0.75" stroke-miterlimit="10" d="M38.405,31.013c0,0.87-0.109,1.74-0.109,2.609"/>
<path fill="none" stroke="#111111" stroke-width="0.75" stroke-miterlimit="10" d="M71.025,43.518
	c0.979-0.544,1.958-0.979,2.936-1.522"/>
<path fill="none" stroke="#FFFFFF" stroke-width="0.75" stroke-miterlimit="10" d="M142.79,116.697
	c-1.522-1.088-3.914-2.502-7.067-3.48c-7.502-2.392-10.222,0.436-15.224-1.848c-5.328-2.393-3.044-5.872-10.547-11.853
	c-4.676-3.697-8.264-4.35-9.677-8.481c-0.979-2.609-0.218-4.349-1.522-5.545c-2.066-1.849-6.85,0.109-10.547,2.066"/>
<path fill="none" stroke="#111111" stroke-width="0.75" stroke-miterlimit="10" d="M141.486,115.609
	c-1.631,0.761-2.61,1.848-2.393,2.609c0.108,0.217,0.326,0.543,0.543,0.543C140.29,118.871,140.941,117.566,141.486,115.609z"/>
<path fill="none" stroke="#FFFFFF" stroke-width="0.75" stroke-miterlimit="10" d="M86.792,130.18c0.761,0,1.849,0.108,3.262,0.325
	c6.198,0.979,6.85,3.263,11.961,4.567c5.328,1.305,8.481-0.108,11.091,2.609c0.544,0.652,0.87,1.196,1.087,1.631"/>
<path fill="none" stroke="#FFFFFF" stroke-width="0.75" stroke-miterlimit="10" d="M80.268,102.996
	c0.435,4.132,0.979,8.263,1.414,12.395"/>
<path fill="#1479BE" d="M195.08,35.137l-17.666,6.977c-1.159-2.305-2.812-4.446-4.958-6.425c-3.076-2.835-5.452-3.344-7.13-1.524
	c-0.803,0.872-1.001,1.948-0.594,3.229c0.405,1.28,1.404,2.654,2.993,4.117c2.146,1.979,4.379,3.26,6.699,3.845l-6.357,19.084
	c-2.748-0.463-5.648-1.481-8.697-3.055c-3.049-1.575-5.683-3.383-7.899-5.427c-5.568-5.133-8.39-10.965-8.471-17.496
	c-0.079-6.532,2.232-12.349,6.937-17.452c4.974-5.396,10.794-8.265,17.461-8.606c6.67-0.342,12.648,1.928,17.944,6.81
	c2.289,2.109,4.341,4.627,6.158,7.553C193.314,29.693,194.509,32.483,195.08,35.137z"/>
</svg>
