<?xml version="1.0" encoding="utf-8"?>
<!-- Generator: Adobe Illustrator 16.0.0, SVG Export Plug-In . SVG Version: 6.00 Build 0)  -->
<!DOCTYPE svg PUBLIC "-//W3C//DTD SVG 1.1//EN" "http://www.w3.org/Graphics/SVG/1.1/DTD/svg11.dtd">
<svg version="1.1" id="Layer_1" xmlns="http://www.w3.org/2000/svg" xmlns:xlink="http://www.w3.org/1999/xlink" x="0px" y="0px"
	 width="636px" height="486px" viewBox="0 0 636 486" enable-background="new 0 0 636 486" xml:space="preserve">
<g>
	<g>
		<defs>
			
				<rect id="SVGID_1_" x="423.974" y="2.006" transform="matrix(1 0.0083 -0.0083 1 1.0312 -4.3692)" width="205.907" height="240.108"/>
		</defs>
		<clipPath id="SVGID_2_">
			<use xlink:href="#SVGID_1_"  overflow="visible"/>
		</clipPath>
		<g clip-path="url(#SVGID_2_)">
			
				<path fill="none" stroke="#FFFFFF" stroke-width="0.75" stroke-linecap="round" stroke-linejoin="round" stroke-miterlimit="10" d="
				M586.248,20.49c11.25,18.095,68.85,114.378,29.474,195.353c-4.171,8.565-9.747,17.619-17.121,26.558
				c-0.466-4.104-0.931-8.308-1.396-12.412"/>
			
				<path fill="none" stroke="#FFFFFF" stroke-width="0.75" stroke-linecap="round" stroke-linejoin="round" stroke-miterlimit="10" d="
				M611.927,239.212c-4.409,1.063-8.917,2.026-13.326,3.089"/>
			<path fill="none" stroke="#FFFFFF" stroke-width="0.75" stroke-linecap="round" stroke-linejoin="round" d="M519.3,1
				c0.602,0.5,1.102,0.9,1.7,1.4"/>
			<path fill="none" stroke="#FFFFFF" stroke-width="0.75" stroke-linecap="round" stroke-linejoin="round" d="M551,20.7
				c3.5-0.1,7.1-0.2,10.6-0.3"/>
		</g>
	</g>
</g>
<g>
	<g>
		<defs>
			<rect id="SVGID_3_" width="176.2" height="112.5"/>
		</defs>
		<clipPath id="SVGID_4_">
			<use xlink:href="#SVGID_3_"  overflow="visible"/>
		</clipPath>
		<g clip-path="url(#SVGID_4_)">
			
				<path fill="none" stroke="#FFFFFF" stroke-width="0.75" stroke-linecap="round" stroke-linejoin="round" stroke-miterlimit="10" d="
				M23.8,21.5c-16.5,9.6-25.6,28.2-23,47c2.7,19.2,17.2,34.8,36.3,39.1c-1.5-3-3.1-6-4.6-8.9"/>
			
				<path fill="none" stroke="#FFFFFF" stroke-width="0.75" stroke-linecap="round" stroke-linejoin="round" stroke-miterlimit="10" d="
				M27.6,112.2c3.1-1.5,6.3-3.1,9.4-4.6"/>
		</g>
	</g>
</g>
<path fill="none" stroke="#FFFFFF" stroke-width="0.75" stroke-linecap="round" stroke-linejoin="round" stroke-miterlimit="10" d="
	M433.5,409.1H212.9v5.802h220.6V409.1z"/>
<path fill="none" stroke="#FFFFFF" stroke-width="0.75" stroke-linecap="round" stroke-linejoin="round" stroke-miterlimit="10" d="
	M212.7,409.1c5.7-0.898,14.7-3,24.1-8.898c2.4-1.5,7.9-5.102,12.3-9.9c13.6-14.898,12.7-36.199,12.3-42.199"/>
<path fill="none" stroke="#FFFFFF" stroke-width="0.75" stroke-linecap="round" stroke-linejoin="round" stroke-miterlimit="10" d="
	M433.6,409.1c-5.698-0.898-14.698-3-24.1-8.898c-2.4-1.5-7.9-5.102-12.3-9.9c-13.602-14.898-12.7-36.199-12.3-42.199"/>
<path fill="none" stroke="#FFFFFF" stroke-width="0.75" stroke-linecap="round" stroke-linejoin="round" stroke-miterlimit="10" d="
	M504.2,348.2H126.5c-6.2,0-11.2-5-11.2-11.2c0-1.2,0-123.5,0-123.6s0-5.2,0-5.3c0-0.4,0-13.5,0-13.8c0-0.7,0-120,0-128.2
	c0-0.7,0.1-4.7,3.3-7.9c2-2,4.8-3.3,7.9-3.3h392.9c6.198,0,11.198,5,11.198,11.2v157.7"/>
<path fill="none" stroke="#FFFFFF" stroke-width="0.75" stroke-linecap="round" stroke-linejoin="round" stroke-miterlimit="10" d="
	M530.7,291.6V321.2"/>
<path fill="none" stroke="#FFFFFF" stroke-width="0.75" stroke-linecap="round" stroke-linejoin="round" stroke-miterlimit="10" d="
	M530.7,267v24.6"/>
<path fill="none" stroke="#FFFFFF" stroke-width="0.75" stroke-linecap="round" stroke-linejoin="round" stroke-miterlimit="10" d="
	M530.7,256.7V267"/>
<path fill="none" stroke="#FFFFFF" stroke-width="0.75" stroke-linecap="round" stroke-linejoin="round" stroke-miterlimit="10" d="
	M498.6,320.1H121.8V75.5h402.4v161.6"/>
<path fill="none" stroke="#FFFFFF" stroke-width="0.75" stroke-linecap="round" stroke-linejoin="round" stroke-miterlimit="10" d="
	M524.2,241.9v74.6"/>
<path fill="none" stroke="#FFFFFF" stroke-width="0.75" stroke-linecap="round" stroke-linejoin="round" stroke-miterlimit="10" d="
	M346.1,348.2c0,12.7-10.3,23-23,23c-12.698,0-23-10.3-23-23"/>
<path fill="none" stroke="#FFFFFF" stroke-width="0.75" stroke-linecap="round" stroke-linejoin="round" stroke-miterlimit="10" d="
	M343.5,348.5c0,10.6-9.2,19.2-20.5,19.2s-20.5-8.601-20.5-19.2"/>
<path fill="none" stroke="#FFFFFF" stroke-width="0.75" stroke-linecap="round" stroke-linejoin="round" stroke-miterlimit="10" d="
	M455.7,281v24.2H279.1v-78.4h176.6v40.7V281z"/>
<path fill="none" stroke="#FFFFFF" stroke-width="0.75" stroke-linecap="round" stroke-linejoin="round" stroke-miterlimit="10" d="
	M278.9,226.8l-3.8-2.4"/>
<path fill="none" stroke="#FFFFFF" stroke-width="0.75" stroke-linecap="round" stroke-linejoin="round" stroke-miterlimit="10" d="
	M279.1,305.2l-4-2.4v-78.4h176.6l4,2.4"/>
<path fill="none" stroke="#FFFFFF" stroke-width="0.75" stroke-linecap="round" stroke-linejoin="round" stroke-miterlimit="10" d="
	M102.3,384.2c17.5,1.8,29.9,6.399,29.9,11.8c0,6.9-20.6,12.6-45.9,12.6c-25.3,0-45.9-5.6-45.9-12.6c0-5.6,13.3-10.3,31.7-11.9"/>
<path fill="none" stroke="#FFFFFF" stroke-width="0.75" stroke-linecap="round" stroke-linejoin="round" stroke-miterlimit="10" d="
	M132.2,410.4c0,6.898-20.6,12.6-45.9,12.6c-25.3,0-45.9-5.6-45.9-12.6"/>
<path fill="none" stroke="#FFFFFF" stroke-width="0.75" stroke-linecap="round" stroke-linejoin="round" stroke-miterlimit="10" d="
	M40.4,395.9v14.5"/>
<path fill="none" stroke="#FFFFFF" stroke-width="0.75" stroke-linecap="round" stroke-linejoin="round" stroke-miterlimit="10" d="
	M132.2,395.9v14.5"/>
<path fill="none" stroke="#FFFFFF" stroke-width="0.75" stroke-linecap="round" stroke-linejoin="round" stroke-miterlimit="10" d="
	M77.3,422.9V482.1c0,1.7,1.4,3.102,3.1,3.102c1.7,0,3.1-1.4,3.1-3.102V422.9"/>
<path fill="none" stroke="#FFFFFF" stroke-width="0.75" stroke-linecap="round" stroke-linejoin="round" stroke-miterlimit="10" d="
	M51.8,418.7l-7.7,48.7c-0.3,1.698,0.9,3.3,2.6,3.6c1.7,0.3,3.3-0.9,3.6-2.6l7.6-48.102"/>
<path fill="none" stroke="#FFFFFF" stroke-width="0.75" stroke-linecap="round" stroke-linejoin="round" stroke-miterlimit="10" d="
	M118.1,419.4l7.6,47.898c0.3,1.7-0.9,3.3-2.6,3.602c-1.7,0.3-3.3-0.9-3.6-2.602l-7.5-47.5"/>
<path fill="none" stroke="#FFFFFF" stroke-width="0.75" stroke-linecap="round" stroke-linejoin="round" stroke-miterlimit="10" d="
	M442.8,277c3.5,3.7,5.2,5.6,6.5,6.4c1.602,1,4.7,1.699,10.8,3.1c5.2,1.2,6.2,1.3,6.4,0.9c0.2-0.5-1.5-1.602-5.3-5.102
	c-1.8-0.1-4.602-0.5-6.2-2.6c-1.2-1.602-1.2-3.4-1.2-4.102c0-3-0.8-7.6-4-14.8c0,2.5-0.1,4.9-0.1,7.4c-0.9-1.3-2.102-3.2-3.4-5.7
	c-2.7-5.2-3.6-9.1-3.898-9c-0.302,0.1,0.3,3.8,1.3,7.7c1.5,5.7,3.2,9,2.898,9.2c-0.3,0.199-2.6-3.301-4.6-7.2
	c-2.9-5.7-3.9-9.601-4.2-9.5c-0.3,0.1,0.4,4.6,2.3,9.6c2.102,5.4,4.802,8.9,4.7,9c-0.3,0.2-9.8-14.899-10.6-14.5
	c-0.4,0.2,1.5,4.5,3.5,7.9c2.6,4.7,5.2,7.898,5.1,7.898c-0.2,0.2-9.1-11.5-9.898-11c-0.4,0.302,1.6,3.802,3.1,6.2
	C436.7,269.7,438.4,272.2,442.8,277z"/>
<path fill="#FFFFFF" d="M455.3,277.4c-0.5,0.398-1.898,1.8-2.5,4c-0.6,2.6,0.4,4.6,0.7,5.199c12.7,3,28.5,5.5,46.6,6.101
	c13.9,0.399,26.4-0.4,37.102-1.8c-0.2,4.3-0.5,10.8-1.3,18.699c-1,9.5-1.802,12.5-1.802,17.801c0,5.199,0.9,12.699,4.9,21.8
	c2.1,3,5.3,7,10.1,10.8c5.802,4.6,11.5,6.9,15.302,8.1c0.3-2,0.6-4,0.898-6.1c1.4-0.7,3.4-1.8,5.4-3.6
	c4.898-4.4,6.398-9.801,7.398-13.5c2.4-8.7,1.4-16.301,0.7-21.602c-0.7-5.6-1.5-7.1-1.6-12.1c-0.102-6.7,1.398-9.4-1.102-18.7
	c-3.3-12-9.6-22-12.398-26.3c-2-3.102-3.8-5.602-5.102-7.301c-7.198,6.101-12.8,7.301-16.698,7.301c-2.4,0-3.2-0.5-5.7-0.301
	c-7.7,0.5-13.102,6.199-14.3,7.399C517.2,277.4,502.2,281.2,455.3,277.4z"/>
<path fill="#3848D8" d="M528.9,382.5c0.698-0.1,1.698-0.3,2.8-0.8c0.898-0.4,1.5-0.9,2-1.3c-0.102-0.4-0.7-0.9-0.4-1.2
	c1.102-0.3,1.5-0.101,1.7,0c0.3,0.3,0.1,0.8-0.1,2.3c-0.102,0.5-0.2,1.2-0.2,2c-0.102,1.8,0,2.4-0.602,3
	c-0.1,0.1-0.198,0.2-0.398,0.3c-0.9,0.5-1.2,0.8-2.7,1.2c-0.5,0.1-0.8,0.1-1,0c-0.5-0.2-0.4-1.5-0.4-2.3S529,384,528.9,382.5z"/>
<path fill="none" stroke="#FFFFFF" stroke-width="0.75" stroke-linecap="round" stroke-linejoin="round" stroke-miterlimit="10" d="
	M510.5,400.9c0.6,0,3.9-0.2,5.7-2.802c0.5-0.698,0.8-1.398,1-2"/>
<path fill="none" stroke="#FFFFFF" stroke-width="0.75" stroke-linecap="round" stroke-linejoin="round" stroke-miterlimit="10" d="
	M520.4,386.8c-0.802,1.2-1.9,2.8-3.602,4.4c-3,2.8-6.398,3.899-9.8,5.1c-5.2,1.7-8.5,1.7-8.9,3.4c-0.198,1,0.5,2,1.102,2.7"/>
<path fill="none" stroke="#FFFFFF" stroke-width="0.75" stroke-linecap="round" stroke-linejoin="round" stroke-miterlimit="10" d="
	M533.5,402.8c1.9-0.3,3.5-0.7,4.6-1.1c-0.3-6.4-0.198-10.5,0.2-13.2c0.102-1,0.4-3.1-0.8-4c-0.8-0.6-1.9-0.5-2.6-0.4
	c-0.102,0.5-0.302,1.4-0.9,2.2c-0.6,0.7-1.4,1-2.1,1.4c-0.7,0.3-1.4,0.399-1.802,0.5"/>
<path fill="none" stroke="#FFFFFF" stroke-width="0.75" stroke-linecap="round" stroke-linejoin="round" stroke-miterlimit="10" d="
	M534.4,405c1.698-0.2,3.398-0.6,4.198-2.1c1.302-2.2-0.398-5.102-0.6-5.302"/>
<path fill="none" stroke="#FFFFFF" stroke-width="0.75" stroke-linecap="round" stroke-linejoin="round" stroke-miterlimit="10" d="
	M533.5,397.5c0.5-0.7,0.9-1.5,1.3-6.1c0.3-3.2,0.3-4.4,1.3-5.4c0.602-0.6,1.4-0.8,2-0.9"/>
<path fill="none" stroke="#FFFFFF" stroke-width="0.75" stroke-linecap="round" stroke-linejoin="round" stroke-miterlimit="10" d="
	M499.2,402.4c1.898-0.5,3.8-0.9,5.8-1.4"/>
<path fill="#3848D8" d="M518.4,388.9c0-1.301-0.302-2,0.1-2.4c0.2-0.2,0.5-0.4,1.3-0.4c0.102,0.301,0.2,0.602,0.4,0.9
	c2,0.7,3.6,0.7,4.6,0.6c1-0.1,4-0.398,4.4-1.898c0.2-0.602-0.102-1.2-0.4-1.602c1.602-0.199,2.102,0.102,2.3,0.301
	c0.5,0.801-1.398,2.301-0.898,4c0.1,0.5,0.398,0.601,0.398,1.101s-0.198,1.101-0.898,1.899c-1.7,1.801-4.4,2.5-4.602,2.601
	c-2.5,0.601-4.898,0.399-6.6,0c-0.1-1-0.2-2-0.3-3C518.3,390.5,518.4,389.8,518.4,388.9z"/>
<path fill="none" stroke="#FFFFFF" stroke-width="0.75" stroke-linecap="round" stroke-linejoin="round" stroke-miterlimit="10" d="
	M509.4,324.8c0.1,0.7,0.398,1.601,1,2.5c0.8,1.3,1.698,2.101,2.398,2.601c5.4,14.801,10.9,26.399,15.4,34.699
	c3.398,6.301,7.3,13,14.7,15.7c1.698,0.601,5.6,2,9.8,0.5c5.6-2,9.5-8.3,10-16.1"/>
<path fill="none" stroke="#FFFFFF" stroke-width="0.75" stroke-linecap="round" stroke-linejoin="round" stroke-miterlimit="10" d="
	M540.9,338.4c-6.9-8.801-16.302-18.2-29.4-25.9c-1.6-0.9-3.2-1.8-4.7-2.6c-1.5,0.1-2.7,0.5-3.7,1c-14.198,8,9.302,59.5,17.2,76
	c0.7,0.3,2.5,0.898,4.8,0.6c2.302-0.3,3.802-1.4,4.4-1.9c-1.2-3.5-2.3-7.3-3.3-11.398c-1.5-6.5-2.4-12.602-2.8-18.102"/>
<path fill="none" stroke="#FFFFFF" stroke-width="0.75" stroke-linecap="round" stroke-linejoin="round" stroke-miterlimit="10" d="
	M528.4,382.6c0.8,0,2.3-0.1,3.8-1c0.6-0.398,1-0.699,1.3-1.1c-1.3-2.5-2.6-5.5-3.6-9.1c-0.602-2.102-1-4-1.2-5.801"/>
<path fill="#FFFFFF" d="M575.8,292.7c1.102,3.6,2.602,7.6,4.8,11.8c6.7,12.7,16.2,20.4,22.4,24.5c0,0.2,0.5,2.7-1.2,4.3
	c-0.6,0.5-1.2,0.8-1.7,0.9c-2.8-1.2-6.698-3.101-11-5.7c-12.6-7.5-22.1-12.8-22.698-20.6C566.4,306.4,566.2,300.2,575.8,292.7z"/>
<path fill="none" stroke="#FFFFFF" stroke-width="0.75" stroke-linecap="round" stroke-linejoin="round" stroke-miterlimit="10" d="
	M600.7,328.6c1.6,0.2,5.1,1,8.398,3.801c1.7,1.5,2.802,3.199,3.5,4.399c4.9,6.601,7.2,10,6.9,10.2c-0.2,0.2-2.9-2.6-8.1-8.5
	c3.398,10.4,4.898,15.7,4.6,15.8c-0.3,0.101-2.4-4.6-6.2-14.2c2.5,11.102,3.602,16.7,3.2,16.801c-0.4,0.101-2.3-5.101-5.5-15.699
	c1.9,11.5,2.2,14.6,2.1,14.6c-0.3,0.102-3-6.699-3.6-11.1c0-0.4-0.3-2-1.4-3.602c-0.6-0.8-1.3-1.8-2.198-1.8
	c-2.102-0.1-3.5,5.5-4.102,5.3c-0.5-0.1-0.1-3.199,0.602-6c0.5-2.1,1.1-3.8,1.6-4.898c0.3-0.7,0.5-1.801,0.5-3.2
	C600.8,329.7,600.8,329,600.7,328.6z"/>
<path fill="none" stroke="#FFFFFF" stroke-width="0.75" stroke-linecap="round" stroke-linejoin="round" stroke-miterlimit="10" d="
	M532.4,220.6c-1.9,3.5-3.2,6.2-3.802,7.4c-0.1,0.3-0.3,0.8-0.398,1.5c-0.102,1,0.1,1.7,0.2,2.2c0.198,2-2.102,4-2.5,4.3
	c-2.5,2.1-4.7,1.7-4.9,2.8c-0.2,1.1,1.8,2.5,3.3,3c0.8,0.3,1.602,0.4,2.102,0.4"/>
<path fill="none" stroke="#FFFFFF" stroke-width="0.75" stroke-linecap="round" stroke-linejoin="round" stroke-miterlimit="10" d="
	M524.7,242.3c-0.102,2.3,0.398,4,0.8,5.2c0.7,2,1.4,2.5,2.1,4.7c0.802,2.399,0.2,3,0.9,3.7c1.5,1.5,5.3,0.6,7.9-0.102
	c2-0.5,5-1.5,8.3-3.5"/>
<path fill="none" stroke="#FFFFFF" stroke-width="0.75" stroke-linecap="round" stroke-linejoin="round" stroke-miterlimit="10" d="
	M528.6,249.2c0.2,0,1.2,0,2.102-0.9c0.7-0.8,0.7-1.6,0.8-1.899"/>
<path fill="#FFFFFF" d="M533.7,232.4c-0.7-0.3-2.7,0.9-2.9,2.7c-0.2,1.4,0.7,3,1.4,3C533.5,238.1,534.8,232.9,533.7,232.4z"/>
<path fill="none" stroke="#FFFFFF" stroke-width="0.75" stroke-linecap="round" stroke-linejoin="round" stroke-miterlimit="10" d="
	M530,228.4c0.7-0.2,2.3-0.5,4.2,0.1c1.6,0.5,2.7,1.5,3.2,2.1"/>
<path fill="none" stroke="#FFFFFF" stroke-width="0.75" stroke-linecap="round" stroke-linejoin="round" stroke-miterlimit="10" d="
	M540.8,266.7c0.5-1,1.3-2.8,1.4-5c0.1-2.3-0.4-4-0.7-4.9c-0.3-1-0.7-1.8-1-2.3"/>
<path fill="none" stroke="#FFFFFF" stroke-width="0.75" stroke-linecap="round" stroke-linejoin="round" stroke-miterlimit="10" d="
	M558.6,261.8c-1.398-1.1-2.3-2.2-2.898-3c-0.5-0.6-2.5-3.399-3.2-7.7c-0.1-0.8-0.2-1.398-0.2-1.898"/>
<path fill="#FFFFFF" d="M551.4,242.2c-2.2,2.2-2.302,3.6-2,4.3c0.5,1.3,2.1,1.3,3,3.2c0.5,1.1,0.198,1.5,0.6,3.3
	c0.3,1.3,0.8,2.4,1.1,3.1c0-2.199,0.602-3,1.2-3.398c0.7-0.4,1.2,0,2.7-0.102c0.2,0,2.2-0.199,3.7-1.1c1.398-0.9,1-1.7,2.6-4
	c1.8-2.8,2.9-2.5,3.2-4.1c0.4-2-1.3-2.6-0.9-4.9c0.4-1.9,1.802-2.2,1.602-3.8c-0.2-1.7-2-2.5-1.7-2.9c0.3-0.4,2.9,0.2,4.4,1.9
	c1.698,2.1,1,4.9,1.198,4.9c0.302,0,1.4-2.4,0.302-4.5c-1.2-2.4-4.4-3.1-4.2-3.6c0.1-0.4,2.3,0.1,6.7,0.8c4.198,0.7,4.5,0.6,4.5,0.5
	c0.1-0.3-2.302-1.3-4.7-2c-3.602-1-5.8-0.8-5.9-1.3c-0.1-0.5,2.2-1.3,4.7-1.4c3.3-0.1,5.6,1.2,5.7,0.9c0.1-0.3-2-2-5-2.8
	c-1.9-0.5-3.102-0.4-3.2-0.7c-0.2-0.7,4.8-1.1,8.6-4.5c1.4-1.2,3.2-3.4,2.5-4.5c-0.6-1-2.5-0.1-5.3-1.5
	c-1.398-0.7-1.5-1.2-2.898-1.6c-0.5-0.2-2.2-0.7-3.602-0.1c-2.5,0.9-3.1,4.3-3.5,6.9c-0.1,0.9-0.2,1.6-0.2,2.1c-1-1-2.5-2.6-4.3-4.6
	c-5.7-6.3-6.398-8.1-9.1-8.9c-0.2-0.1-0.102,0-8.2,0.4c-2.8,0.1-3.8,0.2-5,0.8c-1.8,1-1.5,2.1-3.5,3.3c-2.2,1.3-3.3,0.6-4.4,1.8
	c-1.3,1.5-0.8,3.9-0.698,4.2c0.198,0.9,0.6,1.5,0.898,1.9c0.8-0.1,1.9-0.3,3.4-0.3c3.6-0.1,6.6-0.2,8.7,1.5
	c1.698,1.4,2.198,3.6,2.398,4.3c0.5,2.1-0.1,3.3,1,4.3c1,1,2.3,0.7,2.602,1.5c0.3,0.8-1.2,1.3-1.602,2.9c-0.398,1.5,0.3,3,0.7,3
	c0.3,0,0.2-1.2,1.1-2.7c0.302-0.4,1.602-2.7,3.9-2.6c1,0,2.2,0.5,2.9,1.4c1,1.3,0.3,2.9-0.102,4c-0.8,2-2.398,3-2.898,3.3
	C553.2,241.7,552.1,242,551.4,242.2z"/>
<path fill="none" stroke="#FFFFFF" stroke-width="0.75" stroke-linecap="round" stroke-linejoin="round" stroke-miterlimit="10" d="
	M551.3,239.5c1.3-0.8,2.4-1.5,2.2-1.9c-0.2-0.3-1.5,0.1-1.7-0.3c-0.2-0.3,0.4-1,2.602-2.7"/>
<path fill="none" stroke="#000000" stroke-width="0.75" stroke-miterlimit="10" d="M580.3,326c-0.898-2.8-2.3-7.3-3.5-12.8
	c-2.3-10.9-1.8-15.9-4-26c-0.8-3.601-2.1-8.7-4.5-14.8"/>
<path fill="none" stroke="#FFFFFF" stroke-width="0.75" stroke-linecap="round" stroke-linejoin="round" stroke-miterlimit="10" d="
	M494.7,407.9c1,0.398,2.6,1.1,4.7,1.5c7.698,1.398,10.3-2.9,18.3-2.102c3.898,0.3,5,1.5,9.3,1.2c2.8-0.2,5.1-0.8,6.6-1.3
	c-0.3-6.4-0.198-10.5,0.2-13.2c0.102-1,0.4-3.101-0.8-4c-0.8-0.601-1.9-0.5-2.6-0.399c-0.5,1-1.4,2.5-3,3.601
	c-2.302,1.5-4.602,1.5-6,1.5c-1.4,0-2.5-0.2-3.302-0.4c0.102-1.399,0.102-3-0.5-3.3c-0.898-0.3-2.1,3-5.198,5.9
	c-3,2.8-6.4,3.898-9.802,5.1c-5.198,1.7-8.5,1.7-8.898,3.4C493.4,406.2,494.1,407.2,494.7,407.9z"/>
<path fill="none" stroke="#FFFFFF" stroke-width="0.75" stroke-linecap="round" stroke-linejoin="round" stroke-miterlimit="10" d="
	M493.6,405.2c-0.1,0.6,0,1.398,0.302,2.2c1.8,4,9.5,3.8,10.898,3.8c2.4-0.102,7.4-0.2,9.7-2.8c0.3-0.4,1-1.2,1.9-1.302
	c0.898,0,1.3,0.802,3,1.5c0.3,0.102,0.698,0.302,1.8,0.602c3.7,1,5.5,1.5,7.3,1.3c2-0.1,4.5-0.3,5.6-2.2
	c1.302-2.2-0.398-5.1-0.6-5.3"/>
<path fill="none" stroke="#FFFFFF" stroke-width="0.75" stroke-linecap="round" stroke-linejoin="round" stroke-miterlimit="10" d="
	M517.7,407.2c1.7-1.602,3.1-2,4.2-2.2c1.8-0.2,2.698,0.5,4.398-0.1c1.602-0.5,2.5-1.7,2.7-2c0.5-0.7,0.9-1.5,1.3-6.102
	c0.3-3.199,0.3-4.398,1.3-5.398c0.602-0.602,1.4-0.801,2-0.9"/>
<path fill="none" stroke="#FFFFFF" stroke-width="0.75" stroke-linecap="round" stroke-linejoin="round" stroke-miterlimit="10" d="
	M494.7,407.9c2-0.9,3.7-1.2,5.1-1.302c2.9-0.198,3.602,0.602,5.8,0c2.5-0.698,3.2-2.198,4.7-1.898c1.3,0.2,2.2,1.6,2.8,2.7"/>
<path fill="none" stroke="#FFFFFF" stroke-width="0.75" stroke-linecap="round" stroke-linejoin="round" stroke-miterlimit="10" d="
	M509,311.1c0.1-0.199,0.4-0.6,0.9-0.898c1.1-0.602,2.198-0.2,2.398-0.102c6.3,2.801,13.9,7,21.4,13.602
	c2.398,2.1,4.5,4.199,6.398,6.3"/>
<path fill="none" stroke="#FFFFFF" stroke-width="0.75" stroke-linecap="round" stroke-linejoin="round" stroke-miterlimit="10" d="
	M588.3,413.4H455.7v71.5h132.6V413.4L588.3,413.4z"/>
<path fill="none" stroke="#FFFFFF" stroke-width="0.75" stroke-linecap="round" stroke-linejoin="round" stroke-miterlimit="10" d="
	M455.7,440.1h-55V477.2h55V440.1z"/>
<path fill="none" stroke="#FFFFFF" stroke-width="0.75" stroke-linecap="round" stroke-linejoin="round" stroke-miterlimit="10" d="
	M498.1,401c-9.898,0-19.898,0-29.8,0c-4.2,4.1-8.398,8.3-12.6,12.4"/>
<path fill="none" stroke="#FFFFFF" stroke-width="0.75" stroke-linecap="round" stroke-linejoin="round" stroke-miterlimit="10" d="
	M588.3,413.4L568.4,401c-9.802,0-19.602,0-29.4-0.1"/>
<path fill="none" stroke="#FFFFFF" stroke-width="0.75" stroke-linecap="round" stroke-linejoin="round" stroke-miterlimit="10" d="
	M455.7,427.7h-42.4L400.7,440.1"/>
<path fill="none" stroke="#FFFFFF" stroke-width="0.75" stroke-linecap="round" stroke-linejoin="round" stroke-miterlimit="10" d="
	M436.7,477.2V440.1l5.5-12.398"/>
<path fill="none" stroke="#FFFFFF" stroke-width="0.75" stroke-linecap="round" stroke-linejoin="round" stroke-miterlimit="10" d="
	M441.5,477.2V440.1L447,427.7"/>
<path fill="none" stroke="#FFFFFF" stroke-width="0.75" stroke-linecap="round" stroke-linejoin="round" stroke-miterlimit="10" d="
	M517.7,485v-71.5c-0.2-2.1-0.4-4.1-0.7-6.2"/>
<path fill="none" stroke="#FFFFFF" stroke-width="0.75" stroke-linecap="round" stroke-linejoin="round" stroke-miterlimit="10" d="
	M522.6,485v-71.5c-0.198-1.3-0.398-2.6-0.6-4"/>
<path fill="#FFFFFF" d="M167.5,148.2c-1.1-2.5-3.3-3.7-4-4c-0.7,0.4-2,1.1-3.5,2c-0.6,0.3-1.4,0.8-2.4,1.3
	c-5.1,2.8-31.6,19.8-50.5,21.8c-3,0.3-6.7,0.3-10.4-1.5c-2.6-1.3-4.3-3.2-5.9-5.1c-3.8-4.3-4.4-6.9-6.2-9.3c-2.2-2.9-6.7-5.9-17-5.9
	c-3.6,7-5.9,13.3-7.3,18.2c-4,13.8-4.2,25.3-4,31.4c0,0.4,0,0.7,0,1c0.7,17.7,0.9,26.6-0.3,32.7c-1,4.9-2,6.4-1.3,9.6
	c1,4.5,4.2,7.6,6.9,9.6c0.8,2.2,1.5,4.4,2.3,6.6c6,0.2,16.4-0.3,27.7-5.6c6.1-2.9,10.8-6.3,14.2-9.2c-0.4-2.1-0.9-4.2-1.3-6.3
	c1.2-3.1,2.7-7.8,2.6-13.5c-0.1-6.3-1.9-10.4-4.6-18.2c-0.2-0.5-0.3-0.9-0.5-1.4c-0.3-0.8-0.6-1.7-0.8-2.5c1.1-0.8,2.3-1.6,3.4-2.4
	c11.5-8.2,22.8-16.5,33.7-24.8c-8.7,4.9-17.5,9.8-26.2,14.7c9.2-3.4,19.7-9.9,44.7-27.4c4.6-3.2,8.4-5.9,11.2-7.9
	C168.2,151.2,168.1,149.8,167.5,148.2z"/>
<path fill="none" stroke="#FFFFFF" stroke-width="0.75" stroke-linecap="round" stroke-linejoin="round" stroke-miterlimit="10" d="
	M160.7,149.3c1.1-2.3,2.2-4.6,3.5-7c1.9-3.5,3.8-6.8,5.7-9.8c0.1,1,0.2,2.5-0.2,4.3c-0.4,1.8-1,2.4-0.7,2.9c0.7,1,5.1-0.2,8.3-2.9
	c2.3-1.9,3.8-4.5,4.3-5.2c1.3-2.2,2-4,2.4-3.9c0.4,0.1,0.4,1.8,0.3,2.3c-0.1,1.9-0.7,3.4-1,4c-1.6,3.5-4.8,6.2-5.8,7"/>
<path fill="none" stroke="#FFFFFF" stroke-width="0.75" stroke-linecap="round" stroke-linejoin="round" stroke-miterlimit="10" d="
	M184.2,131.2c0.3-0.3,1.3-1.4,1.7-1.2c0.1,0.1,0.3,0.2,0.2,1.4c-0.3,1.7-0.4,2.8-0.8,3.9c0,0-0.3,0.9-0.7,1.6
	c-1.6,2.9-5,5.6-5.7,6.1"/>
<path fill="none" stroke="#FFFFFF" stroke-width="0.75" stroke-linecap="round" stroke-linejoin="round" stroke-miterlimit="10" d="
	M185.8,133c0.1-0.1,0.9-1,1.4-0.7c0.2,0.1,0.3,0.4,0.3,0.9c0.1,3.2-1.9,6.2-1.9,6.2c-0.8,1.3-2.4,3.3-5.1,5"/>
<path fill="none" stroke="#FFFFFF" stroke-width="0.75" stroke-linecap="round" stroke-linejoin="round" stroke-miterlimit="10" d="
	M164.2,152.5c0.6-0.5,1.6-1.1,2.9-1.3c0.8-0.1,1.3-0.1,1.7,0c3.8,0.3,7.5-1.3,8.5-1.8c1.2-0.7,2.1-1.5,2.1-1.5
	c1-0.8,1.5-1.5,2.3-2.1c0.7-0.5,1.3-0.8,1.7-1c2.6-1.3,6.8-3.3,6.6-3.8c-0.1-0.4-2.2-0.1-3.6,0.3c-2.2,0.6-3.7,1.7-4.7,2.4"/>
<path fill="#3848D8" d="M87,375.6c0.2,1.102,1.3,2,2.5,1.7c-0.8,0.4-1.9,1.4-3.5,1.7c-2.9,0.5-3.8-1.1-5.9-0.4
	c-1.1,0.4-1.9,1.301-3.3,1.102c-0.4,0-0.7-0.102-0.9-0.2c0.2-0.7,0.3-1.5,0.4-2.2c0.2-1,0.3-1.6,0.4-2.398c0.1-0.7,0.2-1.7,0.2-2.9
	c0.9,0.5,2.9,1.1,5.6,1s4.7-1.5,5.5-2c0.1,0.6,0.2,1.9,0.3,2.5C87.3,373.9,86.9,374.8,87,375.6z"/>
<path fill="none" stroke="#FFFFFF" stroke-width="0.75" stroke-linecap="round" stroke-linejoin="round" stroke-miterlimit="10" d="
	M118.4,393.4c0.8-1.602,1.7-3.9,0.8-4.9c-0.8-0.9-2.3,0.1-6.1-0.1c-0.3,0-5.1-0.2-8.3-2.2c-1-0.7-1.8-1.2-1.8-1.2
	c-0.9-0.7-1.4-1.2-2.4-2c-0.3-0.2-0.5-0.4-0.8-0.6c0,0-1-0.801-2.2-1.602c-1.1-0.699-3.3-2.1-6.4-3.898"/>
<path fill="none" stroke="#FFFFFF" stroke-width="0.75" stroke-linecap="round" stroke-linejoin="round" stroke-miterlimit="10" d="
	M75.7,377.4c-0.2,0.1-0.6,0.398-1,0.6c-0.9,0.6-1.6,1.1-1.9,1.4c-0.6,0.699-0.3,1.8,0.2,3.199"/>
<path fill="none" stroke="#FFFFFF" stroke-width="0.75" stroke-linecap="round" stroke-linejoin="round" stroke-miterlimit="10" d="
	M75.5,377.5c-0.6-0.7-2.1,0.5-3.8-0.2c-1.5-0.6-1.7-2-2.6-1.899c-1.1,0.101-2,2-1.4,2.601c0.3,0.3,1.1,0,2.9,0.101
	c0.9,0.101,1,0.199,1.5,0.199C72.8,378.4,74,378.3,75.5,377.5z"/>
<path fill="none" stroke="#FFFFFF" stroke-width="0.75" stroke-linecap="round" stroke-linejoin="round" stroke-miterlimit="10" d="
	M91.2,376.9c-0.4-0.2-0.9-0.602-1-1c-0.1-0.4,0.2-0.602,0.4-1c0.5-1,0.2-2.301-0.3-2.602c-0.9-0.398-3.6,1.5-3.2,3.4
	c0.3,1.3,1.9,1.8,2.1,1.8"/>
<path fill="none" stroke="#FFFFFF" stroke-width="0.75" stroke-linecap="round" stroke-linejoin="round" stroke-miterlimit="10" d="
	M89,377.3c4.1,2.4,6.4,4.601,7.7,6.3c0.6,0.7,1.7,2.2,3.5,2.5c1.2,0.2,2.3-0.3,3-0.6"/>
<path fill="#3848D8" d="M86.7,378.8c0,0-1.1,1-0.8,2.3c0.3,1.102,1.4,1.9,2.7,1.801c-0.8,0.399-2.2,1-4,1.301
	c-3.1,0.5-3.9-0.7-6.2,0.1c-1.2,0.4-2.1,1.4-3.6,1.2c-0.4,0-0.7-0.2-1-0.2c0.3-1.6,0.6-3.3,0.9-5c0.4-3.1,0.6-5.898,0.7-8.5
	c0.4,0.301,1,0.7,1.8,0.9c1.9,0.699,3.7,0.398,6,0c1-0.2,1.8-0.301,2.3-0.5c0,1.1,0.1,2.398,0.4,3.699
	C86.2,377,86.4,377.9,86.7,378.8z"/>
<path fill="none" stroke="#FFFFFF" stroke-width="0.75" stroke-linecap="round" stroke-linejoin="round" stroke-miterlimit="10" d="
	M531.1,344.4c5.5,3.8,11.102,7.5,16.602,11.3c1,0,2.5,0.1,4.3,0.6c1,0.3,4.1,1.2,4,2c-0.1,1.101-5.6,2.5-9.9,1.8
	C536.7,358.5,532,346.7,531.1,344.4z"/>
<path fill="none" stroke="#000000" stroke-width="0.75" stroke-miterlimit="10" d="M543.6,341.2l-3.1-14.101"/>
<path fill="none" stroke="#FFFFFF" stroke-width="0.75" stroke-linecap="round" stroke-linejoin="round" stroke-miterlimit="10" d="
	M64.2,248.4c1.9,4,4.6,10,7,17.398c7.4,22.2,7.9,40.7,8.1,54.801C79.5,331.7,79,346.7,76,364.4c-1.6-0.301-3.2-0.602-4.8-0.9
	c1.2,1.4,2.5,2.8,3.7,4.2c-1.8,0.1-3.5,0.1-5.3,0.2c1.5,1,3.1,2.1,4.6,3.1c1,0.6,4,2.2,8,1.9c3.6-0.301,6-2,7-2.801
	c-1.3-0.699-2.7-1.399-4-2c1.9-1.101,3.8-2.199,5.7-3.301c-1.7-0.8-3.5-1.6-5.2-2.398c0.5-1.5,1.2-3.9,2-6.801
	C90,347.2,97.5,319.4,99.2,268.4c0.6-19.602-0.1-25.3-4.4-28.2C85.3,233.8,66.7,246.6,64.2,248.4z"/>
<path fill="none" stroke="#FFFFFF" stroke-width="0.75" stroke-linecap="round" stroke-linejoin="round" stroke-miterlimit="10" d="
	M84.5,263.3c-0.4-1.899-1.1-4-1.9-6.3c-1.5-4-3.2-7.3-4.8-9.9"/>
<path fill="none" stroke="#000000" stroke-width="0.75" stroke-linecap="round" stroke-linejoin="round" stroke-miterlimit="10" d="
	M129.9,180c-7.4,4.4-16.9,8.5-28.3,9.8c-1.3,0.2-2.7,0.3-4,0.3c1.3,2.6,2.5,5.4,3.7,8.3c0.5,1.3,1.1,2.6,1.5,3.8"/>
<path fill="none" stroke="#000000" stroke-width="0.75" stroke-linecap="round" stroke-linejoin="round" stroke-miterlimit="10" d="
	M98.6,216.8c0.3,2.3,0.4,7-1.9,12.1c-1.4,3.1-3.2,5.3-4.6,6.7"/>
<path fill="none" stroke="#FFFFFF" stroke-width="0.75" stroke-linecap="round" stroke-linejoin="round" stroke-miterlimit="10" d="
	M87.2,369.2c1.9-0.5,3.8-0.9,5.7-1.4c-0.7-0.5-1.3-1-2-1.5c1.2-1.1,2.3-2.1,3.5-3.2c-2-0.6-4-1.199-5.9-1.8
	c1.2-3.7,2.3-7.5,3.4-11.5c10.1-37.1,10.5-72.2,6.8-102.6"/>
<path fill="none" stroke="#FFFFFF" stroke-width="0.75" stroke-linecap="round" stroke-linejoin="round" stroke-miterlimit="10" d="
	M74.5,382.6c-0.2,0.102-0.6,0.4-1,0.602c-0.9,0.6-1.6,1.1-1.9,1.398c-1.1,1.301,0.8,3.7,1.1,7.2c0.1,1.2,0.1,2.8-0.5,4.8
	c0.2,0.5,0.6,1,1,1.5c0,0,0.8,0.9,1.8,1.602c2,1.398,10-0.4,15.4-0.5c6,0,6.9,2,15,2c1.7,0,4.2,0,7-1.102c2.4-1,4.1-2.3,5.1-3.3
	c0.7-1.2,1.3-2.6,0.7-3.5c-0.6-0.899-2.2-0.399-6.5-0.399c-5.1,0-7.3-1-8.3-1.5c-0.8-0.399-1.4-0.899-1.8-1.199
	c-0.9-0.7-1.4-1.2-2.4-2c-0.9-0.7-1.6-1.301-3-2.2c-1.1-0.7-3.3-2.101-6.4-3.899"/>
<path fill="none" stroke="#FFFFFF" stroke-width="0.75" stroke-linecap="round" stroke-linejoin="round" stroke-miterlimit="10" d="
	M90.1,382.1c-0.4-0.199-0.9-0.6-1-1c-0.1-0.398,0.2-0.6,0.4-1c0.5-1,0.2-2.3-0.3-2.6c-0.7-0.3-3.6,1.7-3.2,3.4
	c0.3,1.3,2.5,1.6,2.4,2.3s-2.4,0.899-3.7,1.1c-3.6,0.4-4.4-0.399-6.8,0.2c-1.7,0.4-2.1,1-2.9,1.1c-0.2,0-0.4,0.102-0.6,0
	c-0.6-0.398,0.5-2.1-0.1-2.8c-0.6-0.7-2.1,0.5-3.8-0.2c-1.5-0.6-1.7-2-2.6-1.898c-1.1,0.1-2,2-1.4,2.6c0.3,0.301,1.1,0,2.9,0.102
	c0.9,0.1,1,0.199,1.5,0.199c0.8,0,2-0.101,3.4-0.801"/>
<path fill="none" stroke="#FFFFFF" stroke-width="0.75" stroke-linecap="round" stroke-linejoin="round" stroke-miterlimit="10" d="
	M87.9,382.5c4.1,2.4,6.4,4.6,7.7,6.3c0.6,0.7,1.7,2.2,3.5,2.5c1.2,0.2,2.3-0.3,3-0.6"/>
<path fill="none" stroke="#FFFFFF" stroke-width="0.75" stroke-linecap="round" stroke-linejoin="round" stroke-miterlimit="10" d="
	M118.6,394.4c0.1,1,0,2.5-0.7,3.898c-2.3,4.4-9.5,4.5-12.6,4.602c-3.8,0.1-7-0.7-8.5-1c-2.6-0.602-2.4-0.9-4-1.2
	c-5.6-1.102-8.3,2.1-15.4,1.7c-2.4-0.2-3.7-0.602-4.5-1.7c-1.1-1.4-0.8-3.2-0.7-4"/>
<path fill="none" stroke="#FFFFFF" stroke-width="0.75" stroke-linecap="round" stroke-linejoin="round" stroke-miterlimit="10" d="
	M76.9,395.3c2.4-3.3,4.3-4,5.7-4c2.8,0,3.9,3,7.5,3.7c2.6,0.5,5.1-0.5,6.8-1.3"/>
<path fill="none" stroke="#FFFFFF" stroke-width="0.75" stroke-linecap="round" stroke-linejoin="round" stroke-miterlimit="10" d="
	M78,144.6c2.1,1.4,4,2.3,5.4,2.7c6.6,2.3,11.5,0.7,12,0.1c0.3-0.4,0.3-0.6,0.5-1.6c0.2-1,1-2.9,2.4-6.6c0.2-0.5,0.5-1.4,0.8-2.4
	c1.1-0.2,2.6-0.6,2.7-1.3c0.1-0.5-0.4-0.8-0.8-1.3c-1.3-1.4-1.2-3.4-1.1-6.2c0.2-3.2,0.7-2.8,0.7-5.2c0-1.4,0.1-5.8-3-9
	c-0.4-0.4-0.8-0.8-1.1-1"/>
<path fill="none" stroke="#FFFFFF" stroke-width="0.75" stroke-linecap="round" stroke-linejoin="round" stroke-miterlimit="10" d="
	M97.4,131.7c0-0.1,0.1-2.6,0.1-2.8c0-0.2,0.1-3.3,0.1-3.5c-0.2-0.6-0.7-1.4-1.5-2.2c-1.1-1.1-2.3-1.6-2.9-1.8
	c-0.6,3.3-1.2,6.7-1.8,10c0.5,0.3,1.5,0.7,2.7,0.8C95.6,132.3,96.8,131.9,97.4,131.7z"/>
<path fill="#1D1D1B" stroke="#FFFFFF" stroke-width="0.75" stroke-linecap="round" stroke-linejoin="round" stroke-miterlimit="10" d="
	M94.7,126.4c-0.4,2,0.3,3.8,0.6,3.8c0.5-0.1,0.7-5.6,0.2-5.6C95.3,124.6,94.9,125.8,94.7,126.4z"/>
<path fill="none" stroke="#FFFFFF" stroke-width="0.75" stroke-linecap="round" stroke-linejoin="round" stroke-miterlimit="10" d="
	M96.1,141.1c-1.2,0.1-2.3-0.3-2.8-1.1c-0.3-0.5-0.3-1-0.3-1.3"/>
<path fill="none" stroke="#FFFFFF" stroke-width="0.75" stroke-linecap="round" stroke-linejoin="round" stroke-miterlimit="10" d="
	M84,130.6c-0.7-0.3-3-1.3-3.7-3.7c-0.6-2-0.4-5,1.2-5.7c1.5-0.6,3.3,1.1,3.6,1.3"/>
<path fill="none" stroke="#FFFFFF" stroke-width="0.75" stroke-linecap="round" stroke-linejoin="round" stroke-miterlimit="10" d="
	M83.9,126.6c-0.2-0.1-0.5-0.3-0.5-0.6c0-0.5,0.7-0.8,0.8-1.3c0.2-0.9-1.3-2-2-1.6c-0.5,0.3-0.6,1.3-0.3,2.4"/>
<path fill="#FFFFFF" d="M82,129.5c-0.3,0.3-0.8,0.7-1.2,1.3c-0.4,0.7-0.3,0.9-0.7,1.4c-0.3,0.5-0.5,0.5-2.1,1.6
	c-1.1,0.8-1.2,1-1.3,1.1c-0.4,0.7,0,1.2-0.2,2c-0.2,0.7-0.7,0.9-1.4,1.5c-1.8,1.6-2.1,3.4-2.5,3.3c-0.3-0.1-0.3-1.2,0.2-2
	c0.3-0.6,0.8-0.7,0.7-1c0-0.5-1-0.4-1.6-1.2s-0.1-1.4-0.7-2.3c-0.5-0.6-0.8-0.4-1.3-1.1c-0.4-0.6-0.4-0.8-0.8-1.6
	c-0.2-0.4-0.5-0.9-1.1-1.5c-0.1-0.2-1.5-1.8-3.1-4.1c-2.4-3.4-2.8-7.1-3-9c-0.2-1.5-0.4-3.3,0.1-5.6c0.5-2.2,1.3-3.8,2-4.9
	c-0.2-0.2-0.5-0.3-0.7-0.5c0.9-0.3,1.8-0.7,2.8-1c0.6-1.1,1.3-2.2,1.9-3.3c-0.1,0.6-0.2,1.3-0.3,1.9c1.5-0.7,3.5-1.5,5.9-2.1
	c4.9-1.4,8.7-1.5,12.6-1.6c7.2-0.2,13.3,0.6,13.2,2c0,0.4-0.5,0.9-0.3,1.4c0.3,0.6,1.5,0.3,2,0.9c0.3,0.5-0.1,0.9,0.1,1.4
	c0.5,1.6,5,1,4.9,1.6c0,0.3-1.7,0.4-2.1,1.3s1.2,1.8,0.8,2.7c-0.3,0.7-1.4,0.5-2.1,1.4c-0.7,1,0.1,2-0.3,2.3
	c-0.5,0.4-1.8-1.1-3.7-1.8c-3.3-1.1-7.1,0.7-7.5,1c-4.7,2.4-5.9,7.1-6,7.5c-0.2-0.3-0.7-0.8-1.5-1.1c-0.3-0.1-1.3-0.5-2-0.2
	c-1.7,0.6-2.2,4.4-0.6,6.9C81.3,128.8,81.7,129.2,82,129.5z"/>
<path fill="none" stroke="#FFFFFF" stroke-width="0.75" stroke-linecap="round" stroke-linejoin="round" stroke-miterlimit="10" d="
	M98.5,123.2c-0.3-0.6-1-1.6-2.4-2.3c-0.8-0.4-1.5-0.6-2.1-0.7"/>
<path fill="none" stroke="#FFFFFF" stroke-width="0.75" stroke-linecap="round" stroke-linejoin="round" stroke-miterlimit="10" d="
	M99.9,127.7c-0.8-0.4-1.5-0.7-2.3-1.1"/>
<path fill="none" stroke="#FFFFFF" stroke-width="0.75" stroke-linecap="round" stroke-linejoin="round" stroke-miterlimit="10" d="
	M93.6,121.3c-2.9,0.3-5.8,0.6-8.7,1"/>
<path fill="none" stroke="#FFFFFF" stroke-width="0.75" stroke-linecap="round" stroke-linejoin="round" stroke-miterlimit="10" d="
	M84.3,158.7c-1.1-1.4-1.2-2.5-1.1-3.3c0.1-1.5,1.1-2.1,2-4.4c0.4-1.1,0.7-2.1,0.8-2.7"/>
<path fill="none" stroke="#FFFFFF" stroke-width="0.75" stroke-linecap="round" stroke-linejoin="round" stroke-miterlimit="10" d="
	M70,150.6c1.3-1.6,4.6-6.1,3.6-11.4c-0.1-0.8-0.4-1.6-0.7-2.3"/>
<path fill="none" stroke="#FFFFFF" stroke-width="0.75" stroke-linecap="round" stroke-linejoin="round" stroke-miterlimit="10" d="
	M606.7,330.7c0.8-2,1.5-4,2.3-6l25.7,14.1L618,383l-25.7-14c3.7-9.8,7.4-19.5,11-29.3"/>
<path fill="none" stroke="#FFFFFF" stroke-width="0.75" stroke-linecap="round" stroke-linejoin="round" stroke-miterlimit="10" d="
	M604.8,329.8c0.602-1.399,1.102-2.899,1.7-4.3"/>
<path fill="none" stroke="#FFFFFF" stroke-width="0.75" stroke-linecap="round" stroke-linejoin="round" stroke-miterlimit="10" d="
	M615.5,383.8c-8.6-4.7-17.1-9.399-25.7-14.1c3.7-9.9,7.4-19.8,11.2-29.7"/>
<path fill="none" stroke="#FFFFFF" stroke-width="0.75" stroke-linecap="round" stroke-linejoin="round" stroke-miterlimit="10" d="
	M606.5,325.5l2.5-0.8"/>
<path fill="none" stroke="#FFFFFF" stroke-width="0.75" stroke-linecap="round" stroke-linejoin="round" stroke-miterlimit="10" d="
	M592.3,369l-2.5,0.8"/>
<path fill="none" stroke="#FFFFFF" stroke-width="0.75" stroke-linecap="round" stroke-linejoin="round" stroke-miterlimit="10" d="
	M618,383l-2.5,0.8"/>
<path fill="none" stroke="#FFFFFF" stroke-width="0.75" stroke-linecap="round" stroke-linejoin="round" stroke-miterlimit="10" d="
	M508.4,327.8c0.398,0.5,1.3,1.2,2.5,1.7c0.698,0.3,1.398,0.4,1.898,0.4"/>
<path fill="none" stroke="#FFFFFF" stroke-width="0.75" stroke-linecap="round" stroke-linejoin="round" stroke-miterlimit="10" d="
	M165.2,140.4l-22.4-14.1"/>
<path fill="none" stroke="#FFFFFF" stroke-width="0.75" stroke-linecap="round" stroke-linejoin="round" stroke-miterlimit="10" d="
	M195.7,111.4l-11.3,18"/>
<path fill="none" stroke="#FFFFFF" stroke-width="0.75" stroke-linecap="round" stroke-linejoin="round" stroke-miterlimit="10" d="
	M166.4,138.3l-23.6-14.8L164.4,89l31.2,19.6c-4.2,6.7-8.4,13.4-12.6,20.1"/>
<path fill="none" stroke="#FFFFFF" stroke-width="0.75" stroke-linecap="round" stroke-linejoin="round" stroke-miterlimit="10" d="
	M142.8,123.5v2.8"/>
<path fill="none" stroke="#FFFFFF" stroke-width="0.75" stroke-linecap="round" stroke-linejoin="round" stroke-miterlimit="10" d="
	M195.7,108.6v2.8"/>
<path fill="none" stroke="#FFFFFF" stroke-width="0.75" stroke-linecap="round" stroke-linejoin="round" stroke-miterlimit="10" d="
	M263.7,226.8h-84.1V302.9h84.1V226.8z"/>
<path fill="none" stroke="#FFFFFF" stroke-width="0.75" stroke-linecap="round" stroke-linejoin="round" stroke-miterlimit="10" d="
	M358.7,158.7h-84.1v54.8h84.1V158.7z"/>
<path fill="none" stroke="#FFFFFF" stroke-width="0.75" stroke-linecap="round" stroke-linejoin="round" stroke-miterlimit="10" d="
	M453.8,158.7h-84.1v54.8h84.1V158.7z"/>
<path fill="none" stroke="#FFFFFF" stroke-width="0.75" stroke-linecap="round" stroke-linejoin="round" stroke-miterlimit="10" d="
	M530.4,230.6l-1.802,7.9l6.102,2.2l1.6-6.5l0.4-1.9L530.4,230.6z"/>
<path fill="none" stroke="#FFFFFF" stroke-width="0.75" stroke-linecap="round" stroke-linejoin="round" stroke-miterlimit="10" d="
	M551.3,233l-14.6-0.7"/>
<line fill="none" stroke="#FFFFFF" stroke-width="0.75" x1="179.999" y1="94.625" x2="453.999" y2="93.621"/>
<line fill="none" stroke="#FFFFFF" stroke-width="0.75" x1="180.375" y1="95" x2="180.375" y2="99"/>
<line fill="none" stroke="#FFFFFF" stroke-width="0.75" x1="187" y1="136.625" x2="454" y2="136.625"/>
<line fill="none" stroke="#FFFFFF" stroke-width="0.75" x1="453.625" y1="137" x2="453.625" y2="94"/>
<g>
	<g id="OP01">
		<polygon fill="#00B0AE" points="340.643,115.204 340.643,101.22 346.343,101.22 346.343,111.694 351.332,111.694 351.332,115.204 
					"/>
		<path fill="#8BC541" d="M342.832,101.22v6.341c0,2.768-0.651,4.771-1.953,6.011c-1.3,1.241-2.785,1.86-4.455,1.86
			c-1.208,0-2.354-0.342-3.443-1.026c-1.088-0.684-1.85-1.586-2.288-2.707c-0.438-1.122-0.658-2.593-0.658-4.413v-6.066H342.832z"/>
		<polygon fill="#FCB814" points="319.452,115.204 319.452,101.22 330.033,101.22 330.033,104.729 325.145,104.729 325.145,107.268 
			328.769,107.268 328.769,110.778 325.145,110.778 325.145,115.204 		"/>
		<path fill="#F48024" d="M308.564,101.22h8.403c1.457,0,2.601,0.398,3.433,1.196s1.248,1.794,1.248,2.993
			c0,1.319-0.49,2.352-1.469,3.097c1.389,1.723,2.218,3.956,2.488,6.699h-5.91c-0.106-1.766-0.35-3.07-0.729-3.913
			c-0.378-0.843-0.972-1.265-1.774-1.265v5.178h-5.689V101.22z"/>
		<path fill="#EE4035" d="M304.67,115.433c-1.838,0-3.396-0.701-4.674-2.104c-1.279-1.401-1.918-3.11-1.918-5.126
			c0-2.01,0.639-3.712,1.918-5.109c1.278-1.395,2.836-2.094,4.674-2.094c1.844,0,3.405,0.699,4.684,2.094
			c1.278,1.397,1.916,3.1,1.916,5.109c0,2.016-0.638,3.725-1.916,5.126C308.075,114.732,306.514,115.433,304.67,115.433z
			 M303.345,111.725l4.039-3.515l-4.039-3.511V111.725z"/>
		<polygon fill="#CA3091" points="291.856,115.204 291.856,101.22 297.555,101.22 297.555,111.694 302.546,111.694 302.546,115.204 
					"/>
		<path fill="#644B9E" d="M287.763,115.433c-1.838,0-3.396-0.701-4.675-2.104c-1.278-1.401-1.917-3.11-1.917-5.126
			c0-2.01,0.64-3.712,1.917-5.109c1.279-1.395,2.837-2.094,4.675-2.094c1.844,0,3.404,0.699,4.683,2.094
			c1.279,1.397,1.918,3.1,1.918,5.109c0,2.016-0.639,3.725-1.918,5.126C291.167,114.732,289.606,115.433,287.763,115.433z"/>
		<path fill="#1479BE" d="M285.851,102.475l-2.385,4.939c-0.698-0.263-1.468-0.394-2.311-0.394c-1.208,0-1.812,0.357-1.812,1.072
			c0,0.342,0.168,0.609,0.505,0.802c0.337,0.192,0.818,0.288,1.441,0.288c0.843,0,1.568-0.165,2.176-0.494l2.385,5.297
			c-0.675,0.439-1.49,0.791-2.445,1.053c-0.956,0.263-1.869,0.394-2.74,0.394c-2.188,0-3.928-0.685-5.223-2.057
			c-1.296-1.371-1.943-3.059-1.943-5.063c0-2.12,0.674-3.868,2.023-5.246c1.349-1.379,3.063-2.067,5.143-2.067
			c0.898,0,1.828,0.133,2.786,0.398C284.411,101.665,285.21,102.024,285.851,102.475z"/>
	</g>
	<g id="OP01_1_">
		<g>
			<g>
				<defs>
					<path id="SVGID_5_" d="M342.832,101.22v6.341c0,2.768-0.651,4.771-1.953,6.011c-1.3,1.241-2.785,1.86-4.455,1.86
						c-1.208,0-2.354-0.342-3.443-1.026c-1.088-0.684-1.85-1.586-2.288-2.707c-0.438-1.122-0.658-2.593-0.658-4.413v-6.066H342.832z
						"/>
				</defs>
				<clipPath id="SVGID_6_">
					<use xlink:href="#SVGID_5_"  overflow="visible"/>
				</clipPath>
				<polygon clip-path="url(#SVGID_6_)" fill="#1C9458" points="340.643,115.204 340.643,101.22 346.343,101.22 346.343,111.694 
					351.332,111.694 351.332,115.204 				"/>
			</g>
		</g>
		<g>
			<g>
				<defs>
					<path id="SVGID_7_" d="M308.564,101.22h8.403c1.457,0,2.601,0.398,3.433,1.196s1.248,1.794,1.248,2.993
						c0,1.319-0.49,2.352-1.469,3.097c1.389,1.723,2.218,3.956,2.488,6.699h-5.91c-0.106-1.766-0.35-3.07-0.729-3.913
						c-0.378-0.843-0.972-1.265-1.774-1.265v5.178h-5.689V101.22z"/>
				</defs>
				<clipPath id="SVGID_8_">
					<use xlink:href="#SVGID_7_"  overflow="visible"/>
				</clipPath>
				<polygon clip-path="url(#SVGID_8_)" fill="#F05E24" points="319.452,115.204 319.452,101.22 330.033,101.22 330.033,104.729 
					325.145,104.729 325.145,107.268 328.769,107.268 328.769,110.778 325.145,110.778 325.145,115.204 				"/>
			</g>
		</g>
		<g>
			<g>
				<defs>
					<path id="SVGID_9_" d="M304.67,115.433c-1.838,0-3.396-0.701-4.674-2.104c-1.279-1.401-1.918-3.11-1.918-5.126
						c0-2.01,0.639-3.712,1.918-5.109c1.278-1.395,2.836-2.094,4.674-2.094c1.844,0,3.405,0.699,4.684,2.094
						c1.278,1.397,1.916,3.1,1.916,5.109c0,2.016-0.638,3.725-1.916,5.126C308.075,114.732,306.514,115.433,304.67,115.433z"/>
				</defs>
				<clipPath id="SVGID_10_">
					<use xlink:href="#SVGID_9_"  overflow="visible"/>
				</clipPath>
				<path clip-path="url(#SVGID_10_)" fill="#E31D3B" d="M308.564,101.22h8.403c1.457,0,2.601,0.398,3.433,1.196
					s1.248,1.794,1.248,2.993c0,1.319-0.49,2.352-1.469,3.097c1.389,1.723,2.218,3.956,2.488,6.699h-5.91
					c-0.106-1.766-0.35-3.07-0.729-3.913c-0.378-0.843-0.972-1.265-1.774-1.265v5.178h-5.689V101.22z"/>
			</g>
		</g>
		<g>
			<g>
				<defs>
					<path id="SVGID_11_" d="M304.67,115.433c-1.838,0-3.396-0.701-4.674-2.104c-1.279-1.401-1.918-3.11-1.918-5.126
						c0-2.01,0.639-3.712,1.918-5.109c1.278-1.395,2.836-2.094,4.674-2.094c1.844,0,3.405,0.699,4.684,2.094
						c1.278,1.397,1.916,3.1,1.916,5.109c0,2.016-0.638,3.725-1.916,5.126C308.075,114.732,306.514,115.433,304.67,115.433z"/>
				</defs>
				<clipPath id="SVGID_12_">
					<use xlink:href="#SVGID_11_"  overflow="visible"/>
				</clipPath>
				<polygon clip-path="url(#SVGID_12_)" fill="#A21C37" points="291.856,115.204 291.856,101.22 297.555,101.22 297.555,111.694 
					302.546,111.694 302.546,115.204 				"/>
			</g>
		</g>
		<g>
			<g>
				<defs>
					<path id="SVGID_13_" d="M287.763,115.433c-1.838,0-3.396-0.701-4.675-2.104c-1.278-1.401-1.917-3.11-1.917-5.126
						c0-2.01,0.64-3.712,1.917-5.109c1.279-1.395,2.837-2.094,4.675-2.094c1.844,0,3.404,0.699,4.683,2.094
						c1.279,1.397,1.918,3.1,1.918,5.109c0,2.016-0.639,3.725-1.918,5.126C291.167,114.732,289.606,115.433,287.763,115.433z"/>
				</defs>
				<clipPath id="SVGID_14_">
					<use xlink:href="#SVGID_13_"  overflow="visible"/>
				</clipPath>
				<polygon clip-path="url(#SVGID_14_)" fill="#542E88" points="291.856,115.204 291.856,101.22 297.555,101.22 297.555,111.694 
					302.546,111.694 302.546,115.204 				"/>
			</g>
		</g>
		<g>
			<g>
				<defs>
					<path id="SVGID_15_" d="M285.851,102.475l-2.385,4.939c-0.698-0.263-1.468-0.394-2.311-0.394c-1.208,0-1.812,0.357-1.812,1.072
						c0,0.342,0.168,0.609,0.505,0.802c0.337,0.192,0.818,0.288,1.441,0.288c0.843,0,1.568-0.165,2.176-0.494l2.385,5.297
						c-0.675,0.439-1.49,0.791-2.445,1.053c-0.956,0.263-1.869,0.394-2.74,0.394c-2.188,0-3.928-0.685-5.223-2.057
						c-1.296-1.371-1.943-3.059-1.943-5.063c0-2.12,0.674-3.868,2.023-5.246c1.349-1.379,3.063-2.067,5.143-2.067
						c0.898,0,1.828,0.133,2.786,0.398C284.411,101.665,285.21,102.024,285.851,102.475z"/>
				</defs>
				<clipPath id="SVGID_16_">
					<use xlink:href="#SVGID_15_"  overflow="visible"/>
				</clipPath>
				<path clip-path="url(#SVGID_16_)" fill="#204393" d="M287.763,115.433c-1.838,0-3.396-0.701-4.675-2.104
					c-1.278-1.401-1.917-3.11-1.917-5.126c0-2.01,0.64-3.712,1.917-5.109c1.279-1.395,2.837-2.094,4.675-2.094
					c1.844,0,3.404,0.699,4.683,2.094c1.279,1.397,1.918,3.1,1.918,5.109c0,2.016-0.639,3.725-1.918,5.126
					C291.167,114.732,289.606,115.433,287.763,115.433z"/>
			</g>
		</g>
	</g>
	<path fill="#4895D0" d="M290.956,121.122l-2.04,3.12c-0.851-0.445-1.637-0.667-2.358-0.667c-0.479,0-0.865,0.134-1.153,0.405
		c-0.29,0.27-0.434,0.626-0.434,1.07c0,0.843,0.507,1.263,1.525,1.263v-1.624h4.229v5.595c-1.71,0.104-2.867,0.156-3.472,0.156
		c-2.335,0-3.957-0.539-4.866-1.618c-0.909-1.077-1.364-2.338-1.364-3.773c0-0.987,0.212-1.895,0.635-2.719
		c0.423-0.824,1.034-1.464,1.833-1.917c0.798-0.452,1.744-0.679,2.836-0.679c0.768,0,1.561,0.121,2.383,0.363
		C289.532,120.34,290.279,120.682,290.956,121.122z M294.451,119.898h6.236c1.08,0,1.929,0.295,2.545,0.885
		c0.617,0.592,0.926,1.332,0.926,2.221c0,0.979-0.363,1.745-1.088,2.297c1.03,1.279,1.645,2.936,1.845,4.969h-4.384
		c-0.079-1.309-0.259-2.275-0.541-2.902c-0.282-0.625-0.721-0.937-1.316-0.937v3.838h-4.223V119.898z M298.674,122.032v1.999h0.119
		c0.758,0,1.137-0.322,1.137-0.973c0-0.272-0.077-0.51-0.231-0.716c-0.154-0.206-0.411-0.31-0.768-0.31H298.674z M312.303,130.441
		c-1.362,0-2.52-0.521-3.468-1.562c-0.949-1.04-1.424-2.306-1.424-3.803c0-1.492,0.475-2.755,1.424-3.79
		c0.949-1.035,2.105-1.552,3.468-1.552c1.368,0,2.525,0.517,3.473,1.552c0.949,1.035,1.425,2.298,1.425,3.79
		c0,1.497-0.476,2.763-1.425,3.803C314.828,129.921,313.67,130.441,312.303,130.441z M312.303,123.711
		c-0.271,0-0.497,0.103-0.676,0.309c-0.179,0.208-0.27,0.468-0.27,0.779c0,0.313,0.09,0.572,0.27,0.778
		c0.179,0.208,0.404,0.31,0.676,0.31c0.275,0,0.502-0.103,0.683-0.31c0.179-0.206,0.269-0.464,0.269-0.778
		c0-0.312-0.09-0.572-0.269-0.779C312.805,123.814,312.578,123.711,312.303,123.711z M329.553,119.898v4.704
		c0,2.051-0.481,3.539-1.446,4.459c-0.966,0.92-2.065,1.38-3.308,1.38c-0.896,0-1.748-0.254-2.554-0.763
		c-0.808-0.507-1.372-1.176-1.698-2.006c-0.325-0.832-0.489-1.925-0.489-3.274v-4.5h4.229v4.804c0,0.519,0.042,0.846,0.126,0.982
		c0.083,0.135,0.207,0.203,0.374,0.203c0.232,0,0.382-0.124,0.444-0.371c0.062-0.247,0.093-0.663,0.093-1.247v-4.371H329.553z
		 M333.796,119.898h5.786c1.222,0,2.159,0.335,2.814,1.009c0.653,0.673,0.98,1.506,0.98,2.498c0,0.969-0.31,1.795-0.931,2.474
		c-0.622,0.679-1.37,1.02-2.247,1.02c-0.729,0-1.457-0.301-2.184-0.903v4.274h-4.222v-10.372H333.796z M338.018,122.142v2.256
		c0.127,0.037,0.242,0.053,0.353,0.053c0.317,0,0.573-0.107,0.77-0.326c0.195-0.216,0.294-0.502,0.294-0.856
		c0-0.348-0.083-0.624-0.251-0.826c-0.167-0.201-0.402-0.301-0.713-0.301H338.018z M351.332,117.562H273.5v15.276h77.832V117.562z"
		/>
</g>
<text transform="matrix(1 0 0 1 514.0742 16.8389)" fill="#FEF1F6" stroke="#FFFFFF" stroke-miterlimit="10" font-family="'BookmanOldStyle'" font-size="15.5965">Dung Nguyen</text>
<text transform="matrix(1 0 0 1 32.0742 24.8389)" fill="#D52027" stroke="#FFFFFF" stroke-miterlimit="10" font-family="'BookmanOldStyle'" font-size="15.5965">Alex Ho</text>
</svg>
