<?xml version="1.0" encoding="utf-8"?>
<!-- Generator: Adobe Illustrator 16.0.0, SVG Export Plug-In . SVG Version: 6.00 Build 0)  -->
<!DOCTYPE svg PUBLIC "-//W3C//DTD SVG 1.1//EN" "http://www.w3.org/Graphics/SVG/1.1/DTD/svg11.dtd">
<svg version="1.1" id="Layer_1" xmlns="http://www.w3.org/2000/svg" xmlns:xlink="http://www.w3.org/1999/xlink" x="0px" y="0px"
	 width="155px" height="41px" viewBox="0 0 155 41" enable-background="new 0 0 155 41" xml:space="preserve">
<g>
	<g id="OP01">
		<polygon fill="#00B0AE" points="114.17,19.335 114.17,1.284 121.528,1.284 121.528,14.805 127.969,14.805 127.969,19.335 		"/>
		<path fill="#8BC541" d="M116.997,1.284v8.185c0,3.573-0.842,6.159-2.521,7.76c-1.678,1.602-3.596,2.401-5.751,2.401
			c-1.56,0-3.041-0.441-4.446-1.325c-1.402-0.883-2.386-2.048-2.953-3.495c-0.564-1.448-0.85-3.347-0.85-5.697v-7.83H116.997z"/>
		<polygon fill="#FCB814" points="86.817,19.335 86.817,1.284 100.476,1.284 100.476,5.814 94.165,5.814 94.165,9.091 98.843,9.091 
			98.843,13.622 94.165,13.622 94.165,19.335 		"/>
		<path fill="#F48024" d="M72.763,1.284H83.61c1.881,0,3.356,0.514,4.431,1.543s1.611,2.316,1.611,3.863
			c0,1.702-0.633,3.036-1.895,3.997c1.791,2.224,2.861,5.106,3.211,8.647h-7.628c-0.139-2.279-0.452-3.963-0.942-5.051
			c-0.488-1.089-1.253-1.633-2.29-1.633v6.684h-7.346V1.284z"/>
		<path fill="#EE4035" d="M67.736,19.63c-2.373,0-4.383-0.905-6.034-2.715c-1.651-1.809-2.476-4.015-2.476-6.617
			c0-2.595,0.824-4.792,2.476-6.596C63.353,1.902,65.363,1,67.736,1c2.38,0,4.396,0.902,6.045,2.703
			c1.652,1.803,2.476,4.001,2.476,6.596c0,2.602-0.824,4.808-2.476,6.617C72.131,18.726,70.116,19.63,67.736,19.63z M66.025,14.844
			l5.213-4.537l-5.213-4.532V14.844z"/>
		<polygon fill="#CA3091" points="51.195,19.335 51.195,1.284 58.551,1.284 58.551,14.805 64.994,14.805 64.994,19.335 		"/>
		<path fill="#644B9E" d="M45.911,19.63c-2.373,0-4.384-0.905-6.035-2.715c-1.65-1.809-2.476-4.015-2.476-6.617
			c0-2.595,0.826-4.792,2.476-6.596C41.527,1.902,43.538,1,45.911,1c2.38,0,4.395,0.902,6.045,2.703
			c1.65,1.803,2.476,4.001,2.476,6.596c0,2.602-0.825,4.808-2.476,6.617C50.305,18.726,48.291,19.63,45.911,19.63z"/>
		<path fill="#1479BE" d="M43.443,2.904L40.364,9.28c-0.9-0.339-1.895-0.508-2.983-0.508c-1.559,0-2.338,0.461-2.338,1.384
			c0,0.441,0.217,0.787,0.653,1.035c0.435,0.248,1.056,0.371,1.86,0.371c1.088,0,2.024-0.212,2.809-0.638l3.079,6.838
			c-0.871,0.567-1.923,1.021-3.156,1.359c-1.234,0.339-2.412,0.509-3.536,0.509c-2.824,0-5.07-0.884-6.743-2.656
			c-1.672-1.769-2.508-3.948-2.508-6.535c0-2.736,0.87-4.993,2.612-6.771C31.854,1.889,34.066,1,36.751,1
			c1.16,0,2.359,0.172,3.596,0.514C41.584,1.858,42.616,2.322,43.443,2.904z"/>
	</g>
	<g id="OP01_1_">
		<g>
			<defs>
				<path id="SVGID_1_" d="M116.997,1.284v8.185c0,3.573-0.842,6.159-2.521,7.76c-1.678,1.602-3.596,2.401-5.751,2.401
					c-1.56,0-3.041-0.441-4.446-1.325c-1.402-0.883-2.386-2.048-2.953-3.495c-0.564-1.448-0.85-3.347-0.85-5.697v-7.83H116.997z"/>
			</defs>
			<clipPath id="SVGID_2_">
				<use xlink:href="#SVGID_1_"  overflow="visible"/>
			</clipPath>
			<polygon clip-path="url(#SVGID_2_)" fill="#1C9458" points="114.17,19.335 114.17,1.284 121.528,1.284 121.528,14.805 
				127.969,14.805 127.969,19.335 			"/>
		</g>
		<g>
			<defs>
				<path id="SVGID_3_" d="M72.763,1.284H83.61c1.881,0,3.356,0.514,4.431,1.543s1.611,2.316,1.611,3.863
					c0,1.702-0.633,3.036-1.895,3.997c1.791,2.224,2.861,5.106,3.211,8.647h-7.628c-0.139-2.279-0.452-3.963-0.942-5.051
					c-0.488-1.089-1.253-1.633-2.29-1.633v6.684h-7.346V1.284z"/>
			</defs>
			<clipPath id="SVGID_4_">
				<use xlink:href="#SVGID_3_"  overflow="visible"/>
			</clipPath>
			<polygon clip-path="url(#SVGID_4_)" fill="#F05E24" points="86.817,19.335 86.817,1.284 100.476,1.284 100.476,5.814 
				94.165,5.814 94.165,9.091 98.843,9.091 98.843,13.622 94.165,13.622 94.165,19.335 			"/>
		</g>
		<g>
			<defs>
				<path id="SVGID_5_" d="M67.736,19.63c-2.373,0-4.383-0.905-6.034-2.715c-1.651-1.809-2.476-4.015-2.476-6.617
					c0-2.595,0.824-4.792,2.476-6.596C63.353,1.902,65.363,1,67.736,1c2.38,0,4.396,0.902,6.045,2.703
					c1.652,1.803,2.476,4.001,2.476,6.596c0,2.602-0.824,4.808-2.476,6.617C72.131,18.726,70.116,19.63,67.736,19.63z"/>
			</defs>
			<clipPath id="SVGID_6_">
				<use xlink:href="#SVGID_5_"  overflow="visible"/>
			</clipPath>
			<path clip-path="url(#SVGID_6_)" fill="#E31D3B" d="M72.763,1.284H83.61c1.881,0,3.356,0.514,4.431,1.543
				s1.611,2.316,1.611,3.863c0,1.702-0.633,3.036-1.895,3.997c1.791,2.224,2.861,5.106,3.211,8.647h-7.628
				c-0.139-2.279-0.452-3.963-0.942-5.051c-0.488-1.089-1.253-1.633-2.29-1.633v6.684h-7.346V1.284z"/>
		</g>
		<g>
			<defs>
				<path id="SVGID_7_" d="M67.736,19.63c-2.373,0-4.383-0.905-6.034-2.715c-1.651-1.809-2.476-4.015-2.476-6.617
					c0-2.595,0.824-4.792,2.476-6.596C63.353,1.902,65.363,1,67.736,1c2.38,0,4.396,0.902,6.045,2.703
					c1.652,1.803,2.476,4.001,2.476,6.596c0,2.602-0.824,4.808-2.476,6.617C72.131,18.726,70.116,19.63,67.736,19.63z"/>
			</defs>
			<clipPath id="SVGID_8_">
				<use xlink:href="#SVGID_7_"  overflow="visible"/>
			</clipPath>
			<polygon clip-path="url(#SVGID_8_)" fill="#A21C37" points="51.195,19.335 51.195,1.284 58.551,1.284 58.551,14.805 
				64.994,14.805 64.994,19.335 			"/>
		</g>
		<g>
			<defs>
				<path id="SVGID_9_" d="M45.911,19.63c-2.373,0-4.384-0.905-6.035-2.715c-1.65-1.809-2.476-4.015-2.476-6.617
					c0-2.595,0.826-4.792,2.476-6.596C41.527,1.902,43.538,1,45.911,1c2.38,0,4.395,0.902,6.045,2.703
					c1.65,1.803,2.476,4.001,2.476,6.596c0,2.602-0.825,4.808-2.476,6.617C50.305,18.726,48.291,19.63,45.911,19.63z"/>
			</defs>
			<clipPath id="SVGID_10_">
				<use xlink:href="#SVGID_9_"  overflow="visible"/>
			</clipPath>
			<polygon clip-path="url(#SVGID_10_)" fill="#542E88" points="51.195,19.335 51.195,1.284 58.551,1.284 58.551,14.805 
				64.994,14.805 64.994,19.335 			"/>
		</g>
		<g>
			<defs>
				<path id="SVGID_11_" d="M43.443,2.904L40.364,9.28c-0.9-0.339-1.895-0.508-2.983-0.508c-1.559,0-2.338,0.461-2.338,1.384
					c0,0.441,0.217,0.787,0.653,1.035c0.435,0.248,1.056,0.371,1.86,0.371c1.088,0,2.024-0.212,2.809-0.638l3.079,6.838
					c-0.871,0.567-1.923,1.021-3.156,1.359c-1.234,0.339-2.412,0.509-3.536,0.509c-2.824,0-5.07-0.884-6.743-2.656
					c-1.672-1.769-2.508-3.948-2.508-6.535c0-2.736,0.87-4.993,2.612-6.771C31.854,1.889,34.066,1,36.751,1
					c1.16,0,2.359,0.172,3.596,0.514C41.584,1.858,42.616,2.322,43.443,2.904z"/>
			</defs>
			<clipPath id="SVGID_12_">
				<use xlink:href="#SVGID_11_"  overflow="visible"/>
			</clipPath>
			<path clip-path="url(#SVGID_12_)" fill="#204393" d="M45.911,19.63c-2.373,0-4.384-0.905-6.035-2.715
				c-1.65-1.809-2.476-4.015-2.476-6.617c0-2.595,0.826-4.792,2.476-6.596C41.527,1.902,43.538,1,45.911,1
				c2.38,0,4.395,0.902,6.045,2.703c1.65,1.803,2.476,4.001,2.476,6.596c0,2.602-0.825,4.808-2.476,6.617
				C50.305,18.726,48.291,19.63,45.911,19.63z"/>
		</g>
	</g>
	<path fill="#4895D0" d="M50.032,26.975L47.4,31.002c-1.098-0.574-2.113-0.861-3.044-0.861c-0.618,0-1.116,0.174-1.489,0.523
		c-0.374,0.348-0.561,0.809-0.561,1.381c0,1.088,0.655,1.631,1.969,1.631V31.58h5.458v7.223c-2.208,0.135-3.701,0.201-4.481,0.201
		c-3.014,0-5.107-0.695-6.281-2.088c-1.173-1.391-1.761-3.018-1.761-4.871c0-1.273,0.274-2.445,0.82-3.51
		c0.546-1.064,1.334-1.891,2.365-2.475c1.03-0.584,2.251-0.877,3.662-0.877c0.99,0,2.015,0.156,3.075,0.469
		C48.194,25.965,49.16,26.406,50.032,26.975z M54.545,25.395h8.049c1.394,0,2.49,0.381,3.286,1.143
		c0.797,0.764,1.195,1.719,1.195,2.867c0,1.264-0.469,2.252-1.405,2.965c1.33,1.65,2.123,3.789,2.381,6.414h-5.66
		c-0.102-1.689-0.334-2.938-0.698-3.746c-0.363-0.807-0.93-1.209-1.699-1.209v4.955h-5.45V25.395z M59.995,28.148v2.58h0.153
		c0.979,0,1.468-0.416,1.468-1.256c0-0.352-0.099-0.658-0.298-0.924s-0.53-0.4-0.992-0.4H59.995z M77.587,39.004
		c-1.759,0-3.252-0.672-4.476-2.016c-1.225-1.342-1.838-2.977-1.838-4.908c0-1.926,0.613-3.557,1.838-4.893
		c1.224-1.336,2.716-2.004,4.476-2.004c1.766,0,3.26,0.668,4.483,2.004c1.226,1.336,1.839,2.967,1.839,4.893
		c0,1.932-0.613,3.566-1.839,4.908C80.848,38.332,79.354,39.004,77.587,39.004z M77.587,30.316c-0.35,0-0.64,0.133-0.872,0.398
		c-0.232,0.268-0.348,0.604-0.348,1.006c0,0.404,0.116,0.738,0.348,1.004c0.231,0.268,0.521,0.4,0.872,0.4
		c0.355,0,0.649-0.133,0.88-0.4c0.231-0.266,0.348-0.6,0.348-1.004c0-0.402-0.116-0.738-0.348-1.006
		C78.236,30.449,77.943,30.316,77.587,30.316z M99.855,25.395v6.072c0,2.648-0.623,4.568-1.869,5.756
		c-1.245,1.188-2.666,1.781-4.268,1.781c-1.156,0-2.257-0.328-3.297-0.984c-1.042-0.654-1.771-1.518-2.191-2.59
		c-0.42-1.074-0.632-2.484-0.632-4.227v-5.809h5.459v6.201c0,0.67,0.055,1.092,0.163,1.268c0.107,0.174,0.268,0.262,0.483,0.262
		c0.301,0,0.492-0.16,0.573-0.479c0.08-0.318,0.12-0.855,0.12-1.609v-5.643H99.855z M105.332,25.395h7.469
		c1.578,0,2.788,0.434,3.634,1.303c0.845,0.869,1.267,1.943,1.267,3.225c0,1.25-0.399,2.316-1.201,3.193
		c-0.803,0.877-1.769,1.316-2.9,1.316c-0.94,0-1.881-0.389-2.817-1.166v5.518h-5.45V25.395z M110.782,28.291v2.912
		c0.164,0.047,0.313,0.068,0.453,0.068c0.411,0,0.74-0.139,0.993-0.42c0.253-0.279,0.38-0.648,0.38-1.105
		c0-0.449-0.107-0.805-0.324-1.066c-0.216-0.26-0.521-0.389-0.92-0.389H110.782z M127.969,22.379H27.5v19.719h100.469V22.379z"/>
</g>
</svg>
