<?xml version="1.0" encoding="utf-8"?>
<!-- Generator: Adobe Illustrator 16.0.0, SVG Export Plug-In . SVG Version: 6.00 Build 0)  -->
<!DOCTYPE svg PUBLIC "-//W3C//DTD SVG 1.1//EN" "http://www.w3.org/Graphics/SVG/1.1/DTD/svg11.dtd">
<svg version="1.1" id="Layer_1" xmlns="http://www.w3.org/2000/svg" xmlns:xlink="http://www.w3.org/1999/xlink" x="0px" y="0px"
	 width="354px" height="274px" viewBox="0 0 354 274" enable-background="new 0 0 354 274" xml:space="preserve">
<path fill="none" stroke="#111111" stroke-width="0.75" stroke-miterlimit="10" d="M300.126,111.482
	c-1.379-0.449-3.508-1.072-6.088-1.517c-3.654-0.649-5.585-1.037-6.448,0.088c-0.98,1.224,0.294,2.864-0.208,6.095
	c-0.397,2.039-1.298,3.597-1.925,4.524c0.032,0.876,0.252,2.096,1.014,3.364c2.098,3.459,6.092,2.718,11.455,5.045
	c4.83,2.17,5.605,4.531,8.685,6.766c0.306,0.245,1.548,1.009,3.115,1.801c1.47,0.675,4.021,1.444,7.517,1.425
	c0.579-0.386,1.296-1.087,1.49-2.053c0.836-3.31-4.536-5.528-9.43-11.961c-4.003-5.373-4.121-8.985-6.63-11.498"/>
<path fill="#EAE8D3" d="M287.951,105.937c-0.277-0.57-0.594-0.707-1.186-1.414c-0.701-0.717-1.097-1.188-1.186-1.414
	c-0.08-0.334-0.112-1.211,2.334-2.96c0.654,1.258,1.208,2.398,1.861,3.656c1.026,0.745,2.426,0.977,3.565,0.422
	c1.366-0.644,2.159-2.212,1.859-3.766c-0.132-0.994-0.263-1.988-0.403-2.874c0.227-0.089,2.045-0.912,2.963-0.176
	c0.809,0.726,0.676,2.243,0.463,3.425c-0.24,1.507-0.713,1.902-0.738,3.428c-0.075,0.866,0.094,1.427,0.254,2.096
	c0.549,2.449,1.588,4.287,2.449,5.673c0.375,0.688,0.771,1.159,0.959,1.503c-0.137,0.315-0.5,0.72-0.862,1.125
	c-0.354,0.296-1.287,0.978-3.798,0.976c-1.851-0.053-4.902-0.103-6.365-2.087c-0.287-0.462-0.467-0.914-0.705-1.918
	c-0.507-1.681-0.323-2.538-1.018-4.564C288.318,106.733,288.13,106.389,287.951,105.937z"/>
<path fill="none" stroke="#111111" stroke-width="0.75" stroke-miterlimit="10" d="M302.701,113.236
	c-0.188-0.344-0.484-0.698-0.446-1.131c0.028-0.325,0.372-0.513,0.608-0.711c0.607-0.71,0.929-1.883,0.633-2.236
	c-0.395-0.472-3.1,0.492-3.342,1.999c-0.203,1.073,1.166,1.63,0.974,2.596c-0.36,1.605-4.601,2.652-7.899,1.707
	c-0.849-0.293-3.293-1.053-3.799-2.735c0,0,0.01-0.108-0.09-0.226c-0.441-2.44-0.502-2.991-0.74-3.995
	c-0.328-1.229-0.578-2.124-1.219-2.29c-0.857-0.184-2.064,1.129-1.796,1.807c0.188,0.344,0.74,0.284,2.001,0.831
	c0.523,0.264,1.045,0.528,1.352,0.774"/>
<path fill="none" stroke="#111111" stroke-width="0.75" stroke-miterlimit="10" d="M301.086,112.984
	c2.126,3.134,3,5.612,3.389,7.393c0.15,0.777,0.451,2.332,1.703,2.988c0.828,0.509,1.714,0.368,2.373,0.317"/>
<path fill="none" stroke="#111111" stroke-width="0.75" stroke-miterlimit="10" d="M318.496,137.218
	c-0.264,0.522-0.774,1.351-1.806,1.915c-0.345,0.188-1.72,0.941-4.508,0.368c-2.354-0.534-4.337-1.581-6.478-3.297
	c-4.086-3.197-3.359-4.007-5.737-5.525c-4.754-3.038-8.487-0.309-11.724-3.213c-1.225-0.981-2.579-2.955-2.877-7.02"/>
<path fill="none" stroke="#111111" stroke-width="0.75" stroke-miterlimit="10" d="M320.926,33.735
	c-1.366,0.644-3.303,1.565-5.504,3.009c-3.124,2.018-4.745,3.077-4.751,4.386c0.084,1.536,2.24,1.834,3.962,4.605
	c1.157,1.739,1.438,3.51,1.668,4.622c0.603,0.599,1.619,1.452,3.008,1.792c3.833,1.101,6.305-2.175,11.82-4.092
	c4.957-1.748,7.136-0.465,10.886-0.899c0.442-0.07,1.879-0.271,3.462-0.896c1.466-0.526,3.964-1.617,6.476-4.125
	c0.165-0.641,0.143-1.625-0.323-2.539c-1.594-2.978-7.12-0.953-15.069-2.415c-6.658-1.24-9.167-3.752-12.643-3.948"/>
<path fill="#EAE8D3" d="M308.22,37.967c-0.641-0.166-1.29-0.222-1.842-0.162c-0.433-0.038-0.767,0.042-1.299-0.114
	c-0.325-0.028-0.425-0.146-0.532-0.156c-0.721-0.5,0.129-2.717,0.139-2.826c0.955,0.302,2.029,0.506,2.985,0.808
	c0.334-0.08,1.908-0.596,2.818-2.263c0.646-1.144,0.524-2.246,0.455-2.689c-1.056-0.42-2.001-0.831-3.065-1.143
	c1.037-1.874,2.451-3.059,3.516-2.748c0.641,0.166,1.224,0.981,1.788,2.013c0.476,0.806,0.555,1.141,0.94,1.72
	c0.297,0.354,0.701,0.716,1.629,1.343c2.052,1.49,4.18,2.114,5.678,2.464c0.748,0.175,1.39,0.34,1.714,0.369
	c0.079,0.334,0.15,0.777,0.094,1.427c-0.039,0.433-0.251,1.615-2.146,3.304c-1.306,1.195-3.672,3.28-6.135,2.736
	c-0.532-0.156-1.055-0.42-1.883-0.929c-1.45-0.892-2.033-1.707-3.809-2.627C309.058,38.369,308.644,38.114,308.22,37.967z"/>
<path fill="none" stroke="#111111" stroke-width="0.75" stroke-miterlimit="10" d="M324.026,33.244
	c-0.435-0.038-0.858-0.184-1.046-0.528c-0.188-0.344-0.061-0.551-0.022-0.984c-0.023-0.984-0.587-2.016-1.129-2.064
	c-0.65-0.057-1.961,2.448-1.091,3.725c0.574,0.924,1.931,0.388,2.405,1.194c0.86,1.385-1.54,5.104-4.616,6.581
	c-0.796,0.366-3.077,1.476-4.625,0.467c0,0-0.109-0.01-0.208-0.127c-2.053-1.49-2.349-1.843-3.275-2.471
	c-1.144-0.646-1.865-1.146-2.435-0.869c-0.807,0.475-0.741,2.227-0.11,2.501c0.315,0.137,0.787-0.259,2.026-0.695
	c0.56-0.169,1.11-0.23,1.554-0.3"/>
<path fill="none" stroke="#111111" stroke-width="0.75" stroke-miterlimit="10" d="M322.631,34.213
	c3.743,0.875,6.041,2.059,7.481,3.059c0.611,0.49,1.953,1.372,3.291,1.053c0.895-0.249,1.494-0.851,1.865-1.364"/>
<path fill="none" stroke="#111111" stroke-width="0.75" stroke-miterlimit="10" d="M351.916,40.059
	c0.169,0.561,0.3,1.555-0.012,2.619c-0.146,0.424-0.596,1.803-3.022,3.337c-2.073,1.237-4.296,1.696-6.944,2.01
	c-5.166,0.419-5.18-0.673-7.953-0.153c-5.55,1.041-6.481,5.434-10.764,5.713c-1.643,0.074-3.89-0.451-6.812-3.218"/>
<path fill="#FFFFFF" stroke="#111111" stroke-width="0.75" stroke-miterlimit="10" d="M94.604,153.575
	c-0.532-0.156-0.914,0.466-1.847,1.147c-1.268,0.762-1.663,0.291-3.236,0.808c-1.357,0.536-1.405,1.077-4.873,3.282
	c-0.344,0.189-0.697,0.485-1.15,0.664c-1.013,0.348-2.125,0.578-4.947,1.64c-0.904,0.356-1.249,0.545-1.258,0.653
	c0.07,0.442,7.174-0.897,7.343-0.338c0.16,0.67-8.899,3.148-8.73,3.709c0.08,0.334,3.594,0.098,7.084-1.125
	c1.574-0.516,2.724-1.179,2.822-1.062c0.099,0.118-0.49,0.612-7.112,5.161c-0.58,0.386-1.159,0.771-1.168,0.88
	c0.089,0.226,2.685-0.747,5.083-1.955c2.752-1.505,4.519-2.987,4.51-2.879c0.099,0.118-6.726,5.739-6.43,6.094
	c0.198,0.236,2.497-1.091,4.354-2.346c3.025-2.136,4.37-3.765,4.882-3.392c0.72,0.5-1.139,4.266-0.725,4.521
	c0.415,0.254,2.532-2.726,3.999-5.763c0.146-0.422,0.703-1.793,1.601-4.553c0.283-0.738,0.585-1.695,0.483-3.014
	C95.347,155.061,95.245,153.741,94.604,153.575z"/>
<path fill="#FFFFFF" stroke="#111111" stroke-width="0.75" stroke-miterlimit="10" d="M225.293,180.552
	c-0.678,0.269-0.93,1.884-0.6,3.113c0.318,1.338,1.076,1.405,1.839,2.672c0.86,1.386,0.954,2.813,1.257,5.568
	c0.164,1.87,0.186,2.854-0.135,4.026c-0.496,1.922-1.566,2.92-1.359,3.047s1.131-0.446,1.975-1.355
	c1.815-2.023,1.61-4.661,1.826-4.643c0.217,0.02,0.399,1.672,0.072,4.154c-0.402,3.35-1.333,5.232-1.234,5.35
	c0.207,0.127,2.541-2.834,2.775-6.741c0.063-1.96-0.473-3.317-0.355-3.415c0.227-0.09,1.547,3.52,2.349,8.064
	c0.36,2.105,0.502,2.991,0.718,3.01c0.434,0.039,1.152-3.172,0.689-6.598c-0.492-3.099-1.937-5.3-1.926-5.408
	c0.107,0.01,1.156,1.739,2.246,4.236c1.35,3.284,1.711,5.389,1.937,5.301c0.226-0.09,0.168-3.151-0.63-6.496
	c-0.799-3.345-2.576-5.465-1.869-6.059c0.354-0.296,0.955,0.303,2.373,0.318c2.068,0.072,3.914-1.076,3.845-1.518
	c-0.08-0.336-1.073-0.205-3.112-0.602c0,0-1.291-0.223-2.553-0.77c-4.958-1.965-8.629-4.906-8.629-4.906
	C226.357,180.864,225.746,180.374,225.293,180.552z"/>
<path fill="#111111" d="M91.301,155.141c7.62-9.701,18.482-21.518,33.125-32.894c12.65-9.804,24.826-16.703,34.961-21.489
	c2.874-6.624,6.082-13.328,9.644-20.329c6.733-13.271,13.783-25.205,20.839-35.937c2.022-1.896,4.778-2.2,6.651-1.163
	c1.352,0.774,1.887,2.131,2.056,2.691c-1.14,0.555-2.29,1.218-3.431,1.772c1.289,2.733,2.893,5.603,5.027,8.628
	c7.475,10.589,16.895,16.438,23.274,19.617c1.493-0.851,2.987-1.702,4.589-2.544c0.811,0.726,1.807,1.796,2.775,3.191
	c0.387,0.58,3.025,4.086,3.131,6.606c0.223,4.932-5.908,8.868-8.108,10.313c-6.494,4.341-15.685,12.048-29.106,26.916
	c6.58,10.838,13.111,22.218,19.605,34.031c5.168,9.514,10.139,18.792,14.893,28.051c-0.5,0.721-1.363,1.846-2.759,2.814
	c-1.041,0.672-1.954,1.139-2.741,1.396c-17.518-20.531-30.371-35.742-37.715-45.336c-0.781-1.052-5.986-6.42-16.268-17.366
	c-3.002-3.102-7.101-7.392-8.486-6.531c-0.58,0.386-0.576,1.587-0.455,2.689c-34.859,19.097-58.849,32.49-63.19,35.929
	c-0.697,0.483-3.407,2.757-5.625,1.907C92.392,157.639,91.64,156.262,91.301,155.141z"/>
<path fill="none" stroke="#111111" stroke-width="0.75" stroke-miterlimit="10" d="M349.468,38.098
	c0.198,0.236,0.386,0.58,0.466,0.914c0.153,1.979-3.885,4.461-7.969,4.976c-2.873,0.403-2.777-0.681-6.282-0.552
	c-1.093,0.013-5.157,0.311-9.079,2.696c-1.847,1.147-1.776,1.59-3.604,2.521c-2.516,1.307-4.848,1.757-6.491,1.831"/>
<path fill="none" stroke="#111111" stroke-width="0.75" stroke-miterlimit="10" d="M318.002,43.411
	c0.896-0.249,2.37-0.883,3.921-2.384c0.962-1.007,1.599-2.042,1.882-2.782"/>
<path fill="none" stroke="#111111" stroke-width="0.75" stroke-miterlimit="10" d="M186.641,53.923
	c12.592-9.155,24.023-15.027,32.312-18.666c14.657-6.572,40.692-17.165,71.377-11.087c9.014,1.774,16.081,4.578,20.704,6.621
	c-0.029,0.325,0.025,2.186-1.289,3.489c-0.716,0.701-1.621,1.058-2.064,1.128c-3.428-0.738-7.189-1.396-11.197-1.748
	c-22.008-1.715-39.95,6.206-50.406,12.165"/>
<path fill="none" stroke="#111111" stroke-width="0.75" stroke-miterlimit="10" d="M194.966,56.073
	c1.748-1.265,29.392-20.231,61.111-7.294c21.498,8.765,36.532,28.969,39.065,52.331c-0.279,1.941-1.595,3.244-3.148,3.544
	c-1.104,0.122-1.941-0.279-2.355-0.534c-2.359-5.447-9.807-20.072-26.224-28.282c-5.019-2.515-15.687-7.818-28.612-4.805
	c-6.354,1.516-11.091,4.484-13.9,6.639C212.375,70.374,203.721,63.282,194.966,56.073z"/>
<path fill="#FFFFFF" d="M169.758,128.084c-2.824-2.649-5.682-3.665-7.278-4.132c-4.158-1.129-9.857-0.866-10.716,1.46
	c-0.411,0.946,0.3,1.555-0.107,3.702c-0.222,1.29-0.576,1.587-0.907,2.867c-0.194,0.966-0.524,2.247-0.361,4.116
	c-0.895,0.249-1.583,0.626-1.828,0.931c-0.354,0.297-0.943,0.791-0.873,1.234c0.061,0.551,0.692,0.825,1.205,1.197
	c2.772,1.99,2.551,6.992,2.376,7.74c-0.047,0.542-0.193,0.966-0.193,0.966c0.079,0.334,0.032,0.876,0.201,1.437
	c0,0,0.482,3.207,1.898,5.733c1.702,2.987,5.52,5.506,9.579,6.517c5.664,1.371,12.58-0.313,16.258-4.902
	c5.148-6.424,3.891-18.215-5.079-25.442"/>
<path fill="none" stroke="#111111" stroke-width="0.75" stroke-miterlimit="10" d="M169.758,128.084
	c-2.824-2.649-5.682-3.665-7.278-4.132c-4.158-1.129-9.857-0.866-10.716,1.46c-0.411,0.946,0.3,1.555-0.107,3.702
	c-0.222,1.29-0.576,1.587-0.907,2.867c-0.194,0.966-0.524,2.247-0.361,4.116c-0.895,0.249-1.583,0.626-1.828,0.931
	c-0.354,0.297-0.943,0.791-0.873,1.234c0.061,0.551,0.692,0.825,1.205,1.197c2.772,1.99,2.551,6.992,2.376,7.74
	c-0.047,0.542-0.193,0.966-0.193,0.966c0.079,0.334,0.032,0.876,0.201,1.437c0,0,0.482,3.207,1.898,5.733
	c1.702,2.987,5.52,5.506,9.579,6.517c5.664,1.371,12.58-0.313,16.258-4.902c5.148-6.424,3.891-18.215-5.079-25.442"/>
<path fill="none" stroke="#111111" stroke-width="0.75" stroke-miterlimit="10" d="M161.652,117.222
	c0.785,2.252,1.569,4.504,2.354,6.756"/>
<path fill="none" stroke="#111111" stroke-width="0.75" stroke-miterlimit="10" d="M175.624,124.67
	c-0.49,0.612-1.763,2.683-1.558,5.321c0.131,0.994,0.389,1.78,0.666,2.35"/>
<path fill="none" stroke="#111111" stroke-width="0.75" stroke-miterlimit="10" d="M206.501,71.386
	c4.854-3.066,9.608-6.251,14.463-9.317c-1.332-0.99-4.331-2.891-8.376-2.81c-5.681,0.047-11.929,4.083-11.584,7.606
	C201.327,69.403,205.338,70.957,206.501,71.386z"/>
<path fill="none" stroke="#111111" stroke-width="0.75" stroke-miterlimit="10" d="M318.113,134.127
	c-0.029,0.325-0.058,0.65-0.303,0.956c-1.226,1.53-5.944,0.57-9.121-1.783c-2.358-1.735-1.533-2.427-4.179-4.624
	c-0.81-0.726-3.977-3.187-8.479-4.129c-2.147-0.406-2.394-0.101-4.314-0.597c-2.67-0.671-4.731-2.053-6.063-3.043"/>
<path fill="none" stroke="#111111" stroke-width="0.75" stroke-miterlimit="10" d="M291.38,116.608
	c0.838,0.401,2.425,0.977,4.394,0.932c1.428-0.093,2.549-0.431,3.336-0.69"/>
<path fill="#1D1D1B" stroke="#111111" stroke-width="0.75" stroke-miterlimit="10" d="M154.953,141.302
	c0.857,0.185,1.225,4.692,0.32,5.05c-0.452,0.179-1.341-0.882-1.581-1.886C153.284,142.902,154.411,141.255,154.953,141.302z"/>
<path fill="none" stroke="#111111" stroke-width="0.75" stroke-miterlimit="10" d="M159.313,147.579
	c-0.91,1.666-2.64,2.715-4.255,2.464c-1.083-0.095-1.794-0.703-2.1-0.948"/>
<path fill="none" stroke="#111111" stroke-width="0.75" stroke-miterlimit="10" d="M157.877,131.625
	c-0.532-0.156-1.38-0.449-2.473-0.436c-1.092,0.014-1.87,0.164-2.43,0.333"/>
<path fill="none" stroke="#111111" stroke-width="0.75" stroke-miterlimit="10" d="M165.582,137.104
	c0.424,0.147,2.867,0.907,3.751,3.277c0.714,1.809,0.575,4.635-0.89,5.161c-1.131,0.447-2.453-0.651-2.759-0.897"/>
<path fill="#111111" d="M178.215,134.94c0.584,0.815,1.887,2.13,2.372,2.828c0.099,0.117,0.188,0.344,0.287,0.461
	c0.644,1.367,0.19,1.545,0.953,2.813c0.842,1.603,1.817,1.688,2.146,2.917c0.258,0.787,0.004,1.201-0.385,3.132
	c-0.602,3.113-0.314,3.574-1.122,6.56c-0.34,1.39-0.623,2.129-1.123,2.849c-0.382,0.622-0.608,0.711-1.118,1.539
	c-0.636,1.036-0.557,1.371-1.027,1.767c-0.59,0.493-0.777,0.149-1.592,0.732c-0.924,0.574-0.854,1.018-1.532,1.285
	c-0.787,0.258-0.975-0.086-1.654,0.182c-0.904,0.357-0.862,1.125-1.531,1.284c-0.551,0.062-0.622-0.382-1.389-0.34
	c-0.66,0.051-0.698,0.485-1.593,0.733c-0.452,0.178-0.542-0.048-1.752,0.064c-0.985,0.023-1.102,0.121-1.762,0.173
	c-0.876,0.032-0.866-0.077-2.058-0.181c-1.408-0.124-1.418-0.016-1.95-0.172c-0.847-0.293-0.927-0.627-1.586-0.575
	c-0.759-0.067-0.905,0.356-1.427,0.093c-0.217-0.02-0.208-0.128-0.909-0.844c-0.503-0.481-0.701-0.717-0.908-0.844
	c-0.513-0.373-0.739-0.283-1.144-0.646c-0.503-0.48-0.249-0.895-0.752-1.376c-0.405-0.363-0.631-0.274-0.711-0.608
	c-0.07-0.442,0.736-0.918,1.296-1.086c0.561-0.17,1.004-0.24,1.88-0.272c0.433,0.038,1.092-0.013,1.841,0.161
	c0.857,0.185,0.848,0.293,1.29,0.223c0.876-0.032,1.032-0.564,1.682-0.507c0.758,0.067,1.017,0.853,1.469,0.675
	c0.452-0.179,0.086-0.975,0.605-1.912c0.627-0.927,1.522-1.176,1.452-1.619c-0.071-0.443-0.622-0.382-0.899-0.951
	c-0.179-0.453,0.047-0.541-0.023-0.984c-0.159-0.669-0.819-0.618-0.781-1.051c0.029-0.325,0.382-0.623,1.089-1.215
	c0.707-0.593,0.933-0.683,0.952-0.898c0.038-0.434-0.72-0.5-1.086-1.296c-0.377-0.688-0.023-0.985-0.399-1.673
	c-0.367-0.797-0.928-0.627-1.304-1.315c-0.465-0.914-0.135-2.194,0.19-2.166c0.335-0.08,0.367,0.796,1.482,1.767
	c0.603,0.6,1.135,0.756,1.352,0.774c0.315,0.138,0.955,0.302,1.408,0.124c1.13-0.447,1.458-2.929,1.059-4.602
	c-0.221-1.219-0.804-2.034-1.199-2.506c1.108-1.432,2.121-1.778,2.898-1.929c0.886-0.141,1.959,0.063,2.115-0.469
	c0.137-0.316-0.169-0.561-0.023-0.985c0.147-0.424,0.688-0.376,1.042-0.672c0.726-0.81-0.342-2.323,0.238-2.708
	c0.462-0.287,1.398,0.232,1.902,0.712C177.512,133.022,177.138,133.535,178.215,134.94z"/>
<path fill="none" stroke="#FFFFFF" stroke-width="0.75" stroke-miterlimit="10" d="M164.712,119.673
	c-0.39-1.781-0.802-4.546,0.223-7.512c1.043-3.183,3.164-4.961,5.069-6.759c0,0,5.133-5.007,9.495-11.173
	c7.37-10.595,4.179-17.752,9.371-25.919c0.627-0.927,3.11-3.11,5.61-6.711c1.5-2.161,1.385-4.572,3.084-5.296
	c1.367-0.644,3.063-0.059,4.107,0.47"/>
<path fill="none" stroke="#FFFFFF" stroke-width="0.75" stroke-miterlimit="10" d="M197.449,82.488
	c4.179-1.598,8.476-3.294,12.654-4.892"/>
<path fill="none" stroke="#FFFFFF" stroke-width="0.75" stroke-miterlimit="10" d="M182.063,63.782
	c-0.52-2.775-1.049-5.441-1.679-8.225"/>
<path fill="#644B9E" d="M53.421,215.613c-6.792,0-12.551-2.592-17.275-7.772c-4.726-5.183-7.088-11.498-7.088-18.947
	c0-7.429,2.362-13.723,7.088-18.882c4.725-5.159,10.483-7.738,17.275-7.738c6.814,0,12.582,2.579,17.309,7.738
	c4.726,5.159,7.089,11.453,7.089,18.882c0,7.449-2.363,13.765-7.089,18.947C66.003,213.021,60.236,215.613,53.421,215.613z"/>
</svg>
