<?xml version="1.0" encoding="utf-8"?>
<!-- Generator: Adobe Illustrator 16.0.0, SVG Export Plug-In . SVG Version: 6.00 Build 0)  -->
<!DOCTYPE svg PUBLIC "-//W3C//DTD SVG 1.1//EN" "http://www.w3.org/Graphics/SVG/1.1/DTD/svg11.dtd">
<svg version="1.1" id="Layer_1" xmlns="http://www.w3.org/2000/svg" xmlns:xlink="http://www.w3.org/1999/xlink" x="0px" y="0px"
	 width="304px" height="304px" viewBox="0 0 304 304" enable-background="new 0 0 304 304" xml:space="preserve">
<g>
	<g id="OP01">
		<polygon fill="#00B0AE" points="252.983,144.454 252.983,96.035 272.718,96.035 272.718,132.302 290,132.302 290,144.454 		"/>
		<path fill="#8BC541" d="M260.568,96.035v21.956c0,9.583-2.256,16.521-6.759,20.816c-4.506,4.294-9.649,6.441-15.431,6.441
			c-4.182,0-8.156-1.185-11.925-3.554c-3.763-2.369-6.404-5.495-7.924-9.375c-1.517-3.882-2.278-8.975-2.278-15.279V96.035H260.568z
			"/>
		<polygon fill="#FCB814" points="179.617,144.454 179.617,96.035 216.252,96.035 216.252,108.186 199.321,108.186 199.321,116.976 
			211.874,116.976 211.874,129.129 199.321,129.129 199.321,144.454 		"/>
		<path fill="#F48024" d="M141.912,96.035h29.104c5.04,0,9,1.379,11.882,4.141c2.881,2.761,4.319,6.214,4.319,10.361
			c0,4.567-1.693,8.143-5.079,10.724c4.807,5.965,7.677,13.697,8.612,23.194h-20.463c-0.371-6.112-1.212-10.629-2.526-13.548
			c-1.313-2.919-3.362-4.38-6.144-4.38v17.928h-19.705V96.035z"/>
		<path fill="#EE4035" d="M128.431,145.248c-6.364,0-11.759-2.428-16.187-7.282c-4.428-4.855-6.641-10.772-6.641-17.752
			c0-6.96,2.213-12.856,6.641-17.69s9.822-7.25,16.187-7.25c6.384,0,11.789,2.417,16.217,7.25c4.427,4.833,6.641,10.729,6.641,17.69
			c0,6.98-2.214,12.897-6.641,17.752C140.22,142.82,134.814,145.248,128.431,145.248z M123.84,132.408l13.982-12.17l-13.982-12.157
			V132.408z"/>
		<polygon fill="#CA3091" points="84.06,144.454 84.06,96.035 103.793,96.035 103.793,132.302 121.076,132.302 121.076,144.454 		
			"/>
		<path fill="#644B9E" d="M69.884,145.248c-6.364,0-11.759-2.428-16.186-7.282c-4.428-4.855-6.641-10.772-6.641-17.752
			c0-6.96,2.213-12.856,6.641-17.69c4.427-4.833,9.822-7.25,16.186-7.25c6.384,0,11.789,2.417,16.217,7.25
			c4.428,4.833,6.642,10.729,6.642,17.69c0,6.98-2.214,12.897-6.642,17.752C81.673,142.82,76.269,145.248,69.884,145.248z"/>
		<path fill="#1479BE" d="M63.267,100.381l-8.261,17.104c-2.414-0.91-5.081-1.364-8-1.364c-4.184,0-6.275,1.237-6.275,3.712
			c0,1.186,0.583,2.111,1.752,2.777c1.167,0.666,2.832,0.999,4.991,0.999c2.919,0,5.43-0.571,7.532-1.713l8.261,18.341
			c-2.335,1.522-5.157,2.739-8.466,3.649c-3.308,0.908-6.47,1.364-9.486,1.364c-7.572,0-13.601-2.375-18.085-7.124
			c-4.487-4.749-6.729-10.593-6.729-17.533c0-7.338,2.335-13.393,7.006-18.163c4.671-4.771,10.606-7.155,17.808-7.155
			c3.112,0,6.329,0.46,9.647,1.38C58.279,97.574,61.048,98.817,63.267,100.381z"/>
	</g>
	<g id="OP01_1_">
		<g>
			<defs>
				<path id="SVGID_1_" d="M260.568,96.035v21.956c0,9.583-2.256,16.521-6.759,20.816c-4.506,4.294-9.649,6.441-15.431,6.441
					c-4.182,0-8.156-1.185-11.925-3.554c-3.763-2.369-6.404-5.495-7.924-9.375c-1.517-3.882-2.278-8.975-2.278-15.279V96.035
					H260.568z"/>
			</defs>
			<clipPath id="SVGID_2_">
				<use xlink:href="#SVGID_1_"  overflow="visible"/>
			</clipPath>
			<polygon clip-path="url(#SVGID_2_)" fill="#1C9458" points="252.983,144.454 252.983,96.035 272.718,96.035 272.718,132.302 
				290,132.302 290,144.454 			"/>
		</g>
		<g>
			<defs>
				<path id="SVGID_3_" d="M141.912,96.035h29.104c5.04,0,9,1.379,11.882,4.141c2.881,2.761,4.319,6.214,4.319,10.361
					c0,4.567-1.693,8.143-5.079,10.724c4.807,5.965,7.677,13.697,8.612,23.194h-20.463c-0.371-6.112-1.212-10.629-2.526-13.548
					c-1.313-2.919-3.362-4.38-6.144-4.38v17.928h-19.705V96.035z"/>
			</defs>
			<clipPath id="SVGID_4_">
				<use xlink:href="#SVGID_3_"  overflow="visible"/>
			</clipPath>
			<polygon clip-path="url(#SVGID_4_)" fill="#F05E24" points="179.617,144.454 179.617,96.035 216.252,96.035 216.252,108.186 
				199.321,108.186 199.321,116.976 211.874,116.976 211.874,129.129 199.321,129.129 199.321,144.454 			"/>
		</g>
		<g>
			<defs>
				<path id="SVGID_5_" d="M128.431,145.248c-6.364,0-11.759-2.428-16.187-7.282c-4.428-4.855-6.641-10.772-6.641-17.752
					c0-6.96,2.213-12.856,6.641-17.69s9.822-7.25,16.187-7.25c6.384,0,11.789,2.417,16.217,7.25
					c4.427,4.833,6.641,10.729,6.641,17.69c0,6.98-2.214,12.897-6.641,17.752C140.22,142.82,134.814,145.248,128.431,145.248z"/>
			</defs>
			<clipPath id="SVGID_6_">
				<use xlink:href="#SVGID_5_"  overflow="visible"/>
			</clipPath>
			<path clip-path="url(#SVGID_6_)" fill="#E31D3B" d="M141.912,96.035h29.104c5.04,0,9,1.379,11.882,4.141
				c2.881,2.761,4.319,6.214,4.319,10.361c0,4.567-1.693,8.143-5.079,10.724c4.807,5.965,7.677,13.697,8.612,23.194h-20.463
				c-0.371-6.112-1.212-10.629-2.526-13.548c-1.313-2.919-3.362-4.38-6.144-4.38v17.928h-19.705V96.035z"/>
		</g>
		<g>
			<defs>
				<path id="SVGID_7_" d="M128.431,145.248c-6.364,0-11.759-2.428-16.187-7.282c-4.428-4.855-6.641-10.772-6.641-17.752
					c0-6.96,2.213-12.856,6.641-17.69s9.822-7.25,16.187-7.25c6.384,0,11.789,2.417,16.217,7.25
					c4.427,4.833,6.641,10.729,6.641,17.69c0,6.98-2.214,12.897-6.641,17.752C140.22,142.82,134.814,145.248,128.431,145.248z"/>
			</defs>
			<clipPath id="SVGID_8_">
				<use xlink:href="#SVGID_7_"  overflow="visible"/>
			</clipPath>
			<polygon clip-path="url(#SVGID_8_)" fill="#A21C37" points="84.06,144.454 84.06,96.035 103.793,96.035 103.793,132.302 
				121.076,132.302 121.076,144.454 			"/>
		</g>
		<g>
			<defs>
				<path id="SVGID_9_" d="M69.884,145.248c-6.364,0-11.759-2.428-16.186-7.282c-4.428-4.855-6.641-10.772-6.641-17.752
					c0-6.96,2.213-12.856,6.641-17.69c4.427-4.833,9.822-7.25,16.186-7.25c6.384,0,11.789,2.417,16.217,7.25
					c4.428,4.833,6.642,10.729,6.642,17.69c0,6.98-2.214,12.897-6.642,17.752C81.673,142.82,76.269,145.248,69.884,145.248z"/>
			</defs>
			<clipPath id="SVGID_10_">
				<use xlink:href="#SVGID_9_"  overflow="visible"/>
			</clipPath>
			<polygon clip-path="url(#SVGID_10_)" fill="#542E88" points="84.06,144.454 84.06,96.035 103.793,96.035 103.793,132.302 
				121.076,132.302 121.076,144.454 			"/>
		</g>
		<g>
			<defs>
				<path id="SVGID_11_" d="M63.267,100.381l-8.261,17.104c-2.414-0.91-5.081-1.364-8-1.364c-4.184,0-6.275,1.237-6.275,3.712
					c0,1.186,0.583,2.111,1.752,2.777c1.167,0.666,2.832,0.999,4.991,0.999c2.919,0,5.43-0.571,7.532-1.713l8.261,18.341
					c-2.335,1.522-5.157,2.739-8.466,3.649c-3.308,0.908-6.47,1.364-9.486,1.364c-7.572,0-13.601-2.375-18.085-7.124
					c-4.487-4.749-6.729-10.593-6.729-17.533c0-7.338,2.335-13.393,7.006-18.163c4.671-4.771,10.606-7.155,17.808-7.155
					c3.112,0,6.329,0.46,9.647,1.38C58.279,97.574,61.048,98.817,63.267,100.381z"/>
			</defs>
			<clipPath id="SVGID_12_">
				<use xlink:href="#SVGID_11_"  overflow="visible"/>
			</clipPath>
			<path clip-path="url(#SVGID_12_)" fill="#204393" d="M69.884,145.248c-6.364,0-11.759-2.428-16.186-7.282
				c-4.428-4.855-6.641-10.772-6.641-17.752c0-6.96,2.213-12.856,6.641-17.69c4.427-4.833,9.822-7.25,16.186-7.25
				c6.384,0,11.789,2.417,16.217,7.25c4.428,4.833,6.642,10.729,6.642,17.69c0,6.98-2.214,12.897-6.642,17.752
				C81.673,142.82,76.269,145.248,69.884,145.248z"/>
		</g>
	</g>
	<path fill="#4895D0" d="M80.94,164.945l-7.06,10.803c-2.945-1.538-5.667-2.308-8.165-2.308c-1.66,0-2.992,0.469-3.994,1.402
		c-1.004,0.934-1.506,2.168-1.506,3.707c0,2.918,1.761,4.377,5.284,4.377v-5.625h14.64v19.373c-5.92,0.359-9.926,0.541-12.02,0.541
		c-8.084,0-13.7-1.867-16.847-5.603c-3.148-3.734-4.722-8.09-4.722-13.063c0-3.42,0.732-6.561,2.199-9.416
		c1.465-2.855,3.58-5.068,6.345-6.637c2.765-1.57,6.038-2.354,9.821-2.354c2.657,0,5.406,0.42,8.251,1.26
		C76.009,162.24,78.602,163.422,80.94,164.945z M93.047,160.708h21.591c3.738,0,6.677,1.022,8.813,3.069
		c2.137,2.05,3.206,4.611,3.206,7.688c0,3.389-1.257,6.041-3.769,7.956c3.565,4.424,5.695,10.16,6.389,17.205h-15.182
		c-0.274-4.535-0.898-7.884-1.874-10.051c-0.974-2.166-2.493-3.247-4.557-3.247v13.298H93.047V160.708z M107.665,168.098v6.921
		h0.411c2.627,0,3.94-1.121,3.94-3.366c0-0.941-0.268-1.769-0.801-2.483c-0.534-0.714-1.422-1.071-2.663-1.071H107.665z
		 M154.856,197.216c-4.721,0-8.725-1.802-12.009-5.402c-3.285-3.602-4.928-7.992-4.928-13.17c0-5.164,1.643-9.537,4.928-13.124
		c3.284-3.585,7.288-5.377,12.009-5.377c4.735,0,8.745,1.792,12.027,5.377c3.286,3.587,4.93,7.96,4.93,13.124
		c0,5.178-1.644,9.568-4.93,13.17C163.602,195.414,159.592,197.216,154.856,197.216z M154.856,173.913
		c-0.939,0-1.72,0.357-2.34,1.07c-0.62,0.715-0.931,1.611-0.931,2.695s0.311,1.98,0.931,2.694s1.4,1.071,2.34,1.071
		c0.952,0,1.74-0.357,2.36-1.071s0.931-1.61,0.931-2.694s-0.311-1.98-0.931-2.695C156.597,174.271,155.809,173.913,154.856,173.913z
		 M214.589,160.708v16.288c0,7.108-1.672,12.255-5.014,15.44s-7.156,4.779-11.446,4.779c-3.103,0-6.052-0.879-8.846-2.637
		c-2.795-1.758-4.752-4.076-5.878-6.956c-1.127-2.878-1.69-6.657-1.69-11.334v-15.581h14.64v16.641c0,1.789,0.145,2.919,0.432,3.391
		c0.29,0.469,0.724,0.705,1.3,0.705c0.808,0,1.321-0.427,1.537-1.282c0.217-0.856,0.324-2.295,0.324-4.319v-15.135H214.589z
		 M229.28,160.708h20.035c4.229,0,7.478,1.165,9.743,3.493c2.268,2.331,3.401,5.215,3.401,8.652c0,3.356-1.076,6.215-3.227,8.567
		c-2.152,2.354-4.741,3.531-7.775,3.531c-2.526,0-5.046-1.043-7.558-3.131v14.805h-14.62V160.708z M243.9,168.475v7.814
		c0.435,0.126,0.836,0.188,1.212,0.188c1.099,0,1.987-0.375,2.666-1.13c0.68-0.752,1.018-1.741,1.018-2.965
		c0-1.209-0.29-2.161-0.866-2.861c-0.579-0.697-1.4-1.047-2.47-1.047H243.9z M290,152.621H20.5v52.892H290V152.621z"/>
</g>
</svg>
