<?xml version="1.0" encoding="utf-8"?>
<!-- Generator: Adobe Illustrator 16.0.0, SVG Export Plug-In . SVG Version: 6.00 Build 0)  -->
<!DOCTYPE svg PUBLIC "-//W3C//DTD SVG 1.1//EN" "http://www.w3.org/Graphics/SVG/1.1/DTD/svg11.dtd">
<svg version="1.1" id="Layer_1" xmlns="http://www.w3.org/2000/svg" xmlns:xlink="http://www.w3.org/1999/xlink" x="0px" y="0px"
	 width="24px" height="24px" viewBox="0 0 24 24" enable-background="new 0 0 24 24" xml:space="preserve">
<path fill="#FFFFFF" d="M22.782,7.254c-0.253-0.947-0.999-1.693-1.944-1.946C19.12,4.849,12.24,4.849,12.24,4.849
	s-6.882,0-8.598,0.459C2.696,5.562,1.95,6.308,1.697,7.254c-0.46,1.716-0.46,5.295-0.46,5.295s0,3.582,0.46,5.298
	c0.253,0.948,0.999,1.691,1.946,1.944c1.715,0.461,8.598,0.461,8.598,0.461s6.88,0,8.598-0.461c0.945-0.253,1.691-0.996,1.944-1.944
	c0.461-1.716,0.461-5.298,0.461-5.298S23.243,8.97,22.782,7.254 M10.04,15.852V9.25l5.717,3.299L10.04,15.852z"/>
</svg>
