<?xml version="1.0" encoding="utf-8"?>
<!-- Generator: Adobe Illustrator 16.0.0, SVG Export Plug-In . SVG Version: 6.00 Build 0)  -->
<!DOCTYPE svg PUBLIC "-//W3C//DTD SVG 1.1//EN" "http://www.w3.org/Graphics/SVG/1.1/DTD/svg11.dtd">
<svg version="1.1" id="Layer_1" xmlns="http://www.w3.org/2000/svg" xmlns:xlink="http://www.w3.org/1999/xlink" x="0px" y="0px"
	 width="171px" height="190px" viewBox="0 0 171 190" enable-background="new 0 0 171 190" xml:space="preserve">
<path fill="#111111" d="M63.522,116.129c-0.326,0-2.609,0.109-5.328,0.979c-0.979,0.326-1.74,0.652-2.175,0.871
	c0.543,1.195,1.414,3.152,1.958,5.653c2.283,9.896-2.284,14.788-2.61,25.009c-0.326,8.699,2.61,19.463,7.829,21.096
	c2.936,0.869,5.872-1.088,8.808-2.937c15.549-9.678,19.029-7.829,27.945-13.7c19.681-12.832,32.838-43.82,24.139-65.677
	c-1.521-3.806-4.566-7.611-10.656-15.005C101.145,57.303,89.836,45.995,82.116,38.71c-0.217-0.109-1.305-0.435-2.392,0.108
	c-1.414,0.761-1.522,2.393-1.522,2.501c0.652,1.414,2.283,4.567,2.936,5.98c6.089,12.613,12.287,25.227,18.376,37.731
	c-6.741-5.872-14.353-13.375-21.747-22.726c-4.35-5.545-8.046-10.982-11.2-16.093c-0.761-0.979-1.958-1.196-2.936-0.761
	c-1.087,0.544-1.631,1.958-1.087,3.153c3.915,12.613,10.547,27.945,21.965,43.059c2.718,3.588,5.437,6.85,8.264,9.895
	C72.657,113.085,65.589,116.02,63.522,116.129z"/>
<path fill="#FF4A47" d="M9.808,148.206c-0.87-0.108-2.066-0.108-2.392,0.544c-0.218,0.326,0,0.761,0.108,1.305
	c0.652,2.066,0.218,4.023-0.326,5.98c-0.108,0.435-0.326,1.195-0.652,1.957c0.217,0.109,0.435,0.326,0.543,0.544
	c0.327,0.761-0.652,1.522-0.435,2.065c0.108,0.326,0.87,0.545,2.936,0.109c1.087-0.326,2.61-0.979,4.132-2.066
	c0.543-0.435,0.979-0.869,1.414-1.195c0.326-0.979,0.652-1.85,0.87-2.827c0.326-0.218,0.543-0.327,0.87-0.544
	c0-0.436,0-1.087,0.218-1.74c0.326-0.87,0.87-1.195,0.87-1.74c0-0.435-0.326-0.869-1.631-1.521
	c-0.109,0.435-0.326,0.761-0.435,0.869C14.918,150.925,12.417,150.163,9.808,148.206z"/>
<path fill="#FF4A47" d="M34.708,155.382c-0.544,0.108-1.196,0.435-1.305,0.87c-0.108,0.543,0.544,1.087,0.87,1.521
	c0.652,0.871,1.087,2.393,0.326,5.438c0.217-0.109,0.543-0.109,0.543,0c0.327,0.434-1.631,1.739-1.414,2.5
	c0.109,0.653,1.958,1.197,7.285,0.87c1.414-0.326,3.045-0.978,3.371-2.174c0.109-0.327,0-0.435-0.218-1.414
	c-0.326-1.522-0.761-3.806-0.326-5.437c0-0.108,0-0.326,0.217-0.652c0.326-1.088,0.326-1.631,0.217-1.957
	c-0.326-0.653-1.305-0.762-1.631-0.762c-0.217,0.326-0.435,0.652-0.652,0.869C39.601,157.23,35.251,155.49,34.708,155.382z"/>
<path fill="#FFFFFF" d="M22.638,123.307c-1.087,3.805-2.174,7.828-3.262,11.852c-0.979,3.697-1.849,7.394-2.719,10.982
	c0.326,0.325,0.652,0.543,0.979,0.869c-0.435,0.436-0.979,0.762-1.414,1.196c0.217,0.218,0.435,0.544,0.652,0.761
	c-0.326,0.436-0.653,0.762-1.087,1.196c-0.652,0.108-1.849,0.218-3.262-0.326c-1.196-0.435-1.957-1.087-2.392-1.522
	c-0.435-0.543-0.761-0.979-1.196-1.522c0.435-0.217,0.761-0.435,1.196-0.651c-0.435-0.436-0.979-0.979-1.414-1.414
	c0.435-0.326,0.87-0.652,1.414-0.869c0-5.438,0.217-11.31,0.87-17.508c1.305-13.482,4.023-25.334,6.959-35.229"/>
<path fill="none" stroke="#111111" stroke-width="0.75" stroke-miterlimit="10" d="M22.638,123.307
	c-1.087,3.805-2.174,7.828-3.262,11.852c-0.979,3.697-1.849,7.394-2.719,10.982c0.326,0.325,0.652,0.543,0.979,0.869
	c-0.435,0.436-0.979,0.762-1.414,1.196c0.217,0.218,0.435,0.544,0.652,0.761c-0.326,0.436-0.653,0.762-1.087,1.196
	c-0.652,0.108-1.849,0.218-3.262-0.326c-1.196-0.435-1.957-1.087-2.392-1.522c-0.435-0.543-0.761-0.979-1.196-1.522
	c0.435-0.217,0.761-0.435,1.196-0.651c-0.435-0.436-0.979-0.979-1.414-1.414c0.435-0.326,0.87-0.652,1.414-0.869
	c0-5.438,0.217-11.31,0.87-17.508c1.305-13.482,4.023-25.334,6.959-35.229"/>
<path fill="#FFFFFF" d="M41.449,148.967c0.109,1.088,0.218,2.066,0.218,3.153c0.326,0.108,0.543,0.327,0.87,0.435
	c-0.217,0.326-0.435,0.653-0.652,0.979c0.217,0.325,0.543,0.544,0.761,0.87c-0.218,0.217-0.544,0.543-0.761,0.761
	c-0.435,0.217-0.87,0.544-1.522,0.651c-1.848,0.653-3.588,0.328-4.458,0c-0.326-0.217-0.652-0.325-0.979-0.543
	c0-0.326,0.109-0.762,0.109-1.088c-0.326-0.107-0.652-0.107-0.979-0.217c0.218-0.218,0.327-0.435,0.544-0.652
	c-7.938-14.789-11.635-27.945-13.592-37.297c-1.087-5.328-6.633-32.076,0.652-35.338c0.87-0.435,3.479-1.087,11.2,5.219
	c8.155,6.633,18.811,18.268,27.292,43.386c4.023,12.069,9.677,28.597,3.697,32.946c-3.697,2.719-10.438-0.762-11.743-1.414
	c-9.786-5.109-13.048-16.418-17.18-31.642c-1.74-6.306-3.806-15.44-4.784-26.749"/>
<path fill="none" stroke="#111111" stroke-width="0.75" stroke-miterlimit="10" d="M41.449,148.967
	c0.109,1.088,0.218,2.066,0.218,3.153c0.326,0.108,0.543,0.327,0.87,0.435c-0.217,0.326-0.435,0.653-0.652,0.979
	c0.217,0.325,0.543,0.544,0.761,0.87c-0.218,0.217-0.544,0.543-0.761,0.761c-0.435,0.217-0.87,0.544-1.522,0.651
	c-1.848,0.653-3.588,0.326-4.458,0c-0.326-0.217-0.652-0.325-0.979-0.543c0-0.326,0.109-0.762,0.109-1.088
	c-0.326-0.107-0.652-0.107-0.979-0.217c0.218-0.218,0.327-0.435,0.544-0.652c-7.938-14.789-11.635-27.945-13.592-37.297
	c-1.087-5.328-6.633-32.076,0.652-35.338c0.87-0.435,3.479-1.087,11.2,5.219c8.155,6.633,18.811,18.268,27.292,43.386
	c4.023,12.069,9.677,28.597,3.697,32.946c-3.697,2.719-10.438-0.762-11.743-1.414c-9.786-5.109-13.048-16.418-17.18-31.642
	c-1.74-6.306-3.806-15.44-4.784-26.749"/>
<path fill="none" stroke="#111111" stroke-width="0.75" stroke-miterlimit="10" d="M123.762,90.793
	c-1.521-0.543-2.066-1.414-2.283-1.848c-0.869-1.958,0.543-4.35,2.283-7.394c1.088-1.849,1.631-2.719,2.609-3.697
	c1.632-1.74,2.828-2.175,4.566-4.132c0.979-1.196,1.414-2.175,1.85-2.718c1.957-3.153,6.197-5.98,10.221-6.851
	c5.328-1.087,12.287,0.761,15.768,5.872c4.783,6.959,0.217,16.201-0.979,18.376c-0.108,0.109-0.108,0.218-0.218,0.326
	c-4.24,7.285-13.156,8.265-19.137,8.917c-1.305,0.107-3.371,0.326-5.873,0.217"/>
<path fill="none" stroke="#111111" stroke-width="0.75" stroke-miterlimit="10" d="M22.638,159.623
	c0.326,0.761,0.652,1.85,0.544,3.262c-0.326,3.807-4.023,4.784-7.503,8.916c-3.153,3.807-2.827,6.09-4.458,9.243
	c-0.217,0.326-0.87,1.522-1.849,2.718c-0.979,1.088-2.718,2.937-5.763,4.241c-0.109,0-0.327-0.108-0.653-0.108
	c-0.543-0.109-0.761,0-0.979-0.109c-0.326-0.108-0.652-0.326-0.979-1.305c0.109-1.195,0.217-2.393,0.435-3.696
	c0.543-3.915,1.631-7.394,2.718-10.113c0-0.108,0-0.326,0-0.543c0-0.327-0.217-0.544-0.217-0.544
	c-0.218-0.436,0.87-5.111,0.652-7.395c0-0.76-0.218-1.739-0.979-3.045"/>
<path fill="none" stroke="#111111" stroke-width="0.75" stroke-miterlimit="10" d="M3.61,161.145
	c0.217-0.217,0.435-0.651,0.326-1.086c-0.109-0.436-0.435-0.545-0.435-0.762c0.109-0.218,0.652-0.109,1.196-0.109
	c1.305-0.108,1.957-1.305,2.283-1.088c0.544,0.436-0.87,1.959-0.435,2.719c0.979,1.414,8.59-2.065,9.025-4.457
	c0-0.219,0.217-1.74,0.217-1.74c0.217-0.109,0.544-0.326,0.87-0.436c0.108,0,0.761-0.326,1.196-0.218
	c0.652,0.109,1.522,1.74,2.175,2.937c0.435,0.761,1.196,1.74,2.392,2.826"/>
<path fill="none" stroke="#111111" stroke-width="0.75" stroke-miterlimit="10" d="M6.763,159.73
	c-0.87,3.154-0.979,5.655-0.87,7.504c0.109,1.631,0.435,3.914-0.652,4.566c-0.326,0.219-0.761,0.219-1.087,0.219"/>
<path fill="#F48024" d="M56.102,15.566h19.295c3.341,0,5.967,0.915,7.877,2.745c1.91,1.831,2.864,4.12,2.864,6.869
	c0,3.028-1.124,5.399-3.368,7.109c3.187,3.955,5.09,9.082,5.71,15.377H74.914c-0.246-4.052-0.804-7.047-1.675-8.982
	c-0.87-1.936-2.229-2.904-4.073-2.904v11.886H56.102V15.566z"/>
<path fill="none" stroke="#111111" stroke-width="0.75" stroke-miterlimit="10" d="M3.61,188.003
	c0.435-0.108,1.196-0.326,1.957-0.653c0.326-0.107,1.196-0.651,2.827-1.957c0.979-0.869,2.609-2.283,3.697-4.349
	c0.544-0.979,0.87-1.957,0.87-1.957c0.108-0.435,0.326-0.87,0.435-1.305c0.326-1.089,0.326-1.74,0.652-2.501
	c0,0,0.217-0.545,0.543-1.196c0.979-1.631,2.501-2.937,3.697-3.806c3.371-2.827,3.806-3.045,4.458-3.914
	c0.543-0.87,1.196-1.85,1.305-3.154c0.109-1.848-0.979-3.152-1.305-3.588"/>
<path fill="none" stroke="#111111" stroke-width="0.75" stroke-miterlimit="10" d="M9.807,179.739
	c-0.217-1.957,0.109-3.48,0.327-4.349c0.543-1.85,1.522-3.154,2.283-4.024c1.631-2.066,2.175-1.849,2.283-2.718
	c0.435-2.066-2.283-3.48-1.739-5.873c0.217-0.76,0.543-1.086,0.652-1.195c0.761-0.544,1.849-0.217,2.066-0.109
	c0.326-0.326,0.761-0.543,1.087-0.869"/>
<path fill="none" stroke="#111111" stroke-width="0.75" stroke-miterlimit="10" d="M17.637,155.709
	c0.435,0.652,0.979,1.521,1.848,2.283c1.196,1.195,2.501,1.74,3.371,2.066"/>
<path fill="none" stroke="#111111" stroke-width="0.75" stroke-miterlimit="10" d="M48.409,171.475c0,0.87-0.218,1.959-0.87,3.154
	c-1.957,3.262-5.763,2.501-10.656,4.676c-4.567,1.957-5.219,4.24-8.046,6.307c-0.326,0.218-1.414,0.979-2.936,1.631
	c-1.305,0.544-3.697,1.414-7.068,1.305c-0.108-0.109-0.326-0.218-0.543-0.436c-0.435-0.325-0.652-0.325-0.87-0.543
	c-0.217-0.217-0.435-0.652-0.326-1.631c0.544-0.979,1.196-2.066,1.958-3.153c2.283-3.263,4.675-5.872,6.959-7.829
	c0.108-0.109,0.217-0.217,0.217-0.436c0.109-0.326,0.109-0.543,0-0.651c-0.109-0.435,2.936-4.132,3.915-6.308
	c0.326-0.651,0.543-1.74,0.543-3.152"/>
<path fill="none" stroke="#111111" stroke-width="0.75" stroke-miterlimit="10" d="M30.793,164.408
	c0.326-0.109,0.652-0.436,0.761-0.762c0.108-0.436-0.109-0.762,0-0.871c0.108-0.107,0.652,0.219,1.196,0.436
	c1.305,0.436,2.392-0.217,2.501,0.109c0.218,0.652-1.74,1.414-1.522,2.175c0.217,1.739,8.59,1.957,10.003,0
	c0.109-0.109,0.979-1.522,0.979-1.522c0.218,0,0.544-0.108,0.979,0c0.109,0,0.87,0.108,1.196,0.326
	c0.543,0.326,0.543,2.283,0.652,3.588c0.109,0.87,0.326,2.066,0.87,3.588"/>
<path fill="none" stroke="#111111" stroke-width="0.75" stroke-miterlimit="10" d="M34.056,164.516
	c-2.175,2.393-3.371,4.676-4.132,6.308c-0.652,1.521-1.305,3.696-2.61,3.805c-0.435,0-0.761-0.108-0.979-0.326"/>
<path fill="none" stroke="#111111" stroke-width="0.75" stroke-miterlimit="10" d="M18.724,188.547
	c0.435,0.109,1.196,0.217,2.066,0.217c0.326,0,1.414,0,3.371-0.543c1.196-0.326,3.371-0.869,5.219-2.175
	c0.87-0.651,1.631-1.413,1.631-1.413c0.326-0.326,0.652-0.652,0.979-0.979c0.761-0.87,1.087-1.414,1.74-1.957
	c0,0,0.435-0.436,1.087-0.762c1.522-0.979,3.588-1.522,5.002-1.849c4.241-0.979,4.675-0.979,5.763-1.522
	c0.87-0.543,1.849-1.088,2.501-2.283c0.87-1.631,0.544-3.262,0.435-3.805"/>
<path fill="none" stroke="#111111" stroke-width="0.75" stroke-miterlimit="10" d="M45.69,165.712c0,0.761,0.217,1.74,0.652,2.937
	c0.543,1.631,1.414,2.718,2.066,3.371"/>
<path fill="none" stroke="#111111" stroke-width="0.75" stroke-miterlimit="10" d="M39.818,173.65c-0.979-1.306-0.87-2.937,0-3.697
	c0.87-0.762,2.175-0.436,2.284-0.436c0.543-0.218,1.087-0.435,1.74-0.761"/>
<path fill="#FFFFFF" stroke="#111111" stroke-width="0.75" stroke-miterlimit="10" d="M52.543,23.029
	c0.128,0.28,0.489,0.875,2.401,1.346c0.752,0.161,2.664,0.632,2.739,0.428c0.112-0.306-3.079-1.711-3.041-1.813
	c0.037-0.102,0.983,0.477,2.154,0.444c1.515-0.023,2.845-0.808,2.818-1.05c-0.027-0.241-1.208,0.135-2.712-0.186
	c-0.854-0.197-1.429-0.525-1.799-0.777c0.779,0.402,2.234,1.169,4.167,0.953c0.967-0.108,1.907-0.458,1.842-0.598
	c-0.027-0.241-1.617-0.015-3.518-0.83c-0.881-0.44-1.521-0.906-1.521-0.906s0.602,0.569,1.521,0.906
	c0.51,0.188,1.568,0.46,2.776,0.326c1.106-0.172,2.223-0.689,2.094-0.968c-0.092-0.381-1.971,0.318-4.141-0.711
	c-0.51-0.187-1.595-0.702-1.871-1.846c-0.091-0.381-0.081-0.725-0.107-0.966c1.136-3.406,1.371-4.362,1.269-4.399
	c-0.204-0.075-0.767,1.456-2.436,3.159c-0.784,0.871-0.773,0.527-1.24,1.167c-1.288,1.611-1.388,3.776-1.44,5.495
	C52.489,22.547,52.414,22.75,52.543,23.029z"/>
<path fill="#FFFFFF" stroke="#111111" stroke-width="0.75" stroke-miterlimit="10" d="M78.316,15.12
	c0.469,0.611,0.708,1.455,1.797,2.673c0.233,0.228,0.466,0.457,0.544,0.532c-0.383,0.235-0.842,0.395-1.227,0.32
	c-0.771-0.146-1.088-1.064-1.394-0.908c-0.306,0.158-0.064,1.309-0.597,1.699c-0.231,0.079-0.537,0.082-0.77,0.007
	c-0.386-0.226-0.393-0.842-0.546-0.839c-0.153,0.002-0.146,0.77-0.605,0.929c-0.306,0.157-0.692,0.084-0.924-0.145
	c-0.311-0.304-0.163-0.767-0.316-0.765c-0.154,0.001-0.301,0.618-0.761,0.776c-0.229,0.08-0.614,0.007-0.77-0.146
	c-0.311-0.304-0.008-0.769-0.24-0.843c-0.232-0.074-0.534,0.391-0.917,0.471c-0.232-0.074-0.31-0.151-0.312-0.305
	c-0.079-0.229-0.083-0.537,0.146-0.771c1.44-1.938,1.955-4.172,3.489-4.496C76.678,12.908,78.16,14.815,78.316,15.12z"/>
<path fill="#111111" d="M141.596,70.243c0.434,0.108,4.674,1.631,6.088,5.872c1.196,3.697-0.218,8.046-3.588,10.656
	c1.413-0.435,2.283-0.435,2.502,0c0.325,0.543-0.654,1.957-2.937,4.241c2.065,0,3.696,1.196,3.914,2.283
	c0.218,1.849-2.937,3.153-3.263,3.262c-1.957,0.762-3.806,0.326-4.566,0.218c-0.652,0.326-1.521,0.544-2.393,0.761
	c-2.065,0.436-3.806,0.326-5.002,0.109c0.871,1.305,1.74,1.631,2.285,1.631c0.651,0.109,0.868-0.109,1.848-0.326
	c1.086-0.109,1.414,0.109,2.5,0.217c1.85,0.109,1.85-0.435,3.48-0.435c2.066,0.108,2.283,0.979,3.914,0.762
	c1.305-0.218,0.979-0.762,2.609-1.196c1.088-0.218,3.263-0.436,3.806-0.87c0,0,0.218-0.108,0.435-0.326
	c0.328-0.218,0.436-0.326,0.545-0.326c0.435-0.326,0.543-0.979,0.543-1.196c0.108-0.543,0.979-1.196,4.133-1.848
	c0-0.326,0.107-0.652,0.217-0.979s0.218-0.761,0.436-1.196c0,0,0.869-1.958,2.392-3.371c3.153-2.936,8.373-2.393,8.698-2.284
	c-0.435-1.957-1.195-3.262-1.848-4.132c-0.544-0.652-0.979-1.196-0.869-1.522c0.217-0.326,1.631,0.109,3.043,0.653
	c-0.107-1.631-0.651-3.915-1.957-6.307c-2.065-3.588-5.11-5.437-4.676-6.198c0.219-0.326,0.979-0.543,3.59,0.218
	c-0.654-1.087-2.176-3.153-5.002-4.676c-3.589-1.958-7.068-1.631-8.265-1.414c-0.87-1.196-2.283-2.61-4.022-4.023
	c-3.045-2.283-5.981-3.262-7.83-3.697c0.218,0.326,2.502,3.262,1.631,4.567c-0.435,0.543-1.521,0.652-5.002-0.109
	c-2.174-0.435-5.109-1.196-8.373-2.283c4.242,3.479,5.002,4.893,4.785,5.328c-0.108,0.108-0.217,0.217-2.392,0.652
	c-0.762,0.108-1.414,0.217-1.958,0.326c1.196,0.435,2.284,0.87,3.48,1.305c-0.326,0.544-1.196,1.74-2.719,2.175
	c-2.175,0.543-4.785-0.652-6.197-3.262c0.326,0.979,1.412,4.35,4.783,6.089c0.979,0.543,1.957,0.761,2.719,0.87
	c0.544-0.652,1.088-1.305,1.631-1.957c2.393-2.175,5.22-2.284,6.307-1.087C141.813,68.286,141.703,69.699,141.596,70.243z"/>
<path fill="none" stroke="#111111" stroke-width="0.75" stroke-miterlimit="10" d="M131.047,72.526c0.436,0,1.631,0.217,2.828,1.087
	c1.087,0.87,1.413,1.957,1.521,2.284"/>
<path fill="none" stroke="#111111" stroke-width="0.75" stroke-miterlimit="10" d="M137.572,77.637
	c0.543,0.109,1.848,0.326,3.044,1.631c1.088,1.196,1.413,2.61,1.522,3.153"/>
<path fill="#1D1D1B" stroke="#111111" stroke-width="0.75" stroke-miterlimit="10" d="M135.939,84.161
	c1.523-0.435,1.957-2.827,1.523-3.045c-0.544-0.435-3.371,1.958-3.045,2.827C134.527,84.27,135.396,84.378,135.939,84.161z"/>
<path fill="#1D1D1B" stroke="#111111" stroke-width="0.75" stroke-miterlimit="10" d="M129.742,77.637
	c0.435-1.305,2.501-1.631,2.826-1.196c0.328,0.544-1.848,2.936-2.608,2.609C129.634,78.833,129.525,78.071,129.742,77.637z"/>
<path fill="none" stroke="#111111" stroke-width="0.75" stroke-miterlimit="10" d="M140.941,94.491
	c0.436,0.217,0.871,0.435,0.979,0.326c0.219-0.217-0.326-0.652-0.217-1.087c0.218-0.761,2.718-0.979,3.045-0.326
	c0.217,0.544-0.652,1.414-1.197,1.74"/>
<path fill="none" stroke="#111111" stroke-width="0.75" stroke-miterlimit="10" d="M124.741,103.625
	c0.651-1.305,1.522-2.827,2.718-4.35c0.762-0.979,1.414-1.74,2.175-2.393c1.087,0.544,2.827,1.197,5.003,1.197
	c0.543,0,1.086-0.109,1.521-0.109"/>
<path fill="none" stroke="#111111" stroke-width="0.75" stroke-miterlimit="10" d="M124.741,86.988
	c0.761,0.543,1.739,1.087,3.153,1.522c0.979,0.217,1.739,0.435,2.392,0.435"/>
<path fill="none" stroke="#111111" stroke-width="0.75" stroke-miterlimit="10" d="M134.418,78.071
	c-0.87,1.196-1.631,1.957-2.284,2.501c-0.978,0.87-1.522,1.305-2.392,1.522c-1.631,0.435-2.827-0.435-3.153,0.108
	c-0.325,0.435,0.326,1.305,0.435,1.414c0.652,0.87,1.631,1.087,1.849,1.087"/>
<path fill="none" stroke="#111111" stroke-width="0.75" stroke-miterlimit="10" d="M127.242,95.36
	c-0.653-0.217-1.414-0.652-2.176-1.087c-1.088-0.652-1.849-1.414-2.5-2.066"/>
<path fill="none" stroke="#FFFFFF" stroke-width="0.75" stroke-miterlimit="10" d="M93.643,75.244
	c4.458,6.307,7.067,11.526,7.395,13.266c0.217,1.414,0.434,3.044,0.434,3.044c0.109,0.761,0.109,1.522,0.109,1.849
	c0.109,2.284-2.393,5.001-4.458,6.416c-3.915,2.609-8.372,1.849-9.46,1.631"/>
<path fill="none" stroke="#FFFFFF" stroke-width="0.75" stroke-miterlimit="10" d="M56.02,132.982
	c1.414-2.065,3.697-4.676,7.177-5.545c3.262-0.871,4.566,0.761,7.502,0.435c5.11-0.544,5.437-5.979,13.375-13.918
	c5.329-5.328,7.612-5.328,12.178-11.091c2.393-2.936,3.914-5.654,4.893-7.612"/>
<path fill="none" stroke="#FFFFFF" stroke-width="0.75" stroke-miterlimit="10" d="M69.612,149.729
	c5.11-2.828,10.221-5.764,15.223-8.59"/>
<path fill="none" stroke="#111111" stroke-width="0.75" stroke-linecap="round" stroke-linejoin="round" d="M48.867,158.535
	c-0.079-1.303,0.035-2.6,0.501-3.824c0.064-0.169,0.138-0.338,0.225-0.497c0.016-0.028,0.014-0.034,0.053-0.022
	c0.253,0.082,0.513,0.221,0.76,0.312c2.524,0.938,5.17,1.88,7.856,2.181c0.856,0.094,1.698,0.104,2.543,0.267"/>
<path fill="none" stroke="#000000" stroke-width="0.75" stroke-linecap="round" stroke-linejoin="round" d="M36.203,153.914
	c1.625,0,3.21,0.082,4.621-0.814"/>
<path fill="none" stroke="#000000" stroke-width="0.75" stroke-linecap="round" stroke-linejoin="round" d="M11.466,146.439
	c1.043,0.301,2.063,0.603,3.126,0.814"/>
<path fill="none" stroke="#000000" stroke-width="0.75" stroke-linecap="round" stroke-linejoin="round" d="M29.951,102.4
	c-1.473-0.77-2.582-1.746-3.806-2.854"/>
<path fill="none" stroke="#000000" stroke-width="0.75" stroke-linecap="round" stroke-linejoin="round" d="M30.087,102.266
	c-0.019-1.272-0.162-2.539-0.272-3.807"/>
</svg>
